<?xml version="1.0" standalone="no"?>
<!DOCTYPE svg PUBLIC "-//W3C//DTD SVG 1.1//EN" "http://www.w3.org/Graphics/SVG/1.1/DTD/svg11.dtd" >
<svg xmlns="http://www.w3.org/2000/svg" xmlns:xlink="http://www.w3.org/1999/xlink" version="1.1">
<metadata>
Created by FontForge 20201107 at Fri May 24 21:06:22 2024
 By 
Copyright 2016 The Inter Project Authors (https://github.com/rsms/inter)
</metadata>
<defs>
<font id="Inter18pt-LightItalic" horiz-adv-x="0" >
  <font-face 
    font-family="Inter 18pt Light"
    font-weight="300"
    font-style="italic"
    font-stretch="normal"
    units-per-em="2048"
    panose-1="2 0 5 3 0 0 0 2 0 4"
    ascent="1638"
    descent="-410"
    x-height="1104"
    cap-height="1490"
    bbox="-1491 -654 5313 2255"
    underline-thickness="109"
    underline-position="-393"
    slope="-9.3988"
    unicode-range="U+0020-1F852"
  />
<missing-glyph horiz-adv-x="1343" 
d="M856 -416h-688l376 2272h688zM389 -192l-10 -64h320l10 64h-215l236 127l11 65h-320l-11 -64h216zM474 320l-42 -256h320l42 256h-320zM698 128h-192l21 128h192zM538 704l-43 -256h320l43 256h-192l-22 -128h64l11 64h64l-21 -128h-192l32 192h-64zM559 832l-11 -64h320
l37 224h-64l-26 -160h-256zM580 960l-11 -64h192l27 160h128l10 64h-320l-10 -64h128l-16 -96h-128zM756 1248h-64l15 96h64zM654 1408l-37 -224h320l11 64h-128l26 160h-192zM675 1536l-10 -64h320l10 64h-144l16 96h144l11 64h-320l-11 -64h112l-16 -96h-112z" />
    <glyph glyph-name=".notdef" horiz-adv-x="1343" 
d="M856 -416h-688l376 2272h688zM389 -192l-10 -64h320l10 64h-215l236 127l11 65h-320l-11 -64h216zM474 320l-42 -256h320l42 256h-320zM698 128h-192l21 128h192zM538 704l-43 -256h320l43 256h-192l-22 -128h64l11 64h64l-21 -128h-192l32 192h-64zM559 832l-11 -64h320
l37 224h-64l-26 -160h-256zM580 960l-11 -64h192l27 160h128l10 64h-320l-10 -64h128l-16 -96h-128zM756 1248h-64l15 96h64zM654 1408l-37 -224h320l11 64h-128l26 160h-192zM675 1536l-10 -64h320l10 64h-144l16 96h144l11 64h-320l-11 -64h112l-16 -96h-112z" />
    <glyph glyph-name=".null" horiz-adv-x="1022" 
 />
    <glyph glyph-name="nonmarkingreturn" horiz-adv-x="682" 
 />
    <glyph glyph-name="space" unicode=" " horiz-adv-x="557" 
 />
    <glyph glyph-name="exclam" unicode="!" horiz-adv-x="545" 
d="M188 446l165 1044h149l-182 -1044h-132zM187 -12q-46 0 -74.5 33.5t-20.5 81.5q7 41 40.5 69t72.5 28q48 0 75.5 -34t20.5 -80q-6 -41 -39 -69.5t-75 -28.5z" />
    <glyph glyph-name="quotedbl" unicode="&#x22;" horiz-adv-x="871" 
d="M303 972l69 518h143l-101 -518h-111zM597 972l69 518h143l-101 -518h-111z" />
    <glyph glyph-name="numbersign" unicode="#" horiz-adv-x="1278" 
d="M714 0l320 1490h116l-319 -1490h-117zM45 428l25 116h1114l-26 -116h-1113zM190 0l321 1490h115l-319 -1490h-117zM158 945l25 116h1113l-25 -116h-1113z" />
    <glyph glyph-name="dollar" unicode="$" horiz-adv-x="1275" 
d="M463 -208l316 1906h101l-316 -1906h-101zM552 -24q-154 0 -262 51.5t-159.5 145t-38.5 217.5h144q-9 -92 29.5 -156t114 -97.5t179.5 -33.5q112 0 205 37t153.5 104t75.5 155q12 73 -15.5 123t-90.5 85.5t-158 64.5l-167 50q-171 52 -255 143.5t-59 238.5
q19 120 95.5 212t193.5 143.5t257 51.5q141 0 243 -52t152 -143.5t35 -209.5h-137q9 128 -73 203t-231 75q-103 0 -188 -35.5t-140.5 -98t-68.5 -142.5q-12 -74 19.5 -124.5t93.5 -84.5t138 -57l152 -46q74 -22 142 -54.5t118 -79t72.5 -112t8.5 -155.5q-20 -120 -95.5 -215
t-198 -149.5t-284.5 -54.5z" />
    <glyph glyph-name="percent" unicode="%" horiz-adv-x="1869" 
d="M531 843q-88 0 -144.5 40.5t-78.5 110t-8 155.5l9 57q15 86 60.5 155t115.5 109.5t157 40.5q88 0 144 -40.5t78 -110t7 -155.5l-9 -57q-14 -85 -59.5 -154.5t-115 -110t-156.5 -40.5zM548 945q79 0 131 58.5t66 145.5l9 57q15 87 -17 145t-112 58q-78 0 -131 -58
t-68 -146l-9 -57q-14 -86 18.5 -144.5t112.5 -58.5zM1292 -24q-87 0 -144 41t-79 110.5t-8 154.5l10 57q15 86 60.5 155.5t115.5 110t156 40.5q88 0 144 -40.5t78.5 -110t7.5 -155.5l-10 -57q-13 -86 -58.5 -155t-115 -110t-157.5 -41zM1309 79q79 0 131 58t66 145l10 57
q14 88 -18 146t-111 58t-131.5 -58.5t-67.5 -145.5l-10 -57q-14 -87 18.5 -145t112.5 -58zM262 0l1270 1490h132l-1270 -1490h-132z" />
    <glyph glyph-name="ampersand" unicode="&#x26;" horiz-adv-x="1345" 
d="M474 -20q-139 0 -235 54.5t-138.5 148.5t-23.5 210q14 83 57.5 148t118 126t180.5 131l250 165q46 30 87.5 65.5t70.5 79t38 96.5q14 81 -31.5 132.5t-132.5 51.5q-64 0 -119 -28t-92 -77t-48 -113q-9 -52 6 -100t49 -103.5t83 -131.5l545 -835h-159l-472 730
q-63 99 -109.5 171.5t-67 140t-7.5 147.5q16 93 70.5 164.5t138 112t183.5 40.5q105 0 176 -42.5t103 -115t16 -163.5q-10 -64 -43 -120.5t-85.5 -106t-123.5 -96.5l-305 -202q-118 -78 -174 -143.5t-69 -145.5q-13 -77 16.5 -139t92.5 -97.5t151 -35.5q97 0 188.5 39
t169 110t133.5 167.5t80 211.5l129 -3q-21 -114 -61 -198.5t-86.5 -143.5t-87.5 -98l-36 -35q-81 -78 -195 -123.5t-231 -45.5z" />
    <glyph glyph-name="quotesingle" unicode="'" horiz-adv-x="577" 
d="M303 972l69 518h143l-101 -518h-111z" />
    <glyph glyph-name="parenleft" unicode="(" horiz-adv-x="684" 
d="M220 613q27 162 85 334t139.5 333.5t175.5 291.5h132q-101 -154 -181.5 -318.5t-135 -327.5t-79.5 -313q-24 -141 -22 -285t29.5 -296.5t80.5 -319.5h-132q-83 219 -106.5 448t14.5 453z" />
    <glyph glyph-name="parenright" unicode=")" horiz-adv-x="684" 
d="M-39 -289q108 166 186 318t128 296.5t73 286.5q25 151 24 313.5t-26.5 327t-75.5 319.5h132q51 -131 78.5 -292.5t29 -333.5t-25.5 -334q-38 -225 -136.5 -454t-253.5 -447h-133z" />
    <glyph glyph-name="asterisk" unicode="*" horiz-adv-x="1006" 
d="M463 652l66 338l-316 -178l-41 98l323 161l-270 160l70 98l260 -178l47 339h112l-64 -338l314 177l43 -98l-325 -162l272 -159l-70 -98l-260 178l-50 -338h-111z" />
    <glyph glyph-name="plus" unicode="+" horiz-adv-x="1319" 
d="M524 120l153 925h127l-153 -925h-127zM192 518l21 129h924l-21 -129h-924z" />
    <glyph glyph-name="comma" unicode="," horiz-adv-x="545" 
d="M-19 -325l177 515h150l-223 -515h-104z" />
    <glyph glyph-name="hyphen" unicode="-" horiz-adv-x="910" 
d="M789 693l-21 -125h-621l21 125h621z" />
    <glyph glyph-name="period" unicode="." horiz-adv-x="545" 
d="M187 -12q-46 0 -74.5 33.5t-20.5 81.5q7 41 40.5 69t72.5 28q48 0 75.5 -34t20.5 -80q-6 -41 -39 -69.5t-75 -28.5z" />
    <glyph glyph-name="slash" unicode="/" horiz-adv-x="693" 
d="M816 1560l-774 -1784h-126l774 1784h126z" />
    <glyph glyph-name="zero" unicode="0" horiz-adv-x="1253" 
d="M533 -20q-159 0 -257.5 91.5t-131 263t6.5 409.5q40 239 129.5 410.5t218.5 263.5t287 92q157 0 255.5 -91.5t131.5 -263t-7 -409.5q-39 -240 -128 -411.5t-218 -263t-287 -91.5zM552 105q117 0 213 77t164.5 220.5t101.5 343.5q33 199 12.5 342.5t-90.5 220.5t-187 77
q-116 0 -212 -76t-165 -220t-103 -347q-33 -199 -12 -342t91.5 -219.5t186.5 -76.5z" />
    <glyph glyph-name="one" unicode="1" horiz-adv-x="784" 
d="M751 1490l-247 -1490h-137l224 1355h-7l-391 -253l25 152l366 236h167z" />
    <glyph glyph-name="two" unicode="2" horiz-adv-x="1229" 
d="M56 0l18 107l586 535q112 103 183.5 178t109.5 140t49 137q15 88 -11.5 152.5t-87.5 100.5t-151 36q-93 0 -172 -40t-132.5 -110t-69.5 -163h-134q21 128 94 226.5t181.5 155t238.5 56.5t221.5 -55t134 -148.5t22.5 -211.5q-11 -63 -36.5 -122t-72 -121.5t-121 -138.5
t-181.5 -174l-447 -406l-2 -8h738l-20 -126h-938z" />
    <glyph glyph-name="three" unicode="3" horiz-adv-x="1235" 
d="M536 -21q-140 0 -243 52t-153.5 144.5t-32.5 212.5h142q-11 -85 23 -149t105.5 -99t168.5 -35q104 0 190.5 38t144 104.5t71.5 151.5q15 91 -20.5 159t-115 106t-198.5 38h-88l21 126h88q97 0 178 34.5t135 97.5t68 149q14 82 -12.5 144.5t-88 97.5t-153.5 35
q-89 0 -168 -34t-133 -96.5t-70 -148.5h-136q22 120 97.5 210.5t186 142t238.5 51.5q132 0 223 -53.5t132 -143t23 -197.5q-21 -127 -107 -218.5t-214 -126.5l-2 -8q96 -18 158 -69t87 -127.5t9 -169.5q-20 -120 -98.5 -214.5t-196.5 -149.5t-259 -55z" />
    <glyph glyph-name="four" unicode="4" horiz-adv-x="1278" 
d="M78 332l19 114l850 1044h87l-30 -182h-60l-686 -842l-1 -8h892l-20 -126h-1051zM734 0l60 367l10 53l177 1070h135l-247 -1490h-135z" />
    <glyph glyph-name="five" unicode="5" horiz-adv-x="1173" 
d="M481 -20q-128 0 -221 52.5t-138 143.5t-29 207h138q-14 -120 56.5 -198.5t203.5 -78.5q101 0 188.5 47t147.5 130.5t77 189.5q18 110 -12.5 192.5t-100 129t-166.5 46.5q-86 0 -171 -31.5t-139 -84.5l-136 14l205 751h764l-21 -126h-643l-140 -506h6q60 49 139 78.5
t167 29.5q132 0 227.5 -63t139 -174t18.5 -257q-23 -142 -103 -253t-198.5 -175t-258.5 -64z" />
    <glyph glyph-name="six" unicode="6" horiz-adv-x="1212" 
d="M534 -20q-99 0 -184.5 39t-143.5 122.5t-77.5 217.5t11.5 324q30 180 85 331.5t136 262.5t187 172t237 61q121 0 209 -49t134.5 -137.5t41.5 -204.5h-138q-1 118 -63 191.5t-185 73.5q-124 0 -225 -77t-172 -222.5t-105 -352.5l8 1q46 68 109 117t138 75.5t155 26.5
q127 0 222.5 -62.5t142 -172t23.5 -249.5q-23 -135 -98.5 -246t-190.5 -176.5t-257 -65.5zM535 105q97 0 184 49t147 131.5t77 182.5t-12.5 182t-96.5 130t-164 48q-75 0 -145.5 -29.5t-127 -81t-92.5 -118t-43 -140.5q-8 -102 23 -182.5t95 -126t155 -45.5z" />
    <glyph glyph-name="seven" unicode="7" horiz-adv-x="1127" 
d="M105 0l904 1356l1 8h-779l21 126h935l-23 -133l-903 -1357h-156z" />
    <glyph glyph-name="eight" unicode="8" horiz-adv-x="1227" 
d="M524 -20q-142 0 -247 53.5t-154.5 147t-30.5 212.5q16 93 68.5 173t129.5 135t165 72l1 6q-106 31 -158 126t-33 215q19 112 90 200.5t178.5 139t232.5 50.5q124 0 217 -51t138 -139t27 -200q-13 -80 -56 -150.5t-106.5 -120.5t-142.5 -71l-1 -6q83 -17 142 -72
t86.5 -135t10.5 -174q-20 -118 -98.5 -211t-197 -146.5t-261.5 -53.5zM531 104q104 0 192.5 38t146.5 104.5t73 153.5q14 89 -19 158.5t-104.5 110t-173.5 40.5q-100 0 -189 -40t-149.5 -109.5t-75.5 -159.5q-15 -85 16.5 -152t104 -105.5t178.5 -38.5zM651 828
q88 0 164.5 37t129 101.5t65.5 145.5t-14.5 143t-88.5 97t-149 35q-87 0 -163.5 -35t-128.5 -97t-66 -144q-14 -81 13.5 -145t89 -101t148.5 -37z" />
    <glyph glyph-name="nine" unicode="9" horiz-adv-x="1213" 
d="M495 -20q-121 0 -211 49.5t-137 138.5t-42 206h139q1 -118 64 -193t188 -75q123 0 223.5 76.5t171 222.5t104.5 354h-8q-45 -66 -108.5 -115.5t-138.5 -76.5t-156 -27q-128 0 -223.5 63t-141 172.5t-22.5 249.5q23 132 96.5 243t189 177.5t260.5 64.5q99 0 184 -39.5
t143 -123t78 -217t-12 -322.5q-30 -180 -84.5 -331t-134 -263t-185 -173t-237.5 -61zM614 665q73 0 142 29t125 80t91.5 117.5t42.5 140.5q9 102 -23.5 181.5t-99 125.5t-159.5 46q-95 0 -180 -48.5t-143.5 -130.5t-75.5 -183q-16 -99 14.5 -180.5t99.5 -129.5t166 -48z" />
    <glyph glyph-name="colon" unicode=":" horiz-adv-x="546" 
d="M188 -12q-46 0 -74.5 33.5t-20.5 81.5q7 41 40.5 69t72.5 28q48 0 75.5 -34t20.5 -80q-6 -41 -39 -69.5t-75 -28.5zM328 841q-46 0 -74.5 33.5t-20.5 81.5q7 41 40.5 69t72.5 28q48 0 75.5 -34t20.5 -80q-6 -41 -39 -69.5t-75 -28.5z" />
    <glyph glyph-name="semicolon" unicode=";" horiz-adv-x="562" 
d="M-19 -325l177 515h150l-223 -515h-104zM345 841q-46 0 -74.5 33.5t-20.5 81.5q7 41 40.5 69t72.5 28q48 0 75.5 -34t20.5 -80q-6 -41 -39 -69.5t-75 -28.5z" />
    <glyph glyph-name="less" unicode="&#x3c;" horiz-adv-x="1319" 
d="M177 533l17 99l973 489l-23 -147l-794 -391l7 13l-3 -27l-6 12l666 -391l-24 -147z" />
    <glyph glyph-name="equal" unicode="=" horiz-adv-x="1319" 
d="M274 729l21 125h832l-21 -125h-832zM204 311l21 125h832l-21 -125h-832z" />
    <glyph glyph-name="greater" unicode="&#x3e;" horiz-adv-x="1319" 
d="M1135 533l-974 -490l25 147l792 391l-6 -12l3 27l5 -13l-663 391l22 147l813 -489z" />
    <glyph glyph-name="question" unicode="?" horiz-adv-x="1024" 
d="M382 444l8 52q20 109 55 174t90 109t134 90q92 56 145.5 119.5t66.5 144.5q13 78 -14 135t-84.5 89t-136.5 32q-77 0 -146.5 -33t-118.5 -96t-67 -154h-141q24 124 92 214.5t168.5 140.5t219.5 50q123 0 211 -49.5t129.5 -136t23.5 -197.5q-19 -110 -83.5 -192.5
t-182.5 -152.5q-74 -43 -118.5 -81t-69 -85.5t-37.5 -123.5l-9 -49h-135zM376 -12q-44 0 -70.5 31t-18.5 74q7 45 43 76t80 31q45 0 70.5 -31t18.5 -76q-8 -43 -43.5 -74t-79.5 -31z" />
    <glyph glyph-name="at" unicode="@" horiz-adv-x="1983" 
d="M874 -396q-206 0 -362.5 65.5t-257 187t-137 290.5t-2.5 377q34 204 124.5 372t227 290t310 188t374.5 66q195 0 342 -68t240.5 -186.5t128.5 -271.5t7 -326q-18 -106 -51.5 -204.5t-86 -176t-127.5 -123t-176 -45.5q-73 0 -119.5 23t-66.5 66t-15 102h-6
q-47 -80 -134 -136.5t-204 -56.5q-127 0 -209 65.5t-114 177t-9 248.5q22 136 93.5 244t175.5 170.5t222 62.5q105 0 173 -46.5t92 -109.5h7l22 135h122l-112 -672q-13 -77 7 -119.5t86 -42.5q79 0 139.5 50t102.5 147.5t66 239.5q25 152 -2.5 285.5t-104.5 236t-202 160.5
t-296 58t-321.5 -57.5t-270 -164t-199 -255.5t-109.5 -330q-30 -182 -1.5 -329.5t111.5 -253t216 -162.5t311 -57q82 0 164 15.5t152.5 38t118.5 45.5l21 -107q-57 -28 -132.5 -52t-159.5 -39t-169 -15zM899 154q98 0 173.5 45.5t125 131t68.5 202.5q20 118 -1 197
t-79.5 119t-151.5 40q-88 0 -164.5 -47t-128.5 -127.5t-68 -181.5q-17 -106 1.5 -192t75 -136.5t149.5 -50.5z" />
    <glyph glyph-name="A" unicode="A" horiz-adv-x="1361" 
d="M-43 0l795 1490h165l304 -1490h-143l-192 976q-14 77 -33 187t-40 262h32q-70 -148 -123.5 -257.5t-97.5 -191.5l-512 -976h-155zM286 443l21 125h751l-20 -125h-752z" />
    <glyph glyph-name="B" unicode="B" horiz-adv-x="1320" 
d="M96 0l247 1490h504q145 0 236.5 -51t129 -140.5t18.5 -204.5q-14 -89 -56.5 -154t-104.5 -107.5t-136 -62.5v-6q73 -7 134 -53.5t92 -128t12 -193.5q-18 -115 -84 -202.5t-178.5 -137t-273.5 -49.5h-540zM258 126h388q173 0 272.5 79.5t119.5 201.5q14 84 -17 149
t-99 102.5t-167 37.5h-403zM372 817h377q88 0 161.5 37.5t122.5 102.5t63 148q19 117 -46 188t-216 71h-371z" />
    <glyph glyph-name="C" unicode="C" horiz-adv-x="1478" 
d="M685 -21q-167 0 -290 73t-189.5 207t-66.5 317q0 175 54.5 342t157 301t247 213t324.5 79q121 0 217 -37.5t163.5 -104.5t103 -156t36.5 -193h-141q-3 77 -30.5 142.5t-77 114t-119 75.5t-157.5 27q-146 0 -264.5 -67.5t-202.5 -182.5t-129 -257.5t-45 -292.5
q0 -151 53 -256t146.5 -158.5t215.5 -53.5q90 0 171.5 27t149.5 76t118.5 114t79.5 142h142q-35 -103 -98.5 -192t-151 -156t-193 -105t-224.5 -38z" />
    <glyph glyph-name="D" unicode="D" horiz-adv-x="1452" 
d="M557 0h-383l20 126h352q191 0 332 75t229.5 215t119.5 333q32 192 -6 330t-146 211.5t-288 73.5h-393l21 126h379q214 0 354.5 -89t197.5 -255.5t19 -397.5q-39 -236 -145 -403t-273 -256t-390 -89zM484 1490l-247 -1490h-141l247 1490h141z" />
    <glyph glyph-name="E" unicode="E" horiz-adv-x="1209" 
d="M96 0l247 1490h887l-21 -126h-746l-90 -548h695l-21 -126h-696l-93 -564h756l-20 -126h-898z" />
    <glyph glyph-name="F" unicode="F" horiz-adv-x="1186" 
d="M96 0l247 1490h877l-21 -126h-736l-94 -561h667l-20 -126h-667l-112 -677h-141z" />
    <glyph glyph-name="G" unicode="G" horiz-adv-x="1508" 
d="M689 -21q-171 0 -294 73t-189.5 206.5t-66.5 315.5q0 175 54 342t155.5 301.5t245.5 214t324 79.5q124 0 221.5 -39t165 -107t103 -156.5t37.5 -187.5h-144q-6 74 -33.5 138.5t-76 114t-118 77.5t-160.5 28q-148 0 -265.5 -69t-200.5 -184.5t-127 -257.5t-44 -288
q0 -221 113 -345t305 -124q140 0 256.5 62t195 174.5t103.5 264.5l42 -14h-475l21 125h568l-21 -128q-23 -140 -85 -253t-154.5 -194.5t-208.5 -125t-247 -43.5z" />
    <glyph glyph-name="H" unicode="H" horiz-adv-x="1497" 
d="M96 0l247 1490h141l-110 -665h839l110 665h141l-247 -1490h-141l116 699h-839l-116 -699h-141z" />
    <glyph glyph-name="I" unicode="I" horiz-adv-x="516" 
d="M484 1490l-247 -1490h-141l247 1490h141z" />
    <glyph glyph-name="J" unicode="J" horiz-adv-x="1142" 
d="M454 -20q-169 0 -270.5 90t-101.5 254q0 15 1.5 33t6 49.5t12.5 85.5h141q-8 -51 -12.5 -80t-5.5 -44t-1 -27q0 -113 63.5 -174t176.5 -61q130 0 221.5 80t116.5 230l178 1074h141l-178 -1074q-34 -206 -165.5 -321t-323.5 -115z" />
    <glyph glyph-name="K" unicode="K" horiz-adv-x="1306" 
d="M272 463l14 156q66 66 128.5 127.5t126 121.5t129.5 121l547 501h192l-741 -675l-11 -3zM96 0l247 1490h141l-86 -518l-58 -336l-10 -72l-93 -564h-141zM1007 0l-427 782l95 106l487 -888h-155z" />
    <glyph glyph-name="L" unicode="L" horiz-adv-x="1139" 
d="M96 0l247 1490h141l-226 -1364h714l-21 -126h-855z" />
    <glyph glyph-name="M" unicode="M" horiz-adv-x="1821" 
d="M96 0l247 1490h197l248 -1026q8 -34 17 -78.5t18 -94t17 -97.5t15 -88l-36 2q21 42 45.5 90.5t49.5 97.5t48.5 92.5t41.5 77.5l585 1024h199l-247 -1490h-138l156 949q8 46 17.5 100t20 110.5t20.5 112.5t19 107l17 -2q-31 -61 -62.5 -121.5t-61 -117t-56.5 -105.5
t-48 -86l-545 -947h-123l-234 949q-11 48 -25.5 116.5t-30.5 149t-33 164.5l19 -2q-7 -53 -15.5 -109.5l-17 -113t-16.5 -109.5t-16 -98l-156 -947h-136z" />
    <glyph glyph-name="N" unicode="N" horiz-adv-x="1533" 
d="M96 0l247 1490h156l512 -1015q20 -37 45 -91.5t53 -119.5t55 -137l-19 -5q7 70 15.5 138t17.5 129t17 108l165 993h140l-247 -1490h-156l-479 944q-25 50 -52.5 108.5t-60.5 133t-76 174.5l22 7q-13 -97 -23 -176.5t-18.5 -140.5t-16.5 -105l-156 -945h-141z" />
    <glyph glyph-name="O" unicode="O" horiz-adv-x="1540" 
d="M684 -21q-167 0 -289 73t-189 207.5t-67 316.5q0 176 54.5 342.5t157.5 300t247 213t323 79.5q166 0 288 -73.5t188.5 -207t66.5 -316.5q0 -176 -54.5 -343t-157 -300.5t-246 -212.5t-322.5 -79zM689 111q148 0 266 68.5t201 184t127 257.5t44 289q0 149 -51.5 254
t-144 160t-215.5 55q-149 0 -267 -68.5t-201.5 -184t-127.5 -257.5t-44 -289q0 -149 51.5 -253.5t145 -160t216.5 -55.5z" />
    <glyph glyph-name="P" unicode="P" horiz-adv-x="1269" 
d="M96 0l247 1490h492q155 0 252.5 -59.5t136.5 -163t17 -234.5q-21 -132 -94 -235.5t-190.5 -163.5t-272.5 -60h-393l21 126h388q115 0 199 43t135.5 118.5t66.5 171.5q16 97 -10.5 171.5t-96.5 117t-185 42.5h-346l-226 -1364h-141z" />
    <glyph glyph-name="Q" unicode="Q" horiz-adv-x="1540" 
d="M758 466h139l149 -252l24 -43l183 -311h-139l-133 229l-25 41zM684 -21q-167 0 -289 73t-189 207.5t-67 316.5q0 176 54.5 342.5t157.5 300t247 213t323 79.5q166 0 288 -73.5t188.5 -207t66.5 -316.5q0 -176 -54.5 -343t-157 -300.5t-246 -212.5t-322.5 -79zM689 111
q148 0 266 68.5t201 184t127 257.5t44 289q0 149 -51.5 254t-144 160t-215.5 55q-149 0 -267 -68.5t-201.5 -184t-127.5 -257.5t-44 -289q0 -149 51.5 -253.5t145 -160t216.5 -55.5z" />
    <glyph glyph-name="R" unicode="R" horiz-adv-x="1290" 
d="M96 0l247 1490h495q156 0 254 -57t136.5 -158t16.5 -232q-22 -132 -94 -231.5t-189 -155.5t-272 -56h-417l21 127h411q114 0 198 39t135.5 110.5t67.5 167.5q25 149 -49.5 234.5t-241.5 85.5h-352l-226 -1364h-141zM966 0l-250 673h154l254 -673h-158z" />
    <glyph glyph-name="S" unicode="S" horiz-adv-x="1275" 
d="M552 -24q-154 0 -262 51.5t-159.5 145t-38.5 217.5h144q-9 -92 29.5 -156t114 -97.5t179.5 -33.5q112 0 205 37t153.5 104t75.5 155q12 73 -15.5 123t-90.5 85.5t-158 64.5l-167 50q-171 52 -255 143.5t-59 238.5q19 120 95.5 212t193.5 143.5t257 51.5q141 0 243 -52
t152 -143.5t35 -209.5h-137q9 128 -73 203t-231 75q-103 0 -188 -35.5t-140.5 -98t-68.5 -142.5q-12 -74 19.5 -124.5t93.5 -84.5t138 -57l152 -46q74 -22 142 -54.5t118 -79t72.5 -112t8.5 -155.5q-20 -120 -95.5 -215t-198 -149.5t-284.5 -54.5z" />
    <glyph glyph-name="T" unicode="T" horiz-adv-x="1289" 
d="M231 1364l21 126h1096l-21 -126h-477l-226 -1364h-140l225 1364h-478z" />
    <glyph glyph-name="U" unicode="U" horiz-adv-x="1485" 
d="M656 -23q-170 0 -288.5 70t-171 191t-27.5 273l162 979h141l-162 -979q-19 -118 18 -209t122.5 -142t210.5 -51q130 0 236 53.5t176 147t90 211.5l160 969h141l-163 -988q-25 -153 -115.5 -271.5t-227 -186t-302.5 -67.5z" />
    <glyph glyph-name="V" unicode="V" horiz-adv-x="1361" 
d="M508 0l-304 1490h145l194 -976q16 -84 34 -191.5t40 -257.5h-32q69 149 123.5 259t96.5 190l511 976h151l-794 -1490h-165z" />
    <glyph glyph-name="W" unicode="W" horiz-adv-x="1962" 
d="M368 0l-164 1490h142l101 -991q7 -67 12 -135.5t9.5 -138t7.5 -141.5h-20q27 72 54 141.5t55.5 138t56.5 135.5l430 991h166l99 -991q7 -67 12.5 -135.5t10 -138t7.5 -141.5h-21q27 72 54.5 141.5t55.5 138t57 135.5l429 991h146l-660 -1490h-169l-105 1000
q-10 93 -16.5 194t-9.5 221h30q-42 -116 -81 -216.5t-82 -198.5l-437 -1000h-170z" />
    <glyph glyph-name="X" unicode="X" horiz-adv-x="1337" 
d="M-39 0l706 812l-17 -103l-415 781h157l194 -367q29 -56 52 -101.5t43 -90.5t42 -100h-29q40 55 75.5 100t74 90.5t86.5 101.5l321 367h166l-675 -777l18 104l434 -817h-157l-223 418q-27 53 -49 95.5t-41.5 86t-40.5 95.5h33q-38 -52 -72 -95.5t-70.5 -86t-81.5 -95.5
l-364 -418h-167z" />
    <glyph glyph-name="Y" unicode="Y" horiz-adv-x="1346" 
d="M511 0l107 643l-414 847h153l236 -487q36 -74 66 -144t58 -160h-57q57 91 110.5 161.5t111.5 142.5l397 487h174l-695 -847l-106 -643h-141z" />
    <glyph glyph-name="Z" unicode="Z" horiz-adv-x="1253" 
d="M37 0l18 104l1032 1260h-827l21 126h999l-18 -106l-1032 -1258h830l-21 -126h-1002z" />
    <glyph glyph-name="bracketleft" unicode="[" horiz-adv-x="684" 
d="M83 -283l308 1861h339l-19 -116h-209l-270 -1628h209l-19 -117h-339z" />
    <glyph glyph-name="backslash" unicode="\" horiz-adv-x="690" 
d="M396 -224l-186 1784h123l184 -1784h-121z" />
    <glyph glyph-name="bracketright" unicode="]" horiz-adv-x="684" 
d="M-14 -283l19 117h209l270 1627h-210l20 117h339l-308 -1861h-339z" />
    <glyph glyph-name="asciicircum" unicode="^" horiz-adv-x="897" 
d="M568 1378h44l-10 -65h-44zM121 814l401 629h146l196 -629h-132l-158 528h19l-333 -528h-139z" />
    <glyph glyph-name="underscore" unicode="_" horiz-adv-x="917" 
d="M825 0l-20 -125h-917l21 125h916z" />
    <glyph glyph-name="grave" unicode="`" horiz-adv-x="596" 
d="M444 1253l-133 290h153l93 -290h-113z" />
    <glyph glyph-name="a" unicode="a" horiz-adv-x="1215" 
d="M468 -23q-137 0 -228.5 72t-128 201.5t-8.5 299.5q29 171 108.5 299t195 199.5t251.5 71.5q97 0 159.5 -34t98 -86t50.5 -107h10l34 211h134l-183 -1104h-130l33 207h-13q-34 -56 -87 -109t-126.5 -87t-169.5 -34zM507 99q107 0 192.5 58t143 160t78.5 234
q23 133 -0.5 233.5t-90 157t-173.5 56.5q-109 0 -195.5 -58t-144 -158.5t-78.5 -230.5q-22 -130 2 -232.5t91 -161t175 -58.5z" />
    <glyph glyph-name="b" unicode="b" horiz-adv-x="1214" 
d="M564 -23q-97 0 -161.5 34t-102 87t-53.5 110h-11l-36 -208h-130l247 1490h134l-99 -597h9q34 57 85 108.5t123 85t167 33.5q119 0 205 -54.5t132.5 -153t46.5 -232.5q0 -127 -38 -252t-109.5 -227t-174.5 -163t-234 -61zM549 99q104 0 185 51.5t137.5 136.5t85.5 187
t29 203q0 145 -69 233t-202 88q-105 0 -186 -50.5t-136.5 -135t-84 -186.5t-28.5 -205q0 -146 69 -234t200 -88z" />
    <glyph glyph-name="c" unicode="c" horiz-adv-x="1125" 
d="M508 -21q-129 0 -222.5 57.5t-143.5 161t-48 240.5q1 129 43.5 251t119.5 219.5t184 154.5t239 57q87 0 156 -25.5t118 -69.5t77.5 -98t34.5 -112l-131 -25q-3 36 -21 73t-49.5 67.5t-77.5 49.5t-110 19q-104 0 -186.5 -49t-141 -130.5t-89.5 -181.5t-32 -201
q-2 -98 29 -174.5t94.5 -119.5t159.5 -43q66 0 122.5 20t101 53t76 71.5t48.5 76.5l125 -37q-25 -58 -70.5 -112.5t-107.5 -98t-137.5 -69t-160.5 -25.5z" />
    <glyph glyph-name="d" unicode="d" horiz-adv-x="1214" 
d="M476 -23q-179 0 -281.5 120t-102.5 321q0 128 38.5 253t110.5 226.5t175 162t233 60.5q99 0 163.5 -34.5t101 -87.5t51.5 -109h8l99 601h135l-247 -1490h-131l35 206h-11q-34 -57 -86.5 -110t-124.5 -86t-166 -33zM497 99q105 0 186 51.5t136.5 136.5t84.5 188t29 204
q0 145 -69 232t-201 87q-104 0 -185 -50.5t-137 -134.5t-85 -185.5t-29 -203.5q0 -145 69 -235t201 -90z" />
    <glyph glyph-name="e" unicode="e" horiz-adv-x="1138" 
d="M514 -21q-128 0 -222.5 52.5t-146 152t-51.5 237.5q0 148 45 276.5t127 224.5t191.5 150t237.5 54q106 0 183 -36t118.5 -102t41.5 -157q0 -101 -53.5 -166.5t-159.5 -103.5t-265 -53.5t-370 -15.5l16 108q184 0 316 9t216.5 34t125 70.5t40.5 118.5q0 80 -58 126
t-163 46q-114 0 -200 -51t-143.5 -136.5t-87 -188.5t-29.5 -208q0 -92 32 -164.5t98 -114.5t168 -42q113 0 204.5 52t141.5 137l125 -32q-65 -125 -192.5 -201t-285.5 -76z" />
    <glyph glyph-name="f" unicode="f" horiz-adv-x="679" 
d="M711 1104l-18 -112h-605l19 112h604zM-86 -446q-19 0 -35.5 1.5t-32 4t-33.5 7.5l33 121q17 -4 41 -6.5t42 -2.5q76 0 124 42t62 129l230 1387q16 98 63.5 166t119.5 104t164 36q32 0 61 -4t58 -10l-36 -116q-18 4 -45.5 5.5t-54.5 1.5q-79 0 -129.5 -46t-66.5 -140
l-229 -1384q-16 -95 -60.5 -161.5t-114.5 -100.5t-161 -34z" />
    <glyph glyph-name="g" unicode="g" horiz-adv-x="1214" 
d="M435 -439q-119 0 -203.5 32t-134.5 88.5t-67 128.5l121 48q14 -47 46.5 -88t91 -65.5t149.5 -24.5q153 0 257.5 78t129.5 230l39 235l-10 -2q-34 -56 -86 -105.5t-123.5 -80t-164.5 -30.5q-117 0 -204 51t-134.5 146t-47.5 227q0 126 38 248.5t110.5 222.5t175.5 160
t232 60q74 0 128.5 -20t92 -54t60.5 -74.5t34 -82.5l13 3l35 212h131l-188 -1130q-24 -143 -97.5 -234.5t-183 -135t-240.5 -43.5zM502 126q107 0 187.5 48.5t135 129t81.5 179t27 199.5q0 143 -68.5 229.5t-200.5 86.5q-103 0 -183.5 -49t-137 -131t-86 -182t-29.5 -201
q0 -143 70.5 -226t203.5 -83z" />
    <glyph glyph-name="h" unicode="h" horiz-adv-x="1183" 
d="M317 684l-113 -684h-134l247 1490h134l-107 -644h-28q47 97 110 157.5t138 88.5t159 28q112 0 193 -47.5t117.5 -138t13.5 -223.5l-117 -711h-135l117 701q23 139 -41.5 217.5t-192.5 78.5q-88 0 -164 -37t-128 -107t-69 -169z" />
    <glyph glyph-name="i" unicode="i" horiz-adv-x="459" 
d="M71 0l183 1104h134l-183 -1104h-134zM355 1316q-39 0 -63.5 28t-17.5 67q6 39 39.5 66.5t73.5 27.5q41 0 65 -27.5t17 -66.5q-6 -39 -39.5 -67t-74.5 -28z" />
    <glyph glyph-name="j" unicode="j" horiz-adv-x="460" 
d="M255 1104h134l-202 -1221q-15 -93 -62 -160.5t-119 -104t-165 -36.5h-36l20 124h32q77 0 130 46.5t67 133.5zM357 1316q-39 0 -63.5 28t-17.5 67q6 39 39.5 66.5t73.5 27.5q41 0 65 -27.5t17 -66.5q-6 -39 -39.5 -67t-74.5 -28z" />
    <glyph glyph-name="k" unicode="k" horiz-adv-x="1059" 
d="M261 415l29 172h25l599 517h171l-594 -512l-15 -2zM70 0l247 1490h134l-247 -1490h-134zM763 0l-356 566l111 93l416 -659h-171z" />
    <glyph glyph-name="l" unicode="l" horiz-adv-x="458" 
d="M451 1490l-247 -1490h-134l247 1490h134z" />
    <glyph glyph-name="m" unicode="m" horiz-adv-x="1767" 
d="M70 0l184 1104h130l-40 -248l-16 4q38 91 98.5 149t131 86t141.5 28q85 0 144.5 -36t91 -98.5t33.5 -143.5l-23 10q34 83 94.5 143t139 92.5t164.5 32.5q102 0 175 -44.5t105.5 -131t11.5 -213.5l-122 -734h-134l123 741q16 91 -7 148t-73 83.5t-117 26.5
q-84 0 -153 -35.5t-114.5 -98.5t-59.5 -146l-119 -719h-134l124 753q20 117 -35 181.5t-158 64.5q-77 0 -148 -35.5t-121.5 -102.5t-66.5 -160l-116 -701h-134z" />
    <glyph glyph-name="n" unicode="n" horiz-adv-x="1183" 
d="M317 680l-113 -680h-134l184 1104h129l-42 -258l-25 4q70 142 176.5 206t231.5 64q115 0 195 -48.5t115 -140.5t13 -224l-117 -707h-134l117 705q23 139 -38.5 215.5t-187.5 76.5q-89 0 -167 -38t-132 -109t-71 -170z" />
    <glyph glyph-name="o" unicode="o" horiz-adv-x="1189" 
d="M508 -23q-128 0 -221 56.5t-143.5 158.5t-50.5 237q0 130 41.5 253.5t119 222t185.5 157t241 58.5q128 0 221 -56.5t143.5 -158t50.5 -237.5q0 -131 -41.5 -254.5t-119.5 -222.5t-186 -156.5t-240 -57.5zM511 98q105 0 188.5 50.5t142 133.5t89 183.5t30.5 200.5
q0 97 -32 172t-95 118t-157 43q-104 0 -187 -49.5t-141.5 -132.5t-90 -184t-31.5 -204q0 -144 71.5 -237.5t212.5 -93.5z" />
    <glyph glyph-name="p" unicode="p" horiz-adv-x="1214" 
d="M1 -418l253 1522h130l-35 -211h6q32 58 85 109.5t127 84.5t169 33q119 0 205 -54.5t132.5 -153t46.5 -232.5q0 -127 -38 -252t-109.5 -227t-174.5 -163t-234 -61q-98 0 -162 35t-100.5 89t-51.5 110h-11l-104 -629h-134zM549 99q104 0 185 51.5t137.5 136.5t85.5 187
t29 203q0 145 -69 233t-202 88q-105 0 -186 -50.5t-136.5 -135t-84 -186.5t-28.5 -205q0 -146 69 -234t200 -88z" />
    <glyph glyph-name="q" unicode="q" horiz-adv-x="1214" 
d="M891 -418h-134l103 623h-10q-34 -58 -86 -110.5t-123.5 -85t-164.5 -32.5q-119 0 -205 54.5t-132.5 153.5t-46.5 233q0 129 38.5 253.5t110.5 226t175 162t233 60.5q99 0 164 -35t102.5 -88.5t53.5 -109.5h7l37 217h130zM497 99q105 0 186 51.5t136.5 137t84.5 188
t29 203.5q0 145 -68.5 232t-201.5 87q-104 0 -185 -50.5t-136.5 -134.5t-85 -185.5t-29.5 -203.5q0 -146 69 -235.5t201 -89.5z" />
    <glyph glyph-name="r" unicode="r" horiz-adv-x="711" 
d="M71 0l183 1104h129l-28 -174h8q47 85 136.5 137t194.5 52q17 0 34.5 -1t30.5 -1l-22 -135q-9 2 -31 4.5t-47 2.5q-83 0 -155 -36t-120 -100t-63 -149l-116 -704h-134z" />
    <glyph glyph-name="s" unicode="s" horiz-adv-x="1034" 
d="M429 -23q-107 0 -186.5 32t-125.5 94t-53 150q-1 9 -1 14v14l131 16q3 -102 64.5 -151.5t172.5 -49.5q87 0 158 29t114.5 79.5t48.5 114.5q4 57 -33.5 94.5t-117.5 57.5l-174 43q-131 33 -192.5 103t-51.5 176q8 97 68.5 171t155.5 115t208 41q151 0 235 -67t103 -181
q2 -9 3 -17t1 -18l-125 -18q-8 84 -59.5 134.5t-159.5 50.5q-79 0 -145 -28.5t-106.5 -77t-44.5 -110.5q-5 -60 35 -97.5t131 -60.5l165 -41q130 -32 190.5 -100.5t49.5 -172.5q-6 -76 -44 -138t-100.5 -107.5t-143 -69.5t-171.5 -24z" />
    <glyph glyph-name="t" unicode="t" horiz-adv-x="606" 
d="M639 1104l-19 -117h-532l19 117h532zM322 1375h134l-185 -1117q-13 -81 16.5 -117t105.5 -30q15 1 37 3.5t41 5.5l2 -116q-22 -5 -49 -8.5t-54 -4.5q-134 -7 -194.5 62.5t-40.5 194.5z" />
    <glyph glyph-name="u" unicode="u" horiz-adv-x="1184" 
d="M455 -16q-112 0 -191.5 47t-114 138.5t-13.5 223.5l118 711h134l-116 -701q-22 -137 41 -216.5t192 -79.5q87 0 163 37t129 107t69 169l113 684h134l-183 -1104h-130l43 258h24q-71 -145 -178.5 -209.5t-233.5 -64.5z" />
    <glyph glyph-name="v" unicode="v" horiz-adv-x="1115" 
d="M395 0l-242 1104h138l143 -690q19 -90 31.5 -180t26.5 -176h-45q43 86 85.5 176t90.5 180l371 690h152l-608 -1104h-143z" />
    <glyph glyph-name="w" unicode="w" horiz-adv-x="1636" 
d="M307 0l-149 1104h140l71 -594q10 -90 20 -193.5t17 -225.5h-23q46 118 90 222t87 197l277 594h144l79 -594q12 -90 21.5 -193.5t16.5 -225.5h-24q46 118 90 221.5t86 197.5l268 594h143l-515 -1104h-140l-87 621q-8 61 -15 125t-13 132t-12 138h33q-29 -70 -58 -137.5
t-57.5 -132t-56.5 -125.5l-293 -621h-140z" />
    <glyph glyph-name="x" unicode="x" horiz-adv-x="1071" 
d="M-35 0l541 617l-17 -102l-320 589h151l129 -246q37 -70 65.5 -134.5t59.5 -127.5h-69q52 63 100.5 127.5t107.5 134.5l213 246h162l-517 -594l17 100l335 -610h-152l-151 284q-35 67 -62 128.5t-57 119.5h70q-50 -58 -95.5 -119.5t-103.5 -128.5l-246 -284h-161z" />
    <glyph glyph-name="y" unicode="y" horiz-adv-x="1115" 
d="M-23 -406l48 117l34 -3q53 -14 99 -5t87.5 47.5t79.5 112.5l71 131l-243 1110h139l142 -690q19 -91 31.5 -181.5t25.5 -178.5h-45q43 88 85.5 178.5t91.5 181.5l371 690h152l-711 -1290q-44 -80 -96 -133t-112.5 -79t-130.5 -26q-36 0 -67 5.5t-52 12.5z" />
    <glyph glyph-name="z" unicode="z" horiz-adv-x="1077" 
d="M34 0l18 104l772 868l2 8h-607l20 124h784l-18 -110l-761 -862l-1 -8h637l-20 -124h-826z" />
    <glyph glyph-name="braceleft" unicode="{" horiz-adv-x="831" 
d="M158 634l13 81q124 0 179.5 48.5t75.5 169.5l46 281q16 94 46 162.5t78 113.5t117.5 66.5t163.5 21.5l-19 -115q-123 0 -181 -60t-79 -191l-53 -319q-10 -61 -33 -109t-66 -82t-113 -51t-175 -17zM569 -283q-94 0 -156 21.5t-95.5 66t-41 113.5t7.5 164l47 279
q20 120 -19 169.5t-162 50.5l13 81q104 0 168 -17.5t96 -51t39 -82.5t-3 -110l-53 -318q-21 -131 17.5 -191t160.5 -60zM150 580l22 136h170l-22 -136h-170z" />
    <glyph glyph-name="bar" unicode="|" horiz-adv-x="619" 
d="M603 1970l-405 -2450h-118l405 2450h118z" />
    <glyph glyph-name="braceright" unicode="}" horiz-adv-x="830" 
d="M699 634q-105 0 -169 17t-96 51t-38.5 82t3.5 109l53 319q22 131 -16.5 191t-161.5 60l19 115q95 0 157 -21.5t95 -66.5t41 -113.5t-8 -162.5l-46 -281q-20 -121 18.5 -169.5t161.5 -48.5zM-15 -283l19 115q123 0 181 60t80 191l52 318q10 61 33 110t66 82.5t113 51
t175 17.5l-13 -81q-125 -1 -180 -50.5t-74 -169.5l-46 -279q-15 -95 -45.5 -163.5t-78.5 -113t-117.5 -66.5t-164.5 -22zM691 581l-170 -1l22 136l169 -1z" />
    <glyph glyph-name="asciitilde" unicode="~" horiz-adv-x="1319" 
d="M150 456q20 103 68.5 167.5t116 95.5t141.5 30q75 0 129 -30.5t114 -87.5q43 -40 76 -60t76 -20q67 0 117 44.5t69 125.5l122 -4q-20 -100 -68.5 -163.5t-114.5 -93.5t-138 -30t-123.5 31.5t-109.5 86.5q-44 41 -79.5 59.5t-82.5 17.5q-68 1 -119.5 -41.5t-69.5 -129.5z
" />
    <glyph glyph-name="uni00A0" unicode="&#xa0;" horiz-adv-x="557" 
 />
    <glyph glyph-name="exclamdown" unicode="&#xa1;" horiz-adv-x="547" 
d="M45 -375l182 1042h133l-164 -1042h-151zM333 912q-44 0 -70.5 31.5t-18.5 75.5q7 44 43.5 75.5t80.5 31.5q45 0 71 -31.5t19 -75.5q-8 -44 -44 -75.5t-81 -31.5z" />
    <glyph glyph-name="cent" unicode="&#xa2;" horiz-adv-x="1125" 
d="M442 0l247 1490h98l-247 -1490h-98zM540 175q-129 0 -222.5 57.5t-143.5 160.5t-48 240q2 130 44 252t119 219.5t184 154.5t240 57q86 0 155 -25.5t118 -69.5t78 -98.5t35 -111.5l-131 -26q-4 37 -21.5 74t-49 67.5t-78 49.5t-109.5 19q-105 0 -187.5 -49t-140.5 -131
t-89 -181.5t-33 -200.5q-1 -99 30 -175t94.5 -119t158.5 -43q66 0 122.5 20t101.5 52.5t76.5 71.5t47.5 77l125 -37q-24 -58 -69.5 -112.5t-107.5 -98t-137.5 -69t-161.5 -25.5z" />
    <glyph glyph-name="sterling" unicode="&#xa3;" horiz-adv-x="1224" 
d="M33 81l7 45q86 0 140.5 53.5t69.5 168.5l88 704q17 135 85 237.5t175 161t241 58.5q118 0 203 -49.5t128 -137t33 -203.5l-132 -14q11 127 -51.5 202.5t-188.5 75.5q-95 0 -171.5 -40t-125.5 -113.5t-61 -173.5l-89 -703q-9 -64 -35 -110t-64 -77.5t-82 -50t-88 -26.5
t-82 -8zM17 0l20 126h766q58 0 88 25t39 84l10 57h127l-8 -47q-21 -124 -90 -184.5t-190 -60.5h-762zM131 686l18 115h786l-19 -115h-785z" />
    <glyph glyph-name="currency" unicode="&#xa4;" horiz-adv-x="1434" 
d="M619 -20q-122 0 -221.5 48t-166 133.5t-93 200t-4.5 246.5q22 134 86 248t158 199t208.5 132t237.5 47t222.5 -47.5t167 -132t95 -198.5t5.5 -247q-22 -134 -86.5 -248.5t-160 -200t-210.5 -133t-238 -47.5zM637 103q97 0 188 39t166.5 108.5t127 160.5t68.5 196
q25 142 -19 256.5t-138.5 181.5t-223.5 67t-246 -67t-198 -181t-105 -256q-23 -140 20 -254.5t137 -182.5t223 -68zM1200 950l-74 95l225 198l77 -95zM1144 -10l-160 197l105 92l160 -196zM99 -10l-73 94l225 196l75 -93zM364 951l-159 198l103 93l160 -197z" />
    <glyph glyph-name="yen" unicode="&#xa5;" horiz-adv-x="1089" 
d="M337 1490l267 -833l-120 -43l-302 876h155zM521 657l543 833h157l-594 -876zM650 752l-126 -752h-141l127 752h140zM976 720l-17 -106h-807l17 106h807zM934 466l-16 -105h-807l17 105h806z" />
    <glyph glyph-name="brokenbar" unicode="&#xa6;" horiz-adv-x="476" 
d="M149 397h127l-113 -677h-127zM456 1490l-112 -674h-127l113 674h126z" />
    <glyph glyph-name="section" unicode="&#xa7;" horiz-adv-x="1123" 
d="M408 -302q-109 0 -184 37.5t-114 108.5t-40 173l128 24q4 -109 59.5 -167t170.5 -58q105 0 181.5 50t91.5 143q9 52 -7.5 88.5t-52.5 68.5t-90 67l-207 134q-75 50 -123 102t-68 109.5t-10 120.5q12 68 51.5 123t98 88.5t125.5 34.5l3 4q-57 54 -86.5 111t-15.5 142
q16 92 71.5 161t141.5 107.5t193 38.5q106 0 173.5 -38.5t101 -108.5t38.5 -168l-123 -24q-8 103 -52 162t-154 59q-107 0 -176.5 -54t-84.5 -141q-8 -54 9.5 -93t53.5 -69.5t81 -61.5l206 -135q76 -50 123.5 -102.5t67 -108t8.5 -117.5q-11 -69 -51.5 -124.5t-99 -88
t-123.5 -33.5l-4 -4q48 -38 76 -77t37.5 -83t0.5 -96q-15 -94 -74.5 -162.5t-150 -105.5t-200.5 -37zM617 342q43 -27 99 -13.5t101.5 60t57.5 115.5q8 46 -6.5 84t-50.5 74t-97 76l-202 129q-43 29 -98 15t-99 -60.5t-56 -115.5q-7 -45 6.5 -83.5t51 -76.5t100.5 -79z" />
    <glyph glyph-name="dieresis" unicode="&#xa8;" horiz-adv-x="1183" 
d="M926 1316q-39 0 -62 28t-17 67t39 66.5t72 27.5t61.5 -27.5t16.5 -66.5q-7 -39 -39 -67t-71 -28zM511 1316q-39 0 -62 28t-17 67q7 39 39.5 66.5t71.5 27.5t61.5 -27.5t16.5 -66.5q-7 -39 -39 -67t-71 -28z" />
    <glyph glyph-name="copyright" unicode="&#xa9;" horiz-adv-x="1855" 
d="M538 744q20 120 93.5 218t180.5 156t226 58q98 0 174.5 -40t122 -109t48.5 -158h-134q-10 79 -73 129.5t-155 50.5q-83 0 -159.5 -41t-129 -110t-66.5 -154q-14 -83 16 -152t92.5 -110t146.5 -41q92 0 166 50t110 130h134q-32 -89 -96 -159t-149 -110t-183 -40
q-119 0 -208.5 58.5t-132.5 156.5t-24 217zM832 -23q-142 0 -261 48.5t-206.5 136.5t-136 205t-48.5 252q0 176 73.5 337t200 286.5t290 198t342.5 72.5q142 0 261 -48.5t206.5 -136t136 -204t48.5 -252.5q0 -176 -73.5 -337.5t-200 -287t-290 -198t-342.5 -72.5zM851 107
q150 0 286 60.5t241.5 165t166.5 238.5t61 282q0 152 -69 271.5t-190.5 189t-279.5 69.5q-150 0 -286 -60.5t-241.5 -165t-166.5 -238t-61 -281.5q0 -151 69 -271t191 -190t279 -70z" />
    <glyph glyph-name="ordfeminine" unicode="&#xaa;" horiz-adv-x="894" 
d="M379 643q-81 0 -143 29t-92 85t-17 137q15 85 67 135t133.5 75t182.5 36q115 13 175 24.5t68 58.5l3 16q12 76 -33 121.5t-139 45.5q-60 0 -109.5 -18t-84.5 -48t-53 -67l-118 24q35 71 94 118.5t133 71.5t154 24q61 0 116.5 -15.5t97.5 -48.5t61.5 -86t6.5 -128
l-94 -573h-125l22 132h-7q-40 -61 -116 -105t-183 -44zM420 747q78 0 140.5 31t102.5 84t51 118l18 113q-16 -12 -55.5 -21.5t-86.5 -16t-88 -11.5q-110 -14 -173 -48.5t-75 -103.5t36 -107t130 -38z" />
    <glyph glyph-name="guillemotleft" unicode="&#xab;" horiz-adv-x="1071" 
d="M419 144l-319 467l474 468h154l-467 -468l313 -467h-155zM770 144l-319 467l474 468h154l-467 -468l313 -467h-155z" />
    <glyph glyph-name="logicalnot" unicode="&#xac;" horiz-adv-x="1319" 
d="M862 315l48 290h-670l20 121h797l-68 -411h-127z" />
    <glyph glyph-name="registered" unicode="&#xae;" horiz-adv-x="1344" 
d="M637 346q-120 0 -218 45.5t-165 125.5t-94.5 185.5t-7.5 225.5t82.5 225.5t156 185.5t206.5 125.5t233 45.5q121 0 219 -45.5t164.5 -125.5t94.5 -185.5t8 -225.5t-83 -225.5t-156 -185.5t-206 -125.5t-234 -45.5zM655 455q99 0 190.5 36.5t167.5 102t127 151.5t67 184
q22 130 -24.5 237t-142.5 171t-227 64q-98 0 -189.5 -36.5t-167.5 -102t-127 -151t-67 -184.5q-22 -130 24 -237t142.5 -171t226.5 -64zM830 663l-89 248h105l92 -248h-108zM489 663l89 536h252q46 0 82.5 -20t55.5 -57.5t10 -91.5t-41 -93.5t-77 -61t-92 -21.5h-190l12 78
h170q41 0 73.5 25.5t40.5 72.5q8 48 -17 70t-64 22h-130l-76 -459h-98z" />
    <glyph glyph-name="macron" unicode="&#xaf;" horiz-adv-x="895" 
d="M860 1461l-18 -110h-524l18 110h524z" />
    <glyph glyph-name="degree" unicode="&#xb0;" horiz-adv-x="913" 
d="M549 854q-90 1 -162 44.5t-113 117.5t-38 163q4 90 50.5 164t121.5 118t165 44t161.5 -44t112.5 -118t38 -164q-3 -89 -49.5 -163t-121.5 -117.5t-165 -44.5zM553 970q59 0 107 28t78 75.5t32 105.5t-24.5 105.5t-72.5 76t-104 28.5t-107 -28t-79 -76t-32 -106
q-3 -58 24 -105.5t73.5 -75.5t104.5 -28z" />
    <glyph glyph-name="plusminus" unicode="&#xb1;" horiz-adv-x="1319" 
d="M129 93l20 126h910l-21 -126h-909zM225 671l21 127h909l-21 -127h-909zM563 351l127 769h128l-127 -769h-128z" />
    <glyph glyph-name="two.sups" unicode="&#xb2;" horiz-adv-x="870" 
d="M175 898l15 95l374 272q62 45 101.5 78.5t61 63t26.5 62.5q10 59 -34.5 95.5t-121.5 36.5q-80 0 -136 -38.5t-67 -101.5h-125q18 109 114.5 177t231.5 68q136 0 210 -64t57 -165q-5 -34 -20.5 -67t-47 -68.5t-83.5 -77t-129 -94.5l-225 -159v-5h457l-17 -108h-642z" />
    <glyph glyph-name="three.sups" unicode="&#xb3;" horiz-adv-x="866" 
d="M492 888q-95 0 -165 29.5t-104.5 81.5t-24.5 119h132q-7 -54 44.5 -88t135.5 -34q89 0 150.5 37.5t70.5 92.5q10 58 -45 94.5t-155 36.5h-60l16 97h60q86 0 147.5 34.5t70.5 90.5q9 54 -34 88t-121 34t-136.5 -34t-68.5 -89h-127q12 67 61.5 118.5t125 80.5t164.5 29
q135 0 208 -63.5t57 -156.5q-11 -67 -68 -113.5t-140 -59.5l-1 -5q98 -14 145.5 -64.5t34.5 -125.5q-10 -66 -62 -118.5t-132 -82t-179 -29.5z" />
    <glyph glyph-name="acute" unicode="&#xb4;" horiz-adv-x="381" 
d="M160 1273l193 275h153l-233 -275h-113z" />
    <glyph glyph-name="uni00B5" unicode="&#xb5;" horiz-adv-x="1184" 
d="M2 -418l252 1522h133l-113 -688q-17 -103 11 -172.5t90 -104.5t145 -35q86 0 158 36t121 105.5t66 170.5l114 688h134l-144 -870q-10 -64 12.5 -90t86.5 -26h27l-19 -118h-31q-123 0 -174.5 58.5t-32.5 174.5l20 124h40q-18 -109 -62.5 -181.5t-103 -114.5t-119.5 -59.5
t-111 -17.5q-51 0 -106.5 17.5t-101 59.5t-66.5 114.5t-3 181.5h39l-128 -775h-134z" />
    <glyph glyph-name="paragraph" unicode="&#xb6;" horiz-adv-x="1179" 
d="M1110 1364h-291l-134 -812h-84q-159 0 -259 61.5t-139 168t-17 240.5q23 135 97.5 240.5t194.5 166.5t278 61h375zM760 0l248 1490h138l-248 -1490h-138z" />
    <glyph glyph-name="periodcentered" unicode="&#xb7;" horiz-adv-x="545" 
d="M288 599q-46 0 -74.5 33.5t-20.5 81.5q7 41 40.5 69t72.5 28q48 0 75.5 -34t20.5 -80q-6 -41 -39 -69.5t-75 -28.5z" />
    <glyph glyph-name="cedilla" unicode="&#xb8;" horiz-adv-x="486" 
d="M-24 -418l14 85h111q57 0 87 20t37 61q7 40 -16 60.5t-83 20.5h-74l68 209h74l-3 -38l-24 -92q92 -3 133.5 -43t29.5 -116q-14 -83 -74.5 -125t-167.5 -42h-112z" />
    <glyph glyph-name="one.sups" unicode="&#xb9;" horiz-adv-x="579" 
d="M636 1695l-132 -797h-130l113 682h-7l-237 -127l20 119l228 123h145z" />
    <glyph glyph-name="ordmasculine" unicode="&#xba;" horiz-adv-x="957" 
d="M493 642q-118 0 -199 55.5t-115 153.5t-14 226q22 128 88.5 226t166 153.5t217.5 55.5q119 0 199.5 -55.5t115.5 -153.5t13 -226q-21 -128 -88 -226t-166 -153.5t-218 -55.5zM511 752q86 0 153.5 43t111.5 116.5t59 165.5q15 91 -4.5 164.5t-73 117t-138.5 43.5
t-152.5 -43t-112 -116.5t-59.5 -165.5t5 -165.5t73.5 -116.5t137.5 -43z" />
    <glyph glyph-name="guillemotright" unicode="&#xbb;" horiz-adv-x="1072" 
d="M10 144l468 467l-313 468h155l319 -468l-474 -467h-155zM361 144l468 467l-313 468h155l319 -468l-474 -467h-155z" />
    <glyph glyph-name="onequarter" unicode="&#xbc;" horiz-adv-x="1507" 
d="M547 1490l-132 -797h-120l115 692h-7l-204 -131l19 113l193 123h136zM48 0l1270 1490h132l-1271 -1490h-131zM758 148l16 95l442 554h83l-24 -145h-53l-320 -398v-6h473l-17 -100h-600zM1117 0l29 178l11 42l95 577h113l-132 -797h-116z" />
    <glyph glyph-name="onehalf" unicode="&#xbd;" horiz-adv-x="1630" 
d="M547 1490l-132 -797h-120l115 692h-7l-204 -131l19 113l193 123h136zM48 0l1270 1490h132l-1271 -1490h-131zM893 0l14 87l325 279q56 49 90 84.5t52 66t22 63.5q10 61 -24.5 96t-96.5 35q-65 0 -113.5 -38.5t-59.5 -98.5h-115q17 104 98 168.5t196 64.5q117 0 183 -63
t49 -160q-6 -31 -20 -61.5t-41 -66t-73 -82t-116 -108.5l-180 -160l-2 -6h378l-17 -100h-549z" />
    <glyph glyph-name="threequarters" unicode="&#xbe;" horiz-adv-x="1680" 
d="M404 683q-79 0 -139.5 27t-91.5 76.5t-21 113.5h122q-6 -50 35.5 -82.5t108.5 -32.5q69 0 121.5 36.5t63.5 95.5q12 62 -31.5 100t-126.5 38h-55l15 92h55q70 0 122 36t61 95q8 54 -24.5 89t-95.5 35q-64 0 -114.5 -33.5t-60.5 -89.5h-116q11 66 54.5 115.5t108.5 77.5
t141 28q117 0 179 -63.5t46 -155.5q-11 -67 -60.5 -113.5t-122.5 -60.5l-1 -7q88 -14 126.5 -64.5t24.5 -125.5q-17 -99 -107.5 -163t-216.5 -64zM220 0l1270 1490h132l-1271 -1490h-131zM931 148l16 95l442 554h83l-24 -145h-53l-320 -398v-6h473l-17 -100h-600zM1290 0
l29 178l11 42l95 577h113l-132 -797h-116z" />
    <glyph glyph-name="questiondown" unicode="&#xbf;" horiz-adv-x="1000" 
d="M619 674l-8 -52q-19 -109 -54.5 -174t-90.5 -109t-134 -90q-92 -56 -145 -119.5t-67 -144.5q-12 -77 15 -134.5t84.5 -89.5t135.5 -32q77 0 146.5 33t119 96.5t66.5 153.5h141q-23 -123 -91.5 -214t-168.5 -141t-220 -50q-121 0 -210 50t-130.5 136t-22.5 197
q18 110 83 192.5t182 152.5q74 44 118.5 81.5t69 85.5t37.5 123l9 49h135zM625 1130q45 0 71 -30.5t18 -74.5q-7 -44 -43 -75.5t-80 -31.5t-70 31.5t-19 75.5q8 44 44 74.5t79 30.5z" />
    <glyph glyph-name="Agrave" unicode="&#xc0;" horiz-adv-x="1361" 
d="M-43 0l795 1490h165l304 -1490h-143l-192 976q-14 77 -33 187t-40 262h32q-70 -148 -123.5 -257.5t-97.5 -191.5l-512 -976h-155zM286 443l21 125h751l-20 -125h-752zM807 1639l-133 290h153l93 -290h-113z" />
    <glyph glyph-name="Aacute" unicode="&#xc1;" horiz-adv-x="1361" 
d="M-43 0l795 1490h165l304 -1490h-143l-192 976q-14 77 -33 187t-40 262h32q-70 -148 -123.5 -257.5t-97.5 -191.5l-512 -976h-155zM286 443l21 125h751l-20 -125h-752zM796 1659l193 275h153l-233 -275h-113z" />
    <glyph glyph-name="Acircumflex" unicode="&#xc2;" horiz-adv-x="1361" 
d="M-43 0l795 1490h165l304 -1490h-143l-192 976q-14 77 -33 187t-40 262h32q-70 -148 -123.5 -257.5t-97.5 -191.5l-512 -976h-155zM286 443l21 125h751l-20 -125h-752zM694 1655h-135l1 7l288 270h120l200 -270l-1 -7h-137l-135 193z" />
    <glyph glyph-name="Atilde" unicode="&#xc3;" horiz-adv-x="1361" 
d="M-43 0l795 1490h165l304 -1490h-143l-192 976q-14 77 -33 187t-40 262h32q-70 -148 -123.5 -257.5t-97.5 -191.5l-512 -976h-155zM286 443l21 125h751l-20 -125h-752zM1000 1696q-38 0 -69.5 14.5t-58.5 33t-51 33t-48 14.5q-35 0 -58 -27t-31 -63h-99q18 83 67 136.5
t123 53.5q42 0 72.5 -14.5t55.5 -33t48.5 -33t50.5 -14.5q31 0 52 21t36 68h97q-20 -87 -70 -138t-117 -51z" />
    <glyph glyph-name="Adieresis" unicode="&#xc4;" horiz-adv-x="1361" 
d="M-43 0l795 1490h165l304 -1490h-143l-192 976q-14 77 -33 187t-40 262h32q-70 -148 -123.5 -257.5t-97.5 -191.5l-512 -976h-155zM286 443l21 125h751l-20 -125h-752zM1079 1702q-39 0 -62 28t-17 67t39 66.5t72 27.5t61.5 -27.5t16.5 -66.5q-7 -39 -39 -67t-71 -28z
M664 1702q-39 0 -62 28t-17 67q7 39 39.5 66.5t71.5 27.5t61.5 -27.5t16.5 -66.5q-7 -39 -39 -67t-71 -28z" />
    <glyph glyph-name="Aring" unicode="&#xc5;" horiz-adv-x="1361" 
d="M-43 0l795 1490h165l304 -1490h-143l-192 976q-14 77 -33 187t-40 262h32q-70 -148 -123.5 -257.5t-97.5 -191.5l-512 -976h-155zM286 443l21 125h751l-20 -125h-752zM858 1578q-65 0 -113 31t-71 83t-13 113q10 58 46.5 105.5t91 75.5t115.5 28q65 0 113 -30.5t71.5 -82
t13.5 -113.5q-10 -59 -47.5 -106.5t-91.5 -75.5t-115 -28zM865 1676q50 0 91.5 35t50.5 85t-20 85t-80 35q-50 0 -91.5 -35t-49.5 -85q-9 -50 20 -85t79 -35z" />
    <glyph glyph-name="AE" unicode="&#xc6;" horiz-adv-x="1986" 
d="M-43 0l971 1490h1075l-21 -126h-727l-91 -554h681l-21 -127h-681l-93 -557h741l-21 -126h-882l226 1362h-125l-878 -1362h-154zM356 450l20 125h680l-21 -125h-679z" />
    <glyph glyph-name="Ccedilla" unicode="&#xc7;" horiz-adv-x="1478" 
d="M685 -21q-167 0 -290 73t-189.5 207t-66.5 317q0 175 54.5 342t157 301t247 213t324.5 79q121 0 217 -37.5t163.5 -104.5t103 -156t36.5 -193h-141q-3 77 -30.5 142.5t-77 114t-119 75.5t-157.5 27q-146 0 -264.5 -67.5t-202.5 -182.5t-129 -257.5t-45 -292.5
q0 -151 53 -256t146.5 -158.5t215.5 -53.5q90 0 171.5 27t149.5 76t118.5 114t79.5 142h142q-35 -103 -98.5 -192t-151 -156t-193 -105t-224.5 -38zM502 -424l14 85h111q57 0 87 20t37 61q7 40 -16 60.5t-83 20.5h-74l68 209h74l-3 -38l-24 -92q92 -3 133.5 -43t29.5 -116
q-14 -83 -74.5 -125t-167.5 -42h-112z" />
    <glyph glyph-name="Egrave" unicode="&#xc8;" horiz-adv-x="1209" 
d="M96 0l247 1490h887l-21 -126h-746l-90 -548h695l-21 -126h-696l-93 -564h756l-20 -126h-898zM763 1639l-133 290h153l93 -290h-113z" />
    <glyph glyph-name="Eacute" unicode="&#xc9;" horiz-adv-x="1209" 
d="M96 0l247 1490h887l-21 -126h-746l-90 -548h695l-21 -126h-696l-93 -564h756l-20 -126h-898zM753 1659l193 275h153l-233 -275h-113z" />
    <glyph glyph-name="Ecircumflex" unicode="&#xca;" horiz-adv-x="1209" 
d="M96 0l247 1490h887l-21 -126h-746l-90 -548h695l-21 -126h-696l-93 -564h756l-20 -126h-898zM651 1655h-135l1 7l288 270h120l200 -270l-1 -7h-137l-135 193z" />
    <glyph glyph-name="Edieresis" unicode="&#xcb;" horiz-adv-x="1209" 
d="M96 0l247 1490h887l-21 -126h-746l-90 -548h695l-21 -126h-696l-93 -564h756l-20 -126h-898zM1035 1702q-39 0 -62 28t-17 67t39 66.5t72 27.5t61.5 -27.5t16.5 -66.5q-7 -39 -39 -67t-71 -28zM620 1702q-39 0 -62 28t-17 67q7 39 39.5 66.5t71.5 27.5t61.5 -27.5
t16.5 -66.5q-7 -39 -39 -67t-71 -28z" />
    <glyph glyph-name="Igrave" unicode="&#xcc;" horiz-adv-x="516" 
d="M484 1490l-247 -1490h-141l247 1490h141zM385 1639l-133 290h153l93 -290h-113z" />
    <glyph glyph-name="Iacute" unicode="&#xcd;" horiz-adv-x="516" 
d="M484 1490l-247 -1490h-141l247 1490h141zM374 1659l193 275h153l-233 -275h-113z" />
    <glyph glyph-name="Icircumflex" unicode="&#xce;" horiz-adv-x="516" 
d="M484 1490l-247 -1490h-141l247 1490h141zM272 1655h-135l1 7l288 270h120l200 -270l-1 -7h-137l-135 193z" />
    <glyph glyph-name="Idieresis" unicode="&#xcf;" horiz-adv-x="516" 
d="M484 1490l-247 -1490h-141l247 1490h141zM656 1702q-39 0 -62 28t-17 67t39 66.5t72 27.5t61.5 -27.5t16.5 -66.5q-7 -39 -39 -67t-71 -28zM241 1702q-39 0 -62 28t-17 67q7 39 39.5 66.5t71.5 27.5t61.5 -27.5t16.5 -66.5q-7 -39 -39 -67t-71 -28z" />
    <glyph glyph-name="Eth" unicode="&#xd0;" horiz-adv-x="1478" 
d="M583 0h-383l20 126h352q191 0 332 75t229.5 215t119.5 333q32 192 -6 330t-146 211.5t-288 73.5h-393l21 126h379q214 0 354.5 -89t197.5 -255.5t19 -397.5q-39 -236 -145 -403t-273 -256t-390 -89zM510 1490l-247 -1490h-141l247 1490h141zM50 686l19 118h706l-20 -118
h-705z" />
    <glyph glyph-name="Ntilde" unicode="&#xd1;" horiz-adv-x="1533" 
d="M96 0l247 1490h156l512 -1015q20 -37 45 -91.5t53 -119.5t55 -137l-19 -5q7 70 15.5 138t17.5 129t17 108l165 993h140l-247 -1490h-156l-479 944q-25 50 -52.5 108.5t-60.5 133t-76 174.5l22 7q-13 -97 -23 -176.5t-18.5 -140.5t-16.5 -105l-156 -945h-141zM1086 1696
q-38 0 -69.5 14.5t-58.5 33t-51 33t-48 14.5q-35 0 -58 -27t-31 -63h-99q18 83 67 136.5t123 53.5q42 0 72.5 -14.5t55.5 -33t48.5 -33t50.5 -14.5q31 0 52 21t36 68h97q-20 -87 -70 -138t-117 -51z" />
    <glyph glyph-name="Ograve" unicode="&#xd2;" horiz-adv-x="1540" 
d="M684 -21q-167 0 -289 73t-189 207.5t-67 316.5q0 176 54.5 342.5t157.5 300t247 213t323 79.5q166 0 288 -73.5t188.5 -207t66.5 -316.5q0 -176 -54.5 -343t-157 -300.5t-246 -212.5t-322.5 -79zM689 111q148 0 266 68.5t201 184t127 257.5t44 289q0 149 -51.5 254
t-144 160t-215.5 55q-149 0 -267 -68.5t-201.5 -184t-127.5 -257.5t-44 -289q0 -149 51.5 -253.5t145 -160t216.5 -55.5zM897 1639l-133 290h153l93 -290h-113z" />
    <glyph glyph-name="Oacute" unicode="&#xd3;" horiz-adv-x="1540" 
d="M684 -21q-167 0 -289 73t-189 207.5t-67 316.5q0 176 54.5 342.5t157.5 300t247 213t323 79.5q166 0 288 -73.5t188.5 -207t66.5 -316.5q0 -176 -54.5 -343t-157 -300.5t-246 -212.5t-322.5 -79zM689 111q148 0 266 68.5t201 184t127 257.5t44 289q0 149 -51.5 254
t-144 160t-215.5 55q-149 0 -267 -68.5t-201.5 -184t-127.5 -257.5t-44 -289q0 -149 51.5 -253.5t145 -160t216.5 -55.5zM886 1659l193 275h153l-233 -275h-113z" />
    <glyph glyph-name="Ocircumflex" unicode="&#xd4;" horiz-adv-x="1540" 
d="M684 -21q-167 0 -289 73t-189 207.5t-67 316.5q0 176 54.5 342.5t157.5 300t247 213t323 79.5q166 0 288 -73.5t188.5 -207t66.5 -316.5q0 -176 -54.5 -343t-157 -300.5t-246 -212.5t-322.5 -79zM689 111q148 0 266 68.5t201 184t127 257.5t44 289q0 149 -51.5 254
t-144 160t-215.5 55q-149 0 -267 -68.5t-201.5 -184t-127.5 -257.5t-44 -289q0 -149 51.5 -253.5t145 -160t216.5 -55.5zM784 1655h-135l1 7l288 270h120l200 -270l-1 -7h-137l-135 193z" />
    <glyph glyph-name="Otilde" unicode="&#xd5;" horiz-adv-x="1540" 
d="M684 -21q-167 0 -289 73t-189 207.5t-67 316.5q0 176 54.5 342.5t157.5 300t247 213t323 79.5q166 0 288 -73.5t188.5 -207t66.5 -316.5q0 -176 -54.5 -343t-157 -300.5t-246 -212.5t-322.5 -79zM689 111q148 0 266 68.5t201 184t127 257.5t44 289q0 149 -51.5 254
t-144 160t-215.5 55q-149 0 -267 -68.5t-201.5 -184t-127.5 -257.5t-44 -289q0 -149 51.5 -253.5t145 -160t216.5 -55.5zM1090 1696q-38 0 -69.5 14.5t-58.5 33t-51 33t-48 14.5q-35 0 -58 -27t-31 -63h-99q18 83 67 136.5t123 53.5q42 0 72.5 -14.5t55.5 -33t48.5 -33
t50.5 -14.5q31 0 52 21t36 68h97q-20 -87 -70 -138t-117 -51z" />
    <glyph glyph-name="Odieresis" unicode="&#xd6;" horiz-adv-x="1540" 
d="M684 -21q-167 0 -289 73t-189 207.5t-67 316.5q0 176 54.5 342.5t157.5 300t247 213t323 79.5q166 0 288 -73.5t188.5 -207t66.5 -316.5q0 -176 -54.5 -343t-157 -300.5t-246 -212.5t-322.5 -79zM689 111q148 0 266 68.5t201 184t127 257.5t44 289q0 149 -51.5 254
t-144 160t-215.5 55q-149 0 -267 -68.5t-201.5 -184t-127.5 -257.5t-44 -289q0 -149 51.5 -253.5t145 -160t216.5 -55.5zM1169 1702q-39 0 -62 28t-17 67t39 66.5t72 27.5t61.5 -27.5t16.5 -66.5q-7 -39 -39 -67t-71 -28zM754 1702q-39 0 -62 28t-17 67q7 39 39.5 66.5
t71.5 27.5t61.5 -27.5t16.5 -66.5q-7 -39 -39 -67t-71 -28z" />
    <glyph glyph-name="multiply" unicode="&#xd7;" horiz-adv-x="1319" 
d="M958 127l-685 822l95 82l686 -822zM234 129l-81 94l944 808l82 -96z" />
    <glyph glyph-name="Oslash" unicode="&#xd8;" horiz-adv-x="1540" 
d="M684 -23q-167 0 -289 73t-189 207.5t-67 316.5q0 176 54.5 342.5t157.5 300t247 213t323 79.5q166 0 288 -73.5t188.5 -207t66.5 -316.5q0 -176 -54.5 -343t-157 -300.5t-246 -212.5t-322.5 -79zM689 109q148 0 266 68.5t201 184t127 257.5t44 289q0 149 -51.5 254
t-144 160t-215.5 55q-149 0 -267 -68.5t-201.5 -184t-127.5 -257.5t-44 -289q0 -149 51.5 -253.5t145 -160t216.5 -55.5zM201 -38l-88 71l1293 1491l87 -72z" />
    <glyph glyph-name="Ugrave" unicode="&#xd9;" horiz-adv-x="1485" 
d="M656 -23q-170 0 -288.5 70t-171 191t-27.5 273l162 979h141l-162 -979q-19 -118 18 -209t122.5 -142t210.5 -51q130 0 236 53.5t176 147t90 211.5l160 969h141l-163 -988q-25 -153 -115.5 -271.5t-227 -186t-302.5 -67.5zM869 1639l-133 290h153l93 -290h-113z" />
    <glyph glyph-name="Uacute" unicode="&#xda;" horiz-adv-x="1485" 
d="M656 -23q-170 0 -288.5 70t-171 191t-27.5 273l162 979h141l-162 -979q-19 -118 18 -209t122.5 -142t210.5 -51q130 0 236 53.5t176 147t90 211.5l160 969h141l-163 -988q-25 -153 -115.5 -271.5t-227 -186t-302.5 -67.5zM858 1659l193 275h153l-233 -275h-113z" />
    <glyph glyph-name="Ucircumflex" unicode="&#xdb;" horiz-adv-x="1485" 
d="M656 -23q-170 0 -288.5 70t-171 191t-27.5 273l162 979h141l-162 -979q-19 -118 18 -209t122.5 -142t210.5 -51q130 0 236 53.5t176 147t90 211.5l160 969h141l-163 -988q-25 -153 -115.5 -271.5t-227 -186t-302.5 -67.5zM756 1655h-135l1 7l288 270h120l200 -270l-1 -7
h-137l-135 193z" />
    <glyph glyph-name="Udieresis" unicode="&#xdc;" horiz-adv-x="1485" 
d="M656 -23q-170 0 -288.5 70t-171 191t-27.5 273l162 979h141l-162 -979q-19 -118 18 -209t122.5 -142t210.5 -51q130 0 236 53.5t176 147t90 211.5l160 969h141l-163 -988q-25 -153 -115.5 -271.5t-227 -186t-302.5 -67.5zM1141 1702q-39 0 -62 28t-17 67t39 66.5t72 27.5
t61.5 -27.5t16.5 -66.5q-7 -39 -39 -67t-71 -28zM726 1702q-39 0 -62 28t-17 67q7 39 39.5 66.5t71.5 27.5t61.5 -27.5t16.5 -66.5q-7 -39 -39 -67t-71 -28z" />
    <glyph glyph-name="Yacute" unicode="&#xdd;" horiz-adv-x="1346" 
d="M511 0l107 643l-414 847h153l236 -487q36 -74 66 -144t58 -160h-57q57 91 110.5 161.5t111.5 142.5l397 487h174l-695 -847l-106 -643h-141zM789 1659l193 275h153l-233 -275h-113z" />
    <glyph glyph-name="Thorn" unicode="&#xde;" horiz-adv-x="1251" 
d="M328 1490h141l-247 -1490h-140zM340 1167l383 -1q153 0 249.5 -55t136 -148t22.5 -206q-18 -118 -87.5 -213t-184 -151t-271.5 -56h-383l21 126h384q108 0 189 33.5t131 97.5t65 156q16 91 -14 156t-100.5 100t-178.5 35h-383z" />
    <glyph glyph-name="germandbls" unicode="&#xdf;" horiz-adv-x="1213" 
d="M96 0l186 1122q21 120 86 206.5t165 134t223 47.5q120 0 206 -45t125.5 -129.5t19.5 -201.5q-22 -133 -104 -223.5t-204 -126.5l-1 -10q144 -18 220 -118.5t49 -255.5q-19 -116 -88.5 -206.5t-176 -142t-236.5 -51.5h-144l22 126h143q91 0 163.5 35t120.5 97t61 144
q23 131 -55.5 213t-238.5 82h-94l21 127h68q90 0 160.5 39t116 105.5t59.5 147.5q19 118 -41.5 193t-189.5 75q-122 0 -211 -71.5t-110 -191.5l-186 -1121h-135z" />
    <glyph glyph-name="agrave" unicode="&#xe0;" horiz-adv-x="1215" 
d="M468 -23q-137 0 -228.5 72t-128 201.5t-8.5 299.5q29 171 108.5 299t195 199.5t251.5 71.5q97 0 159.5 -34t98 -86t50.5 -107h10l34 211h134l-183 -1104h-130l33 207h-13q-34 -56 -87 -109t-126.5 -87t-169.5 -34zM507 99q107 0 192.5 58t143 160t78.5 234
q23 133 -0.5 233.5t-90 157t-173.5 56.5q-109 0 -195.5 -58t-144 -158.5t-78.5 -230.5q-22 -130 2 -232.5t91 -161t175 -58.5zM661 1253l-133 290h153l93 -290h-113z" />
    <glyph glyph-name="aacute" unicode="&#xe1;" horiz-adv-x="1215" 
d="M468 -23q-137 0 -228.5 72t-128 201.5t-8.5 299.5q29 171 108.5 299t195 199.5t251.5 71.5q97 0 159.5 -34t98 -86t50.5 -107h10l34 211h134l-183 -1104h-130l33 207h-13q-34 -56 -87 -109t-126.5 -87t-169.5 -34zM507 99q107 0 192.5 58t143 160t78.5 234
q23 133 -0.5 233.5t-90 157t-173.5 56.5q-109 0 -195.5 -58t-144 -158.5t-78.5 -230.5q-22 -130 2 -232.5t91 -161t175 -58.5zM650 1273l193 275h153l-233 -275h-113z" />
    <glyph glyph-name="acircumflex" unicode="&#xe2;" horiz-adv-x="1215" 
d="M468 -23q-137 0 -228.5 72t-128 201.5t-8.5 299.5q29 171 108.5 299t195 199.5t251.5 71.5q97 0 159.5 -34t98 -86t50.5 -107h10l34 211h134l-183 -1104h-130l33 207h-13q-34 -56 -87 -109t-126.5 -87t-169.5 -34zM507 99q107 0 192.5 58t143 160t78.5 234
q23 133 -0.5 233.5t-90 157t-173.5 56.5q-109 0 -195.5 -58t-144 -158.5t-78.5 -230.5q-22 -130 2 -232.5t91 -161t175 -58.5zM548 1269h-135l1 7l288 270h120l200 -270l-1 -7h-137l-135 193z" />
    <glyph glyph-name="atilde" unicode="&#xe3;" horiz-adv-x="1215" 
d="M468 -23q-137 0 -228.5 72t-128 201.5t-8.5 299.5q29 171 108.5 299t195 199.5t251.5 71.5q97 0 159.5 -34t98 -86t50.5 -107h10l34 211h134l-183 -1104h-130l33 207h-13q-34 -56 -87 -109t-126.5 -87t-169.5 -34zM507 99q107 0 192.5 58t143 160t78.5 234
q23 133 -0.5 233.5t-90 157t-173.5 56.5q-109 0 -195.5 -58t-144 -158.5t-78.5 -230.5q-22 -130 2 -232.5t91 -161t175 -58.5zM854 1310q-38 0 -69.5 14.5t-58.5 33t-51 33t-48 14.5q-35 0 -58 -27t-31 -63h-99q18 83 67 136.5t123 53.5q42 0 72.5 -14.5t55.5 -33t48.5 -33
t50.5 -14.5q31 0 52 21t36 68h97q-20 -87 -70 -138t-117 -51z" />
    <glyph glyph-name="adieresis" unicode="&#xe4;" horiz-adv-x="1215" 
d="M468 -23q-137 0 -228.5 72t-128 201.5t-8.5 299.5q29 171 108.5 299t195 199.5t251.5 71.5q97 0 159.5 -34t98 -86t50.5 -107h10l34 211h134l-183 -1104h-130l33 207h-13q-34 -56 -87 -109t-126.5 -87t-169.5 -34zM507 99q107 0 192.5 58t143 160t78.5 234
q23 133 -0.5 233.5t-90 157t-173.5 56.5q-109 0 -195.5 -58t-144 -158.5t-78.5 -230.5q-22 -130 2 -232.5t91 -161t175 -58.5zM933 1316q-39 0 -62 28t-17 67t39 66.5t72 27.5t61.5 -27.5t16.5 -66.5q-7 -39 -39 -67t-71 -28zM518 1316q-39 0 -62 28t-17 67q7 39 39.5 66.5
t71.5 27.5t61.5 -27.5t16.5 -66.5q-7 -39 -39 -67t-71 -28z" />
    <glyph glyph-name="aring" unicode="&#xe5;" horiz-adv-x="1215" 
d="M468 -23q-137 0 -228.5 72t-128 201.5t-8.5 299.5q29 171 108.5 299t195 199.5t251.5 71.5q97 0 159.5 -34t98 -86t50.5 -107h10l34 211h134l-183 -1104h-130l33 207h-13q-34 -56 -87 -109t-126.5 -87t-169.5 -34zM507 99q107 0 192.5 58t143 160t78.5 234
q23 133 -0.5 233.5t-90 157t-173.5 56.5q-109 0 -195.5 -58t-144 -158.5t-78.5 -230.5q-22 -130 2 -232.5t91 -161t175 -58.5zM707 1203q-63 0 -109.5 29.5t-69 79t-12.5 110.5t49 110t95.5 78.5t118.5 29.5q63 0 109.5 -29.5t68.5 -78.5t12 -110q-9 -61 -48 -110.5t-95 -79
t-119 -29.5zM719 1301q52 0 94 35.5t50 86.5t-20 85t-77 34q-51 0 -93 -34.5t-51 -85.5q-8 -51 19.5 -86t77.5 -35z" />
    <glyph glyph-name="ae" unicode="&#xe6;" horiz-adv-x="1833" 
d="M378 -19q-169 0 -254.5 90.5t-59.5 243.5q15 88 66 155.5t146 105.5t241 38h104.5t106.5 -0.5t125 -0.5l-10 -107h-161h-158q-137 0 -224 -46.5t-103 -147.5q-17 -104 34.5 -158t166.5 -54q114 0 193.5 45.5t126.5 121t62 163.5l61 343q20 114 -37 176t-188 62
q-79 0 -145 -28.5t-110 -79t-59 -117.5l-135 1q19 101 84 178t162.5 120.5t215.5 43.5q120 0 202 -44t119 -122.5t19 -180.5l-77 -464l-11 -2q-35 -96 -103 -171.5t-167.5 -119.5t-232.5 -44zM1210 -21q-135 0 -227 50t-139 149t-47 243q0 152 44.5 281.5t124.5 225t188 149
t236 53.5q105 0 181.5 -35t118.5 -100t42 -155q0 -91 -48 -154.5t-150.5 -103.5t-263 -58.5t-385.5 -18.5l14 106q200 0 334.5 12t214.5 39t115 73t35 113q0 77 -57.5 119t-158.5 42q-119 0 -215.5 -59.5t-157.5 -163.5t-72 -239q-6 -38 -10 -62.5t-5.5 -40.5t-1.5 -29
q0 -158 72 -237t222 -79q117 0 203 47.5t143 136.5l124 -33q-71 -131 -193 -201t-281 -70z" />
    <glyph glyph-name="ccedilla" unicode="&#xe7;" horiz-adv-x="1125" 
d="M508 -21q-129 0 -222.5 57.5t-143.5 161t-48 240.5q1 129 43.5 251t119.5 219.5t184 154.5t239 57q87 0 156 -25.5t118 -69.5t77.5 -98t34.5 -112l-131 -25q-3 36 -21 73t-49.5 67.5t-77.5 49.5t-110 19q-104 0 -186.5 -49t-141 -130.5t-89.5 -181.5t-32 -201
q-2 -98 29 -174.5t94.5 -119.5t159.5 -43q66 0 122.5 20t101 53t76 71.5t48.5 76.5l125 -37q-25 -58 -70.5 -112.5t-107.5 -98t-137.5 -69t-160.5 -25.5zM328 -418l14 85h111q57 0 87 20t37 61q7 40 -16 60.5t-83 20.5h-74l68 209h74l-3 -38l-24 -92q92 -3 133.5 -43
t29.5 -116q-14 -83 -74.5 -125t-167.5 -42h-112z" />
    <glyph glyph-name="egrave" unicode="&#xe8;" horiz-adv-x="1138" 
d="M514 -21q-128 0 -222.5 52.5t-146 152t-51.5 237.5q0 148 45 276.5t127 224.5t191.5 150t237.5 54q106 0 183 -36t118.5 -102t41.5 -157q0 -101 -53.5 -166.5t-159.5 -103.5t-265 -53.5t-370 -15.5l16 108q184 0 316 9t216.5 34t125 70.5t40.5 118.5q0 80 -58 126
t-163 46q-114 0 -200 -51t-143.5 -136.5t-87 -188.5t-29.5 -208q0 -92 32 -164.5t98 -114.5t168 -42q113 0 204.5 52t141.5 137l125 -32q-65 -125 -192.5 -201t-285.5 -76zM659 1253l-133 290h153l93 -290h-113z" />
    <glyph glyph-name="eacute" unicode="&#xe9;" horiz-adv-x="1138" 
d="M514 -21q-128 0 -222.5 52.5t-146 152t-51.5 237.5q0 148 45 276.5t127 224.5t191.5 150t237.5 54q106 0 183 -36t118.5 -102t41.5 -157q0 -101 -53.5 -166.5t-159.5 -103.5t-265 -53.5t-370 -15.5l16 108q184 0 316 9t216.5 34t125 70.5t40.5 118.5q0 80 -58 126
t-163 46q-114 0 -200 -51t-143.5 -136.5t-87 -188.5t-29.5 -208q0 -92 32 -164.5t98 -114.5t168 -42q113 0 204.5 52t141.5 137l125 -32q-65 -125 -192.5 -201t-285.5 -76zM648 1273l193 275h153l-233 -275h-113z" />
    <glyph glyph-name="ecircumflex" unicode="&#xea;" horiz-adv-x="1138" 
d="M514 -21q-128 0 -222.5 52.5t-146 152t-51.5 237.5q0 148 45 276.5t127 224.5t191.5 150t237.5 54q106 0 183 -36t118.5 -102t41.5 -157q0 -101 -53.5 -166.5t-159.5 -103.5t-265 -53.5t-370 -15.5l16 108q184 0 316 9t216.5 34t125 70.5t40.5 118.5q0 80 -58 126
t-163 46q-114 0 -200 -51t-143.5 -136.5t-87 -188.5t-29.5 -208q0 -92 32 -164.5t98 -114.5t168 -42q113 0 204.5 52t141.5 137l125 -32q-65 -125 -192.5 -201t-285.5 -76zM546 1269h-135l1 7l288 270h120l200 -270l-1 -7h-137l-135 193z" />
    <glyph glyph-name="edieresis" unicode="&#xeb;" horiz-adv-x="1138" 
d="M514 -21q-128 0 -222.5 52.5t-146 152t-51.5 237.5q0 148 45 276.5t127 224.5t191.5 150t237.5 54q106 0 183 -36t118.5 -102t41.5 -157q0 -101 -53.5 -166.5t-159.5 -103.5t-265 -53.5t-370 -15.5l16 108q184 0 316 9t216.5 34t125 70.5t40.5 118.5q0 80 -58 126
t-163 46q-114 0 -200 -51t-143.5 -136.5t-87 -188.5t-29.5 -208q0 -92 32 -164.5t98 -114.5t168 -42q113 0 204.5 52t141.5 137l125 -32q-65 -125 -192.5 -201t-285.5 -76zM931 1316q-39 0 -62 28t-17 67t39 66.5t72 27.5t61.5 -27.5t16.5 -66.5q-7 -39 -39 -67t-71 -28z
M516 1316q-39 0 -62 28t-17 67q7 39 39.5 66.5t71.5 27.5t61.5 -27.5t16.5 -66.5q-7 -39 -39 -67t-71 -28z" />
    <glyph glyph-name="igrave" unicode="&#xec;" horiz-adv-x="459" 
d="M71 0l183 1104h134l-183 -1104h-134zM292 1253l-133 290h153l93 -290h-113z" />
    <glyph glyph-name="iacute" unicode="&#xed;" horiz-adv-x="459" 
d="M71 0l183 1104h134l-183 -1104h-134zM281 1273l193 275h153l-233 -275h-113z" />
    <glyph glyph-name="icircumflex" unicode="&#xee;" horiz-adv-x="459" 
d="M71 0l183 1104h134l-183 -1104h-134zM179 1269h-135l1 7l288 270h120l200 -270l-1 -7h-137l-135 193z" />
    <glyph glyph-name="idieresis" unicode="&#xef;" horiz-adv-x="459" 
d="M71 0l183 1104h134l-183 -1104h-134zM564 1316q-39 0 -62 28t-17 67t39 66.5t72 27.5t61.5 -27.5t16.5 -66.5q-7 -39 -39 -67t-71 -28zM149 1316q-39 0 -62 28t-17 67q7 39 39.5 66.5t71.5 27.5t61.5 -27.5t16.5 -66.5q-7 -39 -39 -67t-71 -28z" />
    <glyph glyph-name="eth" unicode="&#xf0;" horiz-adv-x="1179" 
d="M1108 1430l-639 -280l-21 88l638 281zM495 -24q-144 0 -242.5 70.5t-139.5 192t-16 275.5q26 157 107 278.5t195.5 190.5t242.5 69q83 0 144.5 -28.5t103 -75t63.5 -101.5h12q-20 111 -72 225.5t-147.5 220.5t-243.5 190l69 98q122 -67 226 -168.5t177 -233.5t101.5 -290
t0.5 -338q-29 -181 -112.5 -309t-204.5 -197t-264 -69zM517 98q109 0 197.5 55t147 148t77.5 207q19 110 -6 208.5t-93.5 160.5t-183.5 62q-111 0 -200 -58.5t-147 -155t-77 -210.5q-19 -113 6 -208t94.5 -152t184.5 -57z" />
    <glyph glyph-name="ntilde" unicode="&#xf1;" horiz-adv-x="1183" 
d="M317 680l-113 -680h-134l184 1104h129l-42 -258l-25 4q70 142 176.5 206t231.5 64q115 0 195 -48.5t115 -140.5t13 -224l-117 -707h-134l117 705q23 139 -38.5 215.5t-187.5 76.5q-89 0 -167 -38t-132 -109t-71 -170zM848 1310q-38 0 -69.5 14.5t-58.5 33t-51 33
t-48 14.5q-35 0 -58 -27t-31 -63h-99q18 83 67 136.5t123 53.5q42 0 72.5 -14.5t55.5 -33t48.5 -33t50.5 -14.5q31 0 52 21t36 68h97q-20 -87 -70 -138t-117 -51z" />
    <glyph glyph-name="ograve" unicode="&#xf2;" horiz-adv-x="1189" 
d="M508 -23q-128 0 -221 56.5t-143.5 158.5t-50.5 237q0 130 41.5 253.5t119 222t185.5 157t241 58.5q128 0 221 -56.5t143.5 -158t50.5 -237.5q0 -131 -41.5 -254.5t-119.5 -222.5t-186 -156.5t-240 -57.5zM511 98q105 0 188.5 50.5t142 133.5t89 183.5t30.5 200.5
q0 97 -32 172t-95 118t-157 43q-104 0 -187 -49.5t-141.5 -132.5t-90 -184t-31.5 -204q0 -144 71.5 -237.5t212.5 -93.5zM657 1253l-133 290h153l93 -290h-113z" />
    <glyph glyph-name="oacute" unicode="&#xf3;" horiz-adv-x="1189" 
d="M508 -23q-128 0 -221 56.5t-143.5 158.5t-50.5 237q0 130 41.5 253.5t119 222t185.5 157t241 58.5q128 0 221 -56.5t143.5 -158t50.5 -237.5q0 -131 -41.5 -254.5t-119.5 -222.5t-186 -156.5t-240 -57.5zM511 98q105 0 188.5 50.5t142 133.5t89 183.5t30.5 200.5
q0 97 -32 172t-95 118t-157 43q-104 0 -187 -49.5t-141.5 -132.5t-90 -184t-31.5 -204q0 -144 71.5 -237.5t212.5 -93.5zM647 1273l193 275h153l-233 -275h-113z" />
    <glyph glyph-name="ocircumflex" unicode="&#xf4;" horiz-adv-x="1189" 
d="M508 -23q-128 0 -221 56.5t-143.5 158.5t-50.5 237q0 130 41.5 253.5t119 222t185.5 157t241 58.5q128 0 221 -56.5t143.5 -158t50.5 -237.5q0 -131 -41.5 -254.5t-119.5 -222.5t-186 -156.5t-240 -57.5zM511 98q105 0 188.5 50.5t142 133.5t89 183.5t30.5 200.5
q0 97 -32 172t-95 118t-157 43q-104 0 -187 -49.5t-141.5 -132.5t-90 -184t-31.5 -204q0 -144 71.5 -237.5t212.5 -93.5zM544 1269h-135l1 7l288 270h120l200 -270l-1 -7h-137l-135 193z" />
    <glyph glyph-name="otilde" unicode="&#xf5;" horiz-adv-x="1189" 
d="M508 -23q-128 0 -221 56.5t-143.5 158.5t-50.5 237q0 130 41.5 253.5t119 222t185.5 157t241 58.5q128 0 221 -56.5t143.5 -158t50.5 -237.5q0 -131 -41.5 -254.5t-119.5 -222.5t-186 -156.5t-240 -57.5zM511 98q105 0 188.5 50.5t142 133.5t89 183.5t30.5 200.5
q0 97 -32 172t-95 118t-157 43q-104 0 -187 -49.5t-141.5 -132.5t-90 -184t-31.5 -204q0 -144 71.5 -237.5t212.5 -93.5zM850 1310q-38 0 -69.5 14.5t-58.5 33t-51 33t-48 14.5q-35 0 -58 -27t-31 -63h-99q18 83 67 136.5t123 53.5q42 0 72.5 -14.5t55.5 -33t48.5 -33
t50.5 -14.5q31 0 52 21t36 68h97q-20 -87 -70 -138t-117 -51z" />
    <glyph glyph-name="odieresis" unicode="&#xf6;" horiz-adv-x="1189" 
d="M508 -23q-128 0 -221 56.5t-143.5 158.5t-50.5 237q0 130 41.5 253.5t119 222t185.5 157t241 58.5q128 0 221 -56.5t143.5 -158t50.5 -237.5q0 -131 -41.5 -254.5t-119.5 -222.5t-186 -156.5t-240 -57.5zM511 98q105 0 188.5 50.5t142 133.5t89 183.5t30.5 200.5
q0 97 -32 172t-95 118t-157 43q-104 0 -187 -49.5t-141.5 -132.5t-90 -184t-31.5 -204q0 -144 71.5 -237.5t212.5 -93.5zM929 1316q-39 0 -62 28t-17 67t39 66.5t72 27.5t61.5 -27.5t16.5 -66.5q-7 -39 -39 -67t-71 -28zM514 1316q-39 0 -62 28t-17 67q7 39 39.5 66.5
t71.5 27.5t61.5 -27.5t16.5 -66.5q-7 -39 -39 -67t-71 -28z" />
    <glyph glyph-name="divide" unicode="&#xf7;" horiz-adv-x="1319" 
d="M1128 647l-21 -129h-905l20 129h906zM595 115q-48 0 -74.5 32.5t-21.5 77.5q3 28 20 50.5t42 36t53 12.5q42 1 70.5 -30t23.5 -79q-5 -43 -39.5 -71.5t-73.5 -28.5zM715 841q-30 0 -53.5 14.5t-35.5 39.5t-8 56q6 42 40 71t77 29t71 -32t22 -78q-6 -42 -39 -71.5
t-74 -28.5z" />
    <glyph glyph-name="oslash" unicode="&#xf8;" horiz-adv-x="1190" 
d="M508 -22q-128 0 -221 56.5t-143.5 158.5t-50.5 237q0 130 41.5 253.5t119 222t185.5 157t241 58.5q128 0 221 -56.5t143.5 -158t50.5 -237.5q0 -131 -41.5 -254.5t-119.5 -222.5t-186 -156.5t-240 -57.5zM511 99q105 0 188.5 50.5t142 133.5t89 183.5t30.5 200.5
q0 97 -32 172t-95 118t-157 43q-104 0 -187 -49.5t-141.5 -132.5t-90 -184t-31.5 -204q0 -144 71.5 -237.5t212.5 -93.5zM77 -34l-71 70l1108 1104l71 -70z" />
    <glyph glyph-name="ugrave" unicode="&#xf9;" horiz-adv-x="1184" 
d="M455 -16q-112 0 -191.5 47t-114 138.5t-13.5 223.5l118 711h134l-116 -701q-22 -137 41 -216.5t192 -79.5q87 0 163 37t129 107t69 169l113 684h134l-183 -1104h-130l43 258h24q-71 -145 -178.5 -209.5t-233.5 -64.5zM654 1253l-133 290h153l93 -290h-113z" />
    <glyph glyph-name="uacute" unicode="&#xfa;" horiz-adv-x="1184" 
d="M455 -16q-112 0 -191.5 47t-114 138.5t-13.5 223.5l118 711h134l-116 -701q-22 -137 41 -216.5t192 -79.5q87 0 163 37t129 107t69 169l113 684h134l-183 -1104h-130l43 258h24q-71 -145 -178.5 -209.5t-233.5 -64.5zM644 1273l193 275h153l-233 -275h-113z" />
    <glyph glyph-name="ucircumflex" unicode="&#xfb;" horiz-adv-x="1184" 
d="M455 -16q-112 0 -191.5 47t-114 138.5t-13.5 223.5l118 711h134l-116 -701q-22 -137 41 -216.5t192 -79.5q87 0 163 37t129 107t69 169l113 684h134l-183 -1104h-130l43 258h24q-71 -145 -178.5 -209.5t-233.5 -64.5zM542 1269h-135l1 7l288 270h120l200 -270l-1 -7h-137
l-135 193z" />
    <glyph glyph-name="udieresis" unicode="&#xfc;" horiz-adv-x="1184" 
d="M455 -16q-112 0 -191.5 47t-114 138.5t-13.5 223.5l118 711h134l-116 -701q-22 -137 41 -216.5t192 -79.5q87 0 163 37t129 107t69 169l113 684h134l-183 -1104h-130l43 258h24q-71 -145 -178.5 -209.5t-233.5 -64.5zM926 1316q-39 0 -62 28t-17 67t39 66.5t72 27.5
t61.5 -27.5t16.5 -66.5q-7 -39 -39 -67t-71 -28zM511 1316q-39 0 -62 28t-17 67q7 39 39.5 66.5t71.5 27.5t61.5 -27.5t16.5 -66.5q-7 -39 -39 -67t-71 -28z" />
    <glyph glyph-name="yacute" unicode="&#xfd;" horiz-adv-x="1115" 
d="M-23 -406l48 117l34 -3q53 -14 99 -5t87.5 47.5t79.5 112.5l71 131l-243 1110h139l142 -690q19 -91 31.5 -181.5t25.5 -178.5h-45q43 88 85.5 178.5t91.5 181.5l371 690h152l-711 -1290q-44 -80 -96 -133t-112.5 -79t-130.5 -26q-36 0 -67 5.5t-52 12.5zM608 1273
l193 275h153l-233 -275h-113z" />
    <glyph glyph-name="thorn" unicode="&#xfe;" horiz-adv-x="1209" 
d="M554 -23q-95 0 -156.5 33.5t-97 86.5t-52.5 110h-9l-104 -625h-134l316 1908h134l-98 -592h9q35 55 87 107t125.5 85.5t169.5 33.5q136 0 226.5 -71.5t127 -200t8.5 -299.5q-28 -172 -107.5 -302t-194 -202t-250.5 -72zM556 98q108 0 193 59.5t142.5 162.5t78.5 233
q22 130 -1 231.5t-88.5 160t-174.5 58.5q-107 0 -192 -57.5t-142 -158.5t-79 -234q-22 -131 1 -234t89 -162t173 -59z" />
    <glyph glyph-name="ydieresis" unicode="&#xff;" horiz-adv-x="1115" 
d="M-23 -406l48 117l34 -3q53 -14 99 -5t87.5 47.5t79.5 112.5l71 131l-243 1110h139l142 -690q19 -91 31.5 -181.5t25.5 -178.5h-45q43 88 85.5 178.5t91.5 181.5l371 690h152l-711 -1290q-44 -80 -96 -133t-112.5 -79t-130.5 -26q-36 0 -67 5.5t-52 12.5zM890 1316
q-39 0 -62 28t-17 67t39 66.5t72 27.5t61.5 -27.5t16.5 -66.5q-7 -39 -39 -67t-71 -28zM475 1316q-39 0 -62 28t-17 67q7 39 39.5 66.5t71.5 27.5t61.5 -27.5t16.5 -66.5q-7 -39 -39 -67t-71 -28z" />
    <glyph glyph-name="Amacron" unicode="&#x100;" horiz-adv-x="1361" 
d="M-43 0l795 1490h165l304 -1490h-143l-192 976q-14 77 -33 187t-40 262h32q-70 -148 -123.5 -257.5t-97.5 -191.5l-512 -976h-155zM286 443l21 125h751l-20 -125h-752zM1157 1847l-18 -110h-524l18 110h524z" />
    <glyph glyph-name="amacron" unicode="&#x101;" horiz-adv-x="1215" 
d="M468 -23q-137 0 -228.5 72t-128 201.5t-8.5 299.5q29 171 108.5 299t195 199.5t251.5 71.5q97 0 159.5 -34t98 -86t50.5 -107h10l34 211h134l-183 -1104h-130l33 207h-13q-34 -56 -87 -109t-126.5 -87t-169.5 -34zM507 99q107 0 192.5 58t143 160t78.5 234
q23 133 -0.5 233.5t-90 157t-173.5 56.5q-109 0 -195.5 -58t-144 -158.5t-78.5 -230.5q-22 -130 2 -232.5t91 -161t175 -58.5zM1011 1461l-18 -110h-524l18 110h524z" />
    <glyph glyph-name="Abreve" unicode="&#x102;" horiz-adv-x="1361" 
d="M-43 0l795 1490h165l304 -1490h-143l-192 976q-14 77 -33 187t-40 262h32q-70 -148 -123.5 -257.5t-97.5 -191.5l-512 -976h-155zM286 443l21 125h751l-20 -125h-752zM862 1647q-79 0 -136 37t-84 99.5t-14 138.5h103q-13 -76 29.5 -126t118.5 -50q50 0 94 23t74 63
t38 90h103q-13 -76 -60.5 -139t-117 -99.5t-148.5 -36.5z" />
    <glyph glyph-name="abreve" unicode="&#x103;" horiz-adv-x="1215" 
d="M468 -23q-137 0 -228.5 72t-128 201.5t-8.5 299.5q29 171 108.5 299t195 199.5t251.5 71.5q97 0 159.5 -34t98 -86t50.5 -107h10l34 211h134l-183 -1104h-130l33 207h-13q-34 -56 -87 -109t-126.5 -87t-169.5 -34zM507 99q107 0 192.5 58t143 160t78.5 234
q23 133 -0.5 233.5t-90 157t-173.5 56.5q-109 0 -195.5 -58t-144 -158.5t-78.5 -230.5q-22 -130 2 -232.5t91 -161t175 -58.5zM716 1261q-79 0 -136 37t-84 99.5t-14 138.5h103q-13 -76 29.5 -126t118.5 -50q50 0 94 23t74 63t38 90h103q-13 -76 -60.5 -139t-117 -99.5
t-148.5 -36.5z" />
    <glyph glyph-name="Aogonek" unicode="&#x104;" horiz-adv-x="1361" 
d="M-43 0l795 1490h165l304 -1490h-143l-192 976q-14 77 -33 187t-40 262h32q-70 -148 -123.5 -257.5t-97.5 -191.5l-512 -976h-155zM286 443l21 125h751l-20 -125h-752zM1054 -429q-86 0 -141 45t-40 135q13 76 72 141.5t148 125.5l127 -18q-85 -61 -141.5 -113.5
t-66.5 -112.5q-8 -44 15.5 -66t69.5 -22q22 0 42.5 5.5t35.5 11.5l18 -103q-27 -10 -61.5 -19.5t-77.5 -9.5z" />
    <glyph glyph-name="aogonek" unicode="&#x105;" horiz-adv-x="1215" 
d="M468 -23q-137 0 -228.5 72t-128 201.5t-8.5 299.5q29 171 108.5 299t195 199.5t251.5 71.5q97 0 159.5 -34t98 -86t50.5 -107h10l34 211h134l-183 -1104h-130l33 207h-13q-34 -56 -87 -109t-126.5 -87t-169.5 -34zM507 99q107 0 192.5 58t143 160t78.5 234
q23 133 -0.5 233.5t-90 157t-173.5 56.5q-109 0 -195.5 -58t-144 -158.5t-78.5 -230.5q-22 -130 2 -232.5t91 -161t175 -58.5zM797 -424q-88 0 -141.5 46t-39.5 133q13 77 72 140t146 121l128 -16q-79 -57 -138 -108t-70 -114q-7 -43 16.5 -65t68.5 -22q22 0 42 5t37 12
l18 -103q-27 -10 -62 -19.5t-77 -9.5z" />
    <glyph glyph-name="Cacute" unicode="&#x106;" horiz-adv-x="1478" 
d="M685 -21q-167 0 -290 73t-189.5 207t-66.5 317q0 175 54.5 342t157 301t247 213t324.5 79q121 0 217 -37.5t163.5 -104.5t103 -156t36.5 -193h-141q-3 77 -30.5 142.5t-77 114t-119 75.5t-157.5 27q-146 0 -264.5 -67.5t-202.5 -182.5t-129 -257.5t-45 -292.5
q0 -151 53 -256t146.5 -158.5t215.5 -53.5q90 0 171.5 27t149.5 76t118.5 114t79.5 142h142q-35 -103 -98.5 -192t-151 -156t-193 -105t-224.5 -38zM885 1659l193 275h153l-233 -275h-113z" />
    <glyph glyph-name="cacute" unicode="&#x107;" horiz-adv-x="1125" 
d="M508 -21q-129 0 -222.5 57.5t-143.5 161t-48 240.5q1 129 43.5 251t119.5 219.5t184 154.5t239 57q87 0 156 -25.5t118 -69.5t77.5 -98t34.5 -112l-131 -25q-3 36 -21 73t-49.5 67.5t-77.5 49.5t-110 19q-104 0 -186.5 -49t-141 -130.5t-89.5 -181.5t-32 -201
q-2 -98 29 -174.5t94.5 -119.5t159.5 -43q66 0 122.5 20t101 53t76 71.5t48.5 76.5l125 -37q-25 -58 -70.5 -112.5t-107.5 -98t-137.5 -69t-160.5 -25.5zM645 1273l193 275h153l-233 -275h-113z" />
    <glyph glyph-name="Ccircumflex" unicode="&#x108;" horiz-adv-x="1478" 
d="M685 -21q-167 0 -290 73t-189.5 207t-66.5 317q0 175 54.5 342t157 301t247 213t324.5 79q121 0 217 -37.5t163.5 -104.5t103 -156t36.5 -193h-141q-3 77 -30.5 142.5t-77 114t-119 75.5t-157.5 27q-146 0 -264.5 -67.5t-202.5 -182.5t-129 -257.5t-45 -292.5
q0 -151 53 -256t146.5 -158.5t215.5 -53.5q90 0 171.5 27t149.5 76t118.5 114t79.5 142h142q-35 -103 -98.5 -192t-151 -156t-193 -105t-224.5 -38zM782 1655h-135l1 7l288 270h120l200 -270l-1 -7h-137l-135 193z" />
    <glyph glyph-name="ccircumflex" unicode="&#x109;" horiz-adv-x="1125" 
d="M508 -21q-129 0 -222.5 57.5t-143.5 161t-48 240.5q1 129 43.5 251t119.5 219.5t184 154.5t239 57q87 0 156 -25.5t118 -69.5t77.5 -98t34.5 -112l-131 -25q-3 36 -21 73t-49.5 67.5t-77.5 49.5t-110 19q-104 0 -186.5 -49t-141 -130.5t-89.5 -181.5t-32 -201
q-2 -98 29 -174.5t94.5 -119.5t159.5 -43q66 0 122.5 20t101 53t76 71.5t48.5 76.5l125 -37q-25 -58 -70.5 -112.5t-107.5 -98t-137.5 -69t-160.5 -25.5zM543 1269h-135l1 7l288 270h120l200 -270l-1 -7h-137l-135 193z" />
    <glyph glyph-name="Cdotaccent" unicode="&#x10a;" horiz-adv-x="1478" 
d="M685 -21q-167 0 -290 73t-189.5 207t-66.5 317q0 175 54.5 342t157 301t247 213t324.5 79q121 0 217 -37.5t163.5 -104.5t103 -156t36.5 -193h-141q-3 77 -30.5 142.5t-77 114t-119 75.5t-157.5 27q-146 0 -264.5 -67.5t-202.5 -182.5t-129 -257.5t-45 -292.5
q0 -151 53 -256t146.5 -158.5t215.5 -53.5q90 0 171.5 27t149.5 76t118.5 114t79.5 142h142q-35 -103 -98.5 -192t-151 -156t-193 -105t-224.5 -38zM958 1702q-39 0 -63.5 28t-17.5 67q6 39 39.5 66.5t73.5 27.5q41 0 65 -27.5t17 -66.5q-6 -39 -39.5 -67t-74.5 -28z" />
    <glyph glyph-name="cdotaccent" unicode="&#x10b;" horiz-adv-x="1125" 
d="M508 -21q-129 0 -222.5 57.5t-143.5 161t-48 240.5q1 129 43.5 251t119.5 219.5t184 154.5t239 57q87 0 156 -25.5t118 -69.5t77.5 -98t34.5 -112l-131 -25q-3 36 -21 73t-49.5 67.5t-77.5 49.5t-110 19q-104 0 -186.5 -49t-141 -130.5t-89.5 -181.5t-32 -201
q-2 -98 29 -174.5t94.5 -119.5t159.5 -43q66 0 122.5 20t101 53t76 71.5t48.5 76.5l125 -37q-25 -58 -70.5 -112.5t-107.5 -98t-137.5 -69t-160.5 -25.5zM719 1316q-39 0 -63.5 28t-17.5 67q6 39 39.5 66.5t73.5 27.5q41 0 65 -27.5t17 -66.5q-6 -39 -39.5 -67t-74.5 -28z
" />
    <glyph glyph-name="Ccaron" unicode="&#x10c;" horiz-adv-x="1478" 
d="M685 -21q-167 0 -290 73t-189.5 207t-66.5 317q0 175 54.5 342t157 301t247 213t324.5 79q121 0 217 -37.5t163.5 -104.5t103 -156t36.5 -193h-141q-3 77 -30.5 142.5t-77 114t-119 75.5t-157.5 27q-146 0 -264.5 -67.5t-202.5 -182.5t-129 -257.5t-45 -292.5
q0 -151 53 -256t146.5 -158.5t215.5 -53.5q90 0 171.5 27t149.5 76t118.5 114t79.5 142h142q-35 -103 -98.5 -192t-151 -156t-193 -105t-224.5 -38zM828 1930l137 -192l199 192h137l-1 -6l-291 -270h-119l-198 270l1 6h135z" />
    <glyph glyph-name="ccaron" unicode="&#x10d;" horiz-adv-x="1125" 
d="M508 -21q-129 0 -222.5 57.5t-143.5 161t-48 240.5q1 129 43.5 251t119.5 219.5t184 154.5t239 57q87 0 156 -25.5t118 -69.5t77.5 -98t34.5 -112l-131 -25q-3 36 -21 73t-49.5 67.5t-77.5 49.5t-110 19q-104 0 -186.5 -49t-141 -130.5t-89.5 -181.5t-32 -201
q-2 -98 29 -174.5t94.5 -119.5t159.5 -43q66 0 122.5 20t101 53t76 71.5t48.5 76.5l125 -37q-25 -58 -70.5 -112.5t-107.5 -98t-137.5 -69t-160.5 -25.5zM589 1544l137 -192l199 192h137l-1 -6l-291 -270h-119l-198 270l1 6h135z" />
    <glyph glyph-name="Dcaron" unicode="&#x10e;" horiz-adv-x="1452" 
d="M557 0h-383l20 126h352q191 0 332 75t229.5 215t119.5 333q32 192 -6 330t-146 211.5t-288 73.5h-393l21 126h379q214 0 354.5 -89t197.5 -255.5t19 -397.5q-39 -236 -145 -403t-273 -256t-390 -89zM484 1490l-247 -1490h-141l247 1490h141zM673 1930l137 -192l199 192
h137l-1 -6l-291 -270h-119l-198 270l1 6h135z" />
    <glyph glyph-name="dcaron" unicode="&#x10f;" horiz-adv-x="1300" 
d="M476 -23q-179 0 -281.5 120t-102.5 321q0 128 38.5 253t110.5 226.5t175 162t233 60.5q99 0 163.5 -34.5t101 -87.5t51.5 -109h8l99 601h135l-247 -1490h-131l35 206h-11q-34 -57 -86.5 -110t-124.5 -86t-166 -33zM497 99q105 0 186 51.5t136.5 136.5t84.5 188t29 204
q0 145 -69 232t-201 87q-104 0 -185 -50.5t-137 -134.5t-85 -185.5t-29 -203.5q0 -145 69 -235t201 -90zM1294 1182l62 378h136l-101 -378h-97z" />
    <glyph glyph-name="Dcroat" unicode="&#x110;" horiz-adv-x="1478" 
d="M583 0h-383l20 126h352q191 0 332 75t229.5 215t119.5 333q32 192 -6 330t-146 211.5t-288 73.5h-393l21 126h379q214 0 354.5 -89t197.5 -255.5t19 -397.5q-39 -236 -145 -403t-273 -256t-390 -89zM510 1490l-247 -1490h-141l247 1490h141zM50 686l19 118h706l-20 -118
h-705z" />
    <glyph glyph-name="dcroat" unicode="&#x111;" horiz-adv-x="1214" 
d="M476 -23q-179 0 -281.5 120t-102.5 321q0 128 38.5 253t110.5 226.5t175 162t233 60.5q99 0 163.5 -34.5t101 -87.5t51.5 -109h8l99 601h135l-247 -1490h-131l35 206h-11q-34 -57 -86.5 -110t-124.5 -86t-166 -33zM497 99q105 0 186 51.5t136.5 136.5t84.5 188t29 204
q0 145 -69 232t-201 87q-104 0 -185 -50.5t-137 -134.5t-85 -185.5t-29 -203.5q0 -145 69 -235t201 -90zM728 1241l18 108h614l-18 -108h-614z" />
    <glyph glyph-name="Emacron" unicode="&#x112;" horiz-adv-x="1209" 
d="M96 0l247 1490h887l-21 -126h-746l-90 -548h695l-21 -126h-696l-93 -564h756l-20 -126h-898zM1113 1847l-18 -110h-524l18 110h524z" />
    <glyph glyph-name="emacron" unicode="&#x113;" horiz-adv-x="1138" 
d="M514 -21q-128 0 -222.5 52.5t-146 152t-51.5 237.5q0 148 45 276.5t127 224.5t191.5 150t237.5 54q106 0 183 -36t118.5 -102t41.5 -157q0 -101 -53.5 -166.5t-159.5 -103.5t-265 -53.5t-370 -15.5l16 108q184 0 316 9t216.5 34t125 70.5t40.5 118.5q0 80 -58 126
t-163 46q-114 0 -200 -51t-143.5 -136.5t-87 -188.5t-29.5 -208q0 -92 32 -164.5t98 -114.5t168 -42q113 0 204.5 52t141.5 137l125 -32q-65 -125 -192.5 -201t-285.5 -76zM1009 1461l-18 -110h-524l18 110h524z" />
    <glyph glyph-name="Ebreve" unicode="&#x114;" horiz-adv-x="1209" 
d="M96 0l247 1490h887l-21 -126h-746l-90 -548h695l-21 -126h-696l-93 -564h756l-20 -126h-898zM818 1647q-79 0 -136 37t-84 99.5t-14 138.5h103q-13 -76 29.5 -126t118.5 -50q50 0 94 23t74 63t38 90h103q-13 -76 -60.5 -139t-117 -99.5t-148.5 -36.5z" />
    <glyph glyph-name="ebreve" unicode="&#x115;" horiz-adv-x="1138" 
d="M514 -21q-128 0 -222.5 52.5t-146 152t-51.5 237.5q0 148 45 276.5t127 224.5t191.5 150t237.5 54q106 0 183 -36t118.5 -102t41.5 -157q0 -101 -53.5 -166.5t-159.5 -103.5t-265 -53.5t-370 -15.5l16 108q184 0 316 9t216.5 34t125 70.5t40.5 118.5q0 80 -58 126
t-163 46q-114 0 -200 -51t-143.5 -136.5t-87 -188.5t-29.5 -208q0 -92 32 -164.5t98 -114.5t168 -42q113 0 204.5 52t141.5 137l125 -32q-65 -125 -192.5 -201t-285.5 -76zM714 1261q-79 0 -136 37t-84 99.5t-14 138.5h103q-13 -76 29.5 -126t118.5 -50q50 0 94 23t74 63
t38 90h103q-13 -76 -60.5 -139t-117 -99.5t-148.5 -36.5z" />
    <glyph glyph-name="Edotaccent" unicode="&#x116;" horiz-adv-x="1209" 
d="M96 0l247 1490h887l-21 -126h-746l-90 -548h695l-21 -126h-696l-93 -564h756l-20 -126h-898zM826 1702q-39 0 -63.5 28t-17.5 67q6 39 39.5 66.5t73.5 27.5q41 0 65 -27.5t17 -66.5q-6 -39 -39.5 -67t-74.5 -28z" />
    <glyph glyph-name="edotaccent" unicode="&#x117;" horiz-adv-x="1138" 
d="M514 -21q-128 0 -222.5 52.5t-146 152t-51.5 237.5q0 148 45 276.5t127 224.5t191.5 150t237.5 54q106 0 183 -36t118.5 -102t41.5 -157q0 -101 -53.5 -166.5t-159.5 -103.5t-265 -53.5t-370 -15.5l16 108q184 0 316 9t216.5 34t125 70.5t40.5 118.5q0 80 -58 126
t-163 46q-114 0 -200 -51t-143.5 -136.5t-87 -188.5t-29.5 -208q0 -92 32 -164.5t98 -114.5t168 -42q113 0 204.5 52t141.5 137l125 -32q-65 -125 -192.5 -201t-285.5 -76zM722 1316q-39 0 -63.5 28t-17.5 67q6 39 39.5 66.5t73.5 27.5q41 0 65 -27.5t17 -66.5
q-6 -39 -39.5 -67t-74.5 -28z" />
    <glyph glyph-name="Eogonek" unicode="&#x118;" horiz-adv-x="1209" 
d="M96 0l247 1490h887l-21 -126h-746l-90 -548h695l-21 -126h-696l-93 -564h756l-20 -126h-898zM828 -429q-88 0 -141.5 45.5t-38.5 134.5q13 75 73 142.5t156 128.5l117 -22q-85 -61 -142 -113.5t-67 -113.5q-7 -44 16.5 -65.5t68.5 -21.5q22 0 42 5t36 12l19 -103
q-27 -10 -61.5 -19.5t-77.5 -9.5z" />
    <glyph glyph-name="eogonek" unicode="&#x119;" horiz-adv-x="1138" 
d="M514 -21q-128 0 -222.5 52.5t-146 152t-51.5 237.5q0 148 45 276.5t127 224.5t191.5 150t237.5 54q106 0 183 -36t118.5 -102t41.5 -157q0 -101 -53.5 -166.5t-159.5 -103.5t-265 -53.5t-370 -15.5l16 108q184 0 316 9t216.5 34t125 70.5t40.5 118.5q0 80 -58 126
t-163 46q-114 0 -200 -51t-143.5 -136.5t-87 -188.5t-29.5 -208q0 -92 32 -164.5t98 -114.5t168 -42q113 0 204.5 52t141.5 137l125 -32q-65 -125 -192.5 -201t-285.5 -76zM702 -421q-90 0 -143.5 45.5t-39.5 133.5q13 76 70.5 151.5t132.5 155.5l269 191
q-41 -76 -94.5 -142t-105.5 -123.5t-89.5 -109.5t-44.5 -100q-7 -42 15.5 -64.5t71.5 -22.5q23 0 44 5.5t37 11.5l18 -103q-27 -10 -62.5 -19.5t-78.5 -9.5z" />
    <glyph glyph-name="Ecaron" unicode="&#x11a;" horiz-adv-x="1209" 
d="M96 0l247 1490h887l-21 -126h-746l-90 -548h695l-21 -126h-696l-93 -564h756l-20 -126h-898zM696 1930l137 -192l199 192h137l-1 -6l-291 -270h-119l-198 270l1 6h135z" />
    <glyph glyph-name="ecaron" unicode="&#x11b;" horiz-adv-x="1138" 
d="M514 -21q-128 0 -222.5 52.5t-146 152t-51.5 237.5q0 148 45 276.5t127 224.5t191.5 150t237.5 54q106 0 183 -36t118.5 -102t41.5 -157q0 -101 -53.5 -166.5t-159.5 -103.5t-265 -53.5t-370 -15.5l16 108q184 0 316 9t216.5 34t125 70.5t40.5 118.5q0 80 -58 126
t-163 46q-114 0 -200 -51t-143.5 -136.5t-87 -188.5t-29.5 -208q0 -92 32 -164.5t98 -114.5t168 -42q113 0 204.5 52t141.5 137l125 -32q-65 -125 -192.5 -201t-285.5 -76zM592 1544l137 -192l199 192h137l-1 -6l-291 -270h-119l-198 270l1 6h135z" />
    <glyph glyph-name="Gcircumflex" unicode="&#x11c;" horiz-adv-x="1508" 
d="M689 -21q-171 0 -294 73t-189.5 206.5t-66.5 315.5q0 175 54 342t155.5 301.5t245.5 214t324 79.5q124 0 221.5 -39t165 -107t103 -156.5t37.5 -187.5h-144q-6 74 -33.5 138.5t-76 114t-118 77.5t-160.5 28q-148 0 -265.5 -69t-200.5 -184.5t-127 -257.5t-44 -288
q0 -221 113 -345t305 -124q140 0 256.5 62t195 174.5t103.5 264.5l42 -14h-475l21 125h568l-21 -128q-23 -140 -85 -253t-154.5 -194.5t-208.5 -125t-247 -43.5zM776 1655h-135l1 7l288 270h120l200 -270l-1 -7h-137l-135 193z" />
    <glyph glyph-name="gcircumflex" unicode="&#x11d;" horiz-adv-x="1214" 
d="M435 -439q-119 0 -203.5 32t-134.5 88.5t-67 128.5l121 48q14 -47 46.5 -88t91 -65.5t149.5 -24.5q153 0 257.5 78t129.5 230l39 235l-10 -2q-34 -56 -86 -105.5t-123.5 -80t-164.5 -30.5q-117 0 -204 51t-134.5 146t-47.5 227q0 126 38 248.5t110.5 222.5t175.5 160
t232 60q74 0 128.5 -20t92 -54t60.5 -74.5t34 -82.5l13 3l35 212h131l-188 -1130q-24 -143 -97.5 -234.5t-183 -135t-240.5 -43.5zM502 126q107 0 187.5 48.5t135 129t81.5 179t27 199.5q0 143 -68.5 229.5t-200.5 86.5q-103 0 -183.5 -49t-137 -131t-86 -182t-29.5 -201
q0 -143 70.5 -226t203.5 -83zM540 1269h-135l1 7l288 270h120l200 -270l-1 -7h-137l-135 193z" />
    <glyph glyph-name="Gbreve" unicode="&#x11e;" horiz-adv-x="1508" 
d="M689 -21q-171 0 -294 73t-189.5 206.5t-66.5 315.5q0 175 54 342t155.5 301.5t245.5 214t324 79.5q124 0 221.5 -39t165 -107t103 -156.5t37.5 -187.5h-144q-6 74 -33.5 138.5t-76 114t-118 77.5t-160.5 28q-148 0 -265.5 -69t-200.5 -184.5t-127 -257.5t-44 -288
q0 -221 113 -345t305 -124q140 0 256.5 62t195 174.5t103.5 264.5l42 -14h-475l21 125h568l-21 -128q-23 -140 -85 -253t-154.5 -194.5t-208.5 -125t-247 -43.5zM943 1647q-79 0 -136 37t-84 99.5t-14 138.5h103q-13 -76 29.5 -126t118.5 -50q50 0 94 23t74 63t38 90h103
q-13 -76 -60.5 -139t-117 -99.5t-148.5 -36.5z" />
    <glyph glyph-name="gbreve" unicode="&#x11f;" horiz-adv-x="1214" 
d="M435 -439q-119 0 -203.5 32t-134.5 88.5t-67 128.5l121 48q14 -47 46.5 -88t91 -65.5t149.5 -24.5q153 0 257.5 78t129.5 230l39 235l-10 -2q-34 -56 -86 -105.5t-123.5 -80t-164.5 -30.5q-117 0 -204 51t-134.5 146t-47.5 227q0 126 38 248.5t110.5 222.5t175.5 160
t232 60q74 0 128.5 -20t92 -54t60.5 -74.5t34 -82.5l13 3l35 212h131l-188 -1130q-24 -143 -97.5 -234.5t-183 -135t-240.5 -43.5zM502 126q107 0 187.5 48.5t135 129t81.5 179t27 199.5q0 143 -68.5 229.5t-200.5 86.5q-103 0 -183.5 -49t-137 -131t-86 -182t-29.5 -201
q0 -143 70.5 -226t203.5 -83zM707 1261q-79 0 -136 37t-84 99.5t-14 138.5h103q-13 -76 29.5 -126t118.5 -50q50 0 94 23t74 63t38 90h103q-13 -76 -60.5 -139t-117 -99.5t-148.5 -36.5z" />
    <glyph glyph-name="Gdotaccent" unicode="&#x120;" horiz-adv-x="1508" 
d="M689 -21q-171 0 -294 73t-189.5 206.5t-66.5 315.5q0 175 54 342t155.5 301.5t245.5 214t324 79.5q124 0 221.5 -39t165 -107t103 -156.5t37.5 -187.5h-144q-6 74 -33.5 138.5t-76 114t-118 77.5t-160.5 28q-148 0 -265.5 -69t-200.5 -184.5t-127 -257.5t-44 -288
q0 -221 113 -345t305 -124q140 0 256.5 62t195 174.5t103.5 264.5l42 -14h-475l21 125h568l-21 -128q-23 -140 -85 -253t-154.5 -194.5t-208.5 -125t-247 -43.5zM952 1702q-39 0 -63.5 28t-17.5 67q6 39 39.5 66.5t73.5 27.5q41 0 65 -27.5t17 -66.5q-6 -39 -39.5 -67
t-74.5 -28z" />
    <glyph glyph-name="gdotaccent" unicode="&#x121;" horiz-adv-x="1214" 
d="M435 -439q-119 0 -203.5 32t-134.5 88.5t-67 128.5l121 48q14 -47 46.5 -88t91 -65.5t149.5 -24.5q153 0 257.5 78t129.5 230l39 235l-10 -2q-34 -56 -86 -105.5t-123.5 -80t-164.5 -30.5q-117 0 -204 51t-134.5 146t-47.5 227q0 126 38 248.5t110.5 222.5t175.5 160
t232 60q74 0 128.5 -20t92 -54t60.5 -74.5t34 -82.5l13 3l35 212h131l-188 -1130q-24 -143 -97.5 -234.5t-183 -135t-240.5 -43.5zM502 126q107 0 187.5 48.5t135 129t81.5 179t27 199.5q0 143 -68.5 229.5t-200.5 86.5q-103 0 -183.5 -49t-137 -131t-86 -182t-29.5 -201
q0 -143 70.5 -226t203.5 -83zM715 1316q-39 0 -63.5 28t-17.5 67q6 39 39.5 66.5t73.5 27.5q41 0 65 -27.5t17 -66.5q-6 -39 -39.5 -67t-74.5 -28z" />
    <glyph glyph-name="uni0122" unicode="&#x122;" horiz-adv-x="1508" 
d="M689 -21q-171 0 -294 73t-189.5 206.5t-66.5 315.5q0 175 54 342t155.5 301.5t245.5 214t324 79.5q124 0 221.5 -39t165 -107t103 -156.5t37.5 -187.5h-144q-6 74 -33.5 138.5t-76 114t-118 77.5t-160.5 28q-148 0 -265.5 -69t-200.5 -184.5t-127 -257.5t-44 -288
q0 -221 113 -345t305 -124q140 0 256.5 62t195 174.5t103.5 264.5l42 -14h-475l21 125h568l-21 -128q-23 -140 -85 -253t-154.5 -194.5t-208.5 -125t-247 -43.5zM431 -493l148 375h139l-183 -375h-104z" />
    <glyph glyph-name="uni0123" unicode="&#x123;" horiz-adv-x="1214" 
d="M435 -439q-119 0 -203.5 32t-134.5 88.5t-67 128.5l121 48q14 -47 46.5 -88t91 -65.5t149.5 -24.5q153 0 257.5 78t129.5 230l39 235l-10 -2q-34 -56 -86 -105.5t-123.5 -80t-164.5 -30.5q-117 0 -204 51t-134.5 146t-47.5 227q0 126 38 248.5t110.5 222.5t175.5 160
t232 60q74 0 128.5 -20t92 -54t60.5 -74.5t34 -82.5l13 3l35 212h131l-188 -1130q-24 -143 -97.5 -234.5t-183 -135t-240.5 -43.5zM502 126q107 0 187.5 48.5t135 129t81.5 179t27 199.5q0 143 -68.5 229.5t-200.5 86.5q-103 0 -183.5 -49t-137 -131t-86 -182t-29.5 -201
q0 -143 70.5 -226t203.5 -83zM642 1236l18 110q11 65 41 119.5t67 96t66 68.5l76 -59q-43 -52 -80 -105.5t-50 -125.5l-17 -104h-121z" />
    <glyph glyph-name="Hcircumflex" unicode="&#x124;" horiz-adv-x="1497" 
d="M96 0l247 1490h141l-110 -665h839l110 665h141l-247 -1490h-141l116 699h-839l-116 -699h-141zM762 1655h-135l1 7l288 270h120l200 -270l-1 -7h-137l-135 193z" />
    <glyph glyph-name="hcircumflex" unicode="&#x125;" horiz-adv-x="1183" 
d="M317 684l-113 -684h-134l247 1490h134l-107 -644h-28q47 97 110 157.5t138 88.5t159 28q112 0 193 -47.5t117.5 -138t13.5 -223.5l-117 -711h-135l117 701q23 139 -41.5 217.5t-192.5 78.5q-88 0 -164 -37t-128 -107t-69 -169zM243 1655h-135l1 7l288 270h120l200 -270
l-1 -7h-137l-135 193z" />
    <glyph glyph-name="Hbar" unicode="&#x126;" horiz-adv-x="1548" 
d="M1549 1144l-19 -117h-1353l18 117h1354zM124 0l247 1490h141l-110 -665h839l110 665h141l-247 -1490h-141l116 699h-839l-116 -699h-141z" />
    <glyph glyph-name="hbar" unicode="&#x127;" horiz-adv-x="1183" 
d="M317 684l-113 -684h-134l247 1490h134l-107 -644h-28q47 97 110 157.5t138 88.5t159 28q112 0 193 -47.5t117.5 -138t13.5 -223.5l-117 -711h-135l117 701q23 139 -41.5 217.5t-192.5 78.5q-88 0 -164 -37t-128 -107t-69 -169zM100 1241l18 108h614l-18 -108h-614z" />
    <glyph glyph-name="Itilde" unicode="&#x128;" horiz-adv-x="516" 
d="M484 1490l-247 -1490h-141l247 1490h141zM578 1696q-38 0 -69.5 14.5t-58.5 33t-51 33t-48 14.5q-35 0 -58 -27t-31 -63h-99q18 83 67 136.5t123 53.5q42 0 72.5 -14.5t55.5 -33t48.5 -33t50.5 -14.5q31 0 52 21t36 68h97q-20 -87 -70 -138t-117 -51z" />
    <glyph glyph-name="itilde" unicode="&#x129;" horiz-adv-x="459" 
d="M71 0l183 1104h134l-183 -1104h-134zM485 1310q-38 0 -69.5 14.5t-58.5 33t-51 33t-48 14.5q-35 0 -58 -27t-31 -63h-99q18 83 67 136.5t123 53.5q42 0 72.5 -14.5t55.5 -33t48.5 -33t50.5 -14.5q31 0 52 21t36 68h97q-20 -87 -70 -138t-117 -51z" />
    <glyph glyph-name="Imacron" unicode="&#x12a;" horiz-adv-x="516" 
d="M484 1490l-247 -1490h-141l247 1490h141zM735 1847l-18 -110h-524l18 110h524z" />
    <glyph glyph-name="imacron" unicode="&#x12b;" horiz-adv-x="459" 
d="M71 0l183 1104h134l-183 -1104h-134zM642 1461l-18 -110h-524l18 110h524z" />
    <glyph glyph-name="Ibreve" unicode="&#x12c;" horiz-adv-x="516" 
d="M484 1490l-247 -1490h-141l247 1490h141zM439 1647q-79 0 -136 37t-84 99.5t-14 138.5h103q-13 -76 29.5 -126t118.5 -50q50 0 94 23t74 63t38 90h103q-13 -76 -60.5 -139t-117 -99.5t-148.5 -36.5z" />
    <glyph glyph-name="ibreve" unicode="&#x12d;" horiz-adv-x="459" 
d="M71 0l183 1104h134l-183 -1104h-134zM347 1261q-79 0 -136 37t-84 99.5t-14 138.5h103q-13 -76 29.5 -126t118.5 -50q50 0 94 23t74 63t38 90h103q-13 -76 -60.5 -139t-117 -99.5t-148.5 -36.5z" />
    <glyph glyph-name="Iogonek" unicode="&#x12e;" horiz-adv-x="516" 
d="M484 1490l-247 -1490h-141l247 1490h141zM71 -429q-88 0 -141.5 45.5t-38.5 134.5q13 75 73 142.5t156 128.5l117 -22q-85 -61 -142 -113.5t-67 -113.5q-7 -44 16.5 -65.5t68.5 -21.5q22 0 42 5t36 12l19 -103q-27 -10 -61.5 -19.5t-77.5 -9.5z" />
    <glyph glyph-name="iogonek" unicode="&#x12f;" horiz-adv-x="459" 
d="M71 0l183 1104h134l-183 -1104h-134zM39 -429q-88 0 -141.5 45.5t-38.5 134.5q13 75 73 142.5t156 128.5l117 -22q-85 -61 -142 -113.5t-67 -113.5q-7 -44 16.5 -65.5t68.5 -21.5q22 0 42 5t36 12l19 -103q-27 -10 -61.5 -19.5t-77.5 -9.5zM355 1316q-39 0 -63.5 28
t-17.5 67q6 39 39.5 66.5t73.5 27.5q41 0 65 -27.5t17 -66.5q-6 -39 -39.5 -67t-74.5 -28z" />
    <glyph glyph-name="Idotaccent" unicode="&#x130;" horiz-adv-x="516" 
d="M484 1490l-247 -1490h-141l247 1490h141zM448 1702q-39 0 -63.5 28t-17.5 67q6 39 39.5 66.5t73.5 27.5q41 0 65 -27.5t17 -66.5q-6 -39 -39.5 -67t-74.5 -28z" />
    <glyph glyph-name="dotlessi" unicode="&#x131;" horiz-adv-x="459" 
d="M71 0l183 1104h134l-183 -1104h-134z" />
    <glyph glyph-name="IJ" unicode="&#x132;" horiz-adv-x="1658" 
d="M484 1490l-247 -1490h-141l247 1490h141zM970 -20q-169 0 -270.5 90t-101.5 254q0 15 1.5 33t6 49.5t12.5 85.5h141q-8 -51 -12.5 -80t-5.5 -44t-1 -27q0 -113 63.5 -174t176.5 -61q130 0 221.5 80t116.5 230l178 1074h141l-178 -1074q-34 -206 -165.5 -321t-323.5 -115z
" />
    <glyph glyph-name="ij" unicode="&#x133;" horiz-adv-x="918" 
d="M71 0l183 1104h134l-183 -1104h-134zM355 1316q-39 0 -63.5 28t-17.5 67q6 39 39.5 66.5t73.5 27.5q41 0 65 -27.5t17 -66.5q-6 -39 -39.5 -67t-74.5 -28zM714 1104h134l-202 -1221q-15 -93 -62 -160.5t-119 -104t-165 -36.5h-36l20 124h32q77 0 130 46.5t67 133.5z
M815 1316q-39 0 -63.5 28t-17.5 67q6 39 39.5 66.5t73.5 27.5q41 0 65 -27.5t17 -66.5q-6 -39 -39.5 -67t-74.5 -28z" />
    <glyph glyph-name="Jcircumflex" unicode="&#x134;" horiz-adv-x="1142" 
d="M454 -20q-169 0 -270.5 90t-101.5 254q0 15 1.5 33t6 49.5t12.5 85.5h141q-8 -51 -12.5 -80t-5.5 -44t-1 -27q0 -113 63.5 -174t176.5 -61q130 0 221.5 80t116.5 230l178 1074h141l-178 -1074q-34 -206 -165.5 -321t-323.5 -115zM909 1655h-135l1 7l288 270h120l200 -270
l-1 -7h-137l-135 193z" />
    <glyph glyph-name="jcircumflex" unicode="&#x135;" horiz-adv-x="460" 
d="M255 1104h134l-202 -1221q-15 -93 -62 -160.5t-119 -104t-165 -36.5h-36l20 124h32q77 0 130 46.5t67 133.5zM181 1269h-135l1 7l288 270h120l200 -270l-1 -7h-137l-135 193z" />
    <glyph glyph-name="uni0136" unicode="&#x136;" horiz-adv-x="1306" 
d="M272 463l14 156q66 66 128.5 127.5t126 121.5t129.5 121l547 501h192l-741 -675l-11 -3zM96 0l247 1490h141l-86 -518l-58 -336l-10 -72l-93 -564h-141zM1007 0l-427 782l95 106l487 -888h-155zM350 -493l148 375h139l-183 -375h-104z" />
    <glyph glyph-name="uni0137" unicode="&#x137;" horiz-adv-x="1059" 
d="M261 415l29 172h25l599 517h171l-594 -512l-15 -2zM70 0l247 1490h134l-247 -1490h-134zM763 0l-356 566l111 93l416 -659h-171zM227 -493l148 375h139l-183 -375h-104z" />
    <glyph glyph-name="kgreenlandic" unicode="&#x138;" horiz-adv-x="1039" 
d="M388 1104l-183 -1104h-134l183 1104h134zM1095 1104l-651 -611h-213l20 121h159l518 490h167zM742 0l-378 501l95 98l451 -599h-168z" />
    <glyph glyph-name="Lacute" unicode="&#x139;" horiz-adv-x="1139" 
d="M96 0l247 1490h141l-226 -1364h714l-21 -126h-855zM374 1659l193 275h153l-233 -275h-113z" />
    <glyph glyph-name="lacute" unicode="&#x13a;" horiz-adv-x="458" 
d="M451 1490l-247 -1490h-134l247 1490h134zM345 1659l193 275h153l-233 -275h-113z" />
    <glyph glyph-name="uni013B" unicode="&#x13b;" horiz-adv-x="1139" 
d="M96 0l247 1490h141l-226 -1364h714l-21 -126h-855zM283 -493l148 375h139l-183 -375h-104z" />
    <glyph glyph-name="uni013C" unicode="&#x13c;" horiz-adv-x="458" 
d="M451 1490l-247 -1490h-134l247 1490h134zM-101 -493l148 375h139l-183 -375h-104z" />
    <glyph glyph-name="Lcaron" unicode="&#x13d;" horiz-adv-x="1134" 
d="M96 0l247 1490h141l-226 -1364h714l-21 -126h-855zM718 1182l62 378h136l-101 -378h-97z" />
    <glyph glyph-name="lcaron" unicode="&#x13e;" horiz-adv-x="544" 
d="M451 1490l-247 -1490h-134l247 1490h134zM543 1182l62 378h136l-101 -378h-97z" />
    <glyph glyph-name="Ldot" unicode="&#x13f;" horiz-adv-x="1122" 
d="M94 0l247 1490h141l-226 -1364h714l-21 -126h-855zM718 731q-39 0 -63.5 28t-17.5 67q6 39 39.5 66.5t73.5 27.5q41 0 65 -27.5t17 -66.5q-6 -39 -39.5 -67t-74.5 -28z" />
    <glyph glyph-name="ldot" unicode="&#x140;" horiz-adv-x="653" 
d="M451 1490l-247 -1490h-134l247 1490h134zM550 639q-46 0 -74.5 33.5t-20.5 81.5q7 41 40.5 69t72.5 28q48 0 75.5 -34t20.5 -80q-6 -41 -39 -69.5t-75 -28.5z" />
    <glyph glyph-name="Lslash" unicode="&#x141;" horiz-adv-x="1139" 
d="M96 0l247 1490h141l-226 -1364h714l-21 -126h-855zM147 549l24 143l801 423l-23 -143z" />
    <glyph glyph-name="lslash" unicode="&#x142;" horiz-adv-x="458" 
d="M451 1490l-247 -1490h-134l247 1490h134zM19 716l20 123l517 273l-20 -123z" />
    <glyph glyph-name="Nacute" unicode="&#x143;" horiz-adv-x="1533" 
d="M96 0l247 1490h156l512 -1015q20 -37 45 -91.5t53 -119.5t55 -137l-19 -5q7 70 15.5 138t17.5 129t17 108l165 993h140l-247 -1490h-156l-479 944q-25 50 -52.5 108.5t-60.5 133t-76 174.5l22 7q-13 -97 -23 -176.5t-18.5 -140.5t-16.5 -105l-156 -945h-141zM882 1659
l193 275h153l-233 -275h-113z" />
    <glyph glyph-name="nacute" unicode="&#x144;" horiz-adv-x="1183" 
d="M317 680l-113 -680h-134l184 1104h129l-42 -258l-25 4q70 142 176.5 206t231.5 64q115 0 195 -48.5t115 -140.5t13 -224l-117 -707h-134l117 705q23 139 -38.5 215.5t-187.5 76.5q-89 0 -167 -38t-132 -109t-71 -170zM644 1273l193 275h153l-233 -275h-113z" />
    <glyph glyph-name="uni0145" unicode="&#x145;" horiz-adv-x="1533" 
d="M96 0l247 1490h156l512 -1015q20 -37 45 -91.5t53 -119.5t55 -137l-19 -5q7 70 15.5 138t17.5 129t17 108l165 993h140l-247 -1490h-156l-479 944q-25 50 -52.5 108.5t-60.5 133t-76 174.5l22 7q-13 -97 -23 -176.5t-18.5 -140.5t-16.5 -105l-156 -945h-141zM437 -493
l148 375h139l-183 -375h-104z" />
    <glyph glyph-name="uni0146" unicode="&#x146;" horiz-adv-x="1183" 
d="M317 680l-113 -680h-134l184 1104h129l-42 -258l-25 4q70 142 176.5 206t231.5 64q115 0 195 -48.5t115 -140.5t13 -224l-117 -707h-134l117 705q23 139 -38.5 215.5t-187.5 76.5q-89 0 -167 -38t-132 -109t-71 -170zM262 -493l148 375h139l-183 -375h-104z" />
    <glyph glyph-name="Ncaron" unicode="&#x147;" horiz-adv-x="1533" 
d="M96 0l247 1490h156l512 -1015q20 -37 45 -91.5t53 -119.5t55 -137l-19 -5q7 70 15.5 138t17.5 129t17 108l165 993h140l-247 -1490h-156l-479 944q-25 50 -52.5 108.5t-60.5 133t-76 174.5l22 7q-13 -97 -23 -176.5t-18.5 -140.5t-16.5 -105l-156 -945h-141zM826 1930
l137 -192l199 192h137l-1 -6l-291 -270h-119l-198 270l1 6h135z" />
    <glyph glyph-name="ncaron" unicode="&#x148;" horiz-adv-x="1183" 
d="M317 680l-113 -680h-134l184 1104h129l-42 -258l-25 4q70 142 176.5 206t231.5 64q115 0 195 -48.5t115 -140.5t13 -224l-117 -707h-134l117 705q23 139 -38.5 215.5t-187.5 76.5q-89 0 -167 -38t-132 -109t-71 -170zM588 1544l137 -192l199 192h137l-1 -6l-291 -270
h-119l-198 270l1 6h135z" />
    <glyph glyph-name="Eng" unicode="&#x14a;" horiz-adv-x="1533" 
d="M841 -418l20 121q17 -2 37 -2.5t32 -0.5q78 0 113.5 28.5t44.5 89.5l51 310h141l-52 -315q-20 -117 -94.5 -176.5t-198.5 -59.5q-27 0 -52.5 1.5t-41.5 3.5zM96 0l247 1490h156l512 -1015q20 -37 45 -91.5t53 -119.5t55 -137l-19 -5q7 70 15.5 138t17.5 129t17 108
l165 993h140l-247 -1490h-156l-479 944q-25 50 -52.5 108.5t-60.5 133t-76 174.5l22 7q-13 -97 -23 -176.5t-18.5 -140.5t-16.5 -105l-156 -945h-141z" />
    <glyph glyph-name="eng" unicode="&#x14b;" horiz-adv-x="1183" 
d="M512 -418l20 121q17 -2 40 -2.5t35 -0.5q75 0 111.5 27.5t46.5 90.5l30 182h135l-31 -187q-20 -118 -95.5 -177t-198.5 -59q-26 0 -51.5 1.5t-41.5 3.5zM317 680l-113 -680h-134l184 1104h129l-42 -258l-25 4q70 142 176.5 206t231.5 64q115 0 195 -48.5t115 -140.5
t13 -224l-117 -707h-134l117 705q23 139 -38.5 215.5t-187.5 76.5q-89 0 -167 -38t-132 -109t-71 -170z" />
    <glyph glyph-name="Omacron" unicode="&#x14c;" horiz-adv-x="1540" 
d="M684 -21q-167 0 -289 73t-189 207.5t-67 316.5q0 176 54.5 342.5t157.5 300t247 213t323 79.5q166 0 288 -73.5t188.5 -207t66.5 -316.5q0 -176 -54.5 -343t-157 -300.5t-246 -212.5t-322.5 -79zM689 111q148 0 266 68.5t201 184t127 257.5t44 289q0 149 -51.5 254
t-144 160t-215.5 55q-149 0 -267 -68.5t-201.5 -184t-127.5 -257.5t-44 -289q0 -149 51.5 -253.5t145 -160t216.5 -55.5zM1247 1847l-18 -110h-524l18 110h524z" />
    <glyph glyph-name="omacron" unicode="&#x14d;" horiz-adv-x="1189" 
d="M508 -23q-128 0 -221 56.5t-143.5 158.5t-50.5 237q0 130 41.5 253.5t119 222t185.5 157t241 58.5q128 0 221 -56.5t143.5 -158t50.5 -237.5q0 -131 -41.5 -254.5t-119.5 -222.5t-186 -156.5t-240 -57.5zM511 98q105 0 188.5 50.5t142 133.5t89 183.5t30.5 200.5
q0 97 -32 172t-95 118t-157 43q-104 0 -187 -49.5t-141.5 -132.5t-90 -184t-31.5 -204q0 -144 71.5 -237.5t212.5 -93.5zM1007 1461l-18 -110h-524l18 110h524z" />
    <glyph glyph-name="Obreve" unicode="&#x14e;" horiz-adv-x="1540" 
d="M684 -21q-167 0 -289 73t-189 207.5t-67 316.5q0 176 54.5 342.5t157.5 300t247 213t323 79.5q166 0 288 -73.5t188.5 -207t66.5 -316.5q0 -176 -54.5 -343t-157 -300.5t-246 -212.5t-322.5 -79zM689 111q148 0 266 68.5t201 184t127 257.5t44 289q0 149 -51.5 254
t-144 160t-215.5 55q-149 0 -267 -68.5t-201.5 -184t-127.5 -257.5t-44 -289q0 -149 51.5 -253.5t145 -160t216.5 -55.5zM952 1647q-79 0 -136 37t-84 99.5t-14 138.5h103q-13 -76 29.5 -126t118.5 -50q50 0 94 23t74 63t38 90h103q-13 -76 -60.5 -139t-117 -99.5
t-148.5 -36.5z" />
    <glyph glyph-name="obreve" unicode="&#x14f;" horiz-adv-x="1189" 
d="M508 -23q-128 0 -221 56.5t-143.5 158.5t-50.5 237q0 130 41.5 253.5t119 222t185.5 157t241 58.5q128 0 221 -56.5t143.5 -158t50.5 -237.5q0 -131 -41.5 -254.5t-119.5 -222.5t-186 -156.5t-240 -57.5zM511 98q105 0 188.5 50.5t142 133.5t89 183.5t30.5 200.5
q0 97 -32 172t-95 118t-157 43q-104 0 -187 -49.5t-141.5 -132.5t-90 -184t-31.5 -204q0 -144 71.5 -237.5t212.5 -93.5zM712 1261q-79 0 -136 37t-84 99.5t-14 138.5h103q-13 -76 29.5 -126t118.5 -50q50 0 94 23t74 63t38 90h103q-13 -76 -60.5 -139t-117 -99.5
t-148.5 -36.5z" />
    <glyph glyph-name="Ohungarumlaut" unicode="&#x150;" horiz-adv-x="1540" 
d="M684 -21q-167 0 -289 73t-189 207.5t-67 316.5q0 176 54.5 342.5t157.5 300t247 213t323 79.5q166 0 288 -73.5t188.5 -207t66.5 -316.5q0 -176 -54.5 -343t-157 -300.5t-246 -212.5t-322.5 -79zM689 111q148 0 266 68.5t201 184t127 257.5t44 289q0 149 -51.5 254
t-144 160t-215.5 55q-149 0 -267 -68.5t-201.5 -184t-127.5 -257.5t-44 -289q0 -149 51.5 -253.5t145 -160t216.5 -55.5zM785 1639h-112l172 290h150zM1085 1639h-114l215 290h152z" />
    <glyph glyph-name="ohungarumlaut" unicode="&#x151;" horiz-adv-x="1189" 
d="M508 -23q-128 0 -221 56.5t-143.5 158.5t-50.5 237q0 130 41.5 253.5t119 222t185.5 157t241 58.5q128 0 221 -56.5t143.5 -158t50.5 -237.5q0 -131 -41.5 -254.5t-119.5 -222.5t-186 -156.5t-240 -57.5zM511 98q105 0 188.5 50.5t142 133.5t89 183.5t30.5 200.5
q0 97 -32 172t-95 118t-157 43q-104 0 -187 -49.5t-141.5 -132.5t-90 -184t-31.5 -204q0 -144 71.5 -237.5t212.5 -93.5zM545 1253h-112l172 290h150zM845 1253h-114l215 290h152z" />
    <glyph glyph-name="OE" unicode="&#x152;" horiz-adv-x="1938" 
d="M679 0q-196 0 -327 93t-183.5 261t-16.5 391q38 225 146 392.5t268.5 260t356.5 92.5h208l-20 -123h-207q-156 1 -285 -76.5t-216.5 -217.5t-118.5 -328q-31 -187 9 -327t144.5 -218t264.5 -78h203l-22 -122h-204zM826 0l247 1490h887l-22 -126h-745l-91 -548h695
l-21 -126h-695l-94 -564h756l-20 -126h-897z" />
    <glyph glyph-name="oe" unicode="&#x153;" horiz-adv-x="1993" 
d="M508 -23q-128 0 -221 56.5t-143.5 158.5t-50.5 237q0 130 41.5 253.5t119 222t185.5 157t241 58.5q128 0 221 -56.5t143.5 -158t50.5 -237.5q0 -131 -41.5 -254.5t-119.5 -222.5t-186 -156.5t-240 -57.5zM511 98q105 0 188.5 50.5t142 133.5t89 183.5t30.5 200.5
q0 97 -32 172t-95 118t-157 43q-104 0 -187 -49.5t-141.5 -132.5t-90 -184t-31.5 -204q0 -144 71.5 -237.5t212.5 -93.5zM1369 -21q-128 0 -222.5 52.5t-146 152t-51.5 237.5q0 148 45 276.5t127 224.5t191.5 150t237.5 54q106 0 183 -36t118.5 -102t41.5 -157
q0 -101 -53.5 -166.5t-159.5 -103.5t-265 -53.5t-370 -15.5l16 108q184 0 316 9t216.5 34t125 70.5t40.5 118.5q0 80 -58 126t-163 46q-114 0 -200 -51t-143.5 -136.5t-87 -188.5t-29.5 -208q0 -92 32 -164.5t98 -114.5t168 -42q113 0 204.5 52t141.5 137l125 -32
q-65 -125 -192.5 -201t-285.5 -76z" />
    <glyph glyph-name="Racute" unicode="&#x154;" horiz-adv-x="1290" 
d="M96 0l247 1490h495q156 0 254 -57t136.5 -158t16.5 -232q-22 -132 -94 -231.5t-189 -155.5t-272 -56h-417l21 127h411q114 0 198 39t135.5 110.5t67.5 167.5q25 149 -49.5 234.5t-241.5 85.5h-352l-226 -1364h-141zM966 0l-250 673h154l254 -673h-158zM754 1659l193 275
h153l-233 -275h-113z" />
    <glyph glyph-name="racute" unicode="&#x155;" horiz-adv-x="711" 
d="M71 0l183 1104h129l-28 -174h8q47 85 136.5 137t194.5 52q17 0 34.5 -1t30.5 -1l-22 -135q-9 2 -31 4.5t-47 2.5q-83 0 -155 -36t-120 -100t-63 -149l-116 -704h-134zM466 1273l193 275h153l-233 -275h-113z" />
    <glyph glyph-name="uni0156" unicode="&#x156;" horiz-adv-x="1290" 
d="M96 0l247 1490h495q156 0 254 -57t136.5 -158t16.5 -232q-22 -132 -94 -231.5t-189 -155.5t-272 -56h-417l21 127h411q114 0 198 39t135.5 110.5t67.5 167.5q25 149 -49.5 234.5t-241.5 85.5h-352l-226 -1364h-141zM966 0l-250 673h154l254 -673h-158zM330 -493l148 375
h139l-183 -375h-104z" />
    <glyph glyph-name="uni0157" unicode="&#x157;" horiz-adv-x="711" 
d="M71 0l183 1104h129l-28 -174h8q47 85 136.5 137t194.5 52q17 0 34.5 -1t30.5 -1l-22 -135q-9 2 -31 4.5t-47 2.5q-83 0 -155 -36t-120 -100t-63 -149l-116 -704h-134zM-100 -493l148 375h139l-183 -375h-104z" />
    <glyph glyph-name="Rcaron" unicode="&#x158;" horiz-adv-x="1290" 
d="M96 0l247 1490h495q156 0 254 -57t136.5 -158t16.5 -232q-22 -132 -94 -231.5t-189 -155.5t-272 -56h-417l21 127h411q114 0 198 39t135.5 110.5t67.5 167.5q25 149 -49.5 234.5t-241.5 85.5h-352l-226 -1364h-141zM966 0l-250 673h154l254 -673h-158zM697 1930l137 -192
l199 192h137l-1 -6l-291 -270h-119l-198 270l1 6h135z" />
    <glyph glyph-name="rcaron" unicode="&#x159;" horiz-adv-x="711" 
d="M71 0l183 1104h129l-28 -174h8q47 85 136.5 137t194.5 52q17 0 34.5 -1t30.5 -1l-22 -135q-9 2 -31 4.5t-47 2.5q-83 0 -155 -36t-120 -100t-63 -149l-116 -704h-134zM410 1544l137 -192l199 192h137l-1 -6l-291 -270h-119l-198 270l1 6h135z" />
    <glyph glyph-name="Sacute" unicode="&#x15a;" horiz-adv-x="1275" 
d="M552 -24q-154 0 -262 51.5t-159.5 145t-38.5 217.5h144q-9 -92 29.5 -156t114 -97.5t179.5 -33.5q112 0 205 37t153.5 104t75.5 155q12 73 -15.5 123t-90.5 85.5t-158 64.5l-167 50q-171 52 -255 143.5t-59 238.5q19 120 95.5 212t193.5 143.5t257 51.5q141 0 243 -52
t152 -143.5t35 -209.5h-137q9 128 -73 203t-231 75q-103 0 -188 -35.5t-140.5 -98t-68.5 -142.5q-12 -74 19.5 -124.5t93.5 -84.5t138 -57l152 -46q74 -22 142 -54.5t118 -79t72.5 -112t8.5 -155.5q-20 -120 -95.5 -215t-198 -149.5t-284.5 -54.5zM752 1659l193 275h153
l-233 -275h-113z" />
    <glyph glyph-name="sacute" unicode="&#x15b;" horiz-adv-x="1034" 
d="M429 -23q-107 0 -186.5 32t-125.5 94t-53 150q-1 9 -1 14v14l131 16q3 -102 64.5 -151.5t172.5 -49.5q87 0 158 29t114.5 79.5t48.5 114.5q4 57 -33.5 94.5t-117.5 57.5l-174 43q-131 33 -192.5 103t-51.5 176q8 97 68.5 171t155.5 115t208 41q151 0 235 -67t103 -181
q2 -9 3 -17t1 -18l-125 -18q-8 84 -59.5 134.5t-159.5 50.5q-79 0 -145 -28.5t-106.5 -77t-44.5 -110.5q-5 -60 35 -97.5t131 -60.5l165 -41q130 -32 190.5 -100.5t49.5 -172.5q-6 -76 -44 -138t-100.5 -107.5t-143 -69.5t-171.5 -24zM574 1273l193 275h153l-233 -275h-113z
" />
    <glyph glyph-name="Scircumflex" unicode="&#x15c;" horiz-adv-x="1275" 
d="M552 -24q-154 0 -262 51.5t-159.5 145t-38.5 217.5h144q-9 -92 29.5 -156t114 -97.5t179.5 -33.5q112 0 205 37t153.5 104t75.5 155q12 73 -15.5 123t-90.5 85.5t-158 64.5l-167 50q-171 52 -255 143.5t-59 238.5q19 120 95.5 212t193.5 143.5t257 51.5q141 0 243 -52
t152 -143.5t35 -209.5h-137q9 128 -73 203t-231 75q-103 0 -188 -35.5t-140.5 -98t-68.5 -142.5q-12 -74 19.5 -124.5t93.5 -84.5t138 -57l152 -46q74 -22 142 -54.5t118 -79t72.5 -112t8.5 -155.5q-20 -120 -95.5 -215t-198 -149.5t-284.5 -54.5zM650 1655h-135l1 7
l288 270h120l200 -270l-1 -7h-137l-135 193z" />
    <glyph glyph-name="scircumflex" unicode="&#x15d;" horiz-adv-x="1034" 
d="M429 -23q-107 0 -186.5 32t-125.5 94t-53 150q-1 9 -1 14v14l131 16q3 -102 64.5 -151.5t172.5 -49.5q87 0 158 29t114.5 79.5t48.5 114.5q4 57 -33.5 94.5t-117.5 57.5l-174 43q-131 33 -192.5 103t-51.5 176q8 97 68.5 171t155.5 115t208 41q151 0 235 -67t103 -181
q2 -9 3 -17t1 -18l-125 -18q-8 84 -59.5 134.5t-159.5 50.5q-79 0 -145 -28.5t-106.5 -77t-44.5 -110.5q-5 -60 35 -97.5t131 -60.5l165 -41q130 -32 190.5 -100.5t49.5 -172.5q-6 -76 -44 -138t-100.5 -107.5t-143 -69.5t-171.5 -24zM472 1269h-135l1 7l288 270h120
l200 -270l-1 -7h-137l-135 193z" />
    <glyph glyph-name="Scedilla" unicode="&#x15e;" horiz-adv-x="1275" 
d="M552 -24q-154 0 -262 51.5t-159.5 145t-38.5 217.5h144q-9 -92 29.5 -156t114 -97.5t179.5 -33.5q112 0 205 37t153.5 104t75.5 155q12 73 -15.5 123t-90.5 85.5t-158 64.5l-167 50q-171 52 -255 143.5t-59 238.5q19 120 95.5 212t193.5 143.5t257 51.5q141 0 243 -52
t152 -143.5t35 -209.5h-137q9 128 -73 203t-231 75q-103 0 -188 -35.5t-140.5 -98t-68.5 -142.5q-12 -74 19.5 -124.5t93.5 -84.5t138 -57l152 -46q74 -22 142 -54.5t118 -79t72.5 -112t8.5 -155.5q-20 -120 -95.5 -215t-198 -149.5t-284.5 -54.5zM373 -418l14 85h111
q57 0 87 20t37 61q7 40 -16 60.5t-83 20.5h-74l68 209h74l-3 -38l-24 -92q92 -3 133.5 -43t29.5 -116q-14 -83 -74.5 -125t-167.5 -42h-112z" />
    <glyph glyph-name="scedilla" unicode="&#x15f;" horiz-adv-x="1034" 
d="M429 -23q-107 0 -186.5 32t-125.5 94t-53 150q-1 9 -1 14v14l131 16q3 -102 64.5 -151.5t172.5 -49.5q87 0 158 29t114.5 79.5t48.5 114.5q4 57 -33.5 94.5t-117.5 57.5l-174 43q-131 33 -192.5 103t-51.5 176q8 97 68.5 171t155.5 115t208 41q151 0 235 -67t103 -181
q2 -9 3 -17t1 -18l-125 -18q-8 84 -59.5 134.5t-159.5 50.5q-79 0 -145 -28.5t-106.5 -77t-44.5 -110.5q-5 -60 35 -97.5t131 -60.5l165 -41q130 -32 190.5 -100.5t49.5 -172.5q-6 -76 -44 -138t-100.5 -107.5t-143 -69.5t-171.5 -24zM255 -418l14 85h111q57 0 87 20t37 61
q7 40 -16 60.5t-83 20.5h-74l68 209h74l-3 -38l-24 -92q92 -3 133.5 -43t29.5 -116q-14 -83 -74.5 -125t-167.5 -42h-112z" />
    <glyph glyph-name="Scaron" unicode="&#x160;" horiz-adv-x="1275" 
d="M552 -24q-154 0 -262 51.5t-159.5 145t-38.5 217.5h144q-9 -92 29.5 -156t114 -97.5t179.5 -33.5q112 0 205 37t153.5 104t75.5 155q12 73 -15.5 123t-90.5 85.5t-158 64.5l-167 50q-171 52 -255 143.5t-59 238.5q19 120 95.5 212t193.5 143.5t257 51.5q141 0 243 -52
t152 -143.5t35 -209.5h-137q9 128 -73 203t-231 75q-103 0 -188 -35.5t-140.5 -98t-68.5 -142.5q-12 -74 19.5 -124.5t93.5 -84.5t138 -57l152 -46q74 -22 142 -54.5t118 -79t72.5 -112t8.5 -155.5q-20 -120 -95.5 -215t-198 -149.5t-284.5 -54.5zM696 1930l137 -192
l199 192h137l-1 -6l-291 -270h-119l-198 270l1 6h135z" />
    <glyph glyph-name="scaron" unicode="&#x161;" horiz-adv-x="1034" 
d="M429 -23q-107 0 -186.5 32t-125.5 94t-53 150q-1 9 -1 14v14l131 16q3 -102 64.5 -151.5t172.5 -49.5q87 0 158 29t114.5 79.5t48.5 114.5q4 57 -33.5 94.5t-117.5 57.5l-174 43q-131 33 -192.5 103t-51.5 176q8 97 68.5 171t155.5 115t208 41q151 0 235 -67t103 -181
q2 -9 3 -17t1 -18l-125 -18q-8 84 -59.5 134.5t-159.5 50.5q-79 0 -145 -28.5t-106.5 -77t-44.5 -110.5q-5 -60 35 -97.5t131 -60.5l165 -41q130 -32 190.5 -100.5t49.5 -172.5q-6 -76 -44 -138t-100.5 -107.5t-143 -69.5t-171.5 -24zM517 1544l137 -192l199 192h137l-1 -6
l-291 -270h-119l-198 270l1 6h135z" />
    <glyph glyph-name="uni021A" unicode="&#x162;" horiz-adv-x="1289" 
d="M231 1364l21 126h1096l-21 -126h-477l-226 -1364h-140l225 1364h-478zM380 -418l14 85h111q57 0 87 20t37 61q7 40 -16 60.5t-83 20.5h-74l68 209h74l-3 -38l-24 -92q92 -3 133.5 -43t29.5 -116q-14 -83 -74.5 -125t-167.5 -42h-112z" />
    <glyph glyph-name="uni0163" unicode="&#x163;" horiz-adv-x="606" 
d="M639 1104l-19 -117h-532l19 117h532zM322 1375h134l-185 -1117q-13 -81 16.5 -117t105.5 -30q15 1 37 3.5t41 5.5l2 -116q-22 -5 -49 -8.5t-54 -4.5q-134 -7 -194.5 62.5t-40.5 194.5zM122 -418l14 85h111q57 0 87 20t37 61q7 40 -16 60.5t-83 20.5h-74l68 209h74l-3 -38
l-24 -92q92 -3 133.5 -43t29.5 -116q-14 -83 -74.5 -125t-167.5 -42h-112z" />
    <glyph glyph-name="Tcaron" unicode="&#x164;" horiz-adv-x="1289" 
d="M231 1364l21 126h1096l-21 -126h-477l-226 -1364h-140l225 1364h-478zM704 1930l137 -192l199 192h137l-1 -6l-291 -270h-119l-198 270l1 6h135z" />
    <glyph glyph-name="tcaron" unicode="&#x165;" horiz-adv-x="606" 
d="M639 1104l-19 -117h-532l19 117h532zM322 1375h134l-185 -1117q-13 -81 16.5 -117t105.5 -30q15 1 37 3.5t41 5.5l2 -116q-22 -5 -49 -8.5t-54 -4.5q-134 -7 -194.5 62.5t-40.5 194.5zM495 1229l62 378h136l-101 -378h-97z" />
    <glyph glyph-name="Tbar" unicode="&#x166;" horiz-adv-x="1289" 
d="M231 1364l21 126h1096l-21 -126h-477l-226 -1364h-140l225 1364h-478zM282 706l19 118h780l-20 -118h-779z" />
    <glyph glyph-name="tbar" unicode="&#x167;" horiz-adv-x="607" 
d="M580 749l-19 -117h-532l19 117h532zM640 1104l-19 -117h-532l19 117h532zM323 1375h134l-185 -1117q-13 -81 16.5 -117t105.5 -30q15 1 37 3.5t41 5.5l2 -116q-22 -5 -49 -8.5t-54 -4.5q-134 -7 -194.5 62.5t-40.5 194.5z" />
    <glyph glyph-name="Utilde" unicode="&#x168;" horiz-adv-x="1485" 
d="M656 -23q-170 0 -288.5 70t-171 191t-27.5 273l162 979h141l-162 -979q-19 -118 18 -209t122.5 -142t210.5 -51q130 0 236 53.5t176 147t90 211.5l160 969h141l-163 -988q-25 -153 -115.5 -271.5t-227 -186t-302.5 -67.5zM1062 1696q-38 0 -69.5 14.5t-58.5 33t-51 33
t-48 14.5q-35 0 -58 -27t-31 -63h-99q18 83 67 136.5t123 53.5q42 0 72.5 -14.5t55.5 -33t48.5 -33t50.5 -14.5q31 0 52 21t36 68h97q-20 -87 -70 -138t-117 -51z" />
    <glyph glyph-name="utilde" unicode="&#x169;" horiz-adv-x="1184" 
d="M455 -16q-112 0 -191.5 47t-114 138.5t-13.5 223.5l118 711h134l-116 -701q-22 -137 41 -216.5t192 -79.5q87 0 163 37t129 107t69 169l113 684h134l-183 -1104h-130l43 258h24q-71 -145 -178.5 -209.5t-233.5 -64.5zM848 1310q-38 0 -69.5 14.5t-58.5 33t-51 33
t-48 14.5q-35 0 -58 -27t-31 -63h-99q18 83 67 136.5t123 53.5q42 0 72.5 -14.5t55.5 -33t48.5 -33t50.5 -14.5q31 0 52 21t36 68h97q-20 -87 -70 -138t-117 -51z" />
    <glyph glyph-name="Umacron" unicode="&#x16a;" horiz-adv-x="1485" 
d="M656 -23q-170 0 -288.5 70t-171 191t-27.5 273l162 979h141l-162 -979q-19 -118 18 -209t122.5 -142t210.5 -51q130 0 236 53.5t176 147t90 211.5l160 969h141l-163 -988q-25 -153 -115.5 -271.5t-227 -186t-302.5 -67.5zM1219 1847l-18 -110h-524l18 110h524z" />
    <glyph glyph-name="umacron" unicode="&#x16b;" horiz-adv-x="1184" 
d="M455 -16q-112 0 -191.5 47t-114 138.5t-13.5 223.5l118 711h134l-116 -701q-22 -137 41 -216.5t192 -79.5q87 0 163 37t129 107t69 169l113 684h134l-183 -1104h-130l43 258h24q-71 -145 -178.5 -209.5t-233.5 -64.5zM1004 1461l-18 -110h-524l18 110h524z" />
    <glyph glyph-name="Ubreve" unicode="&#x16c;" horiz-adv-x="1485" 
d="M656 -23q-170 0 -288.5 70t-171 191t-27.5 273l162 979h141l-162 -979q-19 -118 18 -209t122.5 -142t210.5 -51q130 0 236 53.5t176 147t90 211.5l160 969h141l-163 -988q-25 -153 -115.5 -271.5t-227 -186t-302.5 -67.5zM924 1647q-79 0 -136 37t-84 99.5t-14 138.5h103
q-13 -76 29.5 -126t118.5 -50q50 0 94 23t74 63t38 90h103q-13 -76 -60.5 -139t-117 -99.5t-148.5 -36.5z" />
    <glyph glyph-name="ubreve" unicode="&#x16d;" horiz-adv-x="1184" 
d="M455 -16q-112 0 -191.5 47t-114 138.5t-13.5 223.5l118 711h134l-116 -701q-22 -137 41 -216.5t192 -79.5q87 0 163 37t129 107t69 169l113 684h134l-183 -1104h-130l43 258h24q-71 -145 -178.5 -209.5t-233.5 -64.5zM709 1261q-79 0 -136 37t-84 99.5t-14 138.5h103
q-13 -76 29.5 -126t118.5 -50q50 0 94 23t74 63t38 90h103q-13 -76 -60.5 -139t-117 -99.5t-148.5 -36.5z" />
    <glyph glyph-name="Uring" unicode="&#x16e;" horiz-adv-x="1485" 
d="M656 -23q-170 0 -288.5 70t-171 191t-27.5 273l162 979h141l-162 -979q-19 -118 18 -209t122.5 -142t210.5 -51q130 0 236 53.5t176 147t90 211.5l160 969h141l-163 -988q-25 -153 -115.5 -271.5t-227 -186t-302.5 -67.5zM920 1578q-65 0 -113 31t-71 83t-13 113
q10 58 46.5 105.5t91 75.5t115.5 28q65 0 113 -30.5t71.5 -82t13.5 -113.5q-10 -59 -47.5 -106.5t-91.5 -75.5t-115 -28zM927 1676q50 0 91.5 35t50.5 85t-20 85t-80 35q-50 0 -91.5 -35t-49.5 -85q-9 -50 20 -85t79 -35z" />
    <glyph glyph-name="uring" unicode="&#x16f;" horiz-adv-x="1184" 
d="M455 -16q-112 0 -191.5 47t-114 138.5t-13.5 223.5l118 711h134l-116 -701q-22 -137 41 -216.5t192 -79.5q87 0 163 37t129 107t69 169l113 684h134l-183 -1104h-130l43 258h24q-71 -145 -178.5 -209.5t-233.5 -64.5zM700 1203q-63 0 -109.5 29.5t-69 79t-12.5 110.5
t49 110t95.5 78.5t118.5 29.5q63 0 109.5 -29.5t68.5 -78.5t12 -110q-9 -61 -48 -110.5t-95 -79t-119 -29.5zM712 1301q52 0 94 35.5t50 86.5t-20 85t-77 34q-51 0 -93 -34.5t-51 -85.5q-8 -51 19.5 -86t77.5 -35z" />
    <glyph glyph-name="Uhungarumlaut" unicode="&#x170;" horiz-adv-x="1485" 
d="M656 -23q-170 0 -288.5 70t-171 191t-27.5 273l162 979h141l-162 -979q-19 -118 18 -209t122.5 -142t210.5 -51q130 0 236 53.5t176 147t90 211.5l160 969h141l-163 -988q-25 -153 -115.5 -271.5t-227 -186t-302.5 -67.5zM756 1639h-112l172 290h150zM1056 1639h-114
l215 290h152z" />
    <glyph glyph-name="uhungarumlaut" unicode="&#x171;" horiz-adv-x="1184" 
d="M455 -16q-112 0 -191.5 47t-114 138.5t-13.5 223.5l118 711h134l-116 -701q-22 -137 41 -216.5t192 -79.5q87 0 163 37t129 107t69 169l113 684h134l-183 -1104h-130l43 258h24q-71 -145 -178.5 -209.5t-233.5 -64.5zM542 1253h-112l172 290h150zM842 1253h-114l215 290
h152z" />
    <glyph glyph-name="Uogonek" unicode="&#x172;" horiz-adv-x="1485" 
d="M656 -23q-170 0 -288.5 70t-171 191t-27.5 273l162 979h141l-162 -979q-19 -118 18 -209t122.5 -142t210.5 -51q130 0 236 53.5t176 147t90 211.5l160 969h141l-163 -988q-25 -153 -115.5 -271.5t-227 -186t-302.5 -67.5zM650 -428q-85 0 -141 45t-41 135q11 64 54 111
t107 84.5t139 73.5t150.5 77.5t142 97t114.5 131t65 180.5l61 -4q-22 -129 -78.5 -219.5t-132 -152.5t-156 -106t-152 -81t-119 -76.5t-56.5 -93.5q-7 -44 17 -65.5t68 -21.5q23 0 43 5.5t35 11.5l19 -103q-27 -10 -61.5 -19.5t-77.5 -9.5z" />
    <glyph glyph-name="uogonek" unicode="&#x173;" horiz-adv-x="1184" 
d="M455 -16q-112 0 -191.5 47t-114 138.5t-13.5 223.5l118 711h134l-116 -701q-22 -137 41 -216.5t192 -79.5q87 0 163 37t129 107t69 169l113 684h134l-183 -1104h-130l43 258h24q-71 -145 -178.5 -209.5t-233.5 -64.5zM765 -429q-88 0 -141.5 45.5t-38.5 134.5
q13 75 73 142.5t156 128.5l117 -22q-85 -61 -142 -113.5t-67 -113.5q-7 -44 16.5 -65.5t68.5 -21.5q22 0 42 5t36 12l19 -103q-27 -10 -61.5 -19.5t-77.5 -9.5z" />
    <glyph glyph-name="Wcircumflex" unicode="&#x174;" horiz-adv-x="1962" 
d="M368 0l-164 1490h142l101 -991q7 -67 12 -135.5t9.5 -138t7.5 -141.5h-20q27 72 54 141.5t55.5 138t56.5 135.5l430 991h166l99 -991q7 -67 12.5 -135.5t10 -138t7.5 -141.5h-21q27 72 54.5 141.5t55.5 138t57 135.5l429 991h146l-660 -1490h-169l-105 1000
q-10 93 -16.5 194t-9.5 221h30q-42 -116 -81 -216.5t-82 -198.5l-437 -1000h-170zM994 1655h-135l1 7l288 270h120l200 -270l-1 -7h-137l-135 193z" />
    <glyph glyph-name="wcircumflex" unicode="&#x175;" horiz-adv-x="1636" 
d="M307 0l-149 1104h140l71 -594q10 -90 20 -193.5t17 -225.5h-23q46 118 90 222t87 197l277 594h144l79 -594q12 -90 21.5 -193.5t16.5 -225.5h-24q46 118 90 221.5t86 197.5l268 594h143l-515 -1104h-140l-87 621q-8 61 -15 125t-13 132t-12 138h33q-29 -70 -58 -137.5
t-57.5 -132t-56.5 -125.5l-293 -621h-140zM768 1269h-135l1 7l288 270h120l200 -270l-1 -7h-137l-135 193z" />
    <glyph glyph-name="Ycircumflex" unicode="&#x176;" horiz-adv-x="1346" 
d="M511 0l107 643l-414 847h153l236 -487q36 -74 66 -144t58 -160h-57q57 91 110.5 161.5t111.5 142.5l397 487h174l-695 -847l-106 -643h-141zM687 1655h-135l1 7l288 270h120l200 -270l-1 -7h-137l-135 193z" />
    <glyph glyph-name="ycircumflex" unicode="&#x177;" horiz-adv-x="1115" 
d="M-23 -406l48 117l34 -3q53 -14 99 -5t87.5 47.5t79.5 112.5l71 131l-243 1110h139l142 -690q19 -91 31.5 -181.5t25.5 -178.5h-45q43 88 85.5 178.5t91.5 181.5l371 690h152l-711 -1290q-44 -80 -96 -133t-112.5 -79t-130.5 -26q-36 0 -67 5.5t-52 12.5zM506 1269h-135
l1 7l288 270h120l200 -270l-1 -7h-137l-135 193z" />
    <glyph glyph-name="Ydieresis" unicode="&#x178;" horiz-adv-x="1346" 
d="M511 0l107 643l-414 847h153l236 -487q36 -74 66 -144t58 -160h-57q57 91 110.5 161.5t111.5 142.5l397 487h174l-695 -847l-106 -643h-141zM1071 1702q-39 0 -62 28t-17 67t39 66.5t72 27.5t61.5 -27.5t16.5 -66.5q-7 -39 -39 -67t-71 -28zM656 1702q-39 0 -62 28
t-17 67q7 39 39.5 66.5t71.5 27.5t61.5 -27.5t16.5 -66.5q-7 -39 -39 -67t-71 -28z" />
    <glyph glyph-name="Zacute" unicode="&#x179;" horiz-adv-x="1253" 
d="M37 0l18 104l1032 1260h-827l21 126h999l-18 -106l-1032 -1258h830l-21 -126h-1002zM743 1659l193 275h153l-233 -275h-113z" />
    <glyph glyph-name="zacute" unicode="&#x17a;" horiz-adv-x="1077" 
d="M34 0l18 104l772 868l2 8h-607l20 124h784l-18 -110l-761 -862l-1 -8h637l-20 -124h-826zM581 1273l193 275h153l-233 -275h-113z" />
    <glyph glyph-name="Zdotaccent" unicode="&#x17b;" horiz-adv-x="1253" 
d="M37 0l18 104l1032 1260h-827l21 126h999l-18 -106l-1032 -1258h830l-21 -126h-1002zM817 1702q-39 0 -63.5 28t-17.5 67q6 39 39.5 66.5t73.5 27.5q41 0 65 -27.5t17 -66.5q-6 -39 -39.5 -67t-74.5 -28z" />
    <glyph glyph-name="zdotaccent" unicode="&#x17c;" horiz-adv-x="1077" 
d="M34 0l18 104l772 868l2 8h-607l20 124h784l-18 -110l-761 -862l-1 -8h637l-20 -124h-826zM654 1316q-39 0 -63.5 28t-17.5 67q6 39 39.5 66.5t73.5 27.5q41 0 65 -27.5t17 -66.5q-6 -39 -39.5 -67t-74.5 -28z" />
    <glyph glyph-name="Zcaron" unicode="&#x17d;" horiz-adv-x="1253" 
d="M37 0l18 104l1032 1260h-827l21 126h999l-18 -106l-1032 -1258h830l-21 -126h-1002zM686 1930l137 -192l199 192h137l-1 -6l-291 -270h-119l-198 270l1 6h135z" />
    <glyph glyph-name="zcaron" unicode="&#x17e;" horiz-adv-x="1077" 
d="M34 0l18 104l772 868l2 8h-607l20 124h784l-18 -110l-761 -862l-1 -8h637l-20 -124h-826zM524 1544l137 -192l199 192h137l-1 -6l-291 -270h-119l-198 270l1 6h135z" />
    <glyph glyph-name="longs" unicode="&#x17f;" horiz-adv-x="580" 
d="M-155 -446q-20 0 -36.5 1.5t-32 4t-33.5 7.5l33 121q17 -4 41 -6.5t42 -2.5q76 0 124 42t62 129l230 1387q17 98 64 166t119.5 104t163.5 36q32 0 61 -4t58 -10l-36 -116q-18 4 -45.5 5.5t-54.5 1.5q-79 0 -129.5 -46t-66.5 -140l-229 -1384q-16 -95 -60.5 -161.5
t-114.5 -100.5t-160 -34z" />
    <glyph glyph-name="bbar" unicode="&#x180;" horiz-adv-x="1214" 
d="M564 -23q-97 0 -161.5 34t-102 87t-53.5 110h-11l-36 -208h-130l247 1490h134l-99 -597h9q34 57 85 108.5t123 85t167 33.5q119 0 205 -54.5t132.5 -153t46.5 -232.5q0 -127 -38 -252t-109.5 -227t-174.5 -163t-234 -61zM549 99q104 0 185 51.5t137.5 136.5t85.5 187
t29 203q0 145 -69 233t-202 88q-105 0 -186 -50.5t-136.5 -135t-84 -186.5t-28.5 -205q0 -146 69 -234t200 -88zM100 1241l18 108h614l-18 -108h-614z" />
    <glyph glyph-name="uni0181" unicode="&#x181;" horiz-adv-x="1560" 
d="M152 1106l20 119q21 130 98.5 197.5t212.5 67.5h99l-21 -126h-98q-70 0 -108.5 -33.5t-50.5 -106.5l-20 -118h-132zM336 0l247 1490h504q145 0 236.5 -51t129 -140.5t18.5 -204.5q-14 -89 -56.5 -154t-104.5 -107.5t-136 -62.5v-6q73 -7 134 -53.5t92 -128t12 -193.5
q-18 -115 -84 -202.5t-178.5 -137t-273.5 -49.5h-540zM498 126h388q173 0 272.5 79.5t119.5 201.5q14 84 -17 149t-99 102.5t-167 37.5h-403zM612 817h377q88 0 161.5 37.5t122.5 102.5t63 148q19 117 -46 188t-216 71h-371z" />
    <glyph glyph-name="uni0182" unicode="&#x182;" horiz-adv-x="1322" 
d="M97 0l246 1490h874l-22 -126h-732l-87 -526h417q150 0 247 -51t137.5 -143.5t19.5 -217.5q-21 -128 -91.5 -224t-184.5 -149t-266 -53h-558zM258 124h417q106 1 187 41.5t131.5 109.5t64.5 153q21 123 -53.5 203.5t-232.5 80.5h-417z" />
    <glyph glyph-name="uni0183" unicode="&#x183;" horiz-adv-x="1214" 
d="M367 1373l-50 117h784l-19 -117h-715zM564 -23q-97 0 -161.5 34t-102 87t-53.5 110h-11l-36 -208h-130l247 1490h134l-99 -597h9q34 57 85 108.5t123 85t167 33.5q119 0 205 -54.5t132.5 -153t46.5 -232.5q0 -127 -38 -252t-109.5 -227t-174.5 -163t-234 -61zM549 99
q104 0 185 51.5t137.5 136.5t85.5 187t29 203q0 145 -69 233t-202 88q-105 0 -186 -50.5t-136.5 -135t-84 -186.5t-28.5 -205q0 -146 69 -234t200 -88z" />
    <glyph glyph-name="uni0184" unicode="&#x184;" horiz-adv-x="1523" 
d="M234 964l-107 65l338 461h153zM570 880h431q146 0 243 -54.5t138 -152.5t20 -227q-22 -134 -94 -234.5t-185 -156t-260 -55.5h-539l247 1490h140l-226 -1365h390q103 0 184.5 40t134.5 112t69 168q15 93 -12 162.5t-93.5 108.5t-169.5 39h-438z" />
    <glyph glyph-name="uni0185" unicode="&#x185;" horiz-adv-x="1338" 
d="M179 622l-97 58l313 424h147zM533 683h323q126 0 208.5 -43t117 -119.5t18.5 -176.5q-17 -100 -77.5 -178t-157 -122t-220.5 -44h-435l183 1104h134l-162 -979h296q122 0 205 59.5t98 155.5q17 98 -44 158t-182 60h-326z" />
    <glyph glyph-name="uni0186" unicode="&#x186;" horiz-adv-x="1478" 
d="M857 1511q168 0 290.5 -73t189 -207t66.5 -317q0 -175 -54.5 -342t-157 -301t-247 -213t-324.5 -79q-121 0 -217 37.5t-163 104.5t-102.5 156.5t-36.5 192.5h140q4 -77 31 -142.5t77 -114t119.5 -75.5t156.5 -27q147 0 265 67.5t202 182.5t129 257.5t45 292.5
q0 152 -53 256.5t-146 158t-215 53.5q-90 0 -171.5 -27t-149.5 -76t-119 -114t-79 -142h-142q35 103 98.5 192t150.5 156t192.5 105t224.5 38z" />
    <glyph glyph-name="uni0187" unicode="&#x187;" horiz-adv-x="1478" 
d="M1312 1020l70 426q19 118 94.5 176.5t198.5 58.5q26 0 50.5 -1.5t40.5 -3.5l-18 -115q-17 2 -37 2.5t-32 0.5q-79 0 -118 -28.5t-49 -89.5l-70 -426h-130zM685 -21q-167 0 -290 73t-189.5 207t-66.5 317q0 175 54.5 342t157 301t247 213t324.5 79q121 0 217 -37.5
t163.5 -104.5t103 -156t36.5 -193h-141q-3 77 -30.5 142.5t-77 114t-119 75.5t-157.5 27q-146 0 -264.5 -67.5t-202.5 -182.5t-129 -257.5t-45 -292.5q0 -151 53 -256t146.5 -158.5t215.5 -53.5q90 0 171.5 27t149.5 76t118.5 114t79.5 142h142q-35 -103 -98.5 -192
t-151 -156t-193 -105t-224.5 -38z" />
    <glyph glyph-name="uni0188" unicode="&#x188;" horiz-adv-x="1125" 
d="M948 798l-35 214q-26 138 40.5 208t196.5 70q27 0 49 -1.5t38 -2.5l-18 -114q-20 1 -43.5 2t-38.5 1q-61 0 -88.5 -33.5t-15.5 -101.5l33 -225zM508 -21q-129 0 -222.5 57.5t-143.5 161t-48 240.5q1 129 43.5 251t119.5 219.5t184 154.5t239 57q87 0 156 -25.5t118 -69.5
t77.5 -98t34.5 -112l-131 -25q-3 36 -21 73t-49.5 67.5t-77.5 49.5t-110 19q-104 0 -186.5 -49t-141 -130.5t-89.5 -181.5t-32 -201q-2 -98 29 -174.5t94.5 -119.5t159.5 -43q66 0 122.5 20t101 53t76 71.5t48.5 76.5l125 -37q-25 -58 -70.5 -112.5t-107.5 -98t-137.5 -69
t-160.5 -25.5z" />
    <glyph glyph-name="Dbar1" unicode="&#x189;" horiz-adv-x="1478" 
d="M583 0h-383l20 126h352q191 0 332 75t229.5 215t119.5 333q32 192 -6 330t-146 211.5t-288 73.5h-393l21 126h379q214 0 354.5 -89t197.5 -255.5t19 -397.5q-39 -236 -145 -403t-273 -256t-390 -89zM510 1490l-247 -1490h-141l247 1490h141zM50 686l19 118h706l-20 -118
h-705z" />
    <glyph glyph-name="uni018A" unicode="&#x18a;" horiz-adv-x="1692" 
d="M153 1106l19 119q22 130 99.5 197.5t211.5 67.5h100l-21 -126h-98q-70 0 -108.5 -33.5t-50.5 -106.5l-20 -118h-132zM797 0h-383l20 126h352q191 0 332 75t229.5 215t119.5 333q32 192 -6 330t-146 211.5t-288 73.5h-393l21 126h379q214 0 354.5 -89t197.5 -255.5
t19 -397.5q-39 -236 -145 -403t-273 -256t-390 -89zM724 1490l-247 -1490h-141l247 1490h141z" />
    <glyph glyph-name="uni018B" unicode="&#x18b;" horiz-adv-x="1249" 
d="M1046 0h-556q-148 0 -245 54t-137.5 150.5t-20.5 223.5q21 126 92.5 218.5t186 144t265.5 50.5h398l82 496h-713l21 133h871zM911 130l96 581h-400q-157 0 -249 -79.5t-111 -200.5q-13 -86 10 -154t86 -107.5t169 -39.5h399z" />
    <glyph glyph-name="uni018C" unicode="&#x18c;" horiz-adv-x="1214" 
d="M1119 1373h-715l19 117h784zM476 -23q-179 0 -281.5 120t-102.5 321q0 128 38.5 253t110.5 226.5t175 162t233 60.5q99 0 163.5 -34.5t101 -87.5t51.5 -109h8l99 601h135l-247 -1490h-131l35 206h-11q-34 -57 -86.5 -110t-124.5 -86t-166 -33zM497 99q105 0 186 51.5
t136.5 136.5t84.5 188t29 204q0 145 -69 232t-201 87q-104 0 -185 -50.5t-137 -134.5t-85 -185.5t-29 -203.5q0 -145 69 -235t201 -90z" />
    <glyph glyph-name="deltaturn" unicode="&#x18d;" horiz-adv-x="1040" 
d="M697 -376h-679l22 122h471q-21 30 -55.5 72.5t-77.5 92.5t-91 103q-84 87 -141.5 174.5t-81.5 180t-10 195.5l4 21q24 166 100.5 289.5t193 191t260.5 67.5q146 0 239.5 -69t131 -192.5t12.5 -286.5l-2 -21q-19 -128 -90 -233.5t-182 -171.5t-249 -78q-21 -1 -35 -0.5
t-35 2.5q44 -51 87 -99t83 -93.5t75.5 -88.5t65.5 -86zM839 563l3 20q19 126 -1 222t-81.5 149.5t-168.5 53.5q-103 0 -182.5 -54t-130.5 -149.5t-69 -219.5l-3 -21q-17 -117 19 -208t104 -160q31 -9 58 -13t56 -4q108 0 190.5 52t135.5 139.5t70 192.5z" />
    <glyph glyph-name="Eturn" unicode="&#x18e;" horiz-adv-x="1209" 
d="M1177 1490l-247 -1490h-887l21 126h746l91 548h-696l21 126h696l93 564h-756l21 126h897z" />
    <glyph glyph-name="uni018F" unicode="&#x18f;" horiz-adv-x="1507" 
d="M653 -21q-176 0 -302.5 77.5t-184 217t-27.5 326.5l20 123h1173l-20 -125h-1080l46 9q-25 -151 19 -262.5t142 -172.5t235 -61q153 0 278.5 77t211 219.5t117.5 338.5q32 197 -10.5 338.5t-144.5 218t-249 76.5q-91 0 -171 -28t-146.5 -77.5t-115.5 -114t-81 -138.5h-144
q35 99 99 187.5t153 156.5t197.5 107t230.5 39q191 0 320.5 -95t183.5 -266.5t16 -403.5q-29 -174 -97 -315t-168.5 -242t-227.5 -155.5t-273 -54.5z" />
    <glyph glyph-name="Epsilon1" unicode="&#x190;" horiz-adv-x="1235" 
d="M516 -21q-142 0 -244 55.5t-150 151t-28 215.5q16 94 66 169.5t128.5 126t177.5 68.5l2 8q-115 35 -171 125.5t-35 215.5q18 110 87.5 199.5t177 143.5t238.5 54q129 0 224 -51.5t141.5 -142.5t29.5 -210h-136q12 86 -20.5 148.5t-98.5 96.5t-155 34q-91 0 -165.5 -35
t-123 -98t-62.5 -146q-14 -85 18.5 -147.5t102 -97t167.5 -34.5h88l-21 -126h-88q-116 0 -208.5 -37.5t-151 -105t-73.5 -157.5q-14 -86 19.5 -153.5t106.5 -105.5t176 -38q98 0 181.5 35t141 99t74.5 149h142q-23 -120 -102 -212.5t-197 -144.5t-259 -52z" />
    <glyph glyph-name="uni0191" unicode="&#x191;" horiz-adv-x="1186" 
d="M-181 -418l20 121q17 -2 36.5 -2.5t32.5 -0.5q78 0 113 28.5t45 89.5l51 310h141l-52 -315q-20 -117 -94.5 -176.5t-199.5 -59.5q-26 0 -51.5 1.5t-41.5 3.5zM96 0l247 1490h877l-21 -126h-736l-94 -561h667l-20 -126h-667l-112 -677h-141z" />
    <glyph glyph-name="florin" unicode="&#x192;" horiz-adv-x="715" 
d="M699 1078l-20 -116h-202l-176 -1062q-17 -103 -66 -174t-122 -107.5t-164 -36.5q-29 0 -53.5 3t-49.5 11l34 122q16 -6 44 -8.5t44 -2.5q67 0 122.5 51t70.5 142l176 1062h-186l20 116h186l24 149q18 105 69 178.5t124.5 112t158.5 38.5q36 0 75 -6t64 -16l-54 -121
q-14 4 -33 7.5t-44 2.5q-85 1 -144.5 -49t-75.5 -147l-24 -149h202z" />
    <glyph glyph-name="uni0193" unicode="&#x193;" horiz-adv-x="1508" 
d="M1347 1044l39 401q7 82 46.5 134t103 76.5t141.5 24.5q27 0 51.5 -1t40.5 -4l-19 -114q-16 1 -36 1.5t-33 0.5q-77 0 -117 -28t-50 -90l-69 -424zM689 -21q-171 0 -294 73t-189.5 206.5t-66.5 315.5q0 175 54 342t155.5 301.5t245.5 214t324 79.5q124 0 221.5 -39
t165 -107t103 -156.5t37.5 -187.5h-144q-6 74 -33.5 138.5t-76 114t-118 77.5t-160.5 28q-148 0 -265.5 -69t-200.5 -184.5t-127 -257.5t-44 -288q0 -221 113 -345t305 -124q140 0 256.5 62t195 174.5t103.5 264.5l42 -14h-475l21 125h568l-21 -128q-23 -140 -85 -253
t-154.5 -194.5t-208.5 -125t-247 -43.5z" />
    <glyph glyph-name="Gamma1" unicode="&#x194;" horiz-adv-x="1200" 
d="M146 1490h153l316 -1269q32 -125 56.5 -211t36.5 -143t5 -96q-12 -68 -49.5 -115.5t-95 -72.5t-129.5 -25q-111 0 -167.5 56.5t-39.5 158.5q4 24 14.5 51t29.5 62t46.5 80.5t64 106.5t83.5 141l744 1276h155l-814 -1382q-59 -102 -97.5 -166.5t-58.5 -103.5t-24 -66
q-6 -38 17 -63t67 -26q45 1 75.5 28t36.5 62q4 27 -2 66.5t-22 105t-43 169.5z" />
    <glyph glyph-name="uni0195" unicode="&#x195;" horiz-adv-x="1906" 
d="M70 0l248 1490h134l-92 -550h13q54 89 145.5 140.5t217.5 51.5q113 0 191 -47t111.5 -138t11.5 -224l-31 -186h-135l29 177q22 137 -41 216t-193 80q-87 0 -163 -38t-127.5 -107.5t-68.5 -167.5l-114 -697h-136zM1145 -19q-106 0 -178 49t-99 151t-1 260l23 138h136
l-24 -138q-22 -133 -2.5 -207t67 -104t106.5 -30q106 0 202.5 90.5t175 286.5t130.5 512l21 129h136l-22 -134q-58 -349 -157.5 -571t-230.5 -327t-283 -105z" />
    <glyph glyph-name="Iota" unicode="&#x196;" horiz-adv-x="511" 
d="M312 -5q-120 -5 -172 52t-33 175l211 1268h134l-206 -1242q-13 -80 9.5 -108.5t87.5 -23.5q19 1 29 1.5t20 3.5l2 -116q-16 -3 -38 -6t-44 -4z" />
    <glyph glyph-name="uni0197" unicode="&#x197;" horiz-adv-x="615" 
d="M533 1490l-247 -1490h-141l247 1490h141zM47 716l18 106h574l-17 -106h-575z" />
    <glyph glyph-name="uni0198" unicode="&#x198;" horiz-adv-x="1352" 
d="M97 0l246 1490h141l-132 -799h14l772 719q59 55 122 77.5t122.5 13.5t110.5 -50l-77 -103q-44 32 -94 24.5t-111 -64.5l-554 -508l524 -800h-171l-457 702l-234 -222l-81 -480h-141z" />
    <glyph glyph-name="uni0199" unicode="&#x199;" horiz-adv-x="1060" 
d="M221 905l33 199l25 154q19 115 94.5 175t202.5 60q27 0 51.5 -1.5t40.5 -3.5l-19 -115q-17 2 -36.5 2.5t-32.5 0.5q-76 0 -116 -28t-50 -90l-26 -154l-33 -199h-134zM263 415l28 172h26l599 517h170l-594 -512l-15 -2zM71 0l183 1104h134l-183 -1104h-134zM764 0
l-356 566l112 93l415 -659h-171z" />
    <glyph glyph-name="uni019A" unicode="&#x19a;" horiz-adv-x="458" 
d="M451 1490l-247 -1490h-134l247 1490h134zM-52 714l18 108h614l-18 -108h-614z" />
    <glyph glyph-name="lambdabar" unicode="&#x19b;" horiz-adv-x="1257" 
d="M789 1424l-23 -133l-496 -186l22 130zM635 875l-458 -875h-170l598 1111l101 -20zM462 1511q101 -1 148.5 -44.5t66.5 -132.5l236 -1097q11 -47 22 -73t27.5 -36.5t39.5 -10.5q9 0 19.5 0.5t19.5 1.5l-12 -124q-13 -5 -33 -8t-42 -3q-52 0 -89 15t-62 58t-44 129
l-173 801l-61 281q-14 66 -43.5 92t-76.5 26q-13 0 -30 -1t-31 -5l14 118q18 6 49.5 9.5t54.5 3.5z" />
    <glyph glyph-name="mcapturn" unicode="&#x19c;" horiz-adv-x="1787" 
d="M1420 219l211 1271h152l-246 -1490h-144zM1471 458l73 1q-20 -138 -80.5 -246t-157.5 -169.5t-228 -61.5q-110 0 -182 45.5t-99 142t-3 246.5l178 1074h151l-178 -1074q-17 -110 1 -177t63.5 -97.5t111.5 -30.5q98 0 170 45.5t117.5 123.5t62.5 178zM814 458l73 1
q-20 -138 -81.5 -246t-159 -169.5t-230.5 -61.5q-108 0 -180.5 45.5t-99 141t-1.5 247.5l178 1074h152l-178 -1074q-18 -112 0.5 -179t64.5 -96.5t109 -29.5q98 0 171 45.5t119 123.5t63 178z" />
    <glyph glyph-name="Nhook" unicode="&#x19d;" horiz-adv-x="1533" 
d="M-181 -418l20 121q17 -2 36.5 -2.5t32.5 -0.5q78 0 113 28.5t45 89.5l51 310h141l-52 -315q-20 -117 -94.5 -176.5t-199.5 -59.5q-26 0 -51.5 1.5t-41.5 3.5zM96 0l247 1490h156l512 -1015q20 -37 45 -91.5t53 -119.5t55 -137l-19 -5q7 70 15.5 138t17.5 129t17 108
l165 993h140l-247 -1490h-156l-479 944q-25 50 -52.5 108.5t-60.5 133t-76 174.5l22 7q-13 -97 -23 -176.5t-18.5 -140.5t-16.5 -105l-156 -945h-141z" />
    <glyph glyph-name="uni019E" unicode="&#x19e;" horiz-adv-x="1184" 
d="M318 684l-113 -684h-134l183 1104h129l-42 -258h-24q47 97 110 157.5t138 88.5t159 28q113 0 193.5 -47.5t117 -138t13.5 -223.5l-187 -1129h-134l186 1119q23 139 -36 217.5t-187 78.5q-87 0 -166 -37t-134.5 -107t-71.5 -169z" />
    <glyph glyph-name="Obar" unicode="&#x19f;" horiz-adv-x="1540" 
d="M1337 805l-7 -122h-1074l7 122h1074zM684 -21q-167 0 -289 73t-189 207.5t-67 316.5q0 176 54.5 342.5t157.5 300t247 213t323 79.5q166 0 288 -73.5t188.5 -207t66.5 -316.5q0 -176 -54.5 -343t-157 -300.5t-246 -212.5t-322.5 -79zM689 111q148 0 266 68.5t201 184
t127 257.5t44 289q0 149 -51.5 254t-144 160t-215.5 55q-149 0 -267 -68.5t-201.5 -184t-127.5 -257.5t-44 -289q0 -149 51.5 -253.5t145 -160t216.5 -55.5z" />
    <glyph glyph-name="Ohorn" unicode="&#x1a0;" horiz-adv-x="1537" 
d="M910 1411l17 100q47 0 80 -2.5t63.5 -5.5t71 -6t103 -5t159.5 -2q38 0 44 38l29 177h129l-29 -171q-12 -77 -57 -116t-122 -39q-47 0 -89.5 5t-94.5 11.5t-124.5 11t-179.5 4.5zM684 -21q-167 0 -289 73t-189 207.5t-67 316.5q0 176 54.5 342.5t157.5 300t247 213
t323 79.5q166 0 288 -73.5t188.5 -207t66.5 -316.5q0 -176 -54.5 -343t-157 -300.5t-246 -212.5t-322.5 -79zM689 111q148 0 266 68.5t201 184t127 257.5t44 289q0 149 -51.5 254t-144 160t-215.5 55q-149 0 -267 -68.5t-201.5 -184t-127.5 -257.5t-44 -289
q0 -149 51.5 -253.5t145 -160t216.5 -55.5z" />
    <glyph glyph-name="ohorn" unicode="&#x1a1;" horiz-adv-x="1186" 
d="M671 1026l15 94q45 -1 86.5 -3.5l83 -5t86.5 -4.5t94 -2q37 0 44 38l29 176h122l-26 -156q-8 -51 -31 -85t-60.5 -51t-88.5 -17q-87 1 -177 7.5t-177 8.5zM508 -23q-128 0 -221 56.5t-143.5 158.5t-50.5 237q0 130 41.5 253.5t119 222t185.5 157t241 58.5
q128 0 221 -56.5t143.5 -158t50.5 -237.5q0 -131 -41.5 -254.5t-119.5 -222.5t-186 -156.5t-240 -57.5zM511 98q105 0 188.5 50.5t142 133.5t89 183.5t30.5 200.5q0 97 -32 172t-95 118t-157 43q-104 0 -187 -49.5t-141.5 -132.5t-90 -184t-31.5 -204q0 -144 71.5 -237.5
t212.5 -93.5z" />
    <glyph glyph-name="OI" unicode="&#x1a2;" horiz-adv-x="1697" 
d="M1235 773l-96 -584q-54 -65 -133 -112t-173.5 -72t-195.5 -25q-184 0 -307.5 87t-173 243.5t-15.5 366.5l16 95l158 3l-16 -98q-28 -176 6.5 -303.5t126.5 -196t237 -68.5q94 0 181 32t144 89l90 543h151zM1324 1305l-98 -592h-152l90 545q-36 56 -112 88.5t-173 33.5
q-109 0 -201 -39.5t-165 -114.5t-122.5 -181.5t-71.5 -241.5l-17 -105h-157l17 105q35 217 137.5 375.5t257.5 245t346 86.5q96 0 179.5 -25t146 -71t95.5 -109zM1661 1490l-316 -1908h-153l291 1755l-249 -114l23 138l276 129h128z" />
    <glyph glyph-name="uni01A3" unicode="&#x1a3;" horiz-adv-x="1204" 
d="M453 103q50 0 92 13.5t81 36.5l76 459h152l-81 -499q-47 -40 -100.5 -70.5t-115 -47.5t-131.5 -17q-146 0 -237.5 73t-126.5 196.5t-12 273.5l5 34q26 166 102.5 297t195.5 206t272 75q66 0 121 -16t98.5 -45t75.5 -70l-85 -512l-153 1l77 467q-30 24 -70 37t-89 13
q-109 0 -188.5 -60.5t-130 -162.5t-73.5 -230l-5 -36q-20 -128 4 -221t87 -143.5t159 -51.5zM1239 1118l-253 -1536h-151l221 1345l-240 -132l31 188l264 135h128z" />
    <glyph glyph-name="uni01A4" unicode="&#x1a4;" horiz-adv-x="1509" 
d="M153 1106l19 119q22 130 99.5 197.5t211.5 67.5h100l-21 -126h-98q-70 0 -108.5 -33.5t-50.5 -106.5l-20 -118h-132zM336 0l247 1490h492q155 0 252.5 -59.5t136.5 -163t17 -234.5q-21 -132 -94 -235.5t-190.5 -163.5t-272.5 -60h-393l21 126h388q115 0 199 43
t135.5 118.5t66.5 171.5q16 97 -10.5 171.5t-96.5 117t-185 42.5h-346l-226 -1364h-141z" />
    <glyph glyph-name="uni01A5" unicode="&#x1a5;" horiz-adv-x="1214" 
d="M220 905l33 199l26 154q19 115 94.5 175t201.5 60q27 0 51.5 -1.5t41.5 -3.5l-20 -115q-17 2 -36.5 2.5t-32.5 0.5q-75 0 -115 -28t-51 -90l-26 -154l-33 -199h-134zM1 -418l253 1522h130l-35 -211h6q32 58 85 109.5t127 84.5t169 33q119 0 205 -54.5t132.5 -153
t46.5 -232.5q0 -127 -38 -252t-109.5 -227t-174.5 -163t-234 -61q-98 0 -162 35t-100.5 89t-51.5 110h-11l-104 -629h-134zM549 99q104 0 185 51.5t137.5 136.5t85.5 187t29 203q0 145 -69 233t-202 88q-105 0 -186 -50.5t-136.5 -135t-84 -186.5t-28.5 -205q0 -146 69 -234
t200 -88z" />
    <glyph glyph-name="YR" unicode="&#x1a6;" horiz-adv-x="1421" 
d="M241 1388l34 203h159l-33 -203h-160zM259 1490h472q155 0 255 -52t141 -149.5t18 -234.5q-18 -103 -72 -186t-137 -140.5t-188 -84.5l-46 -17h-467l20 129h371q97 0 173.5 39t125.5 107t62 154q22 137 -45.5 220.5t-233.5 82.5h-313l-224 -1358h-160zM996 -363l-378 1026
h167l382 -1018l-2 -8h-169z" />
    <glyph glyph-name="uni01A7" unicode="&#x1a7;" horiz-adv-x="1276" 
d="M544 -25q-162 0 -269.5 55.5t-154 151t-26.5 215.5q14 89 58 154t108.5 112t143.5 79.5t162 54.5l167 45q84 23 157 57.5t122.5 85.5t60.5 125q13 81 -19 143t-101.5 96.5t-169.5 34.5t-185.5 -34t-144.5 -97t-81 -147h-138q25 118 102 209.5t193.5 143.5t257.5 52
q140 0 242.5 -51.5t151.5 -144t29 -213.5q-24 -144 -137 -236.5t-304 -144.5l-182 -50q-102 -28 -177.5 -63.5t-120.5 -86t-58 -124.5q-21 -133 67.5 -213.5t254.5 -80.5q104 0 194.5 33.5t154 97.5t84.5 156h144q-27 -124 -107 -217.5t-202 -145.5t-277 -52z" />
    <glyph glyph-name="uni01A8" unicode="&#x1a8;" horiz-adv-x="1034" 
d="M170 840q35 87 95 149.5t143.5 96.5t188.5 34q114 0 195 -39.5t119.5 -110t22.5 -162.5q-18 -110 -101 -185t-236 -110l-187 -44q-93 -21 -146.5 -64t-64.5 -111q-14 -86 52.5 -141.5t191.5 -55.5q115 0 194.5 51t116.5 152l126 -22q-33 -98 -98.5 -164.5t-157 -101.5
t-202.5 -35q-122 0 -208 41t-126 114.5t-25 168.5q18 110 100 182t231 107l178 41q103 24 159.5 67.5t68.5 113.5q15 85 -48 137.5t-174 52.5q-113 0 -183 -53t-105 -133z" />
    <glyph glyph-name="uni01A9" unicode="&#x1a9;" horiz-adv-x="1244" 
d="M17 0l21 118l561 504q31 28 60.5 53t57 48t52.5 43.5t46 38.5l-10 -62q-18 21 -44 49.5t-55 61.5t-58 68l-367 462l17 106h1083l-21 -126h-686q-70 0 -130 1t-114 4l-2 24q19 -20 44.5 -46.5t55 -60t61.5 -74.5l332 -420l-8 -52l-473 -427q-51 -45 -97.5 -84.5
t-87.5 -72.5t-77 -62l11 27q63 3 131 4t149 1h696l-21 -126h-1127z" />
    <glyph glyph-name="eshlooprev" unicode="&#x1aa;" horiz-adv-x="1028" 
d="M685 1172l164 69l-222 -1340q-17 -105 7 -148.5t90 -43.5q16 0 35 3t34 7l-21 -124q-21 -7 -50 -10.5t-53 -3.5q-124 0 -173.5 80.5t-23.5 239.5zM211 1238q15 90 69 162t133.5 114.5t168.5 42.5q88 0 153 -43t96.5 -115.5t17.5 -160.5q-14 -86 -69 -158.5t-134 -115.5
t-168 -43q-87 0 -152.5 43t-96.5 115.5t-18 158.5zM501 1062q49 0 92 21.5t72.5 62t38.5 95.5q14 85 -27.5 133t-116.5 48q-48 0 -91.5 -22t-74 -62.5t-39.5 -96.5q-14 -86 30 -132.5t116 -46.5z" />
    <glyph glyph-name="uni01AB" unicode="&#x1ab;" horiz-adv-x="606" 
d="M57 -417l19 115q16 -1 36 -1.5t33 -0.5q94 0 137 38.5t46 119.5l15 154h131l-14 -153q-2 -82 -38.5 -144t-104.5 -97t-168 -35q-27 0 -51.5 1t-40.5 3zM639 1104l-19 -117h-532l19 117h532zM322 1375h134l-185 -1117q-13 -81 16.5 -117t105.5 -30q15 1 37 3.5t41 5.5
l2 -116q-22 -5 -49 -8.5t-54 -4.5q-134 -7 -194.5 62.5t-40.5 194.5z" />
    <glyph glyph-name="uni01AC" unicode="&#x1ac;" horiz-adv-x="1281" 
d="M167 1106l20 119q21 130 98.5 197.5t212.5 67.5h99l-21 -126h-98q-70 0 -108.5 -33.5t-50.5 -106.5l-20 -118h-132zM576 1364l21 126h743l-21 -126h-471l-226 -1364h-141l226 1364h-131z" />
    <glyph glyph-name="uni01AD" unicode="&#x1ad;" horiz-adv-x="708" 
d="M423 -14q-123 0 -191.5 74.5t-48.5 196.5l133 798h128l-127 -770q-14 -88 22 -132t115 -44q19 0 38 2.5t41 6.5l5 -116q-25 -7 -54.5 -11.5t-60.5 -4.5zM141 996l19 113h527l-19 -113h-527zM292 910l33 199l25 153q19 115 94.5 175t202.5 60q27 0 51.5 -1t40.5 -3
l-19 -115q-17 1 -36.5 1.5t-32.5 0.5q-76 0 -116 -27.5t-50 -90.5l-26 -153l-33 -199h-134z" />
    <glyph glyph-name="Trthook" unicode="&#x1ae;" horiz-adv-x="1289" 
d="M614 0l-23 -136q-15 -92 27.5 -126t115.5 -33h53l-20 -122h-85q-56 0 -102.5 17.5t-78.5 53t-44.5 88t-1.5 121.5l24 137h135zM231 1364l21 126h1096l-21 -126h-477l-226 -1364h-140l225 1364h-478z" />
    <glyph glyph-name="Uhorn" unicode="&#x1af;" horiz-adv-x="1498" 
d="M1315 1379l19 111h158q37 0 43 38l29 177h129l-28 -171q-13 -77 -58 -116t-122 -39h-170zM656 -23q-170 0 -288.5 70t-171 191t-27.5 273l162 979h141l-162 -979q-19 -118 18 -209t122.5 -142t210.5 -51q130 0 236 53.5t176 147t90 211.5l160 969h141l-163 -988
q-25 -153 -115.5 -271.5t-227 -186t-302.5 -67.5z" />
    <glyph glyph-name="uhorn" unicode="&#x1b0;" horiz-adv-x="1243" 
d="M1020 1009l16 95h87q48 0 56 49l33 197h122l-31 -187q-13 -76 -58 -115t-122 -39h-103zM455 -16q-112 0 -191.5 47t-114 138.5t-13.5 223.5l118 711h134l-116 -701q-22 -137 41 -216.5t192 -79.5q87 0 163 37t129 107t69 169l113 684h134l-183 -1104h-130l43 258h24
q-71 -145 -178.5 -209.5t-233.5 -64.5z" />
    <glyph glyph-name="Upsilon2" unicode="&#x1b1;" horiz-adv-x="1533" 
d="M148 711q37 219 151.5 379.5t302.5 261.5l3 12h-348l21 126h512l-29 -163q-111 -49 -210 -135.5t-169.5 -208t-95.5 -272.5q-27 -168 15 -304t143.5 -216t249.5 -80q149 1 276.5 80.5t214.5 216t114 305.5q26 153 -5 273.5t-102 207t-166 133.5l28 163h512l-21 -126h-347
l-3 -12q153 -97 215 -260t26 -382q-27 -160 -96 -294t-171.5 -231.5t-229 -151t-267.5 -53.5q-140 0 -248.5 54t-179 152.5t-96.5 232t0 292.5z" />
    <glyph glyph-name="Vcursive" unicode="&#x1b2;" horiz-adv-x="1251" 
d="M527 -21q-148 0 -255 56t-155 166.5t-22 272.5l169 1016h157l-168 -1016q-31 -186 50 -276t245 -90q165 0 278.5 91.5t143.5 274.5l118 717q17 103 -17 144t-115 41q-18 0 -37.5 -2t-37.5 -6l22 125q23 7 52 12t60 5q126 0 192.5 -81.5t40.5 -237.5l-118 -717
q-27 -163 -114.5 -273t-214.5 -166t-274 -56z" />
    <glyph glyph-name="uni01B3" unicode="&#x1b3;" horiz-adv-x="1377" 
d="M658 750l6 35h35l-5 -35h-36zM191 1490h160l329 -717l474 597q55 71 118.5 104.5t127 33.5t115.5 -31l-61 -112q-43 23 -94 12t-99 -70l-533 -664l-106 -643h-140l106 643z" />
    <glyph glyph-name="uni01B4" unicode="&#x1b4;" horiz-adv-x="1377" 
d="M999 1104l88 167q32 59 62.5 105t64 76.5t76.5 46t100 15.5q33 0 61.5 -3t47.5 -7l-18 -109q-13 3 -31 4t-30 1q-49 0 -82 -15t-58.5 -47.5t-53.5 -83.5l-85 -150h-142zM-23 -406l48 117l34 -3q53 -14 99 -5t87.5 47.5t79.5 112.5l71 131l-243 1110h139l142 -690
q19 -91 31.5 -181.5t25.5 -178.5h-45q43 88 85.5 178.5t91.5 181.5l371 690h152l-711 -1290q-44 -80 -96 -133t-112.5 -79t-130.5 -26q-36 0 -67 5.5t-52 12.5z" />
    <glyph glyph-name="Zbar" unicode="&#x1b5;" horiz-adv-x="1253" 
d="M37 0l18 104l1032 1260h-827l21 126h999l-18 -106l-1032 -1258h830l-21 -126h-1002zM259 686l19 118h780l-20 -118h-779z" />
    <glyph glyph-name="zbar" unicode="&#x1b6;" horiz-adv-x="1077" 
d="M34 0l18 104l772 868l2 8h-607l20 124h784l-18 -110l-761 -862l-1 -8h637l-20 -124h-826zM236 503l18 106h574l-17 -106h-575z" />
    <glyph glyph-name="uni01B7" unicode="&#x1b7;" horiz-adv-x="1387" 
d="M17 68h142q-14 -112 31.5 -198t136 -134.5t207.5 -48.5q135 0 246.5 63t186 172t97.5 247q24 150 -25.5 262t-160 176t-268.5 66h-98l20 118l639 571l-2 -1h-856l21 129h1046l-18 -104l-656 -589l-2 -12q178 -7 299.5 -88.5t175.5 -217.5t25 -308q-22 -129 -82 -240
t-151 -195t-207 -130.5t-251 -46.5q-159 0 -278 64.5t-178.5 179.5t-39.5 265z" />
    <glyph glyph-name="uni01B8" unicode="&#x1b8;" horiz-adv-x="1387" 
d="M1210 68q-30 -150 -128 -265t-238.5 -179.5t-300.5 -64.5q-134 0 -234.5 47t-164 130t-86 194t-1.5 239q29 175 127.5 311t247.5 217t327 88l2 12l-461 589l17 104h1046l-22 -129h-858l1 1l450 -571l-19 -118h-97q-158 -2 -290 -65.5t-219 -176.5t-112 -265
q-23 -137 15 -245t127.5 -171t222.5 -63q121 0 227.5 48.5t180.5 135t97 197.5h143z" />
    <glyph glyph-name="uni01B9" unicode="&#x1b9;" horiz-adv-x="1233" 
d="M451 -402q-145 0 -246 57.5t-146.5 157t-24.5 224.5q20 127 98.5 224.5t196.5 154t257 61.5l1 6l-343 517l17 104h855l-21 -125h-665l-1 -7l325 -489l-19 -116h-100q-133 0 -230.5 -42t-156.5 -116t-75 -171q-16 -94 16.5 -164.5t105 -110t176.5 -39.5q98 0 181 34.5
t139 98.5t75 150h143q-25 -123 -106 -215t-198.5 -143t-253.5 -51z" />
    <glyph glyph-name="uni01BA" unicode="&#x1ba;" horiz-adv-x="1055" 
d="M214 1105l859 -1l-17 -102l-660 -495h-77l18 102l494 370h-637zM115 -142q-14 -86 43 -131.5t173 -45.5q73 0 140.5 24t116 75.5t67.5 131.5h152q-19 -95 -84.5 -176t-169 -130t-237.5 -49q-123 0 -207 37.5t-121.5 107t-21.5 164.5q11 66 44.5 117.5t88.5 90.5t130.5 68
t170.5 49q99 22 159 44t90 54t38 80q11 69 -43.5 103.5t-193.5 34.5h-63l31 124h53q132 0 219 -31t125.5 -90.5t23.5 -143.5q-10 -63 -42 -110t-86 -81.5t-130 -61t-174 -48.5q-105 -23 -166 -53.5t-89.5 -69t-36.5 -84.5z" />
    <glyph glyph-name="uni01BB" unicode="&#x1bb;" horiz-adv-x="1229" 
d="M56 0l18 107l586 535q112 103 183.5 178t109.5 140t49 137q15 88 -11.5 152.5t-87.5 100.5t-151 36q-93 0 -172 -40t-132.5 -110t-69.5 -163h-134q21 128 94 226.5t181.5 155t238.5 56.5t221.5 -55t134 -148.5t22.5 -211.5q-11 -63 -36.5 -122t-72 -121.5t-121 -138.5
t-181.5 -174l-447 -406l-2 -8h738l-20 -126h-938zM307 568l19 118h780l-20 -118h-779z" />
    <glyph glyph-name="uni01BC" unicode="&#x1bc;" horiz-adv-x="1216" 
d="M517 1490l-21 -126h-265l21 126h265zM524 -20q-128 0 -221 52.5t-138 143.5t-29 207h138q-14 -120 56.5 -198.5t203.5 -78.5q101 0 188.5 47t147.5 130.5t77 189.5q18 110 -12.5 192.5t-100 129t-166.5 46.5q-86 0 -171 -31.5t-139 -84.5l-136 14l205 751h764l-21 -126
h-643l-140 -506h6q60 49 139 78.5t167 29.5q132 0 227.5 -63t139 -174t18.5 -257q-23 -142 -103 -253t-198.5 -175t-258.5 -64z" />
    <glyph glyph-name="uni01BD" unicode="&#x1bd;" horiz-adv-x="1000" 
d="M302 489l-131 12l163 581h639l-23 -133h-509l-82 -296q41 32 106.5 53.5t129.5 23.5q168 3 251 -96t56 -274q-17 -110 -76.5 -195.5t-157.5 -134t-234 -48.5q-73 0 -139 21t-116 61t-74.5 100t-13.5 137l150 14q-13 -93 44.5 -149t163.5 -56q126 0 204.5 69t96.5 179
q18 113 -33.5 180t-166.5 68q-85 0 -147 -34t-101 -83zM437 1082l-22 -133h-284l22 133h284z" />
    <glyph glyph-name="glottalstopbarinv" unicode="&#x1be;" horiz-adv-x="1065" 
d="M761 290q8 52 -13.5 87t-59.5 62t-80.5 55.5t-78 66t-53 94t-3.5 140.5l90 545h154l-90 -542q-11 -68 8.5 -111.5t57 -73.5t80.5 -56t80 -57.5t56 -78t6 -120.5q-15 -96 -79 -168t-164 -112t-224 -40q-137 0 -225 51t-124.5 133t-20.5 173h153q-11 -76 18 -128t87 -78.5
t133 -26.5q80 0 142.5 23.5t101.5 65.5t48 96zM888 1078l-21 -117h-579l22 117h578z" />
    <glyph glyph-name="uni01BF" unicode="&#x1bf;" horiz-adv-x="1226" 
d="M368 924l-198 -1340h-153l226 1534h140zM304 750l-79 -39q51 135 121.5 229t163 143.5t207.5 49.5q133 0 217.5 -66t117 -186t8.5 -282l-8 -47q-30 -202 -142 -337t-302.5 -227t-457.5 -163l19 125q211 54 365.5 130.5t247 191t116.5 279.5l7 49q17 115 -3.5 206.5
t-81.5 144.5t-165 53q-80 0 -145 -33.5t-116 -91t-90 -129.5z" />
    <glyph glyph-name="pipe" unicode="&#x1c0;" horiz-adv-x="472" 
d="M453 1498l-249 -1498h-123l250 1498h122z" />
    <glyph glyph-name="pipedbl" unicode="&#x1c1;" horiz-adv-x="690" 
d="M408 1498l-249 -1498h-123l250 1498h122zM679 1498l-249 -1498h-123l250 1498h122z" />
    <glyph glyph-name="pipedblbar" unicode="&#x1c2;" horiz-adv-x="458" 
d="M444 1498l-249 -1498h-123l250 1498h122zM-8 974l18 108h614l-18 -108h-614zM-92 469l18 108h614l-18 -108h-614z" />
    <glyph glyph-name="exclam1" unicode="&#x1c3;" horiz-adv-x="545" 
d="M188 446l165 1044h149l-182 -1044h-132zM187 -12q-46 0 -74.5 33.5t-20.5 81.5q7 41 40.5 69t72.5 28q48 0 75.5 -34t20.5 -80q-6 -41 -39 -69.5t-75 -28.5z" />
    <glyph glyph-name="Dzcaron_" unicode="&#x1c5;" horiz-adv-x="2530" 
d="M557 0h-383l20 126h352q191 0 332 75t229.5 215t119.5 333q32 192 -6 330t-146 211.5t-288 73.5h-393l21 126h379q214 0 354.5 -89t197.5 -255.5t19 -397.5q-39 -236 -145 -403t-273 -256t-390 -89zM484 1490l-247 -1490h-141l247 1490h141zM1486 0l18 104l772 868l2 8
h-607l20 124h784l-18 -110l-761 -862l-1 -8h637l-20 -124h-826zM1976 1544l137 -192l199 192h137l-1 -6l-291 -270h-119l-198 270l1 6h135z" />
    <glyph glyph-name="uni01C6" unicode="&#x1c6;" horiz-adv-x="2139" 
d="M476 -23q-179 0 -281.5 120t-102.5 321q0 128 38.5 253t110.5 226.5t175 162t233 60.5q99 0 163.5 -34.5t101 -87.5t51.5 -109h8l99 601h135l-247 -1490h-131l35 206h-11q-34 -57 -86.5 -110t-124.5 -86t-166 -33zM497 99q105 0 186 51.5t136.5 136.5t84.5 188t29 204
q0 145 -69 232t-201 87q-104 0 -185 -50.5t-137 -134.5t-85 -185.5t-29 -203.5q0 -145 69 -235t201 -90zM1096 0l18 104l772 868l2 8h-607l20 124h784l-18 -110l-761 -862l-1 -8h637l-20 -124h-826zM1586 1544l137 -192l199 192h137l-1 -6l-291 -270h-119l-198 270l1 6h135z
" />
    <glyph glyph-name="uni01C7" unicode="&#x1c7;" horiz-adv-x="2281" 
d="M96 0l247 1490h141l-226 -1364h714l-21 -126h-855zM1593 -20q-169 0 -270.5 90t-101.5 254q0 15 1.5 33t6 49.5t12.5 85.5h141q-8 -51 -12.5 -80t-5.5 -44t-1 -27q0 -113 63.5 -174t176.5 -61q130 0 221.5 80t116.5 230l178 1074h141l-178 -1074q-34 -206 -165.5 -321
t-323.5 -115z" />
    <glyph glyph-name="uni01C8" unicode="&#x1c8;" horiz-adv-x="1599" 
d="M96 0l247 1490h141l-226 -1364h714l-21 -126h-855zM1394 1104h134l-202 -1221q-15 -93 -62 -160.5t-119 -104t-165 -36.5h-36l20 124h32q77 0 130 46.5t67 133.5zM1496 1316q-39 0 -63.5 28t-17.5 67q6 39 39.5 66.5t73.5 27.5q41 0 65 -27.5t17 -66.5q-6 -39 -39.5 -67
t-74.5 -28z" />
    <glyph glyph-name="uni01C9" unicode="&#x1c9;" horiz-adv-x="917" 
d="M451 1490l-247 -1490h-134l247 1490h134zM713 1104h134l-202 -1221q-15 -93 -62 -160.5t-119 -104t-165 -36.5h-36l20 124h32q77 0 130 46.5t67 133.5zM815 1316q-39 0 -63.5 28t-17.5 67q6 39 39.5 66.5t73.5 27.5q41 0 65 -27.5t17 -66.5q-6 -39 -39.5 -67t-74.5 -28z
" />
    <glyph glyph-name="uni01CA" unicode="&#x1ca;" horiz-adv-x="2675" 
d="M96 0l247 1490h156l512 -1015q20 -37 45 -91.5t53 -119.5t55 -137l-19 -5q7 70 15.5 138t17.5 129t17 108l165 993h140l-247 -1490h-156l-479 944q-25 50 -52.5 108.5t-60.5 133t-76 174.5l22 7q-13 -97 -23 -176.5t-18.5 -140.5t-16.5 -105l-156 -945h-141zM1987 -20
q-169 0 -270.5 90t-101.5 254q0 15 1.5 33t6 49.5t12.5 85.5h141q-8 -51 -12.5 -80t-5.5 -44t-1 -27q0 -113 63.5 -174t176.5 -61q130 0 221.5 80t116.5 230l178 1074h141l-178 -1074q-34 -206 -165.5 -321t-323.5 -115z" />
    <glyph glyph-name="uni01CB" unicode="&#x1cb;" horiz-adv-x="1993" 
d="M96 0l247 1490h156l512 -1015q20 -37 45 -91.5t53 -119.5t55 -137l-19 -5q7 70 15.5 138t17.5 129t17 108l165 993h140l-247 -1490h-156l-479 944q-25 50 -52.5 108.5t-60.5 133t-76 174.5l22 7q-13 -97 -23 -176.5t-18.5 -140.5t-16.5 -105l-156 -945h-141zM1788 1104
h134l-202 -1221q-15 -93 -62 -160.5t-119 -104t-165 -36.5h-36l20 124h32q77 0 130 46.5t67 133.5zM1890 1316q-39 0 -63.5 28t-17.5 67q6 39 39.5 66.5t73.5 27.5q41 0 65 -27.5t17 -66.5q-6 -39 -39.5 -67t-74.5 -28z" />
    <glyph glyph-name="uni01CC" unicode="&#x1cc;" horiz-adv-x="1643" 
d="M317 680l-113 -680h-134l184 1104h129l-42 -258l-25 4q70 142 176.5 206t231.5 64q115 0 195 -48.5t115 -140.5t13 -224l-117 -707h-134l117 705q23 139 -38.5 215.5t-187.5 76.5q-89 0 -167 -38t-132 -109t-71 -170zM1438 1104h134l-202 -1221q-15 -93 -62 -160.5
t-119 -104t-165 -36.5h-36l20 124h32q77 0 130 46.5t67 133.5zM1540 1316q-39 0 -63.5 28t-17.5 67q6 39 39.5 66.5t73.5 27.5q41 0 65 -27.5t17 -66.5q-6 -39 -39.5 -67t-74.5 -28z" />
    <glyph glyph-name="uni01CD" unicode="&#x1cd;" horiz-adv-x="1361" 
d="M-43 0l795 1490h165l304 -1490h-143l-192 976q-14 77 -33 187t-40 262h32q-70 -148 -123.5 -257.5t-97.5 -191.5l-512 -976h-155zM286 443l21 125h751l-20 -125h-752zM740 1930l137 -192l199 192h137l-1 -6l-291 -270h-119l-198 270l1 6h135z" />
    <glyph glyph-name="uni01CE" unicode="&#x1ce;" horiz-adv-x="1215" 
d="M468 -23q-137 0 -228.5 72t-128 201.5t-8.5 299.5q29 171 108.5 299t195 199.5t251.5 71.5q97 0 159.5 -34t98 -86t50.5 -107h10l34 211h134l-183 -1104h-130l33 207h-13q-34 -56 -87 -109t-126.5 -87t-169.5 -34zM507 99q107 0 192.5 58t143 160t78.5 234
q23 133 -0.5 233.5t-90 157t-173.5 56.5q-109 0 -195.5 -58t-144 -158.5t-78.5 -230.5q-22 -130 2 -232.5t91 -161t175 -58.5zM594 1544l137 -192l199 192h137l-1 -6l-291 -270h-119l-198 270l1 6h135z" />
    <glyph glyph-name="uni01CF" unicode="&#x1cf;" horiz-adv-x="516" 
d="M484 1490l-247 -1490h-141l247 1490h141zM317 1930l137 -192l199 192h137l-1 -6l-291 -270h-119l-198 270l1 6h135z" />
    <glyph glyph-name="uni01D0" unicode="&#x1d0;" horiz-adv-x="459" 
d="M71 0l183 1104h134l-183 -1104h-134zM225 1544l137 -192l199 192h137l-1 -6l-291 -270h-119l-198 270l1 6h135z" />
    <glyph glyph-name="uni01D1" unicode="&#x1d1;" horiz-adv-x="1540" 
d="M684 -21q-167 0 -289 73t-189 207.5t-67 316.5q0 176 54.5 342.5t157.5 300t247 213t323 79.5q166 0 288 -73.5t188.5 -207t66.5 -316.5q0 -176 -54.5 -343t-157 -300.5t-246 -212.5t-322.5 -79zM689 111q148 0 266 68.5t201 184t127 257.5t44 289q0 149 -51.5 254
t-144 160t-215.5 55q-149 0 -267 -68.5t-201.5 -184t-127.5 -257.5t-44 -289q0 -149 51.5 -253.5t145 -160t216.5 -55.5zM830 1930l137 -192l199 192h137l-1 -6l-291 -270h-119l-198 270l1 6h135z" />
    <glyph glyph-name="uni01D2" unicode="&#x1d2;" horiz-adv-x="1189" 
d="M508 -23q-128 0 -221 56.5t-143.5 158.5t-50.5 237q0 130 41.5 253.5t119 222t185.5 157t241 58.5q128 0 221 -56.5t143.5 -158t50.5 -237.5q0 -131 -41.5 -254.5t-119.5 -222.5t-186 -156.5t-240 -57.5zM511 98q105 0 188.5 50.5t142 133.5t89 183.5t30.5 200.5
q0 97 -32 172t-95 118t-157 43q-104 0 -187 -49.5t-141.5 -132.5t-90 -184t-31.5 -204q0 -144 71.5 -237.5t212.5 -93.5zM590 1544l137 -192l199 192h137l-1 -6l-291 -270h-119l-198 270l1 6h135z" />
    <glyph glyph-name="uni01D3" unicode="&#x1d3;" horiz-adv-x="1485" 
d="M656 -23q-170 0 -288.5 70t-171 191t-27.5 273l162 979h141l-162 -979q-19 -118 18 -209t122.5 -142t210.5 -51q130 0 236 53.5t176 147t90 211.5l160 969h141l-163 -988q-25 -153 -115.5 -271.5t-227 -186t-302.5 -67.5zM802 1930l137 -192l199 192h137l-1 -6l-291 -270
h-119l-198 270l1 6h135z" />
    <glyph glyph-name="uni01D4" unicode="&#x1d4;" horiz-adv-x="1184" 
d="M455 -16q-112 0 -191.5 47t-114 138.5t-13.5 223.5l118 711h134l-116 -701q-22 -137 41 -216.5t192 -79.5q87 0 163 37t129 107t69 169l113 684h134l-183 -1104h-130l43 258h24q-71 -145 -178.5 -209.5t-233.5 -64.5zM587 1544l137 -192l199 192h137l-1 -6l-291 -270
h-119l-198 270l1 6h135z" />
    <glyph glyph-name="uni01D5" unicode="&#x1d5;" horiz-adv-x="1485" 
d="M656 -23q-170 0 -288.5 70t-171 191t-27.5 273l162 979h141l-162 -979q-19 -118 18 -209t122.5 -142t210.5 -51q130 0 236 53.5t176 147t90 211.5l160 969h141l-163 -988q-25 -153 -115.5 -271.5t-227 -186t-302.5 -67.5zM1141 1669q-39 0 -62 28t-17 67q7 39 39.5 66.5
t71.5 27.5t61.5 -27.5t16.5 -66.5q-7 -39 -39 -67t-71 -28zM726 1669q-39 0 -62 28t-17 67q7 39 39.5 66.5t71.5 27.5t61.5 -27.5t16.5 -66.5q-7 -39 -39 -67t-71 -28zM1281 2120l-18 -100h-524l18 100h524z" />
    <glyph glyph-name="uni01D6" unicode="&#x1d6;" horiz-adv-x="1184" 
d="M455 -16q-112 0 -191.5 47t-114 138.5t-13.5 223.5l118 711h134l-116 -701q-22 -137 41 -216.5t192 -79.5q87 0 163 37t129 107t69 169l113 684h134l-183 -1104h-130l43 258h24q-71 -145 -178.5 -209.5t-233.5 -64.5zM927 1283q-39 0 -62 28t-17 67q7 39 39.5 66.5
t71.5 27.5t61.5 -27.5t16.5 -66.5q-7 -39 -39 -67t-71 -28zM512 1283q-39 0 -62 28t-17 67q7 39 39.5 66.5t71.5 27.5t61.5 -27.5t16.5 -66.5q-7 -39 -39 -67t-71 -28zM1067 1734l-18 -100h-524l18 100h524z" />
    <glyph glyph-name="uni01D7" unicode="&#x1d7;" horiz-adv-x="1485" 
d="M656 -23q-170 0 -288.5 70t-171 191t-27.5 273l162 979h141l-162 -979q-19 -118 18 -209t122.5 -142t210.5 -51q130 0 236 53.5t176 147t90 211.5l160 969h141l-163 -988q-25 -153 -115.5 -271.5t-227 -186t-302.5 -67.5zM1141 1669q-39 0 -62 28t-17 67q7 39 39.5 66.5
t71.5 27.5t61.5 -27.5t16.5 -66.5q-7 -39 -39 -67t-71 -28zM726 1669q-39 0 -62 28t-17 67q7 39 39.5 66.5t71.5 27.5t61.5 -27.5t16.5 -66.5q-7 -39 -39 -67t-71 -28zM922 1980l193 275h153l-233 -275h-113z" />
    <glyph glyph-name="uni01D8" unicode="&#x1d8;" horiz-adv-x="1184" 
d="M455 -16q-112 0 -191.5 47t-114 138.5t-13.5 223.5l118 711h134l-116 -701q-22 -137 41 -216.5t192 -79.5q87 0 163 37t129 107t69 169l113 684h134l-183 -1104h-130l43 258h24q-71 -145 -178.5 -209.5t-233.5 -64.5zM927 1283q-39 0 -62 28t-17 67q7 39 39.5 66.5
t71.5 27.5t61.5 -27.5t16.5 -66.5q-7 -39 -39 -67t-71 -28zM512 1283q-39 0 -62 28t-17 67q7 39 39.5 66.5t71.5 27.5t61.5 -27.5t16.5 -66.5q-7 -39 -39 -67t-71 -28zM708 1594l193 275h153l-233 -275h-113z" />
    <glyph glyph-name="uni01D9" unicode="&#x1d9;" horiz-adv-x="1485" 
d="M656 -23q-170 0 -288.5 70t-171 191t-27.5 273l162 979h141l-162 -979q-19 -118 18 -209t122.5 -142t210.5 -51q130 0 236 53.5t176 147t90 211.5l160 969h141l-163 -988q-25 -153 -115.5 -271.5t-227 -186t-302.5 -67.5zM1141 1669q-39 0 -62 28t-17 67q7 39 39.5 66.5
t71.5 27.5t61.5 -27.5t16.5 -66.5q-7 -39 -39 -67t-71 -28zM726 1669q-39 0 -62 28t-17 67q7 39 39.5 66.5t71.5 27.5t61.5 -27.5t16.5 -66.5t-38.5 -67t-71.5 -28zM859 2251l137 -192l199 192h137l-1 -6l-291 -270h-119l-199 270l2 6h135z" />
    <glyph glyph-name="uni01DA" unicode="&#x1da;" horiz-adv-x="1184" 
d="M455 -16q-112 0 -191.5 47t-114 138.5t-13.5 223.5l118 711h134l-116 -701q-22 -137 41 -216.5t192 -79.5q87 0 163 37t129 107t69 169l113 684h134l-183 -1104h-130l43 258h24q-71 -145 -178.5 -209.5t-233.5 -64.5zM926 1283q-39 0 -62 28t-17 67q7 39 39.5 66.5
t71.5 27.5t61.5 -27.5t16.5 -66.5q-7 -39 -39 -67t-71 -28zM511 1283q-39 0 -62 28t-17 67q7 39 39.5 66.5t71.5 27.5t61.5 -27.5t16.5 -66.5t-38.5 -67t-71.5 -28zM644 1865l137 -192l199 192h137l-1 -6l-291 -270h-119l-199 270l2 6h135z" />
    <glyph glyph-name="uni01DB" unicode="&#x1db;" horiz-adv-x="1485" 
d="M656 -23q-170 0 -288.5 70t-171 191t-27.5 273l162 979h141l-162 -979q-19 -118 18 -209t122.5 -142t210.5 -51q130 0 236 53.5t176 147t90 211.5l160 969h141l-163 -988q-25 -153 -115.5 -271.5t-227 -186t-302.5 -67.5zM1141 1669q-39 0 -62 28t-17 67q7 39 39.5 66.5
t71.5 27.5t61.5 -27.5t16.5 -66.5q-7 -39 -39 -67t-71 -28zM726 1669q-39 0 -62 28t-17 67q7 39 39.5 66.5t71.5 27.5t61.5 -27.5t16.5 -66.5q-7 -39 -39 -67t-71 -28zM916 1980l-141 275h153l101 -275h-113z" />
    <glyph glyph-name="uni01DC" unicode="&#x1dc;" horiz-adv-x="1184" 
d="M455 -16q-112 0 -191.5 47t-114 138.5t-13.5 223.5l118 711h134l-116 -701q-22 -137 41 -216.5t192 -79.5q87 0 163 37t129 107t69 169l113 684h134l-183 -1104h-130l43 258h24q-71 -145 -178.5 -209.5t-233.5 -64.5zM926 1283q-39 0 -62 28t-17 67q7 39 39.5 66.5
t71.5 27.5t61.5 -27.5t16.5 -66.5q-7 -39 -39 -67t-71 -28zM511 1283q-39 0 -62 28t-17 67q7 39 39.5 66.5t71.5 27.5t61.5 -27.5t16.5 -66.5q-7 -39 -39 -67t-71 -28zM701 1594l-141 275h153l101 -275h-113z" />
    <glyph glyph-name="eturn" unicode="&#x1dd;" horiz-adv-x="1138" 
d="M624 1126q129 0 223.5 -53t146 -152t51.5 -238q0 -148 -45.5 -276.5t-127.5 -224.5t-191.5 -149.5t-237.5 -53.5q-106 0 -183 35.5t-118 102t-41 156.5q0 101 53 166.5t159 103.5t265.5 53.5t370.5 15.5l-16 -107q-184 0 -316.5 -9.5t-217 -34.5t-124.5 -70.5t-40 -118.5
q0 -80 58 -126t162 -46q115 0 201 51.5t143.5 136.5t86.5 188.5t29 207.5q0 92 -31.5 164.5t-97.5 114.5t-169 42q-112 0 -203.5 -52t-141.5 -137l-125 32q64 126 192 202t285 76z" />
    <glyph glyph-name="uni01DE" unicode="&#x1de;" horiz-adv-x="1361" 
d="M-43 0l795 1490h165l304 -1490h-143l-192 976q-14 77 -33 187t-40 262h32q-70 -148 -123.5 -257.5t-97.5 -191.5l-512 -976h-155zM286 443l21 125h751l-20 -125h-752zM1079 1669q-39 0 -62 28t-17 67q7 39 39.5 66.5t71.5 27.5t61.5 -27.5t16.5 -66.5q-7 -39 -39 -67
t-71 -28zM664 1669q-39 0 -62 28t-17 67q7 39 39.5 66.5t71.5 27.5t61.5 -27.5t16.5 -66.5q-7 -39 -39 -67t-71 -28zM1219 2120l-18 -100h-524l18 100h524z" />
    <glyph glyph-name="uni01DF" unicode="&#x1df;" horiz-adv-x="1215" 
d="M468 -23q-137 0 -228.5 72t-128 201.5t-8.5 299.5q29 171 108.5 299t195 199.5t251.5 71.5q97 0 159.5 -34t98 -86t50.5 -107h10l34 211h134l-183 -1104h-130l33 207h-13q-34 -56 -87 -109t-126.5 -87t-169.5 -34zM507 99q107 0 192.5 58t143 160t78.5 234
q23 133 -0.5 233.5t-90 157t-173.5 56.5q-109 0 -195.5 -58t-144 -158.5t-78.5 -230.5q-22 -130 2 -232.5t91 -161t175 -58.5zM933 1283q-39 0 -62 28t-17 67q7 39 39.5 66.5t71.5 27.5t61.5 -27.5t16.5 -66.5q-7 -39 -39 -67t-71 -28zM518 1283q-39 0 -62 28t-17 67
q7 39 39.5 66.5t71.5 27.5t61.5 -27.5t16.5 -66.5q-7 -39 -39 -67t-71 -28zM1073 1734l-18 -100h-524l18 100h524z" />
    <glyph glyph-name="uni01E0" unicode="&#x1e0;" horiz-adv-x="1361" 
d="M-43 0l795 1490h165l304 -1490h-143l-192 976q-14 77 -33 187t-40 262h32q-70 -148 -123.5 -257.5t-97.5 -191.5l-512 -976h-155zM286 443l21 125h751l-20 -125h-752zM867 1669q-40 0 -64 28t-18 67q7 39 40.5 66.5t73.5 27.5t64 -27.5t18 -66.5t-39.5 -67t-74.5 -28z
M1219 2120l-18 -100h-524l18 100h524z" />
    <glyph glyph-name="uni01E1" unicode="&#x1e1;" horiz-adv-x="1215" 
d="M468 -23q-137 0 -228.5 72t-128 201.5t-8.5 299.5q29 171 108.5 299t195 199.5t251.5 71.5q97 0 159.5 -34t98 -86t50.5 -107h10l34 211h134l-183 -1104h-130l33 207h-13q-34 -56 -87 -109t-126.5 -87t-169.5 -34zM507 99q107 0 192.5 58t143 160t78.5 234
q23 133 -0.5 233.5t-90 157t-173.5 56.5q-109 0 -195.5 -58t-144 -158.5t-78.5 -230.5q-22 -130 2 -232.5t91 -161t175 -58.5zM721 1283q-40 0 -64 28t-18 67q7 39 40.5 66.5t73.5 27.5t64 -27.5t18 -66.5t-39.5 -67t-74.5 -28zM1073 1734l-18 -100h-524l18 100h524z" />
    <glyph glyph-name="uni01E2" unicode="&#x1e2;" horiz-adv-x="1986" 
d="M-43 0l971 1490h1075l-21 -126h-727l-91 -554h681l-21 -127h-681l-93 -557h741l-21 -126h-882l226 1362h-125l-878 -1362h-154zM356 450l20 125h680l-21 -125h-679zM1770 1847l-18 -110h-524l18 110h524z" />
    <glyph glyph-name="uni01E3" unicode="&#x1e3;" horiz-adv-x="1833" 
d="M378 -19q-169 0 -254.5 90.5t-59.5 243.5q15 88 66 155.5t146 105.5t241 38h104.5t106.5 -0.5t125 -0.5l-10 -107h-161h-158q-137 0 -224 -46.5t-103 -147.5q-17 -104 34.5 -158t166.5 -54q114 0 193.5 45.5t126.5 121t62 163.5l61 343q20 114 -37 176t-188 62
q-79 0 -145 -28.5t-110 -79t-59 -117.5l-135 1q19 101 84 178t162.5 120.5t215.5 43.5q120 0 202 -44t119 -122.5t19 -180.5l-77 -464l-11 -2q-35 -96 -103 -171.5t-167.5 -119.5t-232.5 -44zM1210 -21q-135 0 -227 50t-139 149t-47 243q0 152 44.5 281.5t124.5 225t188 149
t236 53.5q105 0 181.5 -35t118.5 -100t42 -155q0 -91 -48 -154.5t-150.5 -103.5t-263 -58.5t-385.5 -18.5l14 106q200 0 334.5 12t214.5 39t115 73t35 113q0 77 -57.5 119t-158.5 42q-119 0 -215.5 -59.5t-157.5 -163.5t-72 -239q-6 -38 -10 -62.5t-5.5 -40.5t-1.5 -29
q0 -158 72 -237t222 -79q117 0 203 47.5t143 136.5l124 -33q-71 -131 -193 -201t-281 -70zM1300 1461l-18 -110h-524l18 110h524z" />
    <glyph glyph-name="Gbar" unicode="&#x1e4;" horiz-adv-x="1508" 
d="M689 -21q-171 0 -294 73t-189.5 206.5t-66.5 315.5q0 175 54 342t155.5 301.5t245.5 214t324 79.5q124 0 221.5 -39t165 -107t103 -156.5t37.5 -187.5h-144q-6 74 -33.5 138.5t-76 114t-118 77.5t-160.5 28q-148 0 -265.5 -69t-200.5 -184.5t-127 -257.5t-44 -288
q0 -221 113 -345t305 -124q140 0 256.5 62t195 174.5t103.5 264.5l42 -14h-475l21 125h568l-21 -128q-23 -140 -85 -253t-154.5 -194.5t-208.5 -125t-247 -43.5zM771 326l18 106h657l-17 -106h-658z" />
    <glyph glyph-name="gbar" unicode="&#x1e5;" horiz-adv-x="1214" 
d="M435 -439q-119 0 -203.5 32t-134.5 88.5t-67 128.5l121 48q14 -47 46.5 -88t91 -65.5t149.5 -24.5q153 0 257.5 78t129.5 230l39 235l-10 -2q-34 -56 -86 -105.5t-123.5 -80t-164.5 -30.5q-117 0 -204 51t-134.5 146t-47.5 227q0 126 38 248.5t110.5 222.5t175.5 160
t232 60q74 0 128.5 -20t92 -54t60.5 -74.5t34 -82.5l13 3l35 212h131l-188 -1130q-24 -143 -97.5 -234.5t-183 -135t-240.5 -43.5zM502 126q107 0 187.5 48.5t135 129t81.5 179t27 199.5q0 143 -68.5 229.5t-200.5 86.5q-103 0 -183.5 -49t-137 -131t-86 -182t-29.5 -201
q0 -143 70.5 -226t203.5 -83zM693 507l18 106h574l-17 -106h-575z" />
    <glyph glyph-name="Gcaron" unicode="&#x1e6;" horiz-adv-x="1508" 
d="M689 -21q-171 0 -294 73t-189.5 206.5t-66.5 315.5q0 175 54 342t155.5 301.5t245.5 214t324 79.5q124 0 221.5 -39t165 -107t103 -156.5t37.5 -187.5h-144q-6 74 -33.5 138.5t-76 114t-118 77.5t-160.5 28q-148 0 -265.5 -69t-200.5 -184.5t-127 -257.5t-44 -288
q0 -221 113 -345t305 -124q140 0 256.5 62t195 174.5t103.5 264.5l42 -14h-475l21 125h568l-21 -128q-23 -140 -85 -253t-154.5 -194.5t-208.5 -125t-247 -43.5zM822 1930l137 -192l199 192h137l-1 -6l-291 -270h-119l-198 270l1 6h135z" />
    <glyph glyph-name="gcaron" unicode="&#x1e7;" horiz-adv-x="1214" 
d="M435 -439q-119 0 -203.5 32t-134.5 88.5t-67 128.5l121 48q14 -47 46.5 -88t91 -65.5t149.5 -24.5q153 0 257.5 78t129.5 230l39 235l-10 -2q-34 -56 -86 -105.5t-123.5 -80t-164.5 -30.5q-117 0 -204 51t-134.5 146t-47.5 227q0 126 38 248.5t110.5 222.5t175.5 160
t232 60q74 0 128.5 -20t92 -54t60.5 -74.5t34 -82.5l13 3l35 212h131l-188 -1130q-24 -143 -97.5 -234.5t-183 -135t-240.5 -43.5zM502 126q107 0 187.5 48.5t135 129t81.5 179t27 199.5q0 143 -68.5 229.5t-200.5 86.5q-103 0 -183.5 -49t-137 -131t-86 -182t-29.5 -201
q0 -143 70.5 -226t203.5 -83zM585 1544l137 -192l199 192h137l-1 -6l-291 -270h-119l-198 270l1 6h135z" />
    <glyph glyph-name="uni01E8" unicode="&#x1e8;" horiz-adv-x="1306" 
d="M272 463l14 156q66 66 128.5 127.5t126 121.5t129.5 121l547 501h192l-741 -675l-11 -3zM96 0l247 1490h141l-86 -518l-58 -336l-10 -72l-93 -564h-141zM1007 0l-427 782l95 106l487 -888h-155zM739 1930l137 -192l199 192h137l-1 -6l-291 -270h-119l-198 270l1 6h135z
" />
    <glyph glyph-name="uni01E9" unicode="&#x1e9;" horiz-adv-x="1059" 
d="M261 415l29 172h25l599 517h171l-594 -512l-15 -2zM70 0l247 1490h134l-247 -1490h-134zM763 0l-356 566l111 93l416 -659h-171zM288 1930l137 -192l199 192h137l-1 -6l-291 -270h-119l-198 270l1 6h135z" />
    <glyph glyph-name="uni01EA" unicode="&#x1ea;" horiz-adv-x="1540" 
d="M684 -21q-167 0 -289 73t-189 207.5t-67 316.5q0 176 54.5 342.5t157.5 300t247 213t323 79.5q166 0 288 -73.5t188.5 -207t66.5 -316.5q0 -176 -54.5 -343t-157 -300.5t-246 -212.5t-322.5 -79zM689 111q148 0 266 68.5t201 184t127 257.5t44 289q0 149 -51.5 254
t-144 160t-215.5 55q-149 0 -267 -68.5t-201.5 -184t-127.5 -257.5t-44 -289q0 -149 51.5 -253.5t145 -160t216.5 -55.5zM679 -429q-87 0 -142 46t-39 139q14 79 66 134.5t129 101t166.5 95t178.5 114.5t165 159t127.5 229t63.5 325h71q-11 -201 -59 -346.5t-120 -248
t-156 -172.5t-167.5 -118.5t-154.5 -87t-117 -76.5t-55 -89q-7 -47 16.5 -68.5t67.5 -21.5q23 0 43 5.5t36 11.5l18 -103q-27 -10 -61.5 -19.5t-76.5 -9.5z" />
    <glyph glyph-name="uni01EB" unicode="&#x1eb;" horiz-adv-x="1189" 
d="M508 -23q-128 0 -221 56.5t-143.5 158.5t-50.5 237q0 130 41.5 253.5t119 222t185.5 157t241 58.5q128 0 221 -56.5t143.5 -158t50.5 -237.5q0 -131 -41.5 -254.5t-119.5 -222.5t-186 -156.5t-240 -57.5zM511 98q105 0 188.5 50.5t142 133.5t89 183.5t30.5 200.5
q0 97 -32 172t-95 118t-157 43q-104 0 -187 -49.5t-141.5 -132.5t-90 -184t-31.5 -204q0 -144 71.5 -237.5t212.5 -93.5zM503 -431q-91 0 -144 46t-38 133q12 71 60 123.5t117 97.5t146.5 94t150 113t126.5 154t75 218h90q-24 -142 -76.5 -240t-120 -165.5t-139 -114.5
t-135 -85.5t-106 -78t-51.5 -93.5q-7 -44 16.5 -65.5t70.5 -21.5q22 0 41.5 5t35.5 12l19 -103q-27 -10 -61.5 -19.5t-76.5 -9.5z" />
    <glyph glyph-name="uni01EC" unicode="&#x1ec;" horiz-adv-x="1540" 
d="M684 -21q-167 0 -289 73t-189 207.5t-67 316.5q0 176 54.5 342.5t157.5 300t247 213t323 79.5q166 0 288 -73.5t188.5 -207t66.5 -316.5q0 -176 -54.5 -343t-157 -300.5t-246 -212.5t-322.5 -79zM689 111q148 0 266 68.5t201 184t127 257.5t44 289q0 149 -51.5 254
t-144 160t-215.5 55q-149 0 -267 -68.5t-201.5 -184t-127.5 -257.5t-44 -289q0 -149 51.5 -253.5t145 -160t216.5 -55.5zM679 -429q-87 0 -142 46t-39 139q14 79 66 134.5t129 101t166.5 95t178.5 114.5t165 159t127.5 229t63.5 325h71q-11 -201 -59 -346.5t-120 -248
t-156 -172.5t-167.5 -118.5t-154.5 -87t-117 -76.5t-55 -89q-7 -47 16.5 -68.5t67.5 -21.5q23 0 43 5.5t36 11.5l18 -103q-27 -10 -61.5 -19.5t-76.5 -9.5zM1247 1847l-18 -110h-524l18 110h524z" />
    <glyph glyph-name="uni01ED" unicode="&#x1ed;" horiz-adv-x="1189" 
d="M508 -23q-128 0 -221 56.5t-143.5 158.5t-50.5 237q0 130 41.5 253.5t119 222t185.5 157t241 58.5q128 0 221 -56.5t143.5 -158t50.5 -237.5q0 -131 -41.5 -254.5t-119.5 -222.5t-186 -156.5t-240 -57.5zM511 98q105 0 188.5 50.5t142 133.5t89 183.5t30.5 200.5
q0 97 -32 172t-95 118t-157 43q-104 0 -187 -49.5t-141.5 -132.5t-90 -184t-31.5 -204q0 -144 71.5 -237.5t212.5 -93.5zM503 -431q-91 0 -144 46t-38 133q12 71 60 123.5t117 97.5t146.5 94t150 113t126.5 154t75 218h90q-24 -142 -76.5 -240t-120 -165.5t-139 -114.5
t-135 -85.5t-106 -78t-51.5 -93.5q-7 -44 16.5 -65.5t70.5 -21.5q22 0 41.5 5t35.5 12l19 -103q-27 -10 -61.5 -19.5t-76.5 -9.5zM1007 1461l-18 -110h-524l18 110h524z" />
    <glyph glyph-name="uni01EE" unicode="&#x1ee;" horiz-adv-x="1387" 
d="M17 68h142q-14 -112 31.5 -198t136 -134.5t207.5 -48.5q135 0 246.5 63t186 172t97.5 247q24 150 -25.5 262t-160 176t-268.5 66h-98l20 118l639 571l-2 -1h-856l21 129h1046l-18 -104l-656 -589l-2 -12q178 -7 299.5 -88.5t175.5 -217.5t25 -308q-22 -129 -82 -240
t-151 -195t-207 -130.5t-251 -46.5q-159 0 -278 64.5t-178.5 179.5t-39.5 265zM783 2116l137 -192l199 192h137l-1 -6l-291 -270h-119l-198 270l1 6h135z" />
    <glyph glyph-name="uni01EF" unicode="&#x1ef;" horiz-adv-x="1235" 
d="M480 -401q-136 0 -240.5 50.5t-158 142.5t-37.5 215h143q-10 -87 24 -150.5t104 -98t168 -34.5q103 0 190 39.5t145.5 111t74.5 168.5q16 96 -14.5 171t-111.5 118.5t-217 43.5h-130l19 115l501 486l1 6h-667l22 126h859l-19 -108l-580 -561l4 29q166 14 279 -40
t164 -155t29 -232q-21 -126 -96.5 -226.5t-192.5 -158.5t-263 -58zM614 1549l137 -192l199 192h137l-1 -6l-291 -270h-119l-198 270l1 6h135z" />
    <glyph glyph-name="uni01F0" unicode="&#x1f0;" horiz-adv-x="460" 
d="M255 1104h134l-202 -1221q-15 -93 -62 -160.5t-119 -104t-165 -36.5h-36l20 124h32q77 0 130 46.5t67 133.5zM226 1544l137 -192l199 192h137l-1 -6l-291 -270h-119l-198 270l1 6h135z" />
    <glyph glyph-name="uni01F1" unicode="&#x1f1;" horiz-adv-x="2705" 
d="M557 0h-383l20 126h352q191 0 332 75t229.5 215t119.5 333q32 192 -6 330t-146 211.5t-288 73.5h-393l21 126h379q214 0 354.5 -89t197.5 -255.5t19 -397.5q-39 -236 -145 -403t-273 -256t-390 -89zM484 1490l-247 -1490h-141l247 1490h141zM1489 0l18 104l1032 1260
h-827l21 126h999l-18 -106l-1032 -1258h830l-21 -126h-1002z" />
    <glyph glyph-name="uni01F2" unicode="&#x1f2;" horiz-adv-x="2530" 
d="M557 0h-383l20 126h352q191 0 332 75t229.5 215t119.5 333q32 192 -6 330t-146 211.5t-288 73.5h-393l21 126h379q214 0 354.5 -89t197.5 -255.5t19 -397.5q-39 -236 -145 -403t-273 -256t-390 -89zM484 1490l-247 -1490h-141l247 1490h141zM1486 0l18 104l772 868l2 8
h-607l20 124h784l-18 -110l-761 -862l-1 -8h637l-20 -124h-826z" />
    <glyph glyph-name="uni01F3" unicode="&#x1f3;" horiz-adv-x="2139" 
d="M476 -23q-179 0 -281.5 120t-102.5 321q0 128 38.5 253t110.5 226.5t175 162t233 60.5q99 0 163.5 -34.5t101 -87.5t51.5 -109h8l99 601h135l-247 -1490h-131l35 206h-11q-34 -57 -86.5 -110t-124.5 -86t-166 -33zM497 99q105 0 186 51.5t136.5 136.5t84.5 188t29 204
q0 145 -69 232t-201 87q-104 0 -185 -50.5t-137 -134.5t-85 -185.5t-29 -203.5q0 -145 69 -235t201 -90zM1096 0l18 104l772 868l2 8h-607l20 124h784l-18 -110l-761 -862l-1 -8h637l-20 -124h-826z" />
    <glyph glyph-name="uni01F4" unicode="&#x1f4;" horiz-adv-x="1508" 
d="M689 -21q-171 0 -294 73t-189.5 206.5t-66.5 315.5q0 175 54 342t155.5 301.5t245.5 214t324 79.5q124 0 221.5 -39t165 -107t103 -156.5t37.5 -187.5h-144q-6 74 -33.5 138.5t-76 114t-118 77.5t-160.5 28q-148 0 -265.5 -69t-200.5 -184.5t-127 -257.5t-44 -288
q0 -221 113 -345t305 -124q140 0 256.5 62t195 174.5t103.5 264.5l42 -14h-475l21 125h568l-21 -128q-23 -140 -85 -253t-154.5 -194.5t-208.5 -125t-247 -43.5zM878 1659l193 275h153l-233 -275h-113z" />
    <glyph glyph-name="uni01F5" unicode="&#x1f5;" horiz-adv-x="1214" 
d="M435 -439q-119 0 -203.5 32t-134.5 88.5t-67 128.5l121 48q14 -47 46.5 -88t91 -65.5t149.5 -24.5q153 0 257.5 78t129.5 230l39 235l-10 -2q-34 -56 -86 -105.5t-123.5 -80t-164.5 -30.5q-117 0 -204 51t-134.5 146t-47.5 227q0 126 38 248.5t110.5 222.5t175.5 160
t232 60q74 0 128.5 -20t92 -54t60.5 -74.5t34 -82.5l13 3l35 212h131l-188 -1130q-24 -143 -97.5 -234.5t-183 -135t-240.5 -43.5zM502 126q107 0 187.5 48.5t135 129t81.5 179t27 199.5q0 143 -68.5 229.5t-200.5 86.5q-103 0 -183.5 -49t-137 -131t-86 -182t-29.5 -201
q0 -143 70.5 -226t203.5 -83zM642 1273l193 275h153l-233 -275h-113z" />
    <glyph glyph-name="uni01F6" unicode="&#x1f6;" horiz-adv-x="2246" 
d="M1544 -21q-140 1 -237 55t-139 159t-17 259l39 234h-839l-114 -686h-141l247 1490h141l-112 -678h839l112 678h142l-174 -1047q-28 -171 40.5 -253t216.5 -82q104 0 182 38.5t128.5 115.5t69.5 191l108 657h140l-111 -668q-25 -156 -99 -258.5t-182.5 -153t-239.5 -51.5z
" />
    <glyph glyph-name="uni01F7" unicode="&#x1f7;" horiz-adv-x="1174" 
d="M397 1489l-313 -1907h-159l313 1907h159zM40 -166l20 130q184 34 339 111t274.5 190t197.5 258t107 315l10 59q21 122 10.5 213t-50.5 150.5t-109.5 89t-167.5 29.5q-91 0 -162.5 -27t-126 -81t-94.5 -138l39 275q76 51 165.5 76.5t196.5 25.5q176 0 288.5 -70.5
t156 -208t11.5 -338.5l-8 -55q-32 -196 -126 -364.5t-239 -300t-331 -219t-401 -120.5z" />
    <glyph glyph-name="uni01F8" unicode="&#x1f8;" horiz-adv-x="1533" 
d="M96 0l247 1490h156l512 -1015q20 -37 45 -91.5t53 -119.5t55 -137l-19 -5q7 70 15.5 138t17.5 129t17 108l165 993h140l-247 -1490h-156l-479 944q-25 50 -52.5 108.5t-60.5 133t-76 174.5l22 7q-13 -97 -23 -176.5t-18.5 -140.5t-16.5 -105l-156 -945h-141zM893 1639
l-133 290h153l93 -290h-113z" />
    <glyph glyph-name="uni01F9" unicode="&#x1f9;" horiz-adv-x="1183" 
d="M317 680l-113 -680h-134l184 1104h129l-42 -258l-25 4q70 142 176.5 206t231.5 64q115 0 195 -48.5t115 -140.5t13 -224l-117 -707h-134l117 705q23 139 -38.5 215.5t-187.5 76.5q-89 0 -167 -38t-132 -109t-71 -170zM655 1253l-133 290h153l93 -290h-113z" />
    <glyph glyph-name="Aringacute" unicode="&#x1fa;" horiz-adv-x="1361" 
d="M-43 0l795 1490h165l304 -1490h-143l-192 976q-14 77 -33 187t-40 262h32q-70 -148 -123.5 -257.5t-97.5 -191.5l-512 -976h-155zM286 443l21 125h751l-20 -125h-752zM877 2068l163 166h141l-196 -166h-108zM859 1578q-65 0 -113.5 31t-71 83t-12.5 113q10 58 46.5 105.5
t91 75.5t115.5 28q65 0 113 -30.5t71.5 -82t12.5 -113.5q-9 -59 -46.5 -106.5t-91.5 -75.5t-115 -28zM866 1676q50 0 91.5 35t50.5 85t-20 85t-80 35q-50 0 -91.5 -35t-49.5 -85q-9 -50 20 -85t79 -35z" />
    <glyph glyph-name="aringacute" unicode="&#x1fb;" horiz-adv-x="1215" 
d="M468 -23q-137 0 -228.5 72t-128 201.5t-8.5 299.5q29 171 108.5 299t195 199.5t251.5 71.5q97 0 159.5 -34t98 -86t50.5 -107h10l34 211h134l-183 -1104h-130l33 207h-13q-34 -56 -87 -109t-126.5 -87t-169.5 -34zM507 99q107 0 192.5 58t143 160t78.5 234
q23 133 -0.5 233.5t-90 157t-173.5 56.5q-109 0 -195.5 -58t-144 -158.5t-78.5 -230.5q-22 -130 2 -232.5t91 -161t175 -58.5zM730 1682l163 166h141l-196 -166h-108zM712 1192q-65 0 -113.5 31t-71 83t-12.5 113q10 58 46.5 105.5t91 75.5t115.5 28q65 0 113 -30.5
t71.5 -82t12.5 -113.5q-9 -59 -46.5 -106.5t-91.5 -75.5t-115 -28zM719 1290q50 0 91.5 35t50.5 85t-20 85t-80 35q-50 0 -91.5 -35t-49.5 -85q-9 -50 20 -85t79 -35z" />
    <glyph glyph-name="AEacute" unicode="&#x1fc;" horiz-adv-x="1986" 
d="M-43 0l971 1490h1075l-21 -126h-727l-91 -554h681l-21 -127h-681l-93 -557h741l-21 -126h-882l226 1362h-125l-878 -1362h-154zM356 450l20 125h680l-21 -125h-679zM1410 1659l193 275h153l-233 -275h-113z" />
    <glyph glyph-name="aeacute" unicode="&#x1fd;" horiz-adv-x="1833" 
d="M378 -19q-169 0 -254.5 90.5t-59.5 243.5q15 88 66 155.5t146 105.5t241 38h104.5t106.5 -0.5t125 -0.5l-10 -107h-161h-158q-137 0 -224 -46.5t-103 -147.5q-17 -104 34.5 -158t166.5 -54q114 0 193.5 45.5t126.5 121t62 163.5l61 343q20 114 -37 176t-188 62
q-79 0 -145 -28.5t-110 -79t-59 -117.5l-135 1q19 101 84 178t162.5 120.5t215.5 43.5q120 0 202 -44t119 -122.5t19 -180.5l-77 -464l-11 -2q-35 -96 -103 -171.5t-167.5 -119.5t-232.5 -44zM1210 -21q-135 0 -227 50t-139 149t-47 243q0 152 44.5 281.5t124.5 225t188 149
t236 53.5q105 0 181.5 -35t118.5 -100t42 -155q0 -91 -48 -154.5t-150.5 -103.5t-263 -58.5t-385.5 -18.5l14 106q200 0 334.5 12t214.5 39t115 73t35 113q0 77 -57.5 119t-158.5 42q-119 0 -215.5 -59.5t-157.5 -163.5t-72 -239q-6 -38 -10 -62.5t-5.5 -40.5t-1.5 -29
q0 -158 72 -237t222 -79q117 0 203 47.5t143 136.5l124 -33q-71 -131 -193 -201t-281 -70zM939 1273l193 275h153l-233 -275h-113z" />
    <glyph glyph-name="Oslashacute" unicode="&#x1fe;" horiz-adv-x="1540" 
d="M684 -23q-167 0 -289 73t-189 207.5t-67 316.5q0 176 54.5 342.5t157.5 300t247 213t323 79.5q166 0 288 -73.5t188.5 -207t66.5 -316.5q0 -176 -54.5 -343t-157 -300.5t-246 -212.5t-322.5 -79zM689 109q148 0 266 68.5t201 184t127 257.5t44 289q0 149 -51.5 254
t-144 160t-215.5 55q-149 0 -267 -68.5t-201.5 -184t-127.5 -257.5t-44 -289q0 -149 51.5 -253.5t145 -160t216.5 -55.5zM201 -38l-88 71l1293 1491l87 -72zM886 1657l193 275h153l-233 -275h-113z" />
    <glyph glyph-name="oslashacute" unicode="&#x1ff;" horiz-adv-x="1190" 
d="M508 -22q-128 0 -221 56.5t-143.5 158.5t-50.5 237q0 130 41.5 253.5t119 222t185.5 157t241 58.5q128 0 221 -56.5t143.5 -158t50.5 -237.5q0 -131 -41.5 -254.5t-119.5 -222.5t-186 -156.5t-240 -57.5zM511 99q105 0 188.5 50.5t142 133.5t89 183.5t30.5 200.5
q0 97 -32 172t-95 118t-157 43q-104 0 -187 -49.5t-141.5 -132.5t-90 -184t-31.5 -204q0 -144 71.5 -237.5t212.5 -93.5zM77 -34l-71 70l1108 1104l71 -70zM647 1274l193 275h153l-233 -275h-113z" />
    <glyph glyph-name="uni0200" unicode="&#x200;" horiz-adv-x="1361" 
d="M-43 0l795 1490h165l304 -1490h-143l-192 976q-14 77 -33 187t-40 262h32q-70 -148 -123.5 -257.5t-97.5 -191.5l-512 -976h-155zM286 443l21 125h751l-20 -125h-752zM955 1639l-112 290h150l75 -290h-113zM657 1639l-157 290h152l118 -290h-113z" />
    <glyph glyph-name="uni0201" unicode="&#x201;" horiz-adv-x="1215" 
d="M468 -23q-137 0 -228.5 72t-128 201.5t-8.5 299.5q29 171 108.5 299t195 199.5t251.5 71.5q97 0 159.5 -34t98 -86t50.5 -107h10l34 211h134l-183 -1104h-130l33 207h-13q-34 -56 -87 -109t-126.5 -87t-169.5 -34zM507 99q107 0 192.5 58t143 160t78.5 234
q23 133 -0.5 233.5t-90 157t-173.5 56.5q-109 0 -195.5 -58t-144 -158.5t-78.5 -230.5q-22 -130 2 -232.5t91 -161t175 -58.5zM809 1253l-112 290h150l75 -290h-113zM511 1253l-157 290h152l118 -290h-113z" />
    <glyph glyph-name="uni0202" unicode="&#x202;" horiz-adv-x="1361" 
d="M-43 0l795 1490h165l304 -1490h-143l-192 976q-14 77 -33 187t-40 262h32q-70 -148 -123.5 -257.5t-97.5 -191.5l-512 -976h-155zM286 443l21 125h751l-20 -125h-752zM909 1932q82 0 141 -37t86.5 -99.5t14.5 -140.5h-102q13 76 -34 125t-123 49t-139 -49t-76 -125h-102
q13 78 61 140.5t119 99.5t154 37z" />
    <glyph glyph-name="uni0203" unicode="&#x203;" horiz-adv-x="1215" 
d="M468 -23q-137 0 -228.5 72t-128 201.5t-8.5 299.5q29 171 108.5 299t195 199.5t251.5 71.5q97 0 159.5 -34t98 -86t50.5 -107h10l34 211h134l-183 -1104h-130l33 207h-13q-34 -56 -87 -109t-126.5 -87t-169.5 -34zM507 99q107 0 192.5 58t143 160t78.5 234
q23 133 -0.5 233.5t-90 157t-173.5 56.5q-109 0 -195.5 -58t-144 -158.5t-78.5 -230.5q-22 -130 2 -232.5t91 -161t175 -58.5zM763 1546q82 0 141 -37t86.5 -99.5t14.5 -140.5h-102q13 76 -34 125t-123 49t-139 -49t-76 -125h-102q13 78 61 140.5t119 99.5t154 37z" />
    <glyph glyph-name="uni0204" unicode="&#x204;" horiz-adv-x="1209" 
d="M96 0l247 1490h887l-21 -126h-746l-90 -548h695l-21 -126h-696l-93 -564h756l-20 -126h-898zM911 1639l-112 290h150l75 -290h-113zM613 1639l-157 290h152l118 -290h-113z" />
    <glyph glyph-name="uni0205" unicode="&#x205;" horiz-adv-x="1138" 
d="M514 -21q-128 0 -222.5 52.5t-146 152t-51.5 237.5q0 148 45 276.5t127 224.5t191.5 150t237.5 54q106 0 183 -36t118.5 -102t41.5 -157q0 -101 -53.5 -166.5t-159.5 -103.5t-265 -53.5t-370 -15.5l16 108q184 0 316 9t216.5 34t125 70.5t40.5 118.5q0 80 -58 126
t-163 46q-114 0 -200 -51t-143.5 -136.5t-87 -188.5t-29.5 -208q0 -92 32 -164.5t98 -114.5t168 -42q113 0 204.5 52t141.5 137l125 -32q-65 -125 -192.5 -201t-285.5 -76zM807 1253l-112 290h150l75 -290h-113zM509 1253l-157 290h152l118 -290h-113z" />
    <glyph glyph-name="uni0206" unicode="&#x206;" horiz-adv-x="1209" 
d="M96 0l247 1490h887l-21 -126h-746l-90 -548h695l-21 -126h-696l-93 -564h756l-20 -126h-898zM865 1932q82 0 141 -37t86.5 -99.5t14.5 -140.5h-102q13 76 -34 125t-123 49t-139 -49t-76 -125h-102q13 78 61 140.5t119 99.5t154 37z" />
    <glyph glyph-name="uni0207" unicode="&#x207;" horiz-adv-x="1138" 
d="M514 -21q-128 0 -222.5 52.5t-146 152t-51.5 237.5q0 148 45 276.5t127 224.5t191.5 150t237.5 54q106 0 183 -36t118.5 -102t41.5 -157q0 -101 -53.5 -166.5t-159.5 -103.5t-265 -53.5t-370 -15.5l16 108q184 0 316 9t216.5 34t125 70.5t40.5 118.5q0 80 -58 126
t-163 46q-114 0 -200 -51t-143.5 -136.5t-87 -188.5t-29.5 -208q0 -92 32 -164.5t98 -114.5t168 -42q113 0 204.5 52t141.5 137l125 -32q-65 -125 -192.5 -201t-285.5 -76zM761 1546q82 0 141 -37t86.5 -99.5t14.5 -140.5h-102q13 76 -34 125t-123 49t-139 -49t-76 -125
h-102q13 78 61 140.5t119 99.5t154 37z" />
    <glyph glyph-name="uni0208" unicode="&#x208;" horiz-adv-x="516" 
d="M484 1490l-247 -1490h-141l247 1490h141zM533 1639l-112 290h150l75 -290h-113zM235 1639l-157 290h152l118 -290h-113z" />
    <glyph glyph-name="uni0209" unicode="&#x209;" horiz-adv-x="459" 
d="M71 0l183 1104h134l-183 -1104h-134zM440 1253l-112 290h150l75 -290h-113zM142 1253l-157 290h152l118 -290h-113z" />
    <glyph glyph-name="uni020A" unicode="&#x20a;" horiz-adv-x="516" 
d="M484 1490l-247 -1490h-141l247 1490h141zM487 1932q82 0 141 -37t86.5 -99.5t14.5 -140.5h-102q13 76 -34 125t-123 49t-139 -49t-76 -125h-102q13 78 61 140.5t119 99.5t154 37z" />
    <glyph glyph-name="uni020B" unicode="&#x20b;" horiz-adv-x="459" 
d="M71 0l183 1104h134l-183 -1104h-134zM394 1546q82 0 141 -37t86.5 -99.5t14.5 -140.5h-102q13 76 -34 125t-123 49t-139 -49t-76 -125h-102q13 78 61 140.5t119 99.5t154 37z" />
    <glyph glyph-name="uni020C" unicode="&#x20c;" horiz-adv-x="1540" 
d="M684 -21q-167 0 -289 73t-189 207.5t-67 316.5q0 176 54.5 342.5t157.5 300t247 213t323 79.5q166 0 288 -73.5t188.5 -207t66.5 -316.5q0 -176 -54.5 -343t-157 -300.5t-246 -212.5t-322.5 -79zM689 111q148 0 266 68.5t201 184t127 257.5t44 289q0 149 -51.5 254
t-144 160t-215.5 55q-149 0 -267 -68.5t-201.5 -184t-127.5 -257.5t-44 -289q0 -149 51.5 -253.5t145 -160t216.5 -55.5zM1045 1639l-112 290h150l75 -290h-113zM747 1639l-157 290h152l118 -290h-113z" />
    <glyph glyph-name="uni020D" unicode="&#x20d;" horiz-adv-x="1189" 
d="M508 -23q-128 0 -221 56.5t-143.5 158.5t-50.5 237q0 130 41.5 253.5t119 222t185.5 157t241 58.5q128 0 221 -56.5t143.5 -158t50.5 -237.5q0 -131 -41.5 -254.5t-119.5 -222.5t-186 -156.5t-240 -57.5zM511 98q105 0 188.5 50.5t142 133.5t89 183.5t30.5 200.5
q0 97 -32 172t-95 118t-157 43q-104 0 -187 -49.5t-141.5 -132.5t-90 -184t-31.5 -204q0 -144 71.5 -237.5t212.5 -93.5zM805 1253l-112 290h150l75 -290h-113zM507 1253l-157 290h152l118 -290h-113z" />
    <glyph glyph-name="uni020E" unicode="&#x20e;" horiz-adv-x="1540" 
d="M684 -21q-167 0 -289 73t-189 207.5t-67 316.5q0 176 54.5 342.5t157.5 300t247 213t323 79.5q166 0 288 -73.5t188.5 -207t66.5 -316.5q0 -176 -54.5 -343t-157 -300.5t-246 -212.5t-322.5 -79zM689 111q148 0 266 68.5t201 184t127 257.5t44 289q0 149 -51.5 254
t-144 160t-215.5 55q-149 0 -267 -68.5t-201.5 -184t-127.5 -257.5t-44 -289q0 -149 51.5 -253.5t145 -160t216.5 -55.5zM999 1932q82 0 141 -37t86.5 -99.5t14.5 -140.5h-102q13 76 -34 125t-123 49t-139 -49t-76 -125h-102q13 78 61 140.5t119 99.5t154 37z" />
    <glyph glyph-name="uni020F" unicode="&#x20f;" horiz-adv-x="1189" 
d="M508 -23q-128 0 -221 56.5t-143.5 158.5t-50.5 237q0 130 41.5 253.5t119 222t185.5 157t241 58.5q128 0 221 -56.5t143.5 -158t50.5 -237.5q0 -131 -41.5 -254.5t-119.5 -222.5t-186 -156.5t-240 -57.5zM511 98q105 0 188.5 50.5t142 133.5t89 183.5t30.5 200.5
q0 97 -32 172t-95 118t-157 43q-104 0 -187 -49.5t-141.5 -132.5t-90 -184t-31.5 -204q0 -144 71.5 -237.5t212.5 -93.5zM759 1546q82 0 141 -37t86.5 -99.5t14.5 -140.5h-102q13 76 -34 125t-123 49t-139 -49t-76 -125h-102q13 78 61 140.5t119 99.5t154 37z" />
    <glyph glyph-name="uni0210" unicode="&#x210;" horiz-adv-x="1290" 
d="M96 0l247 1490h495q156 0 254 -57t136.5 -158t16.5 -232q-22 -132 -94 -231.5t-189 -155.5t-272 -56h-417l21 127h411q114 0 198 39t135.5 110.5t67.5 167.5q25 149 -49.5 234.5t-241.5 85.5h-352l-226 -1364h-141zM966 0l-250 673h154l254 -673h-158zM912 1639l-112 290
h150l75 -290h-113zM614 1639l-157 290h152l118 -290h-113z" />
    <glyph glyph-name="uni0211" unicode="&#x211;" horiz-adv-x="711" 
d="M71 0l183 1104h129l-28 -174h8q47 85 136.5 137t194.5 52q17 0 34.5 -1t30.5 -1l-22 -135q-9 2 -31 4.5t-47 2.5q-83 0 -155 -36t-120 -100t-63 -149l-116 -704h-134zM625 1253l-112 290h150l75 -290h-113zM327 1253l-157 290h152l118 -290h-113z" />
    <glyph glyph-name="uni0212" unicode="&#x212;" horiz-adv-x="1290" 
d="M96 0l247 1490h495q156 0 254 -57t136.5 -158t16.5 -232q-22 -132 -94 -231.5t-189 -155.5t-272 -56h-417l21 127h411q114 0 198 39t135.5 110.5t67.5 167.5q25 149 -49.5 234.5t-241.5 85.5h-352l-226 -1364h-141zM966 0l-250 673h154l254 -673h-158zM866 1932
q82 0 141 -37t86.5 -99.5t14.5 -140.5h-102q13 76 -34 125t-123 49t-139 -49t-76 -125h-102q13 78 61 140.5t119 99.5t154 37z" />
    <glyph glyph-name="uni0213" unicode="&#x213;" horiz-adv-x="711" 
d="M71 0l183 1104h129l-28 -174h8q47 85 136.5 137t194.5 52q17 0 34.5 -1t30.5 -1l-22 -135q-9 2 -31 4.5t-47 2.5q-83 0 -155 -36t-120 -100t-63 -149l-116 -704h-134zM579 1546q82 0 141 -37t86.5 -99.5t14.5 -140.5h-102q13 76 -34 125t-123 49t-139 -49t-76 -125h-102
q13 78 61 140.5t119 99.5t154 37z" />
    <glyph glyph-name="uni0214" unicode="&#x214;" horiz-adv-x="1485" 
d="M656 -23q-170 0 -288.5 70t-171 191t-27.5 273l162 979h141l-162 -979q-19 -118 18 -209t122.5 -142t210.5 -51q130 0 236 53.5t176 147t90 211.5l160 969h141l-163 -988q-25 -153 -115.5 -271.5t-227 -186t-302.5 -67.5zM1017 1639l-112 290h150l75 -290h-113zM719 1639
l-157 290h152l118 -290h-113z" />
    <glyph glyph-name="uni0215" unicode="&#x215;" horiz-adv-x="1184" 
d="M455 -16q-112 0 -191.5 47t-114 138.5t-13.5 223.5l118 711h134l-116 -701q-22 -137 41 -216.5t192 -79.5q87 0 163 37t129 107t69 169l113 684h134l-183 -1104h-130l43 258h24q-71 -145 -178.5 -209.5t-233.5 -64.5zM802 1253l-112 290h150l75 -290h-113zM504 1253
l-157 290h152l118 -290h-113z" />
    <glyph glyph-name="uni0216" unicode="&#x216;" horiz-adv-x="1485" 
d="M656 -23q-170 0 -288.5 70t-171 191t-27.5 273l162 979h141l-162 -979q-19 -118 18 -209t122.5 -142t210.5 -51q130 0 236 53.5t176 147t90 211.5l160 969h141l-163 -988q-25 -153 -115.5 -271.5t-227 -186t-302.5 -67.5zM971 1932q82 0 141 -37t86.5 -99.5t14.5 -140.5
h-102q13 76 -34 125t-123 49t-139 -49t-76 -125h-102q13 78 61 140.5t119 99.5t154 37z" />
    <glyph glyph-name="uni0217" unicode="&#x217;" horiz-adv-x="1184" 
d="M455 -16q-112 0 -191.5 47t-114 138.5t-13.5 223.5l118 711h134l-116 -701q-22 -137 41 -216.5t192 -79.5q87 0 163 37t129 107t69 169l113 684h134l-183 -1104h-130l43 258h24q-71 -145 -178.5 -209.5t-233.5 -64.5zM756 1546q82 0 141 -37t86.5 -99.5t14.5 -140.5h-102
q13 76 -34 125t-123 49t-139 -49t-76 -125h-102q13 78 61 140.5t119 99.5t154 37z" />
    <glyph glyph-name="uni0218" unicode="&#x218;" horiz-adv-x="1275" 
d="M552 -24q-154 0 -262 51.5t-159.5 145t-38.5 217.5h144q-9 -92 29.5 -156t114 -97.5t179.5 -33.5q112 0 205 37t153.5 104t75.5 155q12 73 -15.5 123t-90.5 85.5t-158 64.5l-167 50q-171 52 -255 143.5t-59 238.5q19 120 95.5 212t193.5 143.5t257 51.5q141 0 243 -52
t152 -143.5t35 -209.5h-137q9 128 -73 203t-231 75q-103 0 -188 -35.5t-140.5 -98t-68.5 -142.5q-12 -74 19.5 -124.5t93.5 -84.5t138 -57l152 -46q74 -22 142 -54.5t118 -79t72.5 -112t8.5 -155.5q-20 -120 -95.5 -215t-198 -149.5t-284.5 -54.5zM308 -493l148 375h139
l-183 -375h-104z" />
    <glyph glyph-name="uni0219" unicode="&#x219;" horiz-adv-x="1034" 
d="M429 -23q-107 0 -186.5 32t-125.5 94t-53 150q-1 9 -1 14v14l131 16q3 -102 64.5 -151.5t172.5 -49.5q87 0 158 29t114.5 79.5t48.5 114.5q4 57 -33.5 94.5t-117.5 57.5l-174 43q-131 33 -192.5 103t-51.5 176q8 97 68.5 171t155.5 115t208 41q151 0 235 -67t103 -181
q2 -9 3 -17t1 -18l-125 -18q-8 84 -59.5 134.5t-159.5 50.5q-79 0 -145 -28.5t-106.5 -77t-44.5 -110.5q-5 -60 35 -97.5t131 -60.5l165 -41q130 -32 190.5 -100.5t49.5 -172.5q-6 -76 -44 -138t-100.5 -107.5t-143 -69.5t-171.5 -24zM192 -493l148 375h139l-183 -375h-104z
" />
    <glyph glyph-name="uni021A.1" unicode="&#x21a;" horiz-adv-x="1289" 
d="M231 1364l21 126h1096l-21 -126h-477l-226 -1364h-140l225 1364h-478zM316 -493l148 375h139l-183 -375h-104z" />
    <glyph glyph-name="uni021B" unicode="&#x21b;" horiz-adv-x="606" 
d="M639 1104l-19 -117h-532l19 117h532zM322 1375h134l-185 -1117q-13 -81 16.5 -117t105.5 -30q15 1 37 3.5t41 5.5l2 -116q-22 -5 -49 -8.5t-54 -4.5q-134 -7 -194.5 62.5t-40.5 194.5zM28 -493l148 375h139l-183 -375h-104z" />
    <glyph glyph-name="uni021C" unicode="&#x21c;" horiz-adv-x="1248" 
d="M174 347l20 120q184 53 332.5 116t256.5 139.5t172.5 166t81.5 195.5q23 138 -52 216.5t-226 79.5q-105 0 -187.5 -35.5t-134.5 -96.5t-65 -139h-157q20 121 98 210.5t198.5 140t266.5 50.5q142 0 244 -49.5t149.5 -142.5t23.5 -227q-22 -128 -107 -243t-220.5 -210.5
t-312 -169t-381.5 -121.5zM817 668l92 91q77 -33 124.5 -91t62.5 -144.5t-5 -202.5q-28 -163 -109 -282t-213 -206t-314 -151.5t-411 -117.5l22 130q202 49 355 105t259.5 129t169.5 172t85 233q22 136 -7 217.5t-111 117.5z" />
    <glyph glyph-name="uni021D" unicode="&#x21d;" horiz-adv-x="1064" 
d="M143 226l21 117q180 35 318 100.5t221.5 155.5t100.5 198q15 97 -35 154t-162 57q-75 0 -137.5 -27t-103.5 -77.5t-53 -120.5h-151q18 107 80 185.5t159.5 121.5t221.5 43q175 0 267.5 -90t66.5 -241q-22 -139 -132.5 -256.5t-286.5 -200.5t-395 -119zM632 465l96 80
q93 -50 130.5 -145t12.5 -238q-44 -261 -251 -408.5t-585 -189.5l19 123q213 34 352.5 96.5t215.5 159t98 231.5q18 105 -4.5 180.5t-83.5 110.5z" />
    <glyph glyph-name="uni021E" unicode="&#x21e;" horiz-adv-x="1497" 
d="M96 0l247 1490h141l-110 -665h839l110 665h141l-247 -1490h-141l116 699h-839l-116 -699h-141zM807 1930l137 -192l199 192h137l-1 -6l-291 -270h-119l-198 270l1 6h135z" />
    <glyph glyph-name="uni021F" unicode="&#x21f;" horiz-adv-x="1183" 
d="M317 684l-113 -684h-134l247 1490h134l-107 -644h-28q47 97 110 157.5t138 88.5t159 28q112 0 193 -47.5t117.5 -138t13.5 -223.5l-117 -711h-135l117 701q23 139 -41.5 217.5t-192.5 78.5q-88 0 -164 -37t-128 -107t-69 -169zM288 1930l137 -192l199 192h137l-1 -6
l-291 -270h-119l-198 270l1 6h135z" />
    <glyph glyph-name="uni0220" unicode="&#x220;" horiz-adv-x="1198" 
d="M937 -417h-154l233 1414q34 202 -41.5 293t-266.5 91q-107 0 -202 -28t-174 -78l13 125q51 32 113 57t133 39t148 14q150 0 256.5 -56t154.5 -170t19 -288zM410 1490l-247 -1490h-152l248 1490h151z" />
    <glyph glyph-name="uni0221" unicode="&#x221;" horiz-adv-x="1534" 
d="M1052 -415q-100 0 -158.5 42t-79 109.5t-8.5 142.5l50 303h134l-52 -315q-13 -80 27 -123.5t107 -43.5q63 0 110 38t57 98q10 55 -20.5 93t-90.5 43q-41 4 -81.5 -10.5t-82.5 -47t-89 -84.5l-241 -218l-75 87l209 191q99 103 193.5 151t181.5 48q120 0 186 -70t48 -182
q-18 -113 -107 -182.5t-218 -69.5zM476 -23q-179 0 -281.5 120t-102.5 321q0 128 38.5 253t110.5 226.5t175 162t233 60.5q99 0 163.5 -34.5t101 -87.5t51.5 -109h8l99 601h135l-247 -1490h-131l35 206h-11q-34 -57 -86.5 -110t-124.5 -86t-166 -33zM497 99q105 0 186 51.5
t136.5 136.5t84.5 188t29 204q0 145 -69 232t-201 87q-104 0 -185 -50.5t-137 -134.5t-85 -185.5t-29 -203.5q0 -145 69 -235t201 -90z" />
    <glyph glyph-name="uni0222" unicode="&#x222;" horiz-adv-x="1229" 
d="M652 866h28q157 1 269 -48.5t164.5 -146.5t30.5 -239q-24 -152 -109 -252t-215 -150t-292 -50h-20q-157 0 -270.5 49.5t-166.5 149t-28 248.5q24 146 107.5 243.5t212.5 147t289 48.5zM659 743h-27q-183 0 -294.5 -79.5t-138.5 -238.5q-26 -158 61.5 -235t269.5 -77h21
q180 0 294 76.5t140 238.5q26 157 -60 236t-266 79zM647 877h39q109 0 195.5 23t143 80.5t72.5 160.5q17 106 -25.5 166.5t-136.5 80.5l20 125q100 -8 174 -51.5t109 -123t16 -196.5q-23 -143 -106 -228t-208 -123t-275 -38h-39q-111 0 -202.5 21.5t-155.5 67.5t-91.5 120
t-9.5 180q20 117 79 195.5t146 121t187 51.5l-21 -125q-96 -22 -156 -81t-78 -164q-17 -103 20.5 -160.5t116 -80t186.5 -22.5z" />
    <glyph glyph-name="uni0223" unicode="&#x223;" horiz-adv-x="1247" 
d="M650 863h46q158 0 270.5 -49t164 -145.5t27.5 -239.5q-25 -149 -110 -249t-214 -150t-288 -50h-38q-156 0 -269.5 50t-166.5 150t-28 248q25 146 108.5 242.5t211.5 145t286 47.5zM677 744h-44q-180 1 -295 -79.5t-141 -238.5q-25 -160 64 -240.5t267 -80.5h40
q176 0 293 81.5t144 242.5q26 157 -61 236t-267 79zM709 870q107 0 195 28.5t145.5 92t74.5 167.5q19 117 -21 183.5t-138 98.5l20 116q102 -7 175.5 -55.5t105.5 -135.5t11 -208q-24 -142 -107 -231.5t-208 -131t-273 -42.5h-67q-148 1 -259.5 43t-165.5 132t-30 231
q20 122 79 206.5t145.5 132.5t189.5 56l-20 -118q-99 -31 -160 -96t-80 -180q-18 -107 19.5 -170.5t116.5 -91t185 -27.5h67z" />
    <glyph glyph-name="uni0224" unicode="&#x224;" horiz-adv-x="1253" 
d="M621 -418l20 121q17 -2 37 -2.5t32 -0.5q75 0 111.5 27.5t46.5 90.5l30 182h141l-31 -187q-20 -118 -95.5 -177t-197.5 -59q-27 0 -52.5 1.5t-41.5 3.5zM37 0l18 104l1032 1260h-827l21 126h999l-18 -106l-1032 -1258h830l-21 -126h-1002z" />
    <glyph glyph-name="uni0225" unicode="&#x225;" horiz-adv-x="1077" 
d="M756 -216l7 40q13 79 -9.5 127.5t-108.5 48.5h-611l18 104l779 868l1 8h-613l20 124h784l-18 -110l-767 -862l-1 -8h431q126 0 184 -73t39 -193l-12 -74h-123z" />
    <glyph glyph-name="uni0226" unicode="&#x226;" horiz-adv-x="1361" 
d="M-43 0l795 1490h165l304 -1490h-143l-192 976q-14 77 -33 187t-40 262h32q-70 -148 -123.5 -257.5t-97.5 -191.5l-512 -976h-155zM286 443l21 125h751l-20 -125h-752zM870 1702q-39 0 -63.5 28t-17.5 67q6 39 39.5 66.5t73.5 27.5q41 0 65 -27.5t17 -66.5
q-6 -39 -39.5 -67t-74.5 -28z" />
    <glyph glyph-name="uni0227" unicode="&#x227;" horiz-adv-x="1215" 
d="M468 -23q-137 0 -228.5 72t-128 201.5t-8.5 299.5q29 171 108.5 299t195 199.5t251.5 71.5q97 0 159.5 -34t98 -86t50.5 -107h10l34 211h134l-183 -1104h-130l33 207h-13q-34 -56 -87 -109t-126.5 -87t-169.5 -34zM507 99q107 0 192.5 58t143 160t78.5 234
q23 133 -0.5 233.5t-90 157t-173.5 56.5q-109 0 -195.5 -58t-144 -158.5t-78.5 -230.5q-22 -130 2 -232.5t91 -161t175 -58.5zM724 1316q-39 0 -63.5 28t-17.5 67q6 39 39.5 66.5t73.5 27.5q41 0 65 -27.5t17 -66.5q-6 -39 -39.5 -67t-74.5 -28z" />
    <glyph glyph-name="uni0228" unicode="&#x228;" horiz-adv-x="1209" 
d="M96 0l247 1490h887l-21 -126h-746l-90 -548h695l-21 -126h-696l-93 -564h756l-20 -126h-898zM373 -418l14 85h111q57 0 87 20t37 61q7 40 -16 60.5t-83 20.5h-74l68 209h74l-3 -38l-24 -92q92 -3 133.5 -43t29.5 -116q-14 -83 -74.5 -125t-167.5 -42h-112z" />
    <glyph glyph-name="uni0229" unicode="&#x229;" horiz-adv-x="1138" 
d="M514 -21q-128 0 -222.5 52.5t-146 152t-51.5 237.5q0 148 45 276.5t127 224.5t191.5 150t237.5 54q106 0 183 -36t118.5 -102t41.5 -157q0 -101 -53.5 -166.5t-159.5 -103.5t-265 -53.5t-370 -15.5l16 108q184 0 316 9t216.5 34t125 70.5t40.5 118.5q0 80 -58 126
t-163 46q-114 0 -200 -51t-143.5 -136.5t-87 -188.5t-29.5 -208q0 -92 32 -164.5t98 -114.5t168 -42q113 0 204.5 52t141.5 137l125 -32q-65 -125 -192.5 -201t-285.5 -76zM329 -418l14 85h111q57 0 87 20t37 61q7 40 -16 60.5t-83 20.5h-74l68 209h74l-3 -38l-24 -92
q92 -3 133.5 -43t29.5 -116q-14 -83 -74.5 -125t-167.5 -42h-112z" />
    <glyph glyph-name="uni022A" unicode="&#x22a;" horiz-adv-x="1540" 
d="M684 -21q-167 0 -289 73t-189 207.5t-67 316.5q0 176 54.5 342.5t157.5 300t247 213t323 79.5q166 0 288 -73.5t188.5 -207t66.5 -316.5q0 -176 -54.5 -343t-157 -300.5t-246 -212.5t-322.5 -79zM689 111q148 0 266 68.5t201 184t127 257.5t44 289q0 149 -51.5 254
t-144 160t-215.5 55q-149 0 -267 -68.5t-201.5 -184t-127.5 -257.5t-44 -289q0 -149 51.5 -253.5t145 -160t216.5 -55.5zM1169 1669q-39 0 -62 28t-17 67q7 39 39.5 66.5t71.5 27.5t61.5 -27.5t16.5 -66.5q-7 -39 -39 -67t-71 -28zM754 1669q-39 0 -62 28t-17 67
q7 39 39.5 66.5t71.5 27.5t61.5 -27.5t16.5 -66.5q-7 -39 -39 -67t-71 -28zM1309 2120l-18 -100h-524l18 100h524z" />
    <glyph glyph-name="uni022B" unicode="&#x22b;" horiz-adv-x="1189" 
d="M508 -23q-128 0 -221 56.5t-143.5 158.5t-50.5 237q0 130 41.5 253.5t119 222t185.5 157t241 58.5q128 0 221 -56.5t143.5 -158t50.5 -237.5q0 -131 -41.5 -254.5t-119.5 -222.5t-186 -156.5t-240 -57.5zM511 98q105 0 188.5 50.5t142 133.5t89 183.5t30.5 200.5
q0 97 -32 172t-95 118t-157 43q-104 0 -187 -49.5t-141.5 -132.5t-90 -184t-31.5 -204q0 -144 71.5 -237.5t212.5 -93.5zM929 1283q-39 0 -62 28t-17 67q7 39 39.5 66.5t71.5 27.5t61.5 -27.5t16.5 -66.5q-7 -39 -39 -67t-71 -28zM514 1283q-39 0 -62 28t-17 67
q7 39 39.5 66.5t71.5 27.5t61.5 -27.5t16.5 -66.5q-7 -39 -39 -67t-71 -28zM1069 1734l-18 -100h-524l18 100h524z" />
    <glyph glyph-name="uni022C" unicode="&#x22c;" horiz-adv-x="1540" 
d="M684 -21q-167 0 -289 73t-189 207.5t-67 316.5q0 176 54.5 342.5t157.5 300t247 213t323 79.5q166 0 288 -73.5t188.5 -207t66.5 -316.5q0 -176 -54.5 -343t-157 -300.5t-246 -212.5t-322.5 -79zM689 111q148 0 266 68.5t201 184t127 257.5t44 289q0 149 -51.5 254
t-144 160t-215.5 55q-149 0 -267 -68.5t-201.5 -184t-127.5 -257.5t-44 -289q0 -149 51.5 -253.5t145 -160t216.5 -55.5zM1088 1664q-39 0 -70.5 14.5t-58.5 33t-51 32.5t-48 14q-35 0 -58 -26.5t-31 -62.5h-99q18 83 67.5 136.5t123.5 53.5q41 0 71.5 -14.5t55.5 -33
t48.5 -33.5t50.5 -15q31 0 52 21.5t36 68.5h97q-20 -88 -69.5 -138.5t-116.5 -50.5zM1309 2120l-18 -100h-525l19 100h524z" />
    <glyph glyph-name="uni022D" unicode="&#x22d;" horiz-adv-x="1189" 
d="M508 -23q-128 0 -221 56.5t-143.5 158.5t-50.5 237q0 130 41.5 253.5t119 222t185.5 157t241 58.5q128 0 221 -56.5t143.5 -158t50.5 -237.5q0 -131 -41.5 -254.5t-119.5 -222.5t-186 -156.5t-240 -57.5zM511 98q105 0 188.5 50.5t142 133.5t89 183.5t30.5 200.5
q0 97 -32 172t-95 118t-157 43q-104 0 -187 -49.5t-141.5 -132.5t-90 -184t-31.5 -204q0 -144 71.5 -237.5t212.5 -93.5zM848 1278q-39 0 -70.5 14.5t-58.5 33t-51 32.5t-48 14q-35 0 -58 -26.5t-31 -62.5h-99q18 83 67.5 136.5t123.5 53.5q41 0 71.5 -14.5t55.5 -33
t48.5 -33.5t50.5 -15q31 0 52 21.5t36 68.5h97q-20 -88 -69.5 -138.5t-116.5 -50.5zM1069 1734l-18 -100h-525l19 100h524z" />
    <glyph glyph-name="uni022E" unicode="&#x22e;" horiz-adv-x="1540" 
d="M684 -21q-167 0 -289 73t-189 207.5t-67 316.5q0 176 54.5 342.5t157.5 300t247 213t323 79.5q166 0 288 -73.5t188.5 -207t66.5 -316.5q0 -176 -54.5 -343t-157 -300.5t-246 -212.5t-322.5 -79zM689 111q148 0 266 68.5t201 184t127 257.5t44 289q0 149 -51.5 254
t-144 160t-215.5 55q-149 0 -267 -68.5t-201.5 -184t-127.5 -257.5t-44 -289q0 -149 51.5 -253.5t145 -160t216.5 -55.5zM960 1702q-39 0 -63.5 28t-17.5 67q6 39 39.5 66.5t73.5 27.5q41 0 65 -27.5t17 -66.5q-6 -39 -39.5 -67t-74.5 -28z" />
    <glyph glyph-name="uni022F" unicode="&#x22f;" horiz-adv-x="1189" 
d="M508 -23q-128 0 -221 56.5t-143.5 158.5t-50.5 237q0 130 41.5 253.5t119 222t185.5 157t241 58.5q128 0 221 -56.5t143.5 -158t50.5 -237.5q0 -131 -41.5 -254.5t-119.5 -222.5t-186 -156.5t-240 -57.5zM511 98q105 0 188.5 50.5t142 133.5t89 183.5t30.5 200.5
q0 97 -32 172t-95 118t-157 43q-104 0 -187 -49.5t-141.5 -132.5t-90 -184t-31.5 -204q0 -144 71.5 -237.5t212.5 -93.5zM720 1316q-39 0 -63.5 28t-17.5 67q6 39 39.5 66.5t73.5 27.5q41 0 65 -27.5t17 -66.5q-6 -39 -39.5 -67t-74.5 -28z" />
    <glyph glyph-name="uni0230" unicode="&#x230;" horiz-adv-x="1540" 
d="M684 -21q-167 0 -289 73t-189 207.5t-67 316.5q0 176 54.5 342.5t157.5 300t247 213t323 79.5q166 0 288 -73.5t188.5 -207t66.5 -316.5q0 -176 -54.5 -343t-157 -300.5t-246 -212.5t-322.5 -79zM689 111q148 0 266 68.5t201 184t127 257.5t44 289q0 149 -51.5 254
t-144 160t-215.5 55q-149 0 -267 -68.5t-201.5 -184t-127.5 -257.5t-44 -289q0 -149 51.5 -253.5t145 -160t216.5 -55.5zM957 1669q-40 0 -64 28t-18 67q7 39 40.5 66.5t73.5 27.5t64 -27.5t18 -66.5t-39.5 -67t-74.5 -28zM1309 2120l-18 -100h-524l18 100h524z" />
    <glyph glyph-name="uni0231" unicode="&#x231;" horiz-adv-x="1189" 
d="M508 -23q-128 0 -221 56.5t-143.5 158.5t-50.5 237q0 130 41.5 253.5t119 222t185.5 157t241 58.5q128 0 221 -56.5t143.5 -158t50.5 -237.5q0 -131 -41.5 -254.5t-119.5 -222.5t-186 -156.5t-240 -57.5zM511 98q105 0 188.5 50.5t142 133.5t89 183.5t30.5 200.5
q0 97 -32 172t-95 118t-157 43q-104 0 -187 -49.5t-141.5 -132.5t-90 -184t-31.5 -204q0 -144 71.5 -237.5t212.5 -93.5zM717 1283q-40 0 -64 28t-18 67q7 39 40.5 66.5t73.5 27.5t64 -27.5t18 -66.5t-39.5 -67t-74.5 -28zM1069 1734l-18 -100h-524l18 100h524z" />
    <glyph glyph-name="uni0232" unicode="&#x232;" horiz-adv-x="1346" 
d="M511 0l107 643l-414 847h153l236 -487q36 -74 66 -144t58 -160h-57q57 91 110.5 161.5t111.5 142.5l397 487h174l-695 -847l-106 -643h-141zM1150 1847l-18 -110h-524l18 110h524z" />
    <glyph glyph-name="uni0233" unicode="&#x233;" horiz-adv-x="1115" 
d="M-23 -406l48 117l34 -3q53 -14 99 -5t87.5 47.5t79.5 112.5l71 131l-243 1110h139l142 -690q19 -91 31.5 -181.5t25.5 -178.5h-45q43 88 85.5 178.5t91.5 181.5l371 690h152l-711 -1290q-44 -80 -96 -133t-112.5 -79t-130.5 -26q-36 0 -67 5.5t-52 12.5zM969 1461
l-18 -110h-524l18 110h524z" />
    <glyph glyph-name="uni0234" unicode="&#x234;" horiz-adv-x="778" 
d="M296 -415q-100 0 -158.5 42t-79 109.5t-8.5 142.5l50 303h134l-52 -315q-13 -80 27 -123.5t107 -43.5q63 0 110 38t57 98q10 55 -20.5 93t-90.5 43q-41 4 -81.5 -10.5t-82.5 -47t-89 -84.5l-241 -218l-75 87l209 191q99 103 193.5 151t181.5 48q120 0 186 -70t48 -182
q-18 -113 -107 -182.5t-218 -69.5zM451 1490l-247 -1490h-134l247 1490h134z" />
    <glyph glyph-name="uni0235" unicode="&#x235;" horiz-adv-x="1503" 
d="M1022 -415q-101 0 -159.5 42t-78.5 109.5t-8 142.5l49 303h135l-52 -315q-14 -80 26.5 -123.5t106.5 -43.5q63 0 110.5 38t57.5 98q10 55 -21 93t-91 43q-41 4 -81 -10.5t-82 -47t-90 -84.5l-241 -218l-74 87l209 191q99 103 193 151t182 48q119 0 185.5 -70t48.5 -182
q-19 -113 -108 -182.5t-217 -69.5zM317 680l-113 -680h-134l184 1104h129l-42 -258l-25 4q70 142 176.5 206t231.5 64q115 0 195 -48.5t115 -140.5t13 -224l-117 -707h-134l117 705q23 139 -38.5 215.5t-187.5 76.5q-89 0 -167 -38t-132 -109t-71 -170z" />
    <glyph glyph-name="uni0236" unicode="&#x236;" horiz-adv-x="799" 
d="M380 -18q-101 0 -159.5 42t-78.5 109.5t-8 142.5l49 303h135l-52 -315q-14 -80 26.5 -123.5t106.5 -43.5q63 0 110.5 38t57.5 98q10 55 -21 93t-91 43q-41 4 -81 -10.5t-82 -47t-90 -84.5l-241 -218l-74 87l209 191q99 103 193 151t182 48q119 0 185.5 -70t48.5 -183
q-19 -112 -108 -181.5t-217 -69.5zM154 397l162 981h134l-162 -981h-134zM88 993l20 116h530l-19 -116h-531z" />
    <glyph glyph-name="uni0237" unicode="&#x237;" horiz-adv-x="460" 
d="M255 1104h134l-202 -1221q-15 -93 -62 -160.5t-119 -104t-165 -36.5h-36l20 124h32q77 0 130 46.5t67 133.5z" />
    <glyph glyph-name="uni0238" unicode="&#x238;" horiz-adv-x="1798" 
d="M1714 561l-4 -22q-27 -164 -100.5 -290.5t-181.5 -198t-240 -71.5q-83 0 -145.5 30t-105 86.5t-64.5 137.5t-25 184l47 277q47 138 118.5 236t165 150.5t205.5 52.5q131 0 213.5 -71t113 -199.5t3.5 -301.5zM1557 539l3 22q22 129 5.5 229t-73 157t-158.5 57
q-122 0 -215.5 -78.5t-146.5 -193.5l-59 -353q15 -76 48 -137.5t89 -97.5t137 -36q102 0 177.5 56t124.5 153.5t68 221.5zM765 206l212 1284h154l-247 -1490h-139zM83 539l3 23q27 173 100 301.5t181 199t239 70.5q113 0 188.5 -52.5t114 -151t40.5 -235.5l-47 -277
q-47 -137 -118.5 -235.5t-163.5 -150.5t-203 -52q-130 0 -214 71.5t-115.5 198t-4.5 290.5zM239 561l-3 -21q-20 -124 -4.5 -222t72.5 -154t159 -56q121 0 212 77.5t151 193.5l59 353q-10 76 -43.5 137.5t-90 98t-137.5 36.5q-102 0 -178 -57.5t-125 -157t-72 -228.5z" />
    <glyph glyph-name="uni0239" unicode="&#x239;" horiz-adv-x="1798" 
d="M662 -416l219 1329l50 205h124l-20 -205l-220 -1329h-153zM83 539l3 23q27 173 100 301.5t181 199t239 70.5q111 0 186.5 -51.5t115 -149.5t41.5 -238l-47 -277q-47 -137 -118.5 -235.5t-163.5 -150.5t-203 -52q-130 0 -214 71.5t-115.5 198t-4.5 290.5zM239 561l-3 -21
q-20 -124 -4.5 -222t72.5 -154t159 -56q121 0 211.5 77t151.5 194l59 353q-10 78 -44 139.5t-90.5 97t-136.5 35.5q-103 0 -179 -58t-124.5 -157.5t-71.5 -227.5zM1714 561l-4 -22q-27 -164 -100.5 -290.5t-181.5 -198t-240 -71.5q-83 0 -145.5 30t-105 86.5t-64.5 137.5
t-25 184l47 277q47 137 118.5 235.5t164.5 151t206 52.5q131 0 213.5 -71t113 -199.5t3.5 -301.5zM1557 539l3 22q22 129 5.5 229t-73 157t-158.5 57q-122 0 -215.5 -78.5t-146.5 -193.5l-59 -353q15 -78 48.5 -139.5t89.5 -96.5t136 -35q102 0 177.5 56t124.5 153.5
t68 221.5z" />
    <glyph glyph-name="uni023A" unicode="&#x23a;" horiz-adv-x="1361" 
d="M1274 1678l-973 -1868h-127l973 1868h127zM-43 0l795 1490h165l304 -1490h-143l-192 976q-14 77 -33 187t-40 262h32q-70 -148 -123.5 -257.5t-97.5 -191.5l-512 -976h-155zM286 443l21 125h751l-20 -125h-752z" />
    </font>
</defs>
</svg>
