<?xml version="1.0" standalone="no"?>
<!DOCTYPE svg PUBLIC "-//W3C//DTD SVG 1.1//EN" "http://www.w3.org/Graphics/SVG/1.1/DTD/svg11.dtd" >
<svg xmlns="http://www.w3.org/2000/svg" xmlns:xlink="http://www.w3.org/1999/xlink" version="1.1">
<metadata>
Created by FontForge 20201107 at Fri May 24 21:06:22 2024
 By 
Copyright 2016 The Inter Project Authors (https://github.com/rsms/inter)
</metadata>
<defs>
<font id="Inter28pt-MediumItalic" horiz-adv-x="1166" >
  <font-face 
    font-family="Inter 28pt Medium"
    font-weight="500"
    font-style="italic"
    font-stretch="normal"
    units-per-em="2048"
    panose-1="2 0 5 3 0 0 0 2 0 4"
    ascent="1638"
    descent="-410"
    x-height="1070"
    cap-height="1490"
    bbox="-1580 -674 5302 2285"
    underline-thickness="160"
    underline-position="-300"
    slope="-9.3988"
    unicode-range="U+0020-1F852"
  />
<missing-glyph horiz-adv-x="1344" 
d="M859 -416h-688l376 2272h688zM392 -192l-10 -64h320l10 64h-215l236 127l11 65h-320l-11 -64h216zM477 320l-42 -256h320l42 256h-320zM701 128h-192l21 128h192zM541 704l-43 -256h320l43 256h-192l-22 -128h64l11 64h64l-21 -128h-192l32 192h-64zM562 832l-11 -64h320
l37 224h-64l-26 -160h-256zM583 960l-11 -64h192l27 160h128l10 64h-320l-10 -64h128l-16 -96h-128zM759 1248h-64l15 96h64zM657 1408l-37 -224h320l11 64h-128l26 160h-192zM678 1536l-10 -64h320l10 64h-144l16 96h144l11 64h-320l-11 -64h112l-16 -96h-112z" />
    <glyph glyph-name=".notdef" horiz-adv-x="1344" 
d="M859 -416h-688l376 2272h688zM392 -192l-10 -64h320l10 64h-215l236 127l11 65h-320l-11 -64h216zM477 320l-42 -256h320l42 256h-320zM701 128h-192l21 128h192zM541 704l-43 -256h320l43 256h-192l-22 -128h64l11 64h64l-21 -128h-192l32 192h-64zM562 832l-11 -64h320
l37 224h-64l-26 -160h-256zM583 960l-11 -64h192l27 160h128l10 64h-320l-10 -64h128l-16 -96h-128zM759 1248h-64l15 96h64zM657 1408l-37 -224h320l11 64h-128l26 160h-192zM678 1536l-10 -64h320l10 64h-144l16 96h144l11 64h-320l-11 -64h112l-16 -96h-112z" />
    <glyph glyph-name=".null" horiz-adv-x="435" 
 />
    <glyph glyph-name="nonmarkingreturn" horiz-adv-x="682" 
 />
    <glyph glyph-name="space" unicode=" " horiz-adv-x="500" 
 />
    <glyph glyph-name="exclam" unicode="!" horiz-adv-x="503" 
d="M133 427l160 1063h232l-194 -1063h-198zM171 -17q-63 0 -100.5 45.5t-27.5 110.5q9 54 52.5 90.5t98.5 36.5q63 0 100.5 -45.5t27.5 -109.5q-9 -54 -52.5 -91t-98.5 -37z" />
    <glyph glyph-name="quotedbl" unicode="&#x22;" horiz-adv-x="904" 
d="M266 952l66 538h207l-112 -538h-161zM614 952l66 538h207l-112 -538h-161z" />
    <glyph glyph-name="numbersign" unicode="#" horiz-adv-x="1259" 
d="M618 0l443 1490h172l-442 -1490h-173zM-3 400l51 172h1128l-52 -172h-1127zM96 0l441 1490h172l-441 -1490h-172zM153 916l51 174h1127l-50 -174h-1128z" />
    <glyph glyph-name="dollar" unicode="$" horiz-adv-x="1293" 
d="M443 -219l319 1928h159l-320 -1928h-158zM575 -24q-177 0 -298.5 59.5t-175 170t-30.5 262.5h222q-13 -94 18 -161t102 -101.5t175 -34.5q101 0 182.5 30.5t134 86t63.5 128.5q10 58 -12.5 99t-79 71.5t-151.5 54.5l-160 42q-205 52 -295 149.5t-64 257.5
q21 128 101.5 223t205.5 147.5t280 52.5q161 0 272 -56t163 -158.5t33 -242.5h-215q11 123 -61 192.5t-208 69.5q-92 0 -167 -30t-123 -83t-60 -121q-9 -56 15.5 -95.5t81 -67.5t145.5 -51l150 -39q99 -25 174.5 -62t124 -88t67 -119t4.5 -154q-21 -130 -103 -227.5
t-212 -151t-299 -53.5z" />
    <glyph glyph-name="percent" unicode="%" horiz-adv-x="1847" 
d="M510 792q-97 0 -161.5 44.5t-90.5 121.5t-10 174l7 41q16 98 68 175t131 121.5t176 44.5t160.5 -44.5t89.5 -121.5t9 -175l-6 -41q-16 -97 -67.5 -174t-130 -121.5t-175.5 -44.5zM535 940q69 0 115 52t61 140l6 41q15 89 -14 141.5t-98 52.5t-116 -52.5t-62 -141.5
l-7 -41q-14 -88 15.5 -140t99.5 -52zM1288 -25q-97 0 -161 44.5t-90 122t-10 174.5l6 40q17 98 69 175t131 121.5t175 44.5q97 0 160.5 -44.5t89.5 -121.5t10 -175l-7 -40q-16 -98 -67.5 -175t-130 -121.5t-175.5 -44.5zM1313 123q69 0 115.5 52t60.5 141l7 40
q15 89 -14 141.5t-99 52.5q-69 0 -115.5 -52.5t-62.5 -141.5l-6 -40q-15 -89 14.5 -141t99.5 -52zM226 0l1271 1490h187l-1271 -1490h-187z" />
    <glyph glyph-name="ampersand" unicode="&#x26;" horiz-adv-x="1358" 
d="M476 -21q-149 0 -251 55.5t-147.5 153t-25.5 221.5q13 77 52 139.5t114.5 125.5t195.5 141l282 178q43 27 75 57t52.5 63.5t26.5 70.5q9 60 -30 101t-109 41q-54 0 -100.5 -23.5t-77.5 -65.5t-39 -99q-6 -40 6 -81t44.5 -96.5t90.5 -139.5l559 -821h-240l-458 678
q-75 115 -123.5 195.5t-67 149.5t-5.5 147q17 100 74.5 175.5t146.5 117.5t199 42q114 0 192.5 -44.5t113.5 -121t19 -174.5q-10 -60 -40.5 -116.5t-81 -108t-123.5 -98.5l-338 -221q-95 -62 -142.5 -117.5t-56.5 -121.5q-9 -61 17 -111.5t79 -80.5t125 -30q89 0 177 41.5
t163.5 113t129 164.5t71.5 196h195q-19 -113 -57.5 -207.5t-93.5 -168.5t-123 -128l-57 -45q-84 -72 -195 -109.5t-218 -37.5z" />
    <glyph glyph-name="quotesingle" unicode="'" horiz-adv-x="556" 
d="M266 952l66 538h207l-112 -538h-161z" />
    <glyph glyph-name="parenleft" unicode="(" horiz-adv-x="661" 
d="M163 596q28 169 88.5 349.5t142.5 343.5t173 280h206q-95 -147 -175.5 -314t-137 -336t-81.5 -323q-23 -139 -21 -278.5t28.5 -289t78.5 -319.5h-206q-86 204 -110.5 430t14.5 457z" />
    <glyph glyph-name="parenright" unicode=")" horiz-adv-x="660" 
d="M-77 -291q106 167 182.5 316.5t125 289.5t71.5 280q26 155 25.5 324t-25.5 336t-71 314h206q52 -117 79.5 -280t28.5 -343.5t-27 -350.5q-39 -232 -137.5 -458t-251.5 -428h-206z" />
    <glyph glyph-name="asterisk" unicode="*" horiz-adv-x="1019" 
d="M450 652l66 308l-287 -168l-56 138l297 140l-252 140l102 140l232 -168l37 308h157l-65 -308l286 168l56 -140l-296 -140l251 -140l-102 -138l-231 168l-37 -308h-158z" />
    <glyph glyph-name="plus" unicode="+" horiz-adv-x="1319" 
d="M490 95l163 982h193l-163 -982h-193zM161 489l32 195h982l-32 -195h-982z" />
    <glyph glyph-name="comma" unicode="," horiz-adv-x="501" 
d="M-70 -309l171 527h221l-239 -527h-153z" />
    <glyph glyph-name="hyphen" unicode="-" horiz-adv-x="903" 
d="M809 700l-31 -186h-661l32 186h660z" />
    <glyph glyph-name="period" unicode="." horiz-adv-x="501" 
d="M171 -17q-63 0 -100.5 45.5t-27.5 110.5q9 54 52.5 90.5t98.5 36.5q63 0 100.5 -45.5t27.5 -109.5q-9 -54 -52.5 -91t-98.5 -37z" />
    <glyph glyph-name="slash" unicode="/" horiz-adv-x="707" 
d="M859 1560l-774 -1784h-193l775 1784h192z" />
    <glyph glyph-name="zero" unicode="0" horiz-adv-x="1290" 
d="M553 -23q-173 0 -282 93.5t-148 265t0 408.5q39 238 135 410t236.5 265.5t313.5 93.5q172 0 281.5 -93.5t148 -265.5t-0.5 -409q-39 -238 -134.5 -410t-236 -265t-313.5 -93zM585 167q107 0 195.5 69.5t151 198.5t92.5 310q30 180 10 309.5t-85.5 199t-172.5 69.5
t-195.5 -69t-151 -198.5t-93.5 -311.5q-29 -180 -9.5 -309t85.5 -198.5t173 -69.5z" />
    <glyph glyph-name="one" unicode="1" horiz-adv-x="781" 
d="M797 1490l-247 -1490h-217l211 1274h-3l-402 -242l36 216l401 242h221z" />
    <glyph glyph-name="two" unicode="2" horiz-adv-x="1192" 
d="M5 0l29 173l609 489q97 78 163.5 140t105 121.5t49.5 130.5q15 85 -7 145.5t-77 92.5t-142 32t-161 -38.5t-124.5 -108.5t-66.5 -166h-209q25 149 104 262t198.5 176.5t266.5 63.5t251.5 -57t152.5 -158t25 -236q-12 -70 -40.5 -134t-77 -127t-120 -131t-169.5 -146
l-410 -329l-1 -5h685l-31 -190h-1003z" />
    <glyph glyph-name="three" unicode="3" horiz-adv-x="1251" 
d="M541 -23q-162 0 -272.5 62t-160 170.5t-27.5 247.5h222q-14 -92 12 -157.5t88.5 -100t156.5 -34.5q93 0 170.5 31.5t128 87.5t62.5 129q13 77 -19.5 135.5t-103 90.5t-173.5 32h-125l31 183h124q89 0 161 29.5t118 83t57 125.5q12 71 -12 123.5t-80 82.5t-139 30
q-85 0 -155 -32t-116.5 -91.5t-61.5 -141.5h-214q23 132 103 233.5t201 159t267 57.5q143 0 245 -53.5t150.5 -145t29.5 -205.5q-20 -123 -108.5 -213t-217.5 -123v-5q97 -15 159.5 -66t88 -127t10.5 -168q-20 -123 -104.5 -220.5t-213.5 -153.5t-282 -56z" />
    <glyph glyph-name="four" unicode="4" horiz-adv-x="1304" 
d="M35 334l29 180l845 976h139l-40 -241h-82l-624 -722l-1 -5h934l-31 -188h-1169zM723 0l64 388l14 83l170 1019h212l-247 -1490h-213z" />
    <glyph glyph-name="five" unicode="5" horiz-adv-x="1205" 
d="M523 -21q-146 0 -255 58.5t-164 160t-39 231.5h218q-9 -113 58.5 -187.5t191.5 -74.5q89 0 165 41t128.5 113.5t67.5 166.5q16 94 -7.5 166.5t-81 113.5t-144.5 41q-104 0 -194 -41.5t-136 -118.5l-208 7l195 834h876l-32 -191h-679l-108 -434h3q72 64 152.5 97t177.5 33
q138 0 237 -64t144.5 -177.5t20.5 -262.5q-25 -150 -106 -265.5t-204.5 -181t-276.5 -65.5z" />
    <glyph glyph-name="six" unicode="6" horiz-adv-x="1234" 
d="M555 -23q-123 0 -218 45t-155 135t-79 224t11 313q31 188 88.5 339.5t142.5 258.5t197.5 164t251.5 57q135 0 234 -52t152 -143.5t47 -211.5h-216q-4 100 -57 159t-160 59q-119 0 -211.5 -67.5t-154 -188.5t-88.5 -281h4q46 59 105 101t129 64.5t148 22.5q138 0 239 -64
t148.5 -175.5t23.5 -254.5q-24 -147 -104.5 -261t-203 -178.5t-274.5 -64.5zM560 165q87 0 164 42t130 114t68 160q15 87 -11.5 157.5t-85.5 112t-141 41.5q-68 0 -129 -23.5t-110.5 -66t-82 -99.5t-43.5 -124q-14 -86 13 -157.5t86.5 -114t141.5 -42.5z" />
    <glyph glyph-name="seven" unicode="7" horiz-adv-x="1100" 
d="M64 0l868 1294l1 3h-749l32 193h985l-33 -199l-864 -1291h-240z" />
    <glyph glyph-name="eight" unicode="8" horiz-adv-x="1230" 
d="M532 -23q-155 0 -267.5 54t-166.5 149t-33 218q16 94 68 174t128 134t164 69v3q-105 27 -157 120t-33 214q20 117 94 207.5t187.5 142t250.5 51.5t237.5 -51.5t149 -142t29.5 -206.5q-14 -81 -57 -151.5t-106.5 -119t-139.5 -66.5v-4q82 -17 141.5 -70t86.5 -132t11 -173
q-21 -123 -101.5 -218t-205.5 -148.5t-280 -53.5zM546 159q92 0 167 31t123.5 88t60.5 133q13 78 -14.5 138t-88.5 94.5t-149 34.5q-90 0 -166 -34t-126.5 -94t-63.5 -139q-12 -76 14 -132.5t88 -88t155 -31.5zM661 857q77 0 141.5 30t107.5 84t54 124q12 71 -10 123.5
t-73.5 82t-128.5 29.5t-141.5 -29.5t-107 -82t-55.5 -123.5q-11 -71 11 -124.5t74 -83.5t128 -30z" />
    <glyph glyph-name="nine" unicode="9" horiz-adv-x="1234" 
d="M514 -23q-135 0 -237 51.5t-156.5 144t-49.5 212.5h216q4 -100 61 -159.5t165 -59.5q118 0 209 67.5t151.5 189t87.5 281.5h-5q-45 -59 -104.5 -100t-129.5 -62.5t-149 -21.5q-136 0 -236.5 63.5t-147 175t-22.5 253.5q24 146 103.5 259.5t203 178t276.5 63.5
q123 0 217.5 -45t154.5 -134.5t78.5 -223t-10.5 -311.5q-31 -188 -88.5 -340t-141.5 -260t-195.5 -165t-250.5 -57zM628 704q63 0 122.5 24t108 66t81.5 98t44 122q15 86 -13.5 156.5t-89.5 112.5t-146 42q-84 0 -159.5 -41.5t-127 -112t-66.5 -159.5q-15 -87 12.5 -157
t88 -110.5t145.5 -40.5z" />
    <glyph glyph-name="colon" unicode=":" horiz-adv-x="502" 
d="M172 -17q-63 0 -100.5 45.5t-27.5 110.5q9 54 52.5 90.5t98.5 36.5q63 0 100.5 -45.5t27.5 -109.5q-9 -54 -52.5 -91t-98.5 -37zM297 746q-63 0 -100.5 45.5t-27.5 110.5q9 54 52.5 90.5t98.5 36.5q63 0 100.5 -45.5t27.5 -109.5q-9 -54 -52.5 -91t-98.5 -37z" />
    <glyph glyph-name="semicolon" unicode=";" horiz-adv-x="511" 
d="M-70 -309l171 527h221l-239 -527h-153zM306 746q-63 0 -100.5 45.5t-27.5 110.5q9 54 52.5 90.5t98.5 36.5q63 0 100.5 -45.5t27.5 -109.5q-9 -54 -52.5 -91t-98.5 -37z" />
    <glyph glyph-name="less" unicode="&#x3c;" horiz-adv-x="1319" 
d="M149 506l27 160l1042 470l-36 -222l-768 -325l9 13l-5 -31l-5 12l660 -326l-37 -220z" />
    <glyph glyph-name="equal" unicode="=" horiz-adv-x="1319" 
d="M224 715l31 189h930l-31 -189h-930zM150 268l31 190h930l-32 -190h-929z" />
    <glyph glyph-name="greater" unicode="&#x3e;" horiz-adv-x="1319" 
d="M1160 506l-1042 -469l36 220l767 326l-8 -12l5 31l5 -13l-659 325l36 222l887 -470z" />
    <glyph glyph-name="question" unicode="?" horiz-adv-x="1097" 
d="M397 445l10 60q19 113 57.5 175.5t96.5 103.5t136 87q87 54 133.5 114.5t56.5 127.5q11 66 -11.5 113.5t-73.5 74t-126 26.5q-78 0 -142 -32t-106.5 -91.5t-57.5 -145.5h-216q24 138 96.5 240t184.5 158.5t253 56.5q136 0 236 -50t149 -139t30 -204q-18 -113 -87 -203.5
t-182 -158.5q-72 -43 -117.5 -78t-70 -77.5t-36.5 -111.5l-7 -46h-206zM424 -17q-59 0 -93.5 41t-24.5 100q9 60 57.5 101t108.5 41t93.5 -41t24.5 -101q-10 -59 -58 -100t-108 -41z" />
    <glyph glyph-name="at" unicode="@" horiz-adv-x="2015" 
d="M882 -410q-214 0 -377.5 66.5t-269 190t-144.5 296t-5 383.5q35 210 129.5 382.5t238 297t326.5 192t395 67.5q204 0 359.5 -65t256 -183.5t138.5 -281t5 -358.5q-20 -123 -60 -224t-100.5 -173.5t-141 -112t-182.5 -39.5q-90 0 -142 28t-73.5 69t-22.5 79h-2
q-37 -69 -118 -120t-200 -51q-133 0 -218.5 67t-118 180t-10.5 249q25 146 100.5 256t184 172t229.5 62q100 0 161.5 -38.5t82.5 -84.5h3l17 99h177l-109 -659q-12 -66 6 -101.5t75 -35.5q67 0 121 42t92 125t58 204q27 164 2.5 296t-98.5 226t-195 144t-286 50
q-173 0 -321 -52.5t-264 -151.5t-192 -240t-105 -317q-29 -175 -3 -315.5t104 -238.5t206 -150t303 -52q90 0 172.5 13t151 31t112.5 34l37 -167q-46 -17 -119 -38.5t-166.5 -36.5t-199.5 -15zM928 209q85 0 150.5 37t108.5 109t60 176t3 173.5t-61.5 104.5t-130.5 35
q-82 0 -149 -37.5t-112.5 -107.5t-61.5 -169q-17 -99 -2 -171t63.5 -111t131.5 -39z" />
    <glyph glyph-name="A" unicode="A" horiz-adv-x="1395" 
d="M-64 0l785 1490h271l291 -1490h-234l-148 838q-17 103 -36.5 233.5t-45.5 319.5h59q-86 -188 -148 -318t-116 -235l-431 -838h-247zM297 388l32 189h752l-31 -189h-753z" />
    <glyph glyph-name="B" unicode="B" horiz-adv-x="1319" 
d="M54 0l246 1490h550q154 0 255 -51t144 -142t23 -212q-13 -83 -54.5 -144.5t-105.5 -102.5t-144 -64v-3q82 -11 145 -56t93 -123.5t12 -189.5q-20 -121 -91 -211.5t-194.5 -140.5t-298.5 -50h-580zM307 189h331q155 0 247 64t110 176q13 72 -13.5 125.5t-88.5 82.5
t-158 29h-349zM416 847h322q82 0 148.5 29.5t109.5 83.5t55 126q16 98 -41.5 156.5t-185.5 58.5h-333z" />
    <glyph glyph-name="C" unicode="C" horiz-adv-x="1488" 
d="M698 -23q-180 0 -312 75.5t-203.5 213t-71.5 323.5q0 179 58 345t165.5 297t258 206.5t335.5 75.5q122 0 223.5 -35.5t174.5 -103t113.5 -162.5t39.5 -215h-225q-4 75 -29 133t-68.5 98t-103 60.5t-133.5 20.5q-138 0 -247 -61t-184.5 -164.5t-115.5 -231.5t-40 -261
q0 -127 44 -219t128.5 -141.5t203.5 -49.5q77 0 147.5 20.5t130.5 60t106.5 97.5t76.5 133h226q-38 -117 -106.5 -212t-161 -163t-201.5 -104t-229 -36z" />
    <glyph glyph-name="D" unicode="D" horiz-adv-x="1433" 
d="M571 0h-402l32 195h354q173 0 297 65.5t200 189t105 297.5q29 173 0 296t-121.5 187.5t-258.5 64.5h-401l32 195h377q220 0 366 -89.5t207 -256t22 -397.5q-38 -232 -142.5 -399.5t-272 -257.5t-394.5 -90zM525 1490l-247 -1490h-224l247 1490h224z" />
    <glyph glyph-name="E" unicode="E" horiz-adv-x="1210" 
d="M54 0l247 1490h988l-33 -195h-764l-72 -441h708l-33 -192h-708l-77 -467h765l-32 -195h-989z" />
    <glyph glyph-name="F" unicode="F" 
d="M54 0l247 1490h960l-32 -195h-737l-75 -454h678l-32 -193h-678l-107 -648h-224z" />
    <glyph glyph-name="G" unicode="G" horiz-adv-x="1507" 
d="M696 -23q-179 0 -310.5 76.5t-203 214t-71.5 322.5q0 178 58.5 343.5t166 296.5t256.5 207t330 76q122 0 224.5 -36.5t177.5 -104t115.5 -160.5t39.5 -206h-227q-4 68 -28.5 124t-67.5 96t-103.5 61.5t-136.5 21.5q-136 0 -243.5 -61.5t-183.5 -165t-116 -230.5t-40 -258
q0 -192 99.5 -302.5t274.5 -110.5q121 0 226 51.5t176.5 144t91.5 212.5l59 -13h-430l31 185h588l-30 -178q-22 -134 -87 -245.5t-162.5 -192.5t-218.5 -124.5t-255 -43.5z" />
    <glyph glyph-name="H" unicode="H" horiz-adv-x="1473" 
d="M54 0l247 1490h224l-105 -631h740l104 631h224l-247 -1490h-224l111 664h-740l-110 -664h-224z" />
    <glyph glyph-name="I" unicode="I" horiz-adv-x="509" 
d="M525 1490l-247 -1490h-224l247 1490h224z" />
    <glyph glyph-name="J" unicode="J" horiz-adv-x="1129" 
d="M455 -21q-183 0 -294.5 93.5t-111.5 267.5q0 15 1.5 33.5t6.5 52.5t14 93h220q-9 -55 -13.5 -84t-5.5 -43.5t-1 -24.5q0 -95 52 -144.5t145 -49.5q106 0 183.5 66t99.5 193l175 1058h224l-176 -1059q-36 -217 -174 -334.5t-345 -117.5z" />
    <glyph glyph-name="K" unicode="K" horiz-adv-x="1351" 
d="M275 390l38 271q62 63 122.5 123t122.5 119.5t126 119.5l501 467h291l-749 -695l-15 1zM54 0l247 1490h224l-79 -482l-58 -337l-17 -108l-93 -563h-224zM987 0l-390 734l150 173l487 -907h-247z" />
    <glyph glyph-name="L" unicode="L" horiz-adv-x="1121" 
d="M54 0l247 1490h224l-215 -1295h697l-32 -195h-921z" />
    <glyph glyph-name="M" unicode="M" horiz-adv-x="1801" 
d="M54 0l246 1490h318l187 -872q8 -37 17 -92.5t19 -116.5t18 -117t13 -94l-50 8q17 38 43.5 94t56 117t56.5 116t46 92l473 865h319l-246 -1490h-220l134 814q8 49 19 110t23.5 127.5t25.5 133.5t24 129l27 -8q-36 -73 -72.5 -146t-69 -139.5t-60.5 -121t-49 -93.5
l-447 -806h-185l-180 813q-10 51 -25 130.5t-32 175.5t-35 195l32 -8q-9 -62 -18.5 -129.5t-19 -134t-18.5 -127t-17 -109.5l-133 -806h-220z" />
    <glyph glyph-name="N" unicode="N" horiz-adv-x="1484" 
d="M54 0l247 1490h241l422 -898q16 -33 39.5 -88t49.5 -121t50 -133l-27 -39q6 64 16 142t20.5 148.5t16.5 110.5l146 878h225l-247 -1490h-240l-378 802q-20 43 -48 107t-64 149.5t-79 190.5l33 34q-14 -115 -26.5 -208.5t-22 -162t-17.5 -108.5l-133 -804h-224z" />
    <glyph glyph-name="O" unicode="O" horiz-adv-x="1542" 
d="M691 -23q-176 0 -306 75.5t-202 213.5t-72 324q0 178 58 343.5t165 296t256 207t331 76.5q175 0 305 -75.5t202 -213.5t72 -325q0 -179 -58.5 -344.5t-166 -296t-256 -206t-328.5 -75.5zM700 181q134 0 241 61t182.5 164.5t115 231t39.5 260.5q0 134 -47 225.5
t-129.5 138.5t-189.5 47q-135 0 -242 -61.5t-182 -165t-115 -231t-40 -260.5t46.5 -224.5t129.5 -138.5t191 -47z" />
    <glyph glyph-name="P" unicode="P" horiz-adv-x="1277" 
d="M54 0l247 1490h543q162 0 269.5 -59.5t153.5 -166t23 -247.5q-24 -142 -104.5 -246t-207.5 -161.5t-290 -57.5h-415l32 193h406q100 0 175 34.5t121.5 96.5t60.5 146t-12 145.5t-90 95.5t-164 34h-310l-214 -1297h-224z" />
    <glyph glyph-name="Q" unicode="Q" horiz-adv-x="1542" 
d="M708 481h201l123 -204l55 -87l196 -325h-208l-128 216l-47 77zM691 -23q-176 0 -306 75.5t-202 213.5t-72 324q0 178 58 343.5t165 296t256 207t331 76.5q175 0 305 -75.5t202 -213.5t72 -325q0 -179 -58.5 -344.5t-166 -296t-256 -206t-328.5 -75.5zM700 181
q134 0 241 61t182.5 164.5t115 231t39.5 260.5q0 134 -47 225.5t-129.5 138.5t-189.5 47q-135 0 -242 -61.5t-182 -165t-115 -231t-40 -260.5t46.5 -224.5t129.5 -138.5t191 -47z" />
    <glyph glyph-name="R" unicode="R" horiz-adv-x="1312" 
d="M54 0l247 1490h555q163 0 270.5 -57.5t153.5 -162t22 -245.5q-23 -141 -105 -245t-210.5 -160.5t-291.5 -56.5h-419l31 191h419q99 0 173.5 34t121 96.5t60.5 145.5q21 127 -49 197t-217 70h-323l-214 -1297h-224zM924 0l-244 672h232l251 -672h-239z" />
    <glyph glyph-name="S" unicode="S" horiz-adv-x="1293" 
d="M575 -24q-177 0 -298.5 59.5t-175 170t-30.5 262.5h222q-13 -94 18 -161t102 -101.5t175 -34.5q101 0 182.5 30.5t134 86t63.5 128.5q10 58 -12.5 99t-79 71.5t-151.5 54.5l-160 42q-205 52 -295 149.5t-64 257.5q21 128 101.5 223t205.5 147.5t280 52.5q161 0 272 -56
t163 -158.5t33 -242.5h-215q11 123 -61 192.5t-208 69.5q-92 0 -167 -30t-123 -83t-60 -121q-9 -56 15.5 -95.5t81 -67.5t145.5 -51l150 -39q99 -25 174.5 -62t124 -88t67 -119t4.5 -154q-21 -130 -103 -227.5t-212 -151t-299 -53.5z" />
    <glyph glyph-name="T" unicode="T" horiz-adv-x="1284" 
d="M184 1295l33 195h1167l-33 -195h-471l-214 -1295h-224l214 1295h-472z" />
    <glyph glyph-name="U" unicode="U" horiz-adv-x="1457" 
d="M649 -24q-182 0 -306.5 71t-179.5 193t-29 278l161 972h222l-160 -969q-16 -102 14 -179t103 -120.5t183 -43.5q117 0 210.5 47t154 128t76.5 183l158 954h222l-163 -987q-26 -155 -117 -274.5t-232 -186t-317 -66.5z" />
    <glyph glyph-name="V" unicode="V" horiz-adv-x="1391" 
d="M476 0l-294 1490h232l155 -838q17 -97 36.5 -231t46.5 -321h-60q87 186 151 321.5t111 230.5l425 838h246l-780 -1490h-269z" />
    <glyph glyph-name="W" unicode="W" horiz-adv-x="1994" 
d="M339 0l-157 1490h228l75 -864q6 -79 10.5 -159t7.5 -160.5t4 -161.5h-34q29 81 59.5 161.5t62 160.5t64.5 159l368 864h245l80 -864q7 -79 12.5 -159t9.5 -160.5t6 -161.5h-37q29 81 59 161.5t61.5 160.5t63.5 159l361 864h239l-652 -1490h-257l-92 905
q-10 98 -14.5 204.5t-9.5 227.5h52q-43 -119 -82.5 -225.5t-82.5 -206.5l-392 -905h-258z" />
    <glyph glyph-name="X" unicode="X" horiz-adv-x="1375" 
d="M-60 0l732 844l-28 -166l-420 812h253l147 -298q26 -53 49.5 -102t46 -97.5t44.5 -99.5h-47q40 51 78.5 99.5t78.5 98t85 101.5l258 298h255l-684 -801l27 162l443 -851h-251l-186 360q-25 48 -46.5 92t-42 88t-41.5 91h42q-37 -47 -72.5 -91t-72 -88t-78.5 -92
l-308 -360h-262z" />
    <glyph glyph-name="Y" unicode="Y" horiz-adv-x="1366" 
d="M484 0l99 595l-401 895h245l204 -472q31 -70 57.5 -139t52.5 -146h-73q50 77 100 146.5t102 138.5l359 472h270l-694 -895l-99 -595h-222z" />
    <glyph glyph-name="Z" unicode="Z" horiz-adv-x="1262" 
d="M14 0l25 148l970 1151h-786l32 191h1063l-24 -149l-971 -1150h786l-32 -191h-1063z" />
    <glyph glyph-name="bracketleft" unicode="[" horiz-adv-x="661" 
d="M27 -291l308 1860h413l-29 -175h-202l-250 -1509h202l-29 -176h-413z" />
    <glyph glyph-name="backslash" unicode="\" horiz-adv-x="706" 
d="M372 -224l-185 1784h191l185 -1784h-191z" />
    <glyph glyph-name="bracketright" unicode="]" horiz-adv-x="661" 
d="M-52 -291l29 176h202l250 1509h-202l29 175h413l-308 -1860h-413z" />
    <glyph glyph-name="asciicircum" unicode="^" horiz-adv-x="927" 
d="M574 1352h52l-12 -76h-52zM101 814l407 633h213l197 -633h-190l-143 491h15l-304 -491h-195z" />
    <glyph glyph-name="underscore" unicode="_" horiz-adv-x="946" 
d="M857 0l-30 -184h-945l30 184h945z" />
    <glyph glyph-name="grave" unicode="`" horiz-adv-x="565" 
d="M407 1206l-158 302h225l98 -302h-165z" />
    <glyph glyph-name="a" unicode="a" horiz-adv-x="1199" 
d="M441 -21q-137 0 -229 69.5t-129 194.5t-10 292q28 167 106.5 291.5t194 193.5t251.5 69q76 0 135 -22.5t99 -62.5t62 -93h5l26 159h210l-178 -1070h-208l27 163h-6q-41 -56 -95 -97t-119.5 -64t-141.5 -23zM516 162q91 0 164.5 46.5t123.5 130.5t68 196q19 113 -3 196.5
t-80.5 129.5t-149.5 46q-87 0 -159.5 -44.5t-121.5 -127t-69 -200.5q-19 -117 3 -200.5t79.5 -128t144.5 -44.5z" />
    <glyph glyph-name="b" unicode="b" horiz-adv-x="1199" 
d="M587 -21q-79 0 -139 24t-101.5 67.5t-67.5 102.5h-4l-29 -173h-209l246 1490h213l-94 -576h4q36 54 87.5 93t115 60.5t136.5 21.5q120 0 207.5 -54t134.5 -151.5t47 -231.5q0 -123 -36.5 -243t-107 -217t-172 -155t-231.5 -58zM547 162q91 0 160.5 43t117 114t71.5 157.5
t24 173.5q0 124 -59 190.5t-166 66.5q-91 0 -161 -42.5t-119 -112.5t-74 -155.5t-25 -170.5q0 -123 60 -193.5t171 -70.5z" />
    <glyph glyph-name="c" unicode="c" horiz-adv-x="1112" 
d="M501 -24q-134 0 -232.5 55.5t-151 156t-52.5 233.5q0 127 41 246.5t119 215.5t188 152.5t248 56.5q93 0 169.5 -27.5t131.5 -77t84.5 -118t27.5 -151.5l-210 -9q-1 43 -14 79.5t-38 63.5t-63.5 42t-91.5 15q-91 0 -161.5 -42.5t-118.5 -113t-73 -157t-25 -174.5
q0 -80 25 -139t76.5 -91.5t127.5 -32.5q55 0 101 15t84 42t66 64.5t47 82.5l209 -12q-25 -82 -73.5 -150.5t-116 -119t-150 -78t-174.5 -27.5z" />
    <glyph glyph-name="d" unicode="d" horiz-adv-x="1199" 
d="M453 -21q-181 0 -285 118t-104 316q0 126 37.5 246t108.5 217.5t172.5 155t229.5 57.5q79 0 139.5 -24t102.5 -66t64 -96h3l97 587h213l-246 -1490h-209l26 161h-5q-41 -59 -92.5 -99.5t-115 -61.5t-136.5 -21zM503 162q90 0 160 42t119 112t75 155.5t26 172.5
q0 122 -60 192.5t-172 70.5q-90 0 -159.5 -42.5t-117 -113t-72 -156.5t-24.5 -175q0 -124 59.5 -191t165.5 -67z" />
    <glyph glyph-name="e" unicode="e" horiz-adv-x="1121" 
d="M503 -24q-134 0 -233.5 51t-153 154.5t-48.5 259.5q3 145 49 264.5t128 206.5t191 134t236 47q111 0 196 -35.5t133 -104t48 -166.5q0 -101 -54 -167.5t-161.5 -105t-268 -55t-375.5 -16.5l26 158q186 0 307.5 10.5t191 32.5t98.5 57t29 83q0 61 -49.5 96t-142.5 35
q-102 0 -173 -42t-115 -112.5t-64.5 -155.5t-21.5 -172q-1 -75 18.5 -139t72.5 -102.5t151 -38.5q107 0 183 46.5t110 122.5l204 -10q-56 -151 -189 -243.5t-323 -92.5z" />
    <glyph glyph-name="f" unicode="f" horiz-adv-x="695" 
d="M736 1070l-29 -174h-630l28 174h631zM-40 -425q-23 0 -39 0.5t-32.5 1t-42.5 2.5l36 185q23 -1 36.5 -1.5t37.5 -0.5q71 0 103.5 30.5t44.5 104.5l220 1319q15 92 62.5 157t123 98.5t174.5 33.5q36 0 70 -1t63 -3l-36 -175q-20 1 -47 1h-52q-68 0 -102.5 -31.5
t-46.5 -103.5l-217 -1303q-16 -103 -58.5 -172.5t-115.5 -105.5t-182 -36z" />
    <glyph glyph-name="g" unicode="g" horiz-adv-x="1199" 
d="M439 -434q-131 0 -225 37.5t-145 107.5t-53 165l203 16q7 -46 33.5 -80.5t73.5 -53.5t116 -19q133 0 223 70.5t110 198.5l26 166h-5q-42 -56 -93 -96.5t-112 -62.5t-136 -22q-120 0 -207.5 52.5t-135 149t-47.5 226.5q0 125 37.5 243.5t109 214.5t172.5 153t228 57
q59 0 108 -13.5t88 -38t67 -59t45 -77.5l5 1l27 168h210l-177 -1070q-25 -157 -104.5 -252.5t-194.5 -138.5t-247 -43zM505 174q90 0 160 41t118.5 109t74 152t25.5 171q0 121 -60 191t-172 70q-89 0 -158.5 -41.5t-117 -111t-72 -155t-24.5 -173.5q0 -123 59.5 -188
t166.5 -65z" />
    <glyph glyph-name="h" unicode="h" 
d="M353 620l-103 -620h-213l247 1490h213l-114 -685h-48q51 96 111.5 159t133.5 94t161 31q110 0 191 -47.5t117.5 -140.5t13.5 -232l-111 -669h-214l107 643q21 126 -29.5 191.5t-160.5 65.5q-72 0 -135 -30t-107 -92t-60 -158z" />
    <glyph glyph-name="i" unicode="i" horiz-adv-x="465" 
d="M37 0l177 1070h214l-177 -1070h-214zM351 1249q-57 0 -89 37.5t-24 92.5q9 55 54 92.5t102 37.5q56 0 89 -38t24 -92q-8 -55 -54 -92.5t-102 -37.5z" />
    <glyph glyph-name="j" unicode="j" horiz-adv-x="464" 
d="M214 1070h213l-197 -1186q-14 -91 -61.5 -159t-124 -105.5t-178.5 -37.5h-79l30 180h55q66 0 101.5 35t47.5 109zM350 1249q-57 0 -89 37.5t-24 92.5q9 55 54 92.5t102 37.5q56 0 89 -38t24 -92q-8 -55 -54 -92.5t-102 -37.5z" />
    <glyph glyph-name="k" unicode="k" horiz-adv-x="1086" 
d="M293 360l42 254h23l524 456h263l-589 -517h-34zM37 0l247 1490h213l-247 -1490h-213zM736 0l-314 505l171 149l405 -654h-262z" />
    <glyph glyph-name="l" unicode="l" horiz-adv-x="465" 
d="M497 1490l-247 -1490h-213l247 1490h213z" />
    <glyph glyph-name="m" unicode="m" horiz-adv-x="1764" 
d="M37 0l177 1070h206l-36 -231l-21 6q42 84 100.5 138t126.5 80.5t137 26.5q85 0 147.5 -34.5t97.5 -93.5t37 -132l-30 14q34 74 92 129.5t133.5 86t161.5 30.5q101 0 176.5 -44.5t110.5 -131t13 -214.5l-115 -700h-214l115 696q13 76 -7 121.5t-62 65.5t-96 20
q-73 0 -132 -31.5t-97 -85t-49 -121.5l-110 -665h-210l117 711q15 91 -31.5 141.5t-130.5 50.5q-65 0 -125.5 -30.5t-104.5 -88.5t-58 -142l-106 -642h-213z" />
    <glyph glyph-name="n" unicode="n" horiz-adv-x="1165" 
d="M352 612l-102 -612h-213l177 1070h207l-42 -265l-45 6q75 144 175.5 211t227.5 67q113 0 194 -49t117.5 -144t12.5 -234l-109 -662h-213l107 650q21 126 -28 188t-154 62q-75 0 -140.5 -32t-110.5 -95.5t-61 -160.5z" />
    <glyph glyph-name="o" unicode="o" 
d="M503 -24q-136 0 -234 56t-151 157t-53 235q0 130 42 250t121 214t189 149t246 55t234 -56.5t150.5 -158t52.5 -236.5q0 -129 -42 -248.5t-120.5 -213.5t-188.5 -148.5t-246 -54.5zM511 159q93 0 163 43t117.5 114.5t71.5 157t24 170.5q0 81 -26.5 140.5t-78.5 91.5
t-128 32q-90 0 -160 -42.5t-118 -113.5t-73 -157t-25 -174q0 -120 60 -191t173 -71z" />
    <glyph glyph-name="p" unicode="p" horiz-adv-x="1199" 
d="M-33 -418l247 1488h209l-26 -157h3q38 56 90.5 95t117 60t137.5 21q120 0 207.5 -53.5t134.5 -151t47 -230.5q0 -124 -37 -244t-107.5 -217.5t-172 -155.5t-231.5 -58q-79 0 -138.5 24.5t-101 68t-64.5 99.5h-4l-98 -589h-213zM547 162q91 0 160.5 43t117 114t71.5 157.5
t24 173.5q0 124 -59 190.5t-166 66.5q-91 0 -161 -42.5t-119 -112.5t-74 -155.5t-25 -170.5q0 -123 60 -193.5t171 -70.5z" />
    <glyph glyph-name="q" unicode="q" horiz-adv-x="1199" 
d="M915 -418h-213l95 575h-4q-41 -56 -92.5 -96t-113 -61t-134.5 -21q-121 0 -208 53.5t-134 151t-47 229.5q0 126 37.5 246t108.5 217.5t172.5 155t229.5 57.5q79 0 139.5 -24t103.5 -65.5t67 -97.5h3l27 168h210zM503 162q90 0 160 42t119 112t75 155.5t26 172.5
q0 122 -60 192.5t-172 70.5q-90 0 -159.5 -42.5t-117 -113t-72 -156.5t-24.5 -175q0 -124 59.5 -191t165.5 -67z" />
    <glyph glyph-name="r" unicode="r" horiz-adv-x="717" 
d="M37 0l177 1070h205l-29 -173h6q44 88 118 137t174 49q23 0 44.5 -1.5t35.5 -3.5l-33 -199q-13 2 -44 6t-67 4q-63 0 -119 -28.5t-95.5 -84.5t-53.5 -140l-106 -636h-213z" />
    <glyph glyph-name="s" unicode="s" horiz-adv-x="1026" 
d="M438 -24q-117 0 -206.5 34.5t-140.5 102.5t-53 167v17.5t1 16.5l208 7q-2 -87 47 -131t147 -44q68 0 126 21.5t94 60.5t37 89q2 44 -30.5 70.5t-94.5 41.5l-172 39q-133 31 -199.5 100t-63.5 173q3 106 65 185t164.5 122t224.5 43q168 0 268.5 -76.5t105.5 -207.5v-23.5
t-2 -24.5l-201 -7q7 79 -39.5 124.5t-135.5 45.5q-66 0 -119 -23t-84.5 -62t-32.5 -86q-2 -43 30.5 -70t98.5 -43l173 -40q136 -31 200.5 -96t61.5 -166q-3 -83 -41 -149.5t-104 -114t-151.5 -72t-181.5 -24.5z" />
    <glyph glyph-name="t" unicode="t" horiz-adv-x="681" 
d="M716 1070l-29 -176h-611l29 176h611zM334 1353h213l-177 -1068q-10 -61 11.5 -86t84.5 -25q22 0 51 1t50 2l-20 -175q-28 -3 -65.5 -4t-72.5 -1q-150 0 -213.5 66t-42.5 196z" />
    <glyph glyph-name="u" unicode="u" 
d="M416 -19q-109 0 -188 47t-113 140.5t-12 231.5l111 670h214l-107 -643q-20 -125 30.5 -191t159.5 -66q72 0 135 30t107.5 92t59.5 158l103 620h213l-177 -1070h-208l43 265h43q-74 -144 -178.5 -214t-235.5 -70z" />
    <glyph glyph-name="v" unicode="v" horiz-adv-x="1099" 
d="M347 0l-230 1070h218l114 -592q17 -87 29 -174t24 -173h-58q41 86 83 173t87 174l308 592h236l-584 -1070h-227z" />
    <glyph glyph-name="w" unicode="w" horiz-adv-x="1610" 
d="M272 0l-152 1070h218l49 -439q11 -108 20.5 -226t17.5 -240h-30q49 120 98 238t97 228l196 439h205l49 -439q12 -108 21.5 -226t18.5 -240h-32q49 121 97 238.5t96 227.5l196 439h230l-506 -1070h-221l-57 465q-8 68 -15 140.5t-13 147t-13 146.5h47q-31 -72 -62 -146.5
t-62 -147t-63 -141.5l-213 -464h-217z" />
    <glyph glyph-name="x" unicode="x" horiz-adv-x="1077" 
d="M-57 0l539 617l-25 -140l-313 593h234l94 -192q33 -68 61.5 -133.5t57.5 -130.5h-90q52 65 101.5 130.5t105.5 133.5l161 192h248l-514 -594l25 139l329 -615h-233l-112 219q-32 67 -59.5 130t-58.5 126h88q-50 -63 -98.5 -126t-104.5 -130l-187 -219h-249z" />
    <glyph glyph-name="y" unicode="y" horiz-adv-x="1099" 
d="M-24 -414l41 178l94 -2q39 -3 70 8.5t58 40.5t52 77l61 117l-235 1065h219l115 -592q17 -87 29.5 -174t24.5 -173h-60q40 86 82 173t87 174l310 592h235l-688 -1248q-42 -78 -97 -132t-121 -82t-140 -28q-37 0 -72 2t-65 4z" />
    <glyph glyph-name="z" unicode="z" horiz-adv-x="1040" 
d="M13 0l25 152l682 731l1 5h-557l30 182h826l-27 -161l-670 -722l-1 -5h559l-30 -182h-838z" />
    <glyph glyph-name="braceleft" unicode="{" horiz-adv-x="843" 
d="M134 614l21 128q123 0 180 50.5t76 167.5l35 214q19 110 56.5 186t96 122t140.5 66.5t190 20.5l-28 -173q-126 0 -179 -55t-73 -177l-45 -270q-9 -56 -34.5 -106.5t-77.5 -89.5t-139 -61.5t-219 -22.5zM621 -291q-108 0 -183.5 20.5t-118.5 66t-55.5 122t5.5 187.5
l36 212q19 117 -21 168t-162 52l21 128q131 0 211 -23t118.5 -62.5t47.5 -90.5t-1 -106l-44 -268q-20 -123 14.5 -177.5t160.5 -54.5zM121 536l34 207h208l-35 -207h-207z" />
    <glyph glyph-name="bar" unicode="|" horiz-adv-x="656" 
d="M661 1970l-405 -2450h-193l406 2450h192z" />
    <glyph glyph-name="braceright" unicode="}" horiz-adv-x="843" 
d="M734 614q-132 0 -211.5 22.5t-118 61.5t-47.5 89.5t0 106.5l45 270q20 122 -14.5 177t-160.5 55l29 173q108 0 183.5 -20.5t119 -66.5t55.5 -122t-6 -186l-35 -214q-20 -117 20 -167.5t163 -50.5zM-52 -291l29 174q125 0 178 54.5t73 177.5l44 268q10 55 35.5 106
t77.5 90.5t139 62.5t219 23l-21 -128q-123 -1 -180 -52t-76 -168l-35 -212q-18 -111 -55.5 -187t-96 -121.5t-141 -66.5t-190.5 -21zM722 537l-208 -1l34 207l208 -1z" />
    <glyph glyph-name="asciitilde" unicode="~" horiz-adv-x="1319" 
d="M125 430q18 126 71 206.5t127.5 118.5t156.5 38q73 0 129.5 -31t124.5 -101q43 -43 71.5 -62t66.5 -20q59 1 102 44.5t56 130.5h182q-18 -125 -71.5 -205.5t-127.5 -118.5t-156 -38q-74 0 -130.5 32t-124.5 100q-43 44 -71.5 62.5t-65.5 18.5q-57 0 -100.5 -41
t-56.5 -134h-183z" />
    <glyph glyph-name="uni00A0" unicode="&#xa0;" horiz-adv-x="500" 
 />
    <glyph glyph-name="exclamdown" unicode="&#xa1;" horiz-adv-x="510" 
d="M-20 -406l192 1050h204l-156 -1050h-240zM299 804q-60 0 -95.5 42t-25.5 102q10 61 59.5 103.5t109.5 42.5q61 0 97 -42.5t26 -103.5q-10 -60 -60 -102t-111 -42z" />
    <glyph glyph-name="cent" unicode="&#xa2;" horiz-adv-x="1112" 
d="M422 0l247 1490h134l-247 -1490h-134zM535 187q-134 0 -232 55.5t-151 155.5t-53 233q0 127 41.5 246.5t119.5 215.5t188 152.5t247 56.5q93 0 169.5 -27t132 -77t85 -118.5t27.5 -151.5l-211 -9q-1 44 -14 80.5t-38 63t-63 41.5t-92 15q-91 0 -161 -42t-118.5 -113
t-73 -157t-24.5 -175q0 -80 25 -139t76 -91.5t127 -32.5q55 0 101.5 15t84 42.5t66 65t46.5 82.5l210 -13q-25 -82 -74 -150.5t-116.5 -118.5t-149.5 -77.5t-175 -27.5z" />
    <glyph glyph-name="sterling" unicode="&#xa3;" horiz-adv-x="1227" 
d="M17 142l8 50q80 0 132.5 43t64.5 143l80 659q17 143 90 249.5t187 165.5t254 59q130 0 225 -57t141 -158t28 -235l-209 -7q17 126 -36.5 195.5t-163.5 69.5q-81 0 -145 -32.5t-104.5 -94t-51.5 -147.5l-82 -649q-8 -69 -37 -115.5t-72 -74t-95 -41.5t-106.5 -18.5
t-107.5 -4.5zM-7 0l31 192h781q41 0 62 17.5t27 57.5l9 61h204l-8 -50q-24 -138 -103.5 -208t-220.5 -70h-782zM101 655l29 173h776l-28 -173h-777z" />
    <glyph glyph-name="currency" unicode="&#xa4;" horiz-adv-x="1461" 
d="M636 -20q-124 0 -225 47.5t-169 133t-95.5 200t-6.5 247.5q23 133 88 247t161.5 199t213 132.5t240.5 47.5t225 -47.5t170 -132.5t97 -199t6 -247t-87.5 -247.5t-163 -200t-214 -133t-240.5 -47.5zM664 149q89 0 172.5 35.5t153 99t116.5 146.5t62 178q22 128 -18.5 232
t-128 165.5t-205.5 61.5q-120 0 -227.5 -61.5t-183 -165.5t-97.5 -232q-20 -126 20.5 -230.5t128 -166.5t207.5 -62zM1221 923l-102 128l236 206l106 -128zM1143 -17l-167 206l144 126l171 -204zM134 -17l-102 128l236 204l105 -126zM369 923l-168 206l144 128l171 -206z
" />
    <glyph glyph-name="yen" unicode="&#xa5;" horiz-adv-x="1093" 
d="M404 1490l225 -805l-177 -91l-286 896h238zM516 687l491 803h238l-583 -896zM698 783l-130 -783h-221l130 783h221zM1008 750l-24 -147h-860l23 147h861zM961 462l-24 -147h-861l24 147h861z" />
    <glyph glyph-name="brokenbar" unicode="&#xa6;" horiz-adv-x="549" 
d="M155 406h196l-114 -686h-196zM531 1490l-113 -683h-197l113 683h197z" />
    <glyph glyph-name="section" unicode="&#xa7;" horiz-adv-x="1114" 
d="M404 -302q-125 0 -209.5 43t-122.5 123t-24 190l201 9q-9 -88 37.5 -135t147.5 -47q89 0 148 37.5t71 109.5q8 49 -9.5 83.5t-48 59t-64.5 41.5l-252 146q-62 35 -103 84.5t-58.5 109t-6.5 122.5q10 63 45.5 119t89 93t116.5 43v2q-49 52 -72.5 110.5t-10.5 142.5
q17 101 77 174.5t153.5 113t209.5 39.5q121 0 200 -43t114 -122t22 -190l-200 -10q8 86 -32.5 134t-133.5 48q-85 0 -140 -39t-66 -108q-9 -48 9 -83t50.5 -60t66.5 -44l251 -147q62 -35 102.5 -84t57.5 -106.5t7 -119.5q-11 -63 -48 -119t-90.5 -92.5t-114.5 -44.5l-1 -2
q38 -33 59.5 -73t28.5 -86t-2 -97q-16 -98 -78.5 -171.5t-159 -113.5t-217.5 -40zM638 372q27 -16 69.5 -4.5t80.5 48t49 95.5q8 38 -1 71.5t-33.5 63t-67.5 52.5l-246 143q-27 16 -67.5 4t-76 -49t-46.5 -96q-8 -39 0.5 -73.5t34.5 -64.5t69 -55z" />
    <glyph glyph-name="dieresis" unicode="&#xa8;" horiz-adv-x="1165" 
d="M915 1250q-55 0 -86.5 37.5t-22.5 91.5t53 91.5t99 37.5t86.5 -37.5t22.5 -91.5q-8 -54 -52.5 -91.5t-99.5 -37.5zM488 1250q-55 0 -86.5 37.5t-22.5 91.5q8 54 52.5 91.5t98.5 37.5q55 0 87 -37.5t23 -91.5t-53 -91.5t-99 -37.5z" />
    <glyph glyph-name="copyright" unicode="&#xa9;" horiz-adv-x="1830" 
d="M529 744q20 118 92 214.5t176.5 154t222.5 57.5q102 0 182.5 -44.5t126.5 -120t43 -171.5h-188q-3 68 -57 112t-131 44q-67 0 -128.5 -33t-104.5 -89t-54 -124q-11 -67 13 -122.5t75 -88.5t118 -33q77 0 139 43.5t87 112.5h188q-28 -96 -92.5 -172.5t-153.5 -120.5
t-192 -44q-117 0 -206 57.5t-131.5 154t-24.5 213.5zM823 -23q-137 0 -255.5 49.5t-207.5 138t-139 205t-50 249.5q0 183 71 344t196.5 285t289.5 194.5t349 70.5q140 0 260 -51t208.5 -141.5t137 -210t44.5 -256.5q-3 -178 -76 -337t-198.5 -280t-287 -190.5t-342.5 -69.5z
M854 168q137 0 258.5 52t215.5 144t148.5 211t57.5 254q3 137 -61.5 248.5t-176 178t-250.5 66.5t-262 -53t-217 -146t-148 -214t-54 -258q0 -134 65.5 -243.5t176.5 -174.5t247 -65z" />
    <glyph glyph-name="ordfeminine" unicode="&#xaa;" horiz-adv-x="892" 
d="M370 641q-83 0 -145.5 28.5t-91.5 85t-15 140.5q16 96 72.5 148t137 75.5t167.5 32.5q119 12 169.5 22.5t56.5 54.5l1 6q10 58 -26.5 94.5t-113.5 36.5q-52 0 -93 -16.5t-69 -44t-39 -63.5l-181 9q24 81 81 140t141.5 91.5t187.5 32.5q76 0 136 -18.5t101 -55t58 -89.5
t5 -122l-95 -574h-186l20 119h-5q-37 -54 -102.5 -93.5t-171.5 -39.5zM438 785q69 0 120 25t82 66t39 90l16 96q-13 -9 -45.5 -16.5t-74.5 -14t-85 -12.5q-68 -10 -122 -37.5t-64 -86.5q-9 -52 28.5 -81t105.5 -29z" />
    <glyph glyph-name="guillemotleft" unicode="&#xab;" horiz-adv-x="1160" 
d="M379 144l-302 447l450 447h241l-443 -447l295 -447h-241zM806 144l-302 447l450 447h241l-443 -447l295 -447h-241z" />
    <glyph glyph-name="logicalnot" unicode="&#xac;" horiz-adv-x="1319" 
d="M841 313l43 260h-666l30 184h859l-74 -444h-192z" />
    <glyph glyph-name="registered" unicode="&#xae;" horiz-adv-x="1311" 
d="M623 346q-120 0 -218 45.5t-165 125.5t-94 185.5t-7 225.5t82.5 225.5t155.5 185.5t206 125.5t233 45.5q121 0 219 -45.5t164.5 -125.5t94.5 -185.5t8 -225.5t-83 -225.5t-156.5 -185.5t-206 -125.5t-233.5 -45.5zM647 491q91 0 176 34t155 94t117.5 139.5t62.5 169.5
q20 121 -23 220t-132.5 158t-209.5 59q-91 0 -176 -34t-155 -94t-117 -139.5t-62 -169.5q-21 -120 22 -219.5t132.5 -158.5t209.5 -59zM780 663l-83 245h144l88 -245h-149zM462 663l88 536h244q60 0 103 -22t63 -63t10 -98q-9 -56 -43 -96.5t-86 -62.5t-115 -22h-151l17 108
h142q36 0 63.5 19.5t32.5 53.5q6 34 -14.5 52.5t-56.5 18.5h-89l-71 -424h-137z" />
    <glyph glyph-name="macron" unicode="&#xaf;" horiz-adv-x="850" 
d="M855 1437l-26 -157h-561l26 157h561z" />
    <glyph glyph-name="degree" unicode="&#xb0;" horiz-adv-x="888" 
d="M505 817q-94 0 -166 46t-108 123.5t-25 171.5q13 95 69 173t139.5 124t178.5 46q94 0 165.5 -46t107.5 -124t24 -173q-12 -94 -68 -171.5t-139.5 -123.5t-177.5 -46zM526 982q49 0 92 23.5t72 64t35 88.5q6 50 -12.5 90t-55.5 64t-86 24q-48 0 -91.5 -24t-72.5 -64
t-36 -90q-6 -48 13 -88.5t56 -64t86 -23.5z" />
    <glyph glyph-name="plusminus" unicode="&#xb1;" horiz-adv-x="1319" 
d="M99 65l31 189h965l-31 -189h-965zM198 659l30 186h965l-30 -186h-965zM536 375l125 754h193l-125 -754h-193z" />
    <glyph glyph-name="two.sups" unicode="&#xb2;" horiz-adv-x="824" 
d="M141 876l23 138l375 255q44 31 78.5 57t56.5 53t28 62q8 52 -26.5 83t-98.5 31q-68 0 -115 -37t-58 -103h-179q22 133 125 212t253 79q143 0 222.5 -69t60.5 -185q-7 -42 -25.5 -78.5t-50 -71t-78.5 -70.5t-111 -76l-191 -124l-1 -3h395l-25 -153h-658z" />
    <glyph glyph-name="three.sups" unicode="&#xb3;" horiz-adv-x="850" 
d="M483 864q-110 0 -181.5 37.5t-102 100.5t-18.5 139h187q-9 -59 28.5 -93.5t110.5 -34.5q70 0 119 30t56 77q9 48 -34 76.5t-121 28.5h-83l22 134h83q71 0 118 27t54 71q8 46 -26.5 75t-97.5 29q-65 0 -110.5 -31t-53.5 -81h-182q12 74 62.5 132t130.5 91.5t178 33.5
q141 0 220.5 -65t63.5 -165q-12 -69 -68 -115t-137 -58v-3q97 -11 140.5 -65.5t32.5 -127.5q-12 -70 -66 -125t-137.5 -86.5t-187.5 -31.5z" />
    <glyph glyph-name="acute" unicode="&#xb4;" horiz-adv-x="455" 
d="M157 1241l196 283h225l-256 -283h-165z" />
    <glyph glyph-name="uni00B5" unicode="&#xb5;" horiz-adv-x="1178" 
d="M-33 -418l247 1488h213l-103 -626q-17 -96 5 -158t73.5 -91t122.5 -29q72 0 131 29.5t99.5 91t56.5 157.5l103 626h213l-132 -799q-8 -51 11.5 -72.5t74.5 -21.5h34l-30 -177h-61q-141 0 -199.5 67t-37.5 194l17 101h44q-18 -111 -58.5 -183.5t-92 -113t-104.5 -57.5
t-97 -17q-45 0 -92.5 17t-85.5 58t-54 113t2 183h43l-129 -780h-214z" />
    <glyph glyph-name="paragraph" unicode="&#xb6;" horiz-adv-x="1174" 
d="M1140 1305h-364l-124 -753h-85q-160 0 -260.5 61t-140.5 167.5t-18 241.5q23 134 98 239.5t196 167t280 61.5h449zM740 0l247 1490h202l-247 -1490h-202z" />
    <glyph glyph-name="periodcentered" unicode="&#xb7;" horiz-adv-x="501" 
d="M267 566q-63 0 -100.5 45.5t-27.5 110.5q9 54 52.5 90.5t98.5 36.5q63 0 100.5 -45.5t27.5 -109.5q-9 -54 -52.5 -91t-98.5 -37z" />
    <glyph glyph-name="cedilla" unicode="&#xb8;" horiz-adv-x="567" 
d="M8 -418l18 110h118q50 0 75.5 15.5t30.5 48.5q6 32 -14.5 48t-69.5 16h-83l70 227h101l-8 -47l-14 -84q89 -3 131.5 -46t30.5 -116q-15 -88 -83 -130t-178 -42h-125z" />
    <glyph glyph-name="one.sups" unicode="&#xb9;" horiz-adv-x="563" 
d="M655 1693l-135 -817h-187l107 646h-2l-232 -120l28 165l239 126h182z" />
    <glyph glyph-name="ordmasculine" unicode="&#xba;" horiz-adv-x="941" 
d="M487 637q-124 0 -208 55t-119.5 154t-14.5 229q23 132 90.5 230.5t170 154.5t226.5 56q125 0 209 -56t119.5 -154.5t13.5 -230.5q-21 -130 -89.5 -229t-171 -154t-226.5 -55zM513 796q70 0 125.5 35t92.5 97.5t51 146.5q14 85 -2 148.5t-60 98.5t-114 35
q-69 0 -124.5 -35t-93 -98.5t-51.5 -148.5q-13 -84 3 -147t60 -97.5t113 -34.5z" />
    <glyph glyph-name="guillemotright" unicode="&#xbb;" horiz-adv-x="1160" 
d="M-16 144l443 447l-295 447h240l302 -447l-450 -447h-240zM411 144l443 447l-295 447h240l302 -447l-450 -447h-240z" />
    <glyph glyph-name="onequarter" unicode="&#xbc;" horiz-adv-x="1556" 
d="M574 1490l-136 -817h-167l111 664h-3l-210 -125l25 151l216 127h164zM35 0l1271 1490h187l-1271 -1490h-187zM762 163l22 133l440 521h111l-29 -172h-63l-291 -344l-1 -4h502l-22 -134h-669zM1138 0l34 204l10 59l92 554h161l-135 -817h-162z" />
    <glyph glyph-name="onehalf" unicode="&#xbd;" horiz-adv-x="1628" 
d="M574 1490l-136 -817h-167l111 664h-3l-210 -125l25 151l216 127h164zM35 0l1271 1490h187l-1271 -1490h-187zM877 0l20 124l341 261q43 33 75.5 61.5t52.5 57.5t26 64q10 60 -18.5 93t-88.5 33q-59 0 -105 -38.5t-58 -107.5h-160q21 127 110.5 204.5t220.5 77.5
q130 0 205 -68t55 -184q-7 -38 -22.5 -72.5t-43.5 -69.5t-69.5 -73.5t-100.5 -84.5l-175 -137l-1 -3h347l-23 -138h-588z" />
    <glyph glyph-name="threequarters" unicode="&#xbe;" horiz-adv-x="1724" 
d="M408 661q-97 0 -161.5 35.5t-92.5 96.5t-16 136h167q-10 -61 22.5 -96.5t97.5 -35.5q61 0 107 30.5t55 82.5q10 52 -27.5 84.5t-109.5 32.5h-73l21 125h72q65 0 108 30t52 79q8 49 -21.5 79t-85.5 30q-58 0 -101 -32t-52 -87h-163q13 74 58.5 130.5t117 89t158.5 32.5
q128 0 198 -65t55 -161q-11 -70 -63 -117.5t-124 -60.5l-1 -3q89 -12 127 -67t25 -130q-17 -101 -113.5 -169.5t-236.5 -68.5zM202 0l1271 1490h187l-1271 -1490h-187zM929 163l22 133l440 521h111l-29 -172h-63l-291 -344l-1 -4h502l-22 -134h-669zM1305 0l34 204l10 59
l92 554h161l-135 -817h-162z" />
    <glyph glyph-name="questiondown" unicode="&#xbf;" horiz-adv-x="1027" 
d="M629 665l-10 -59q-19 -113 -57.5 -176t-96 -103.5t-136.5 -87.5q-86 -53 -132.5 -113.5t-57.5 -128.5q-11 -65 11.5 -113t74 -74t125.5 -26q79 0 142.5 31.5t106 91.5t57.5 146h216q-23 -138 -96 -240.5t-185 -158.5t-253 -56q-135 0 -235.5 50t-149.5 138.5t-30 204.5
q19 112 88 203t181 159q73 44 118 78t70 77.5t36 110.5l7 46h206zM602 1127q60 0 94 -40.5t24 -100.5q-9 -59 -57 -100t-108 -41q-59 0 -93.5 41t-25.5 100q10 60 58.5 100.5t107.5 40.5z" />
    <glyph glyph-name="Agrave" unicode="&#xc0;" horiz-adv-x="1395" 
d="M-64 0l785 1490h271l291 -1490h-234l-148 838q-17 103 -36.5 233.5t-45.5 319.5h59q-86 -188 -148 -318t-116 -235l-431 -838h-247zM297 388l32 189h752l-31 -189h-753zM803 1626l-158 302h225l98 -302h-165z" />
    <glyph glyph-name="Aacute" unicode="&#xc1;" horiz-adv-x="1395" 
d="M-64 0l785 1490h271l291 -1490h-234l-148 838q-17 103 -36.5 233.5t-45.5 319.5h59q-86 -188 -148 -318t-116 -235l-431 -838h-247zM297 388l32 189h752l-31 -189h-753zM790 1661l196 283h225l-256 -283h-165z" />
    <glyph glyph-name="Acircumflex" unicode="&#xc2;" horiz-adv-x="1395" 
d="M-64 0l785 1490h271l291 -1490h-234l-148 838q-17 103 -36.5 233.5t-45.5 319.5h59q-86 -188 -148 -318t-116 -235l-431 -838h-247zM297 388l32 189h752l-31 -189h-753zM743 1645h-194v2l286 281h189l194 -281v-2h-195l-111 173z" />
    <glyph glyph-name="Atilde" unicode="&#xc3;" horiz-adv-x="1395" 
d="M-64 0l785 1490h271l291 -1490h-234l-148 838q-17 103 -36.5 233.5t-45.5 319.5h59q-86 -188 -148 -318t-116 -235l-431 -838h-247zM297 388l32 189h752l-31 -189h-753zM1023 1678q-41 0 -74.5 13.5t-61.5 31t-52 31t-44 13.5q-28 0 -46 -26t-25 -59h-137
q20 102 74.5 163t137.5 61q42 0 74 -13.5t58 -31t50 -31t49 -13.5q29 0 45.5 20.5t27.5 64.5h134q-20 -104 -76.5 -164t-133.5 -60z" />
    <glyph glyph-name="Adieresis" unicode="&#xc4;" horiz-adv-x="1395" 
d="M-64 0l785 1490h271l291 -1490h-234l-148 838q-17 103 -36.5 233.5t-45.5 319.5h59q-86 -188 -148 -318t-116 -235l-431 -838h-247zM297 388l32 189h752l-31 -189h-753zM1101 1670q-55 0 -86.5 37.5t-22.5 91.5t53 91.5t99 37.5t86.5 -37.5t22.5 -91.5
q-8 -54 -52.5 -91.5t-99.5 -37.5zM674 1670q-55 0 -86.5 37.5t-22.5 91.5q8 54 52.5 91.5t98.5 37.5q55 0 87 -37.5t23 -91.5t-53 -91.5t-99 -37.5z" />
    <glyph glyph-name="Aring" unicode="&#xc5;" horiz-adv-x="1395" 
d="M-64 0l785 1490h271l291 -1490h-234l-148 838q-17 103 -36.5 233.5t-45.5 319.5h59q-86 -188 -148 -318t-116 -235l-431 -838h-247zM297 388l32 189h752l-31 -189h-753zM884 1570q-74 0 -128 34t-79.5 91t-14.5 126q11 63 50.5 113.5t98.5 80t126 29.5q74 0 128 -33.5
t79.5 -90.5t14.5 -126q-10 -63 -50.5 -114t-99 -80.5t-125.5 -29.5zM892 1696q47 0 85 32t46 79t-19 79.5t-75 32.5q-47 0 -84.5 -32t-45.5 -79t19 -79.5t74 -32.5z" />
    <glyph glyph-name="AE" unicode="&#xc6;" horiz-adv-x="1974" 
d="M-64 0l912 1490h1199l-33 -194h-711l-74 -451h655l-31 -190h-656l-77 -461h719l-32 -194h-940l214 1292h-130l-779 -1292h-236zM343 415l31 187h695l-32 -187h-694z" />
    <glyph glyph-name="Ccedilla" unicode="&#xc7;" horiz-adv-x="1488" 
d="M698 -23q-180 0 -312 75.5t-203.5 213t-71.5 323.5q0 179 58 345t165.5 297t258 206.5t335.5 75.5q122 0 223.5 -35.5t174.5 -103t113.5 -162.5t39.5 -215h-225q-4 75 -29 133t-68.5 98t-103 60.5t-133.5 20.5q-138 0 -247 -61t-184.5 -164.5t-115.5 -231.5t-40 -261
q0 -127 44 -219t128.5 -141.5t203.5 -49.5q77 0 147.5 20.5t130.5 60t106.5 97.5t76.5 133h226q-38 -117 -106.5 -212t-161 -163t-201.5 -104t-229 -36zM488 -419l18 110h118q50 0 75.5 15.5t30.5 48.5q6 32 -14.5 48t-69.5 16h-83l70 227h101l-8 -47l-14 -84
q89 -3 131.5 -46t30.5 -116q-15 -88 -83 -130t-178 -42h-125z" />
    <glyph glyph-name="Egrave" unicode="&#xc8;" horiz-adv-x="1210" 
d="M54 0l247 1490h988l-33 -195h-764l-72 -441h708l-33 -192h-708l-77 -467h765l-32 -195h-989zM740 1626l-158 302h225l98 -302h-165z" />
    <glyph glyph-name="Eacute" unicode="&#xc9;" horiz-adv-x="1210" 
d="M54 0l247 1490h988l-33 -195h-764l-72 -441h708l-33 -192h-708l-77 -467h765l-32 -195h-989zM727 1661l196 283h225l-256 -283h-165z" />
    <glyph glyph-name="Ecircumflex" unicode="&#xca;" horiz-adv-x="1210" 
d="M54 0l247 1490h988l-33 -195h-764l-72 -441h708l-33 -192h-708l-77 -467h765l-32 -195h-989zM680 1645h-194v2l286 281h189l194 -281v-2h-195l-111 173z" />
    <glyph glyph-name="Edieresis" unicode="&#xcb;" horiz-adv-x="1210" 
d="M54 0l247 1490h988l-33 -195h-764l-72 -441h708l-33 -192h-708l-77 -467h765l-32 -195h-989zM1039 1670q-55 0 -86.5 37.5t-22.5 91.5t53 91.5t99 37.5t86.5 -37.5t22.5 -91.5q-8 -54 -52.5 -91.5t-99.5 -37.5zM612 1670q-55 0 -86.5 37.5t-22.5 91.5q8 54 52.5 91.5
t98.5 37.5q55 0 87 -37.5t23 -91.5t-53 -91.5t-99 -37.5z" />
    <glyph glyph-name="Igrave" unicode="&#xcc;" horiz-adv-x="509" 
d="M525 1490l-247 -1490h-224l247 1490h224zM358 1626l-158 302h225l98 -302h-165z" />
    <glyph glyph-name="Iacute" unicode="&#xcd;" horiz-adv-x="509" 
d="M525 1490l-247 -1490h-224l247 1490h224zM345 1661l196 283h225l-256 -283h-165z" />
    <glyph glyph-name="Icircumflex" unicode="&#xce;" horiz-adv-x="509" 
d="M525 1490l-247 -1490h-224l247 1490h224zM298 1645h-194v2l286 281h189l194 -281v-2h-195l-111 173z" />
    <glyph glyph-name="Idieresis" unicode="&#xcf;" horiz-adv-x="509" 
d="M525 1490l-247 -1490h-224l247 1490h224zM656 1670q-55 0 -86.5 37.5t-22.5 91.5t53 91.5t99 37.5t86.5 -37.5t22.5 -91.5q-8 -54 -52.5 -91.5t-99.5 -37.5zM229 1670q-55 0 -86.5 37.5t-22.5 91.5q8 54 52.5 91.5t98.5 37.5q55 0 87 -37.5t23 -91.5t-53 -91.5t-99 -37.5
z" />
    <glyph glyph-name="Eth" unicode="&#xd0;" horiz-adv-x="1504" 
d="M642 0h-402l32 195h354q173 0 297 65.5t200 189t105 297.5q29 173 0 296t-121.5 187.5t-258.5 64.5h-401l32 195h377q220 0 366 -89.5t207 -256t22 -397.5q-38 -232 -142.5 -399.5t-272 -257.5t-394.5 -90zM596 1490l-247 -1490h-224l247 1490h224zM43 657l29 176h779
l-29 -176h-779z" />
    <glyph glyph-name="Ntilde" unicode="&#xd1;" horiz-adv-x="1484" 
d="M54 0l247 1490h241l422 -898q16 -33 39.5 -88t49.5 -121t50 -133l-27 -39q6 64 16 142t20.5 148.5t16.5 110.5l146 878h225l-247 -1490h-240l-378 802q-20 43 -48 107t-64 149.5t-79 190.5l33 34q-14 -115 -26.5 -208.5t-22 -162t-17.5 -108.5l-133 -804h-224zM1066 1678
q-41 0 -74.5 13.5t-61.5 31t-52 31t-44 13.5q-28 0 -46 -26t-25 -59h-137q20 102 74.5 163t137.5 61q42 0 74 -13.5t58 -31t50 -31t49 -13.5q29 0 45.5 20.5t27.5 64.5h134q-20 -104 -76.5 -164t-133.5 -60z" />
    <glyph glyph-name="Ograve" unicode="&#xd2;" horiz-adv-x="1542" 
d="M691 -23q-176 0 -306 75.5t-202 213.5t-72 324q0 178 58 343.5t165 296t256 207t331 76.5q175 0 305 -75.5t202 -213.5t72 -325q0 -179 -58.5 -344.5t-166 -296t-256 -206t-328.5 -75.5zM700 181q134 0 241 61t182.5 164.5t115 231t39.5 260.5q0 134 -47 225.5
t-129.5 138.5t-189.5 47q-135 0 -242 -61.5t-182 -165t-115 -231t-40 -260.5t46.5 -224.5t129.5 -138.5t191 -47zM874 1626l-158 302h225l98 -302h-165z" />
    <glyph glyph-name="Oacute" unicode="&#xd3;" horiz-adv-x="1542" 
d="M691 -23q-176 0 -306 75.5t-202 213.5t-72 324q0 178 58 343.5t165 296t256 207t331 76.5q175 0 305 -75.5t202 -213.5t72 -325q0 -179 -58.5 -344.5t-166 -296t-256 -206t-328.5 -75.5zM700 181q134 0 241 61t182.5 164.5t115 231t39.5 260.5q0 134 -47 225.5
t-129.5 138.5t-189.5 47q-135 0 -242 -61.5t-182 -165t-115 -231t-40 -260.5t46.5 -224.5t129.5 -138.5t191 -47zM861 1661l196 283h225l-256 -283h-165z" />
    <glyph glyph-name="Ocircumflex" unicode="&#xd4;" horiz-adv-x="1542" 
d="M691 -23q-176 0 -306 75.5t-202 213.5t-72 324q0 178 58 343.5t165 296t256 207t331 76.5q175 0 305 -75.5t202 -213.5t72 -325q0 -179 -58.5 -344.5t-166 -296t-256 -206t-328.5 -75.5zM700 181q134 0 241 61t182.5 164.5t115 231t39.5 260.5q0 134 -47 225.5
t-129.5 138.5t-189.5 47q-135 0 -242 -61.5t-182 -165t-115 -231t-40 -260.5t46.5 -224.5t129.5 -138.5t191 -47zM814 1645h-194v2l286 281h189l194 -281v-2h-195l-111 173z" />
    <glyph glyph-name="Otilde" unicode="&#xd5;" horiz-adv-x="1542" 
d="M691 -23q-176 0 -306 75.5t-202 213.5t-72 324q0 178 58 343.5t165 296t256 207t331 76.5q175 0 305 -75.5t202 -213.5t72 -325q0 -179 -58.5 -344.5t-166 -296t-256 -206t-328.5 -75.5zM700 181q134 0 241 61t182.5 164.5t115 231t39.5 260.5q0 134 -47 225.5
t-129.5 138.5t-189.5 47q-135 0 -242 -61.5t-182 -165t-115 -231t-40 -260.5t46.5 -224.5t129.5 -138.5t191 -47zM1094 1678q-41 0 -74.5 13.5t-61.5 31t-52 31t-44 13.5q-28 0 -46 -26t-25 -59h-137q20 102 74.5 163t137.5 61q42 0 74 -13.5t58 -31t50 -31t49 -13.5
q29 0 45.5 20.5t27.5 64.5h134q-20 -104 -76.5 -164t-133.5 -60z" />
    <glyph glyph-name="Odieresis" unicode="&#xd6;" horiz-adv-x="1542" 
d="M691 -23q-176 0 -306 75.5t-202 213.5t-72 324q0 178 58 343.5t165 296t256 207t331 76.5q175 0 305 -75.5t202 -213.5t72 -325q0 -179 -58.5 -344.5t-166 -296t-256 -206t-328.5 -75.5zM700 181q134 0 241 61t182.5 164.5t115 231t39.5 260.5q0 134 -47 225.5
t-129.5 138.5t-189.5 47q-135 0 -242 -61.5t-182 -165t-115 -231t-40 -260.5t46.5 -224.5t129.5 -138.5t191 -47zM1172 1670q-55 0 -86.5 37.5t-22.5 91.5t53 91.5t99 37.5t86.5 -37.5t22.5 -91.5q-8 -54 -52.5 -91.5t-99.5 -37.5zM745 1670q-55 0 -86.5 37.5t-22.5 91.5
q8 54 52.5 91.5t98.5 37.5q55 0 87 -37.5t23 -91.5t-53 -91.5t-99 -37.5z" />
    <glyph glyph-name="multiply" unicode="&#xd7;" horiz-adv-x="1319" 
d="M939 98l-697 834l154 135l697 -835zM252 102l-124 144l956 818l124 -147z" />
    <glyph glyph-name="Oslash" unicode="&#xd8;" horiz-adv-x="1542" 
d="M691 -23q-176 0 -306 75.5t-202 213.5t-72 324q0 178 58 343.5t165 296t256 207t331 76.5q175 0 305 -75.5t202 -213.5t72 -325q0 -179 -58.5 -344.5t-166 -296t-256 -206t-328.5 -75.5zM700 181q134 0 241 61t182.5 164.5t115 231t39.5 260.5q0 134 -47 225.5
t-129.5 138.5t-189.5 47q-135 0 -242 -61.5t-182 -165t-115 -231t-40 -260.5t46.5 -224.5t129.5 -138.5t191 -47zM137 -59l-122 116l1460 1492l122 -116z" />
    <glyph glyph-name="Ugrave" unicode="&#xd9;" horiz-adv-x="1457" 
d="M649 -24q-182 0 -306.5 71t-179.5 193t-29 278l161 972h222l-160 -969q-16 -102 14 -179t103 -120.5t183 -43.5q117 0 210.5 47t154 128t76.5 183l158 954h222l-163 -987q-26 -155 -117 -274.5t-232 -186t-317 -66.5zM831 1626l-158 302h225l98 -302h-165z" />
    <glyph glyph-name="Uacute" unicode="&#xda;" horiz-adv-x="1457" 
d="M649 -24q-182 0 -306.5 71t-179.5 193t-29 278l161 972h222l-160 -969q-16 -102 14 -179t103 -120.5t183 -43.5q117 0 210.5 47t154 128t76.5 183l158 954h222l-163 -987q-26 -155 -117 -274.5t-232 -186t-317 -66.5zM818 1661l196 283h225l-256 -283h-165z" />
    <glyph glyph-name="Ucircumflex" unicode="&#xdb;" horiz-adv-x="1457" 
d="M649 -24q-182 0 -306.5 71t-179.5 193t-29 278l161 972h222l-160 -969q-16 -102 14 -179t103 -120.5t183 -43.5q117 0 210.5 47t154 128t76.5 183l158 954h222l-163 -987q-26 -155 -117 -274.5t-232 -186t-317 -66.5zM771 1645h-194v2l286 281h189l194 -281v-2h-195
l-111 173z" />
    <glyph glyph-name="Udieresis" unicode="&#xdc;" horiz-adv-x="1457" 
d="M649 -24q-182 0 -306.5 71t-179.5 193t-29 278l161 972h222l-160 -969q-16 -102 14 -179t103 -120.5t183 -43.5q117 0 210.5 47t154 128t76.5 183l158 954h222l-163 -987q-26 -155 -117 -274.5t-232 -186t-317 -66.5zM1130 1670q-55 0 -86.5 37.5t-22.5 91.5t53 91.5
t99 37.5t86.5 -37.5t22.5 -91.5q-8 -54 -52.5 -91.5t-99.5 -37.5zM703 1670q-55 0 -86.5 37.5t-22.5 91.5q8 54 52.5 91.5t98.5 37.5q55 0 87 -37.5t23 -91.5t-53 -91.5t-99 -37.5z" />
    <glyph glyph-name="Yacute" unicode="&#xdd;" horiz-adv-x="1366" 
d="M484 0l99 595l-401 895h245l204 -472q31 -70 57.5 -139t52.5 -146h-73q50 77 100 146.5t102 138.5l359 472h270l-694 -895l-99 -595h-222zM773 1661l196 283h225l-256 -283h-165z" />
    <glyph glyph-name="Thorn" unicode="&#xde;" horiz-adv-x="1273" 
d="M291 1490h224l-247 -1490h-223zM346 1193h385q165 0 269.5 -58.5t147 -157t22.5 -219.5q-19 -122 -94 -221.5t-199 -158t-289 -58.5h-385l30 186h385q99 0 170.5 30t114.5 85.5t56 131.5q12 76 -12.5 133t-86 89t-160.5 32h-384z" />
    <glyph glyph-name="germandbls" unicode="&#xdf;" horiz-adv-x="1234" 
d="M54 0l183 1104q21 126 93 217t183.5 140t246.5 49q130 0 228 -46t145 -133.5t27 -210.5q-21 -124 -98 -209t-186 -120l-3 -14q142 -13 214.5 -112.5t46.5 -255.5q-20 -121 -91.5 -213.5t-180.5 -144t-243 -51.5h-173l31 189h160q74 0 133.5 29t98.5 81t50 120
q18 107 -44 174.5t-189 67.5h-125l31 188h87q68 0 122 34t90 88.5t46 116.5q16 97 -37.5 164t-165.5 67q-107 0 -187 -63.5t-98 -165.5l-180 -1090h-215z" />
    <glyph glyph-name="agrave" unicode="&#xe0;" horiz-adv-x="1199" 
d="M441 -21q-137 0 -229 69.5t-129 194.5t-10 292q28 167 106.5 291.5t194 193.5t251.5 69q76 0 135 -22.5t99 -62.5t62 -93h5l26 159h210l-178 -1070h-208l27 163h-6q-41 -56 -95 -97t-119.5 -64t-141.5 -23zM516 162q91 0 164.5 46.5t123.5 130.5t68 196q19 113 -3 196.5
t-80.5 129.5t-149.5 46q-87 0 -159.5 -44.5t-121.5 -127t-69 -200.5q-19 -117 3 -200.5t79.5 -128t144.5 -44.5zM626 1206l-158 302h225l98 -302h-165z" />
    <glyph glyph-name="aacute" unicode="&#xe1;" horiz-adv-x="1199" 
d="M441 -21q-137 0 -229 69.5t-129 194.5t-10 292q28 167 106.5 291.5t194 193.5t251.5 69q76 0 135 -22.5t99 -62.5t62 -93h5l26 159h210l-178 -1070h-208l27 163h-6q-41 -56 -95 -97t-119.5 -64t-141.5 -23zM516 162q91 0 164.5 46.5t123.5 130.5t68 196q19 113 -3 196.5
t-80.5 129.5t-149.5 46q-87 0 -159.5 -44.5t-121.5 -127t-69 -200.5q-19 -117 3 -200.5t79.5 -128t144.5 -44.5zM613 1241l196 283h225l-256 -283h-165z" />
    <glyph glyph-name="acircumflex" unicode="&#xe2;" horiz-adv-x="1199" 
d="M441 -21q-137 0 -229 69.5t-129 194.5t-10 292q28 167 106.5 291.5t194 193.5t251.5 69q76 0 135 -22.5t99 -62.5t62 -93h5l26 159h210l-178 -1070h-208l27 163h-6q-41 -56 -95 -97t-119.5 -64t-141.5 -23zM516 162q91 0 164.5 46.5t123.5 130.5t68 196q19 113 -3 196.5
t-80.5 129.5t-149.5 46q-87 0 -159.5 -44.5t-121.5 -127t-69 -200.5q-19 -117 3 -200.5t79.5 -128t144.5 -44.5zM566 1225h-194v2l286 281h189l194 -281v-2h-195l-111 173z" />
    <glyph glyph-name="atilde" unicode="&#xe3;" horiz-adv-x="1199" 
d="M441 -21q-137 0 -229 69.5t-129 194.5t-10 292q28 167 106.5 291.5t194 193.5t251.5 69q76 0 135 -22.5t99 -62.5t62 -93h5l26 159h210l-178 -1070h-208l27 163h-6q-41 -56 -95 -97t-119.5 -64t-141.5 -23zM516 162q91 0 164.5 46.5t123.5 130.5t68 196q19 113 -3 196.5
t-80.5 129.5t-149.5 46q-87 0 -159.5 -44.5t-121.5 -127t-69 -200.5q-19 -117 3 -200.5t79.5 -128t144.5 -44.5zM846 1258q-41 0 -74.5 13.5t-61.5 31t-52 31t-44 13.5q-28 0 -46 -26t-25 -59h-137q20 102 74.5 163t137.5 61q42 0 74 -13.5t58 -31t50 -31t49 -13.5
q29 0 45.5 20.5t27.5 64.5h134q-20 -104 -76.5 -164t-133.5 -60z" />
    <glyph glyph-name="adieresis" unicode="&#xe4;" horiz-adv-x="1199" 
d="M441 -21q-137 0 -229 69.5t-129 194.5t-10 292q28 167 106.5 291.5t194 193.5t251.5 69q76 0 135 -22.5t99 -62.5t62 -93h5l26 159h210l-178 -1070h-208l27 163h-6q-41 -56 -95 -97t-119.5 -64t-141.5 -23zM516 162q91 0 164.5 46.5t123.5 130.5t68 196q19 113 -3 196.5
t-80.5 129.5t-149.5 46q-87 0 -159.5 -44.5t-121.5 -127t-69 -200.5q-19 -117 3 -200.5t79.5 -128t144.5 -44.5zM924 1250q-55 0 -86.5 37.5t-22.5 91.5t53 91.5t99 37.5t86.5 -37.5t22.5 -91.5q-8 -54 -52.5 -91.5t-99.5 -37.5zM497 1250q-55 0 -86.5 37.5t-22.5 91.5
q8 54 52.5 91.5t98.5 37.5q55 0 87 -37.5t23 -91.5t-53 -91.5t-99 -37.5z" />
    <glyph glyph-name="aring" unicode="&#xe5;" horiz-adv-x="1199" 
d="M441 -21q-137 0 -229 69.5t-129 194.5t-10 292q28 167 106.5 291.5t194 193.5t251.5 69q76 0 135 -22.5t99 -62.5t62 -93h5l26 159h210l-178 -1070h-208l27 163h-6q-41 -56 -95 -97t-119.5 -64t-141.5 -23zM516 162q91 0 164.5 46.5t123.5 130.5t68 196q19 113 -3 196.5
t-80.5 129.5t-149.5 46q-87 0 -159.5 -44.5t-121.5 -127t-69 -200.5q-19 -117 3 -200.5t79.5 -128t144.5 -44.5zM695 1155q-70 0 -121.5 31.5t-76 85.5t-13.5 121t53.5 120.5t104.5 85.5t132 32q71 0 122 -32t75.5 -85.5t13.5 -120.5t-53.5 -121t-104 -85.5t-132.5 -31.5z
M711 1281q51 0 89.5 31.5t45.5 80.5q8 49 -17 80.5t-71 31.5q-51 0 -89.5 -31.5t-46.5 -80.5q-8 -48 17 -80t72 -32z" />
    <glyph glyph-name="ae" unicode="&#xe6;" horiz-adv-x="1801" 
d="M369 -16q-178 0 -268 89t-65 240q16 94 70 160.5t148.5 101.5t228.5 36q55 0 103.5 -2t104 -4t128.5 -2l-15 -150q-74 0 -152 2.5t-149 2.5q-102 0 -174 -32.5t-85 -112.5q-12 -79 30.5 -119t137.5 -40t162.5 34.5t107.5 91t51 121.5l57 336q16 87 -32.5 133.5
t-158.5 46.5q-66 0 -119.5 -21t-89 -59t-49.5 -91l-209 2q22 101 89.5 178.5t171 121t232.5 43.5q131 0 216 -45.5t121 -125.5t18 -184l-77 -464l-17 -1q-37 -86 -106 -150.5t-171 -100.5t-240 -36zM1187 -24q-137 0 -234 52.5t-146.5 158.5t-44.5 266q4 144 48 261.5
t121.5 202t181.5 130.5t229 46q113 0 199.5 -36.5t135.5 -107t49 -170.5q0 -93 -54 -156.5t-161.5 -101t-267.5 -53.5t-373 -16l20 147q186 0 308 11t192 34.5t99.5 61t29.5 90.5q0 61 -48.5 90t-131.5 29q-100 0 -175.5 -40.5t-123.5 -114.5t-65 -176q-5 -29 -10 -60.5
t-8.5 -61t-3.5 -50.5q0 -129 57 -194t178 -65q108 0 186.5 48.5t112.5 123.5l209 -8q-59 -162 -191.5 -251.5t-317.5 -89.5z" />
    <glyph glyph-name="ccedilla" unicode="&#xe7;" horiz-adv-x="1112" 
d="M501 -24q-134 0 -232.5 55.5t-151 156t-52.5 233.5q0 127 41 246.5t119 215.5t188 152.5t248 56.5q93 0 169.5 -27.5t131.5 -77t84.5 -118t27.5 -151.5l-210 -9q-1 43 -14 79.5t-38 63.5t-63.5 42t-91.5 15q-91 0 -161.5 -42.5t-118.5 -113t-73 -157t-25 -174.5
q0 -80 25 -139t76.5 -91.5t127.5 -32.5q55 0 101 15t84 42t66 64.5t47 82.5l209 -12q-25 -82 -73.5 -150.5t-116 -119t-150 -78t-174.5 -27.5zM306 -418l18 110h118q50 0 75.5 15.5t30.5 48.5q6 32 -14.5 48t-69.5 16h-83l70 227h101l-8 -47l-14 -84q89 -3 131.5 -46
t30.5 -116q-15 -88 -83 -130t-178 -42h-125z" />
    <glyph glyph-name="egrave" unicode="&#xe8;" horiz-adv-x="1121" 
d="M503 -24q-134 0 -233.5 51t-153 154.5t-48.5 259.5q3 145 49 264.5t128 206.5t191 134t236 47q111 0 196 -35.5t133 -104t48 -166.5q0 -101 -54 -167.5t-161.5 -105t-268 -55t-375.5 -16.5l26 158q186 0 307.5 10.5t191 32.5t98.5 57t29 83q0 61 -49.5 96t-142.5 35
q-102 0 -173 -42t-115 -112.5t-64.5 -155.5t-21.5 -172q-1 -75 18.5 -139t72.5 -102.5t151 -38.5q107 0 183 46.5t110 122.5l204 -10q-56 -151 -189 -243.5t-323 -92.5zM614 1206l-158 302h225l98 -302h-165z" />
    <glyph glyph-name="eacute" unicode="&#xe9;" horiz-adv-x="1121" 
d="M503 -24q-134 0 -233.5 51t-153 154.5t-48.5 259.5q3 145 49 264.5t128 206.5t191 134t236 47q111 0 196 -35.5t133 -104t48 -166.5q0 -101 -54 -167.5t-161.5 -105t-268 -55t-375.5 -16.5l26 158q186 0 307.5 10.5t191 32.5t98.5 57t29 83q0 61 -49.5 96t-142.5 35
q-102 0 -173 -42t-115 -112.5t-64.5 -155.5t-21.5 -172q-1 -75 18.5 -139t72.5 -102.5t151 -38.5q107 0 183 46.5t110 122.5l204 -10q-56 -151 -189 -243.5t-323 -92.5zM601 1241l196 283h225l-256 -283h-165z" />
    <glyph glyph-name="ecircumflex" unicode="&#xea;" horiz-adv-x="1121" 
d="M503 -24q-134 0 -233.5 51t-153 154.5t-48.5 259.5q3 145 49 264.5t128 206.5t191 134t236 47q111 0 196 -35.5t133 -104t48 -166.5q0 -101 -54 -167.5t-161.5 -105t-268 -55t-375.5 -16.5l26 158q186 0 307.5 10.5t191 32.5t98.5 57t29 83q0 61 -49.5 96t-142.5 35
q-102 0 -173 -42t-115 -112.5t-64.5 -155.5t-21.5 -172q-1 -75 18.5 -139t72.5 -102.5t151 -38.5q107 0 183 46.5t110 122.5l204 -10q-56 -151 -189 -243.5t-323 -92.5zM554 1225h-194v2l286 281h189l194 -281v-2h-195l-111 173z" />
    <glyph glyph-name="edieresis" unicode="&#xeb;" horiz-adv-x="1121" 
d="M503 -24q-134 0 -233.5 51t-153 154.5t-48.5 259.5q3 145 49 264.5t128 206.5t191 134t236 47q111 0 196 -35.5t133 -104t48 -166.5q0 -101 -54 -167.5t-161.5 -105t-268 -55t-375.5 -16.5l26 158q186 0 307.5 10.5t191 32.5t98.5 57t29 83q0 61 -49.5 96t-142.5 35
q-102 0 -173 -42t-115 -112.5t-64.5 -155.5t-21.5 -172q-1 -75 18.5 -139t72.5 -102.5t151 -38.5q107 0 183 46.5t110 122.5l204 -10q-56 -151 -189 -243.5t-323 -92.5zM913 1250q-55 0 -86.5 37.5t-22.5 91.5t53 91.5t99 37.5t86.5 -37.5t22.5 -91.5q-8 -54 -52.5 -91.5
t-99.5 -37.5zM486 1250q-55 0 -86.5 37.5t-22.5 91.5q8 54 52.5 91.5t98.5 37.5q55 0 87 -37.5t23 -91.5t-53 -91.5t-99 -37.5z" />
    <glyph glyph-name="igrave" unicode="&#xec;" horiz-adv-x="465" 
d="M37 0l177 1070h214l-177 -1070h-214zM266 1206l-158 302h225l98 -302h-165z" />
    <glyph glyph-name="iacute" unicode="&#xed;" horiz-adv-x="465" 
d="M37 0l177 1070h214l-177 -1070h-214zM253 1241l196 283h225l-256 -283h-165z" />
    <glyph glyph-name="icircumflex" unicode="&#xee;" horiz-adv-x="465" 
d="M37 0l177 1070h214l-177 -1070h-214zM206 1225h-194v2l286 281h189l194 -281v-2h-195l-111 173z" />
    <glyph glyph-name="idieresis" unicode="&#xef;" horiz-adv-x="465" 
d="M37 0l177 1070h214l-177 -1070h-214zM565 1250q-55 0 -86.5 37.5t-22.5 91.5t53 91.5t99 37.5t86.5 -37.5t22.5 -91.5q-8 -54 -52.5 -91.5t-99.5 -37.5zM138 1250q-55 0 -86.5 37.5t-22.5 91.5q8 54 52.5 91.5t98.5 37.5q55 0 87 -37.5t23 -91.5t-53 -91.5t-99 -37.5z
" />
    <glyph glyph-name="eth" unicode="&#xf0;" horiz-adv-x="1153" 
d="M1084 1412l-675 -307l-20 119l674 306zM483 -24q-153 1 -254.5 69.5t-143 189.5t-16.5 277q26 155 105 275t191.5 188.5t239.5 68.5q80 0 136 -26t92.5 -65.5t55.5 -80.5h16q-21 95 -76 197.5t-151 199.5t-243 174l84 136q126 -56 241 -150t199 -224t120 -293t4 -357
q-30 -181 -113.5 -310.5t-208.5 -198.5t-278 -70zM515 156q98 1 172 47t121 125.5t63 179.5q16 93 -0.5 179t-73 142t-161.5 55q-99 1 -173 -49.5t-120 -133.5t-63 -184q-15 -96 2 -178t74.5 -132t158.5 -51z" />
    <glyph glyph-name="ntilde" unicode="&#xf1;" horiz-adv-x="1165" 
d="M352 612l-102 -612h-213l177 1070h207l-42 -265l-45 6q75 144 175.5 211t227.5 67q113 0 194 -49t117.5 -144t12.5 -234l-109 -662h-213l107 650q21 126 -28 188t-154 62q-75 0 -140.5 -32t-110.5 -95.5t-61 -160.5zM836 1258q-41 0 -74.5 13.5t-61.5 31t-52 31t-44 13.5
q-28 0 -46 -26t-25 -59h-137q20 102 74.5 163t137.5 61q42 0 74 -13.5t58 -31t50 -31t49 -13.5q29 0 45.5 20.5t27.5 64.5h134q-20 -104 -76.5 -164t-133.5 -60z" />
    <glyph glyph-name="ograve" unicode="&#xf2;" 
d="M503 -24q-136 0 -234 56t-151 157t-53 235q0 130 42 250t121 214t189 149t246 55t234 -56.5t150.5 -158t52.5 -236.5q0 -129 -42 -248.5t-120.5 -213.5t-188.5 -148.5t-246 -54.5zM511 159q93 0 163 43t117.5 114.5t71.5 157t24 170.5q0 81 -26.5 140.5t-78.5 91.5
t-128 32q-90 0 -160 -42.5t-118 -113.5t-73 -157t-25 -174q0 -120 60 -191t173 -71zM616 1206l-158 302h225l98 -302h-165z" />
    <glyph glyph-name="oacute" unicode="&#xf3;" 
d="M503 -24q-136 0 -234 56t-151 157t-53 235q0 130 42 250t121 214t189 149t246 55t234 -56.5t150.5 -158t52.5 -236.5q0 -129 -42 -248.5t-120.5 -213.5t-188.5 -148.5t-246 -54.5zM511 159q93 0 163 43t117.5 114.5t71.5 157t24 170.5q0 81 -26.5 140.5t-78.5 91.5
t-128 32q-90 0 -160 -42.5t-118 -113.5t-73 -157t-25 -174q0 -120 60 -191t173 -71zM603 1241l196 283h225l-256 -283h-165z" />
    <glyph glyph-name="ocircumflex" unicode="&#xf4;" 
d="M503 -24q-136 0 -234 56t-151 157t-53 235q0 130 42 250t121 214t189 149t246 55t234 -56.5t150.5 -158t52.5 -236.5q0 -129 -42 -248.5t-120.5 -213.5t-188.5 -148.5t-246 -54.5zM511 159q93 0 163 43t117.5 114.5t71.5 157t24 170.5q0 81 -26.5 140.5t-78.5 91.5
t-128 32q-90 0 -160 -42.5t-118 -113.5t-73 -157t-25 -174q0 -120 60 -191t173 -71zM556 1225h-194v2l286 281h189l194 -281v-2h-195l-111 173z" />
    <glyph glyph-name="otilde" unicode="&#xf5;" 
d="M503 -24q-136 0 -234 56t-151 157t-53 235q0 130 42 250t121 214t189 149t246 55t234 -56.5t150.5 -158t52.5 -236.5q0 -129 -42 -248.5t-120.5 -213.5t-188.5 -148.5t-246 -54.5zM511 159q93 0 163 43t117.5 114.5t71.5 157t24 170.5q0 81 -26.5 140.5t-78.5 91.5
t-128 32q-90 0 -160 -42.5t-118 -113.5t-73 -157t-25 -174q0 -120 60 -191t173 -71zM837 1258q-41 0 -74.5 13.5t-61.5 31t-52 31t-44 13.5q-28 0 -46 -26t-25 -59h-137q20 102 74.5 163t137.5 61q42 0 74 -13.5t58 -31t50 -31t49 -13.5q29 0 45.5 20.5t27.5 64.5h134
q-20 -104 -76.5 -164t-133.5 -60z" />
    <glyph glyph-name="odieresis" unicode="&#xf6;" 
d="M503 -24q-136 0 -234 56t-151 157t-53 235q0 130 42 250t121 214t189 149t246 55t234 -56.5t150.5 -158t52.5 -236.5q0 -129 -42 -248.5t-120.5 -213.5t-188.5 -148.5t-246 -54.5zM511 159q93 0 163 43t117.5 114.5t71.5 157t24 170.5q0 81 -26.5 140.5t-78.5 91.5
t-128 32q-90 0 -160 -42.5t-118 -113.5t-73 -157t-25 -174q0 -120 60 -191t173 -71zM915 1250q-55 0 -86.5 37.5t-22.5 91.5t53 91.5t99 37.5t86.5 -37.5t22.5 -91.5q-8 -54 -52.5 -91.5t-99.5 -37.5zM488 1250q-55 0 -86.5 37.5t-22.5 91.5q8 54 52.5 91.5t98.5 37.5
q55 0 87 -37.5t23 -91.5t-53 -91.5t-99 -37.5z" />
    <glyph glyph-name="divide" unicode="&#xf7;" horiz-adv-x="1319" 
d="M1163 681l-32 -190h-958l32 190h958zM582 57q-61 0 -96.5 43.5t-25.5 104.5q5 38 29.5 70t60 51t74.5 18q59 1 95 -41.5t26 -103.5q-8 -59 -56.5 -100.5t-106.5 -41.5zM710 829q-40 0 -70.5 19.5t-45 53t-7.5 74.5q9 58 57.5 98.5t107.5 41.5q60 -1 95.5 -43t25.5 -103
q-10 -59 -57.5 -100.5t-105.5 -40.5z" />
    <glyph glyph-name="oslash" unicode="&#xf8;" 
d="M503 -24q-136 0 -234 56t-151 157t-53 235q0 130 42 250t121 214t189 149t246 55t234 -56.5t150.5 -158t52.5 -236.5q0 -129 -42 -248.5t-120.5 -213.5t-188.5 -148.5t-246 -54.5zM511 159q93 0 163 43t117.5 114.5t71.5 157t24 170.5q0 81 -26.5 140.5t-78.5 91.5
t-128 32q-90 0 -160 -42.5t-118 -113.5t-73 -157t-25 -174q0 -120 60 -191t173 -71zM66 -47l-91 94l1124 1069l91 -93z" />
    <glyph glyph-name="ugrave" unicode="&#xf9;" 
d="M416 -19q-109 0 -188 47t-113 140.5t-12 231.5l111 670h214l-107 -643q-20 -125 30.5 -191t159.5 -66q72 0 135 30t107.5 92t59.5 158l103 620h213l-177 -1070h-208l43 265h43q-74 -144 -178.5 -214t-235.5 -70zM617 1206l-158 302h225l98 -302h-165z" />
    <glyph glyph-name="uacute" unicode="&#xfa;" 
d="M416 -19q-109 0 -188 47t-113 140.5t-12 231.5l111 670h214l-107 -643q-20 -125 30.5 -191t159.5 -66q72 0 135 30t107.5 92t59.5 158l103 620h213l-177 -1070h-208l43 265h43q-74 -144 -178.5 -214t-235.5 -70zM604 1241l196 283h225l-256 -283h-165z" />
    <glyph glyph-name="ucircumflex" unicode="&#xfb;" 
d="M416 -19q-109 0 -188 47t-113 140.5t-12 231.5l111 670h214l-107 -643q-20 -125 30.5 -191t159.5 -66q72 0 135 30t107.5 92t59.5 158l103 620h213l-177 -1070h-208l43 265h43q-74 -144 -178.5 -214t-235.5 -70zM557 1225h-194v2l286 281h189l194 -281v-2h-195l-111 173z
" />
    <glyph glyph-name="udieresis" unicode="&#xfc;" 
d="M416 -19q-109 0 -188 47t-113 140.5t-12 231.5l111 670h214l-107 -643q-20 -125 30.5 -191t159.5 -66q72 0 135 30t107.5 92t59.5 158l103 620h213l-177 -1070h-208l43 265h43q-74 -144 -178.5 -214t-235.5 -70zM915 1250q-55 0 -86.5 37.5t-22.5 91.5t53 91.5t99 37.5
t86.5 -37.5t22.5 -91.5q-8 -54 -52.5 -91.5t-99.5 -37.5zM488 1250q-55 0 -86.5 37.5t-22.5 91.5q8 54 52.5 91.5t98.5 37.5q55 0 87 -37.5t23 -91.5t-53 -91.5t-99 -37.5z" />
    <glyph glyph-name="yacute" unicode="&#xfd;" horiz-adv-x="1099" 
d="M-24 -414l41 178l94 -2q39 -3 70 8.5t58 40.5t52 77l61 117l-235 1065h219l115 -592q17 -87 29.5 -174t24.5 -173h-60q40 86 82 173t87 174l310 592h235l-688 -1248q-42 -78 -97 -132t-121 -82t-140 -28q-37 0 -72 2t-65 4zM560 1241l196 283h225l-256 -283h-165z" />
    <glyph glyph-name="thorn" unicode="&#xfe;" horiz-adv-x="1199" 
d="M574 -21q-76 0 -133 23t-96.5 64t-62.5 97h-5l-96 -581h-214l316 1908h214l-95 -579h4q40 53 92.5 93t118 62.5t141.5 22.5q137 0 229 -69t129 -193.5t10 -291.5q-28 -167 -106.5 -292.5t-193.5 -194.5t-252 -69zM560 162q88 0 159.5 44.5t121 128t68.5 200.5
q20 118 -1.5 200.5t-78.5 127t-145 44.5q-91 0 -165 -46t-123.5 -129.5t-68.5 -196.5q-18 -112 3.5 -196t80 -130.5t149.5 -46.5z" />
    <glyph glyph-name="ydieresis" unicode="&#xff;" horiz-adv-x="1099" 
d="M-24 -414l41 178l94 -2q39 -3 70 8.5t58 40.5t52 77l61 117l-235 1065h219l115 -592q17 -87 29.5 -174t24.5 -173h-60q40 86 82 173t87 174l310 592h235l-688 -1248q-42 -78 -97 -132t-121 -82t-140 -28q-37 0 -72 2t-65 4zM872 1250q-55 0 -86.5 37.5t-22.5 91.5
t53 91.5t99 37.5t86.5 -37.5t22.5 -91.5q-8 -54 -52.5 -91.5t-99.5 -37.5zM445 1250q-55 0 -86.5 37.5t-22.5 91.5q8 54 52.5 91.5t98.5 37.5q55 0 87 -37.5t23 -91.5t-53 -91.5t-99 -37.5z" />
    <glyph glyph-name="Amacron" unicode="&#x100;" horiz-adv-x="1395" 
d="M-64 0l785 1490h271l291 -1490h-234l-148 838q-17 103 -36.5 233.5t-45.5 319.5h59q-86 -188 -148 -318t-116 -235l-431 -838h-247zM297 388l32 189h752l-31 -189h-753zM1199 1857l-26 -157h-561l26 157h561z" />
    <glyph glyph-name="amacron" unicode="&#x101;" horiz-adv-x="1199" 
d="M441 -21q-137 0 -229 69.5t-129 194.5t-10 292q28 167 106.5 291.5t194 193.5t251.5 69q76 0 135 -22.5t99 -62.5t62 -93h5l26 159h210l-178 -1070h-208l27 163h-6q-41 -56 -95 -97t-119.5 -64t-141.5 -23zM516 162q91 0 164.5 46.5t123.5 130.5t68 196q19 113 -3 196.5
t-80.5 129.5t-149.5 46q-87 0 -159.5 -44.5t-121.5 -127t-69 -200.5q-19 -117 3 -200.5t79.5 -128t144.5 -44.5zM1022 1437l-26 -157h-561l26 157h561z" />
    <glyph glyph-name="Abreve" unicode="&#x102;" horiz-adv-x="1395" 
d="M-64 0l785 1490h271l291 -1490h-234l-148 838q-17 103 -36.5 233.5t-45.5 319.5h59q-86 -188 -148 -318t-116 -235l-431 -838h-247zM297 388l32 189h752l-31 -189h-753zM881 1637q-85 0 -147.5 38.5t-92 104.5t-16.5 147h145q-12 -68 26 -110.5t109 -42.5q46 0 85.5 19.5
t65.5 54t34 79.5h145q-13 -81 -64.5 -147t-127 -104.5t-162.5 -38.5z" />
    <glyph glyph-name="abreve" unicode="&#x103;" horiz-adv-x="1199" 
d="M441 -21q-137 0 -229 69.5t-129 194.5t-10 292q28 167 106.5 291.5t194 193.5t251.5 69q76 0 135 -22.5t99 -62.5t62 -93h5l26 159h210l-178 -1070h-208l27 163h-6q-41 -56 -95 -97t-119.5 -64t-141.5 -23zM516 162q91 0 164.5 46.5t123.5 130.5t68 196q19 113 -3 196.5
t-80.5 129.5t-149.5 46q-87 0 -159.5 -44.5t-121.5 -127t-69 -200.5q-19 -117 3 -200.5t79.5 -128t144.5 -44.5zM704 1217q-85 0 -147.5 38.5t-92 104.5t-16.5 147h145q-12 -68 26 -110.5t109 -42.5q46 0 85.5 19.5t65.5 54t34 79.5h145q-13 -81 -64.5 -147t-127 -104.5
t-162.5 -38.5z" />
    <glyph glyph-name="Aogonek" unicode="&#x104;" horiz-adv-x="1395" 
d="M-64 0l785 1490h271l291 -1490h-234l-148 838q-17 103 -36.5 233.5t-45.5 319.5h59q-86 -188 -148 -318t-116 -235l-431 -838h-247zM297 388l32 189h752l-31 -189h-753zM1081 -422q-104 0 -160 49.5t-39 145.5q13 78 63 136.5t129 117.5l209 -27q-92 -65 -133.5 -106.5
t-48.5 -84.5q-6 -33 11.5 -51.5t60.5 -18.5q17 0 35.5 2t32.5 4l-12 -155q-32 -5 -71.5 -8.5t-76.5 -3.5z" />
    <glyph glyph-name="aogonek" unicode="&#x105;" horiz-adv-x="1199" 
d="M441 -21q-137 0 -229 69.5t-129 194.5t-10 292q28 167 106.5 291.5t194 193.5t251.5 69q76 0 135 -22.5t99 -62.5t62 -93h5l26 159h210l-178 -1070h-208l27 163h-6q-41 -56 -95 -97t-119.5 -64t-141.5 -23zM516 162q91 0 164.5 46.5t123.5 130.5t68 196q19 113 -3 196.5
t-80.5 129.5t-149.5 46q-87 0 -159.5 -44.5t-121.5 -127t-69 -200.5q-19 -117 3 -200.5t79.5 -128t144.5 -44.5zM786 -420q-105 0 -159 50t-38 145q12 73 60.5 129.5t128.5 111.5l206 -16q-89 -66 -131.5 -106t-49.5 -83q-6 -34 11.5 -52t60.5 -18q17 0 35 1.5t33 4.5
l-12 -156q-32 -4 -70 -7.5t-75 -3.5z" />
    <glyph glyph-name="Cacute" unicode="&#x106;" horiz-adv-x="1488" 
d="M698 -23q-180 0 -312 75.5t-203.5 213t-71.5 323.5q0 179 58 345t165.5 297t258 206.5t335.5 75.5q122 0 223.5 -35.5t174.5 -103t113.5 -162.5t39.5 -215h-225q-4 75 -29 133t-68.5 98t-103 60.5t-133.5 20.5q-138 0 -247 -61t-184.5 -164.5t-115.5 -231.5t-40 -261
q0 -127 44 -219t128.5 -141.5t203.5 -49.5q77 0 147.5 20.5t130.5 60t106.5 97.5t76.5 133h226q-38 -117 -106.5 -212t-161 -163t-201.5 -104t-229 -36zM854 1661l196 283h225l-256 -283h-165z" />
    <glyph glyph-name="cacute" unicode="&#x107;" horiz-adv-x="1112" 
d="M501 -24q-134 0 -232.5 55.5t-151 156t-52.5 233.5q0 127 41 246.5t119 215.5t188 152.5t248 56.5q93 0 169.5 -27.5t131.5 -77t84.5 -118t27.5 -151.5l-210 -9q-1 43 -14 79.5t-38 63.5t-63.5 42t-91.5 15q-91 0 -161.5 -42.5t-118.5 -113t-73 -157t-25 -174.5
q0 -80 25 -139t76.5 -91.5t127.5 -32.5q55 0 101 15t84 42t66 64.5t47 82.5l209 -12q-25 -82 -73.5 -150.5t-116 -119t-150 -78t-174.5 -27.5zM596 1241l196 283h225l-256 -283h-165z" />
    <glyph glyph-name="Ccircumflex" unicode="&#x108;" horiz-adv-x="1488" 
d="M698 -23q-180 0 -312 75.5t-203.5 213t-71.5 323.5q0 179 58 345t165.5 297t258 206.5t335.5 75.5q122 0 223.5 -35.5t174.5 -103t113.5 -162.5t39.5 -215h-225q-4 75 -29 133t-68.5 98t-103 60.5t-133.5 20.5q-138 0 -247 -61t-184.5 -164.5t-115.5 -231.5t-40 -261
q0 -127 44 -219t128.5 -141.5t203.5 -49.5q77 0 147.5 20.5t130.5 60t106.5 97.5t76.5 133h226q-38 -117 -106.5 -212t-161 -163t-201.5 -104t-229 -36zM807 1645h-194v2l286 281h189l194 -281v-2h-195l-111 173z" />
    <glyph glyph-name="ccircumflex" unicode="&#x109;" horiz-adv-x="1112" 
d="M501 -24q-134 0 -232.5 55.5t-151 156t-52.5 233.5q0 127 41 246.5t119 215.5t188 152.5t248 56.5q93 0 169.5 -27.5t131.5 -77t84.5 -118t27.5 -151.5l-210 -9q-1 43 -14 79.5t-38 63.5t-63.5 42t-91.5 15q-91 0 -161.5 -42.5t-118.5 -113t-73 -157t-25 -174.5
q0 -80 25 -139t76.5 -91.5t127.5 -32.5q55 0 101 15t84 42t66 64.5t47 82.5l209 -12q-25 -82 -73.5 -150.5t-116 -119t-150 -78t-174.5 -27.5zM549 1225h-194v2l286 281h189l194 -281v-2h-195l-111 173z" />
    <glyph glyph-name="Cdotaccent" unicode="&#x10a;" horiz-adv-x="1488" 
d="M698 -23q-180 0 -312 75.5t-203.5 213t-71.5 323.5q0 179 58 345t165.5 297t258 206.5t335.5 75.5q122 0 223.5 -35.5t174.5 -103t113.5 -162.5t39.5 -215h-225q-4 75 -29 133t-68.5 98t-103 60.5t-133.5 20.5q-138 0 -247 -61t-184.5 -164.5t-115.5 -231.5t-40 -261
q0 -127 44 -219t128.5 -141.5t203.5 -49.5q77 0 147.5 20.5t130.5 60t106.5 97.5t76.5 133h226q-38 -117 -106.5 -212t-161 -163t-201.5 -104t-229 -36zM951 1669q-57 0 -89 37.5t-24 92.5q9 55 54 92.5t102 37.5q56 0 89 -38t24 -92q-8 -55 -54 -92.5t-102 -37.5z" />
    <glyph glyph-name="cdotaccent" unicode="&#x10b;" horiz-adv-x="1112" 
d="M501 -24q-134 0 -232.5 55.5t-151 156t-52.5 233.5q0 127 41 246.5t119 215.5t188 152.5t248 56.5q93 0 169.5 -27.5t131.5 -77t84.5 -118t27.5 -151.5l-210 -9q-1 43 -14 79.5t-38 63.5t-63.5 42t-91.5 15q-91 0 -161.5 -42.5t-118.5 -113t-73 -157t-25 -174.5
q0 -80 25 -139t76.5 -91.5t127.5 -32.5q55 0 101 15t84 42t66 64.5t47 82.5l209 -12q-25 -82 -73.5 -150.5t-116 -119t-150 -78t-174.5 -27.5zM694 1249q-57 0 -89 37.5t-24 92.5q9 55 54 92.5t102 37.5q56 0 89 -38t24 -92q-8 -55 -54 -92.5t-102 -37.5z" />
    <glyph glyph-name="Ccaron" unicode="&#x10c;" horiz-adv-x="1488" 
d="M698 -23q-180 0 -312 75.5t-203.5 213t-71.5 323.5q0 179 58 345t165.5 297t258 206.5t335.5 75.5q122 0 223.5 -35.5t174.5 -103t113.5 -162.5t39.5 -215h-225q-4 75 -29 133t-68.5 98t-103 60.5t-133.5 20.5q-138 0 -247 -61t-184.5 -164.5t-115.5 -231.5t-40 -261
q0 -127 44 -219t128.5 -141.5t203.5 -49.5q77 0 147.5 20.5t130.5 60t106.5 97.5t76.5 133h226q-38 -117 -106.5 -212t-161 -163t-201.5 -104t-229 -36zM853 1928l112 -173l168 173h196l-1 -2l-288 -281h-189l-192 281l1 2h193z" />
    <glyph glyph-name="ccaron" unicode="&#x10d;" horiz-adv-x="1112" 
d="M501 -24q-134 0 -232.5 55.5t-151 156t-52.5 233.5q0 127 41 246.5t119 215.5t188 152.5t248 56.5q93 0 169.5 -27.5t131.5 -77t84.5 -118t27.5 -151.5l-210 -9q-1 43 -14 79.5t-38 63.5t-63.5 42t-91.5 15q-91 0 -161.5 -42.5t-118.5 -113t-73 -157t-25 -174.5
q0 -80 25 -139t76.5 -91.5t127.5 -32.5q55 0 101 15t84 42t66 64.5t47 82.5l209 -12q-25 -82 -73.5 -150.5t-116 -119t-150 -78t-174.5 -27.5zM596 1508l112 -173l168 173h196l-1 -2l-288 -281h-189l-192 281l1 2h193z" />
    <glyph glyph-name="Dcaron" unicode="&#x10e;" horiz-adv-x="1433" 
d="M571 0h-402l32 195h354q173 0 297 65.5t200 189t105 297.5q29 173 0 296t-121.5 187.5t-258.5 64.5h-401l32 195h377q220 0 366 -89.5t207 -256t22 -397.5q-38 -232 -142.5 -399.5t-272 -257.5t-394.5 -90zM525 1490l-247 -1490h-224l247 1490h224zM681 1928l112 -173
l168 173h196l-1 -2l-288 -281h-189l-192 281l1 2h193z" />
    <glyph glyph-name="dcaron" unicode="&#x10f;" horiz-adv-x="1392" 
d="M453 -21q-181 0 -285 118t-104 316q0 126 37.5 246t108.5 217.5t172.5 155t229.5 57.5q79 0 139.5 -24t102.5 -66t64 -96h3l97 587h213l-246 -1490h-209l26 161h-5q-41 -59 -92.5 -99.5t-115 -61.5t-136.5 -21zM503 162q90 0 160 42t119 112t75 155.5t26 172.5
q0 122 -60 192.5t-172 70.5q-90 0 -159.5 -42.5t-117 -113t-72 -156.5t-24.5 -175q0 -124 59.5 -191t165.5 -67zM1320 1182l63 380h193l-114 -380h-142z" />
    <glyph glyph-name="Dcroat" unicode="&#x110;" horiz-adv-x="1504" 
d="M642 0h-402l32 195h354q173 0 297 65.5t200 189t105 297.5q29 173 0 296t-121.5 187.5t-258.5 64.5h-401l32 195h377q220 0 366 -89.5t207 -256t22 -397.5q-38 -232 -142.5 -399.5t-272 -257.5t-394.5 -90zM596 1490l-247 -1490h-224l247 1490h224zM43 657l29 176h779
l-29 -176h-779z" />
    <glyph glyph-name="dcroat" unicode="&#x111;" horiz-adv-x="1199" 
d="M453 -21q-181 0 -285 118t-104 316q0 126 37.5 246t108.5 217.5t172.5 155t229.5 57.5q79 0 139.5 -24t102.5 -66t64 -96h3l97 587h213l-246 -1490h-209l26 161h-5q-41 -59 -92.5 -99.5t-115 -61.5t-136.5 -21zM503 162q90 0 160 42t119 112t75 155.5t26 172.5
q0 122 -60 192.5t-172 70.5q-90 0 -159.5 -42.5t-117 -113t-72 -156.5t-24.5 -175q0 -124 59.5 -191t165.5 -67zM650 1192l26 158h678l-26 -158h-678z" />
    <glyph glyph-name="Emacron" unicode="&#x112;" horiz-adv-x="1210" 
d="M54 0l247 1490h988l-33 -195h-764l-72 -441h708l-33 -192h-708l-77 -467h765l-32 -195h-989zM1137 1857l-26 -157h-561l26 157h561z" />
    <glyph glyph-name="emacron" unicode="&#x113;" horiz-adv-x="1121" 
d="M503 -24q-134 0 -233.5 51t-153 154.5t-48.5 259.5q3 145 49 264.5t128 206.5t191 134t236 47q111 0 196 -35.5t133 -104t48 -166.5q0 -101 -54 -167.5t-161.5 -105t-268 -55t-375.5 -16.5l26 158q186 0 307.5 10.5t191 32.5t98.5 57t29 83q0 61 -49.5 96t-142.5 35
q-102 0 -173 -42t-115 -112.5t-64.5 -155.5t-21.5 -172q-1 -75 18.5 -139t72.5 -102.5t151 -38.5q107 0 183 46.5t110 122.5l204 -10q-56 -151 -189 -243.5t-323 -92.5zM1010 1437l-26 -157h-561l26 157h561z" />
    <glyph glyph-name="Ebreve" unicode="&#x114;" horiz-adv-x="1210" 
d="M54 0l247 1490h988l-33 -195h-764l-72 -441h708l-33 -192h-708l-77 -467h765l-32 -195h-989zM819 1637q-85 0 -147.5 38.5t-92 104.5t-16.5 147h145q-12 -68 26 -110.5t109 -42.5q46 0 85.5 19.5t65.5 54t34 79.5h145q-13 -81 -64.5 -147t-127 -104.5t-162.5 -38.5z" />
    <glyph glyph-name="ebreve" unicode="&#x115;" horiz-adv-x="1121" 
d="M503 -24q-134 0 -233.5 51t-153 154.5t-48.5 259.5q3 145 49 264.5t128 206.5t191 134t236 47q111 0 196 -35.5t133 -104t48 -166.5q0 -101 -54 -167.5t-161.5 -105t-268 -55t-375.5 -16.5l26 158q186 0 307.5 10.5t191 32.5t98.5 57t29 83q0 61 -49.5 96t-142.5 35
q-102 0 -173 -42t-115 -112.5t-64.5 -155.5t-21.5 -172q-1 -75 18.5 -139t72.5 -102.5t151 -38.5q107 0 183 46.5t110 122.5l204 -10q-56 -151 -189 -243.5t-323 -92.5zM693 1217q-85 0 -147.5 38.5t-92 104.5t-16.5 147h145q-12 -68 26 -110.5t109 -42.5q46 0 85.5 19.5
t65.5 54t34 79.5h145q-13 -81 -64.5 -147t-127 -104.5t-162.5 -38.5z" />
    <glyph glyph-name="Edotaccent" unicode="&#x116;" horiz-adv-x="1210" 
d="M54 0l247 1490h988l-33 -195h-764l-72 -441h708l-33 -192h-708l-77 -467h765l-32 -195h-989zM825 1669q-57 0 -89 37.5t-24 92.5q9 55 54 92.5t102 37.5q56 0 89 -38t24 -92q-8 -55 -54 -92.5t-102 -37.5z" />
    <glyph glyph-name="edotaccent" unicode="&#x117;" horiz-adv-x="1121" 
d="M503 -24q-134 0 -233.5 51t-153 154.5t-48.5 259.5q3 145 49 264.5t128 206.5t191 134t236 47q111 0 196 -35.5t133 -104t48 -166.5q0 -101 -54 -167.5t-161.5 -105t-268 -55t-375.5 -16.5l26 158q186 0 307.5 10.5t191 32.5t98.5 57t29 83q0 61 -49.5 96t-142.5 35
q-102 0 -173 -42t-115 -112.5t-64.5 -155.5t-21.5 -172q-1 -75 18.5 -139t72.5 -102.5t151 -38.5q107 0 183 46.5t110 122.5l204 -10q-56 -151 -189 -243.5t-323 -92.5zM699 1249q-57 0 -89 37.5t-24 92.5q9 55 54 92.5t102 37.5q56 0 89 -38t24 -92q-8 -55 -54 -92.5
t-102 -37.5z" />
    <glyph glyph-name="Eogonek" unicode="&#x118;" horiz-adv-x="1210" 
d="M54 0l247 1490h988l-33 -195h-764l-72 -441h708l-33 -192h-708l-77 -467h765l-32 -195h-989zM844 -422q-104 0 -158.5 50t-38.5 145q13 78 70 143t169 128l157 -44q-91 -65 -133 -106.5t-49 -84.5q-6 -34 11.5 -52t60.5 -18q17 0 35.5 2t32.5 4l-12 -155q-31 -5 -69 -8.5
t-76 -3.5z" />
    <glyph glyph-name="eogonek" unicode="&#x119;" horiz-adv-x="1121" 
d="M503 -24q-134 0 -233.5 51t-153 154.5t-48.5 259.5q3 145 49 264.5t128 206.5t191 134t236 47q111 0 196 -35.5t133 -104t48 -166.5q0 -101 -54 -167.5t-161.5 -105t-268 -55t-375.5 -16.5l26 158q186 0 307.5 10.5t191 32.5t98.5 57t29 83q0 61 -49.5 96t-142.5 35
q-102 0 -173 -42t-115 -112.5t-64.5 -155.5t-21.5 -172q-1 -75 18.5 -139t72.5 -102.5t151 -38.5q107 0 183 46.5t110 122.5l204 -10q-56 -151 -189 -243.5t-323 -92.5zM679 -421q-115 0 -169.5 49t-38.5 143q13 77 61 140.5t108 126.5l375 274q-28 -79 -80 -148
t-106.5 -130.5t-95.5 -117t-49 -106.5q-5 -33 12 -51.5t71 -18.5q17 0 35 2t33 4l-12 -155q-32 -5 -69.5 -8.5t-74.5 -3.5z" />
    <glyph glyph-name="Ecaron" unicode="&#x11a;" horiz-adv-x="1210" 
d="M54 0l247 1490h988l-33 -195h-764l-72 -441h708l-33 -192h-708l-77 -467h765l-32 -195h-989zM727 1928l112 -173l168 173h196l-1 -2l-288 -281h-189l-192 281l1 2h193z" />
    <glyph glyph-name="ecaron" unicode="&#x11b;" horiz-adv-x="1121" 
d="M503 -24q-134 0 -233.5 51t-153 154.5t-48.5 259.5q3 145 49 264.5t128 206.5t191 134t236 47q111 0 196 -35.5t133 -104t48 -166.5q0 -101 -54 -167.5t-161.5 -105t-268 -55t-375.5 -16.5l26 158q186 0 307.5 10.5t191 32.5t98.5 57t29 83q0 61 -49.5 96t-142.5 35
q-102 0 -173 -42t-115 -112.5t-64.5 -155.5t-21.5 -172q-1 -75 18.5 -139t72.5 -102.5t151 -38.5q107 0 183 46.5t110 122.5l204 -10q-56 -151 -189 -243.5t-323 -92.5zM601 1508l112 -173l168 173h196l-1 -2l-288 -281h-189l-192 281l1 2h193z" />
    <glyph glyph-name="Gcircumflex" unicode="&#x11c;" horiz-adv-x="1507" 
d="M696 -23q-179 0 -310.5 76.5t-203 214t-71.5 322.5q0 178 58.5 343.5t166 296.5t256.5 207t330 76q122 0 224.5 -36.5t177.5 -104t115.5 -160.5t39.5 -206h-227q-4 68 -28.5 124t-67.5 96t-103.5 61.5t-136.5 21.5q-136 0 -243.5 -61.5t-183.5 -165t-116 -230.5t-40 -258
q0 -192 99.5 -302.5t274.5 -110.5q121 0 226 51.5t176.5 144t91.5 212.5l59 -13h-430l31 185h588l-30 -178q-22 -134 -87 -245.5t-162.5 -192.5t-218.5 -124.5t-255 -43.5zM806 1645h-194v2l286 281h189l194 -281v-2h-195l-111 173z" />
    <glyph glyph-name="gcircumflex" unicode="&#x11d;" horiz-adv-x="1199" 
d="M439 -434q-131 0 -225 37.5t-145 107.5t-53 165l203 16q7 -46 33.5 -80.5t73.5 -53.5t116 -19q133 0 223 70.5t110 198.5l26 166h-5q-42 -56 -93 -96.5t-112 -62.5t-136 -22q-120 0 -207.5 52.5t-135 149t-47.5 226.5q0 125 37.5 243.5t109 214.5t172.5 153t228 57
q59 0 108 -13.5t88 -38t67 -59t45 -77.5l5 1l27 168h210l-177 -1070q-25 -157 -104.5 -252.5t-194.5 -138.5t-247 -43zM505 174q90 0 160 41t118.5 109t74 152t25.5 171q0 121 -60 191t-172 70q-89 0 -158.5 -41.5t-117 -111t-72 -155t-24.5 -173.5q0 -123 59.5 -188
t166.5 -65zM549 1225h-194v2l286 281h189l194 -281v-2h-195l-111 173z" />
    <glyph glyph-name="Gbreve" unicode="&#x11e;" horiz-adv-x="1507" 
d="M696 -23q-179 0 -310.5 76.5t-203 214t-71.5 322.5q0 178 58.5 343.5t166 296.5t256.5 207t330 76q122 0 224.5 -36.5t177.5 -104t115.5 -160.5t39.5 -206h-227q-4 68 -28.5 124t-67.5 96t-103.5 61.5t-136.5 21.5q-136 0 -243.5 -61.5t-183.5 -165t-116 -230.5t-40 -258
q0 -192 99.5 -302.5t274.5 -110.5q121 0 226 51.5t176.5 144t91.5 212.5l59 -13h-430l31 185h588l-30 -178q-22 -134 -87 -245.5t-162.5 -192.5t-218.5 -124.5t-255 -43.5zM945 1637q-85 0 -147.5 38.5t-92 104.5t-16.5 147h145q-12 -68 26 -110.5t109 -42.5q46 0 85.5 19.5
t65.5 54t34 79.5h145q-13 -81 -64.5 -147t-127 -104.5t-162.5 -38.5z" />
    <glyph glyph-name="gbreve" unicode="&#x11f;" horiz-adv-x="1199" 
d="M439 -434q-131 0 -225 37.5t-145 107.5t-53 165l203 16q7 -46 33.5 -80.5t73.5 -53.5t116 -19q133 0 223 70.5t110 198.5l26 166h-5q-42 -56 -93 -96.5t-112 -62.5t-136 -22q-120 0 -207.5 52.5t-135 149t-47.5 226.5q0 125 37.5 243.5t109 214.5t172.5 153t228 57
q59 0 108 -13.5t88 -38t67 -59t45 -77.5l5 1l27 168h210l-177 -1070q-25 -157 -104.5 -252.5t-194.5 -138.5t-247 -43zM505 174q90 0 160 41t118.5 109t74 152t25.5 171q0 121 -60 191t-172 70q-89 0 -158.5 -41.5t-117 -111t-72 -155t-24.5 -173.5q0 -123 59.5 -188
t166.5 -65zM687 1217q-85 0 -147.5 38.5t-92 104.5t-16.5 147h145q-12 -68 26 -110.5t109 -42.5q46 0 85.5 19.5t65.5 54t34 79.5h145q-13 -81 -64.5 -147t-127 -104.5t-162.5 -38.5z" />
    <glyph glyph-name="Gdotaccent" unicode="&#x120;" horiz-adv-x="1507" 
d="M696 -23q-179 0 -310.5 76.5t-203 214t-71.5 322.5q0 178 58.5 343.5t166 296.5t256.5 207t330 76q122 0 224.5 -36.5t177.5 -104t115.5 -160.5t39.5 -206h-227q-4 68 -28.5 124t-67.5 96t-103.5 61.5t-136.5 21.5q-136 0 -243.5 -61.5t-183.5 -165t-116 -230.5t-40 -258
q0 -192 99.5 -302.5t274.5 -110.5q121 0 226 51.5t176.5 144t91.5 212.5l59 -13h-430l31 185h588l-30 -178q-22 -134 -87 -245.5t-162.5 -192.5t-218.5 -124.5t-255 -43.5zM951 1669q-57 0 -89 37.5t-24 92.5q9 55 54 92.5t102 37.5q56 0 89 -38t24 -92q-8 -55 -54 -92.5
t-102 -37.5z" />
    <glyph glyph-name="gdotaccent" unicode="&#x121;" horiz-adv-x="1199" 
d="M439 -434q-131 0 -225 37.5t-145 107.5t-53 165l203 16q7 -46 33.5 -80.5t73.5 -53.5t116 -19q133 0 223 70.5t110 198.5l26 166h-5q-42 -56 -93 -96.5t-112 -62.5t-136 -22q-120 0 -207.5 52.5t-135 149t-47.5 226.5q0 125 37.5 243.5t109 214.5t172.5 153t228 57
q59 0 108 -13.5t88 -38t67 -59t45 -77.5l5 1l27 168h210l-177 -1070q-25 -157 -104.5 -252.5t-194.5 -138.5t-247 -43zM505 174q90 0 160 41t118.5 109t74 152t25.5 171q0 121 -60 191t-172 70q-89 0 -158.5 -41.5t-117 -111t-72 -155t-24.5 -173.5q0 -123 59.5 -188
t166.5 -65zM693 1249q-57 0 -89 37.5t-24 92.5q9 55 54 92.5t102 37.5q56 0 89 -38t24 -92q-8 -55 -54 -92.5t-102 -37.5z" />
    <glyph glyph-name="uni0122" unicode="&#x122;" horiz-adv-x="1507" 
d="M696 -23q-179 0 -310.5 76.5t-203 214t-71.5 322.5q0 178 58.5 343.5t166 296.5t256.5 207t330 76q122 0 224.5 -36.5t177.5 -104t115.5 -160.5t39.5 -206h-227q-4 68 -28.5 124t-67.5 96t-103.5 61.5t-136.5 21.5q-136 0 -243.5 -61.5t-183.5 -165t-116 -230.5t-40 -258
q0 -192 99.5 -302.5t274.5 -110.5q121 0 226 51.5t176.5 144t91.5 212.5l59 -13h-430l31 185h588l-30 -178q-22 -134 -87 -245.5t-162.5 -192.5t-218.5 -124.5t-255 -43.5zM404 -489l146 371h211l-197 -371h-160z" />
    <glyph glyph-name="uni0123" unicode="&#x123;" horiz-adv-x="1199" 
d="M439 -434q-131 0 -225 37.5t-145 107.5t-53 165l203 16q7 -46 33.5 -80.5t73.5 -53.5t116 -19q133 0 223 70.5t110 198.5l26 166h-5q-42 -56 -93 -96.5t-112 -62.5t-136 -22q-120 0 -207.5 52.5t-135 149t-47.5 226.5q0 125 37.5 243.5t109 214.5t172.5 153t228 57
q59 0 108 -13.5t88 -38t67 -59t45 -77.5l5 1l27 168h210l-177 -1070q-25 -157 -104.5 -252.5t-194.5 -138.5t-247 -43zM505 174q90 0 160 41t118.5 109t74 152t25.5 171q0 121 -60 191t-172 70q-89 0 -158.5 -41.5t-117 -111t-72 -155t-24.5 -173.5q0 -123 59.5 -188
t166.5 -65zM598 1202l21 132q14 78 46 138t70 104t68 71l113 -83q-45 -58 -77.5 -110.5t-45.5 -129.5l-21 -122h-174z" />
    <glyph glyph-name="Hcircumflex" unicode="&#x124;" horiz-adv-x="1473" 
d="M54 0l247 1490h224l-105 -631h740l104 631h224l-247 -1490h-224l111 664h-740l-110 -664h-224zM779 1645h-194v2l286 281h189l194 -281v-2h-195l-111 173z" />
    <glyph glyph-name="hcircumflex" unicode="&#x125;" 
d="M353 620l-103 -620h-213l247 1490h213l-114 -685h-48q51 96 111.5 159t133.5 94t161 31q110 0 191 -47.5t117.5 -140.5t13.5 -232l-111 -669h-214l107 643q21 126 -29.5 191.5t-160.5 65.5q-72 0 -135 -30t-107 -92t-60 -158zM275 1645h-194v2l286 281h189l194 -281v-2
h-195l-111 173z" />
    <glyph glyph-name="Hbar" unicode="&#x126;" horiz-adv-x="1546" 
d="M1597 1193l-26 -160h-1430l26 160h1430zM90 0l247 1490h224l-104 -631h739l105 631h224l-247 -1490h-224l110 664h-740l-110 -664h-224z" />
    <glyph glyph-name="hbar" unicode="&#x127;" 
d="M353 620l-103 -620h-213l247 1490h213l-114 -685h-48q51 96 111.5 159t133.5 94t161 31q110 0 191 -47.5t117.5 -140.5t13.5 -232l-111 -669h-214l107 643q21 126 -29.5 191.5t-160.5 65.5q-72 0 -135 -30t-107 -92t-60 -158zM87 1192l26 158h678l-26 -158h-678z" />
    <glyph glyph-name="Itilde" unicode="&#x128;" horiz-adv-x="509" 
d="M525 1490l-247 -1490h-224l247 1490h224zM578 1678q-41 0 -74.5 13.5t-61.5 31t-52 31t-44 13.5q-28 0 -46 -26t-25 -59h-137q20 102 74.5 163t137.5 61q42 0 74 -13.5t58 -31t50 -31t49 -13.5q29 0 45.5 20.5t27.5 64.5h134q-20 -104 -76.5 -164t-133.5 -60z" />
    <glyph glyph-name="itilde" unicode="&#x129;" horiz-adv-x="465" 
d="M37 0l177 1070h214l-177 -1070h-214zM487 1258q-41 0 -74.5 13.5t-61.5 31t-52 31t-44 13.5q-28 0 -46 -26t-25 -59h-137q20 102 74.5 163t137.5 61q42 0 74 -13.5t58 -31t50 -31t49 -13.5q29 0 45.5 20.5t27.5 64.5h134q-20 -104 -76.5 -164t-133.5 -60z" />
    <glyph glyph-name="Imacron" unicode="&#x12a;" horiz-adv-x="509" 
d="M525 1490l-247 -1490h-224l247 1490h224zM754 1857l-26 -157h-561l26 157h561z" />
    <glyph glyph-name="imacron" unicode="&#x12b;" horiz-adv-x="465" 
d="M37 0l177 1070h214l-177 -1070h-214zM662 1437l-26 -157h-561l26 157h561z" />
    <glyph glyph-name="Ibreve" unicode="&#x12c;" horiz-adv-x="509" 
d="M525 1490l-247 -1490h-224l247 1490h224zM436 1637q-85 0 -147.5 38.5t-92 104.5t-16.5 147h145q-12 -68 26 -110.5t109 -42.5q46 0 85.5 19.5t65.5 54t34 79.5h145q-13 -81 -64.5 -147t-127 -104.5t-162.5 -38.5z" />
    <glyph glyph-name="ibreve" unicode="&#x12d;" horiz-adv-x="465" 
d="M37 0l177 1070h214l-177 -1070h-214zM345 1217q-85 0 -147.5 38.5t-92 104.5t-16.5 147h145q-12 -68 26 -110.5t109 -42.5q46 0 85.5 19.5t65.5 54t34 79.5h145q-13 -81 -64.5 -147t-127 -104.5t-162.5 -38.5z" />
    <glyph glyph-name="Iogonek" unicode="&#x12e;" horiz-adv-x="509" 
d="M525 1490l-247 -1490h-224l247 1490h224zM78 -422q-104 0 -158.5 50t-38.5 145q13 78 70 143t169 128l157 -44q-91 -65 -133 -106.5t-49 -84.5q-6 -34 11.5 -52t60.5 -18q17 0 35.5 2t32.5 4l-12 -155q-31 -5 -69 -8.5t-76 -3.5z" />
    <glyph glyph-name="iogonek" unicode="&#x12f;" horiz-adv-x="465" 
d="M37 0l177 1070h214l-177 -1070h-214zM51 -422q-104 0 -158.5 50t-38.5 145q13 78 70 143t169 128l157 -44q-91 -65 -133 -106.5t-49 -84.5q-6 -34 11.5 -52t60.5 -18q17 0 35.5 2t32.5 4l-12 -155q-31 -5 -69 -8.5t-76 -3.5zM351 1249q-57 0 -89 37.5t-24 92.5
q9 55 54 92.5t102 37.5q56 0 89 -38t24 -92q-8 -55 -54 -92.5t-102 -37.5z" />
    <glyph glyph-name="Idotaccent" unicode="&#x130;" horiz-adv-x="509" 
d="M525 1490l-247 -1490h-224l247 1490h224zM442 1669q-57 0 -89 37.5t-24 92.5q9 55 54 92.5t102 37.5q56 0 89 -38t24 -92q-8 -55 -54 -92.5t-102 -37.5z" />
    <glyph glyph-name="dotlessi" unicode="&#x131;" horiz-adv-x="465" 
d="M37 0l177 1070h214l-177 -1070h-214z" />
    <glyph glyph-name="IJ" unicode="&#x132;" horiz-adv-x="1638" 
d="M525 1490l-247 -1490h-224l247 1490h224zM964 -21q-183 0 -294.5 93.5t-111.5 267.5q0 15 1.5 33.5t6.5 52.5t14 93h220q-9 -55 -13.5 -84t-5.5 -43.5t-1 -24.5q0 -95 52 -144.5t145 -49.5q106 0 183.5 66t99.5 193l175 1058h224l-176 -1059q-36 -217 -174 -334.5
t-345 -117.5z" />
    <glyph glyph-name="ij" unicode="&#x133;" horiz-adv-x="929" 
d="M37 0l177 1070h214l-177 -1070h-214zM351 1249q-57 0 -89 37.5t-24 92.5q9 55 54 92.5t102 37.5q56 0 89 -38t24 -92q-8 -55 -54 -92.5t-102 -37.5zM679 1070h213l-197 -1186q-14 -91 -61.5 -159t-124 -105.5t-178.5 -37.5h-79l30 180h55q66 0 101.5 35t47.5 109z
M815 1249q-57 0 -89 37.5t-24 92.5q9 55 54 92.5t102 37.5q56 0 89 -38t24 -92q-8 -55 -54 -92.5t-102 -37.5z" />
    <glyph glyph-name="Jcircumflex" unicode="&#x134;" horiz-adv-x="1129" 
d="M455 -21q-183 0 -294.5 93.5t-111.5 267.5q0 15 1.5 33.5t6.5 52.5t14 93h220q-9 -55 -13.5 -84t-5.5 -43.5t-1 -24.5q0 -95 52 -144.5t145 -49.5q106 0 183.5 66t99.5 193l175 1058h224l-176 -1059q-36 -217 -174 -334.5t-345 -117.5zM923 1645h-194v2l286 281h189
l194 -281v-2h-195l-111 173z" />
    <glyph glyph-name="jcircumflex" unicode="&#x135;" horiz-adv-x="464" 
d="M214 1070h213l-197 -1186q-14 -91 -61.5 -159t-124 -105.5t-178.5 -37.5h-79l30 180h55q66 0 101.5 35t47.5 109zM206 1225h-194v2l286 281h189l194 -281v-2h-195l-111 173z" />
    <glyph glyph-name="uni0136" unicode="&#x136;" horiz-adv-x="1351" 
d="M275 390l38 271q62 63 122.5 123t122.5 119.5t126 119.5l501 467h291l-749 -695l-15 1zM54 0l247 1490h224l-79 -482l-58 -337l-17 -108l-93 -563h-224zM987 0l-390 734l150 173l487 -907h-247zM326 -489l146 371h211l-197 -371h-160z" />
    <glyph glyph-name="uni0137" unicode="&#x137;" horiz-adv-x="1086" 
d="M293 360l42 254h23l524 456h263l-589 -517h-34zM37 0l247 1490h213l-247 -1490h-213zM736 0l-314 505l171 149l405 -654h-262zM205 -489l146 371h211l-197 -371h-160z" />
    <glyph glyph-name="kgreenlandic" unicode="&#x138;" horiz-adv-x="1062" 
d="M428 1070l-177 -1070h-214l177 1070h214zM1151 1070l-634 -628h-259l25 182h170l442 446h256zM706 0l-304 450l157 146l409 -596h-262z" />
    <glyph glyph-name="Lacute" unicode="&#x139;" horiz-adv-x="1121" 
d="M54 0l247 1490h224l-215 -1295h697l-32 -195h-921zM345 1661l196 283h225l-256 -283h-165z" />
    <glyph glyph-name="lacute" unicode="&#x13a;" horiz-adv-x="465" 
d="M497 1490l-247 -1490h-213l247 1490h213zM322 1661l196 283h225l-256 -283h-165z" />
    <glyph glyph-name="uni013B" unicode="&#x13b;" horiz-adv-x="1121" 
d="M54 0l247 1490h224l-215 -1295h697l-32 -195h-921zM233 -489l146 371h211l-197 -371h-160z" />
    <glyph glyph-name="uni013C" unicode="&#x13c;" horiz-adv-x="465" 
d="M497 1490l-247 -1490h-213l247 1490h213zM-127 -489l146 371h211l-197 -371h-160z" />
    <glyph glyph-name="Lcaron" unicode="&#x13d;" horiz-adv-x="1121" 
d="M54 0l247 1490h224l-215 -1295h697l-32 -195h-921zM718 1182l63 380h193l-114 -380h-142z" />
    <glyph glyph-name="lcaron" unicode="&#x13e;" horiz-adv-x="622" 
d="M497 1490l-247 -1490h-213l247 1490h213zM586 1182l63 380h193l-114 -380h-142z" />
    <glyph glyph-name="Ldot" unicode="&#x13f;" horiz-adv-x="1117" 
d="M55 0l247 1490h224l-215 -1295h697l-32 -195h-921zM734 697q-57 0 -89 37.5t-24 92.5q9 55 54 92.5t102 37.5q56 0 89 -38t24 -92q-8 -55 -54 -92.5t-102 -37.5z" />
    <glyph glyph-name="ldot" unicode="&#x140;" horiz-adv-x="748" 
d="M497 1490l-247 -1490h-213l247 1490h213zM618 603q-63 0 -100.5 45.5t-27.5 110.5q9 54 52.5 90.5t98.5 36.5q63 0 100.5 -45.5t27.5 -109.5q-9 -54 -52.5 -91t-98.5 -37z" />
    <glyph glyph-name="Lslash" unicode="&#x141;" horiz-adv-x="1121" 
d="M54 0l247 1490h224l-215 -1295h697l-32 -195h-921zM80 443l34 210l848 447l-35 -210z" />
    <glyph glyph-name="lslash" unicode="&#x142;" horiz-adv-x="465" 
d="M497 1490l-247 -1490h-213l247 1490h213zM-30 586l30 180l590 312l-30 -180z" />
    <glyph glyph-name="Nacute" unicode="&#x143;" horiz-adv-x="1484" 
d="M54 0l247 1490h241l422 -898q16 -33 39.5 -88t49.5 -121t50 -133l-27 -39q6 64 16 142t20.5 148.5t16.5 110.5l146 878h225l-247 -1490h-240l-378 802q-20 43 -48 107t-64 149.5t-79 190.5l33 34q-14 -115 -26.5 -208.5t-22 -162t-17.5 -108.5l-133 -804h-224zM833 1661
l196 283h225l-256 -283h-165z" />
    <glyph glyph-name="nacute" unicode="&#x144;" horiz-adv-x="1165" 
d="M352 612l-102 -612h-213l177 1070h207l-42 -265l-45 6q75 144 175.5 211t227.5 67q113 0 194 -49t117.5 -144t12.5 -234l-109 -662h-213l107 650q21 126 -28 188t-154 62q-75 0 -140.5 -32t-110.5 -95.5t-61 -160.5zM603 1241l196 283h225l-256 -283h-165z" />
    <glyph glyph-name="uni0145" unicode="&#x145;" horiz-adv-x="1484" 
d="M54 0l247 1490h241l422 -898q16 -33 39.5 -88t49.5 -121t50 -133l-27 -39q6 64 16 142t20.5 148.5t16.5 110.5l146 878h225l-247 -1490h-240l-378 802q-20 43 -48 107t-64 149.5t-79 190.5l33 34q-14 -115 -26.5 -208.5t-22 -162t-17.5 -108.5l-133 -804h-224zM384 -489
l146 371h211l-197 -371h-160z" />
    <glyph glyph-name="uni0146" unicode="&#x146;" horiz-adv-x="1165" 
d="M352 612l-102 -612h-213l177 1070h207l-42 -265l-45 6q75 144 175.5 211t227.5 67q113 0 194 -49t117.5 -144t12.5 -234l-109 -662h-213l107 650q21 126 -28 188t-154 62q-75 0 -140.5 -32t-110.5 -95.5t-61 -160.5zM224 -489l146 371h211l-197 -371h-160z" />
    <glyph glyph-name="Ncaron" unicode="&#x147;" horiz-adv-x="1484" 
d="M54 0l247 1490h241l422 -898q16 -33 39.5 -88t49.5 -121t50 -133l-27 -39q6 64 16 142t20.5 148.5t16.5 110.5l146 878h225l-247 -1490h-240l-378 802q-20 43 -48 107t-64 149.5t-79 190.5l33 34q-14 -115 -26.5 -208.5t-22 -162t-17.5 -108.5l-133 -804h-224zM832 1928
l112 -173l168 173h196l-1 -2l-288 -281h-189l-192 281l1 2h193z" />
    <glyph glyph-name="ncaron" unicode="&#x148;" horiz-adv-x="1165" 
d="M352 612l-102 -612h-213l177 1070h207l-42 -265l-45 6q75 144 175.5 211t227.5 67q113 0 194 -49t117.5 -144t12.5 -234l-109 -662h-213l107 650q21 126 -28 188t-154 62q-75 0 -140.5 -32t-110.5 -95.5t-61 -160.5zM602 1508l112 -173l168 173h196l-1 -2l-288 -281h-189
l-192 281l1 2h193z" />
    <glyph glyph-name="Eng" unicode="&#x14a;" horiz-adv-x="1484" 
d="M748 -418l31 185q17 -1 48 -1h50q65 0 93.5 23t37.5 74l44 263h223l-45 -274q-22 -134 -112 -203.5t-243 -69.5q-39 0 -71.5 1t-55.5 2zM54 0l247 1490h241l422 -898q16 -33 39.5 -88t49.5 -121t50 -133l-27 -39q6 64 16 142t20.5 148.5t16.5 110.5l146 878h225
l-247 -1490h-240l-378 802q-20 43 -48 107t-64 149.5t-79 190.5l33 34q-14 -115 -26.5 -208.5t-22 -162t-17.5 -108.5l-133 -804h-224z" />
    <glyph glyph-name="eng" unicode="&#x14b;" horiz-adv-x="1165" 
d="M453 -418l31 184q19 0 51 -0.5t49 -0.5q64 0 93.5 23t37.5 75l23 137h214l-25 -148q-22 -134 -111.5 -203.5t-240.5 -69.5q-40 0 -69.5 1t-52.5 2zM352 612l-102 -612h-213l177 1070h207l-42 -265l-45 6q75 144 175.5 211t227.5 67q113 0 194 -49t117.5 -144t12.5 -234
l-109 -662h-213l107 650q21 126 -28 188t-154 62q-75 0 -140.5 -32t-110.5 -95.5t-61 -160.5z" />
    <glyph glyph-name="Omacron" unicode="&#x14c;" horiz-adv-x="1542" 
d="M691 -23q-176 0 -306 75.5t-202 213.5t-72 324q0 178 58 343.5t165 296t256 207t331 76.5q175 0 305 -75.5t202 -213.5t72 -325q0 -179 -58.5 -344.5t-166 -296t-256 -206t-328.5 -75.5zM700 181q134 0 241 61t182.5 164.5t115 231t39.5 260.5q0 134 -47 225.5
t-129.5 138.5t-189.5 47q-135 0 -242 -61.5t-182 -165t-115 -231t-40 -260.5t46.5 -224.5t129.5 -138.5t191 -47zM1270 1857l-26 -157h-561l26 157h561z" />
    <glyph glyph-name="omacron" unicode="&#x14d;" 
d="M503 -24q-136 0 -234 56t-151 157t-53 235q0 130 42 250t121 214t189 149t246 55t234 -56.5t150.5 -158t52.5 -236.5q0 -129 -42 -248.5t-120.5 -213.5t-188.5 -148.5t-246 -54.5zM511 159q93 0 163 43t117.5 114.5t71.5 157t24 170.5q0 81 -26.5 140.5t-78.5 91.5
t-128 32q-90 0 -160 -42.5t-118 -113.5t-73 -157t-25 -174q0 -120 60 -191t173 -71zM1012 1437l-26 -157h-561l26 157h561z" />
    <glyph glyph-name="Obreve" unicode="&#x14e;" horiz-adv-x="1542" 
d="M691 -23q-176 0 -306 75.5t-202 213.5t-72 324q0 178 58 343.5t165 296t256 207t331 76.5q175 0 305 -75.5t202 -213.5t72 -325q0 -179 -58.5 -344.5t-166 -296t-256 -206t-328.5 -75.5zM700 181q134 0 241 61t182.5 164.5t115 231t39.5 260.5q0 134 -47 225.5
t-129.5 138.5t-189.5 47q-135 0 -242 -61.5t-182 -165t-115 -231t-40 -260.5t46.5 -224.5t129.5 -138.5t191 -47zM952 1637q-85 0 -147.5 38.5t-92 104.5t-16.5 147h145q-12 -68 26 -110.5t109 -42.5q46 0 85.5 19.5t65.5 54t34 79.5h145q-13 -81 -64.5 -147t-127 -104.5
t-162.5 -38.5z" />
    <glyph glyph-name="obreve" unicode="&#x14f;" 
d="M503 -24q-136 0 -234 56t-151 157t-53 235q0 130 42 250t121 214t189 149t246 55t234 -56.5t150.5 -158t52.5 -236.5q0 -129 -42 -248.5t-120.5 -213.5t-188.5 -148.5t-246 -54.5zM511 159q93 0 163 43t117.5 114.5t71.5 157t24 170.5q0 81 -26.5 140.5t-78.5 91.5
t-128 32q-90 0 -160 -42.5t-118 -113.5t-73 -157t-25 -174q0 -120 60 -191t173 -71zM695 1217q-85 0 -147.5 38.5t-92 104.5t-16.5 147h145q-12 -68 26 -110.5t109 -42.5q46 0 85.5 19.5t65.5 54t34 79.5h145q-13 -81 -64.5 -147t-127 -104.5t-162.5 -38.5z" />
    <glyph glyph-name="Ohungarumlaut" unicode="&#x150;" horiz-adv-x="1542" 
d="M691 -23q-176 0 -306 75.5t-202 213.5t-72 324q0 178 58 343.5t165 296t256 207t331 76.5q175 0 305 -75.5t202 -213.5t72 -325q0 -179 -58.5 -344.5t-166 -296t-256 -206t-328.5 -75.5zM700 181q134 0 241 61t182.5 164.5t115 231t39.5 260.5q0 134 -47 225.5
t-129.5 138.5t-189.5 47q-135 0 -242 -61.5t-182 -165t-115 -231t-40 -260.5t46.5 -224.5t129.5 -138.5t191 -47zM812 1626h-165l173 302h219zM1127 1626h-169l225 302h225z" />
    <glyph glyph-name="ohungarumlaut" unicode="&#x151;" 
d="M503 -24q-136 0 -234 56t-151 157t-53 235q0 130 42 250t121 214t189 149t246 55t234 -56.5t150.5 -158t52.5 -236.5q0 -129 -42 -248.5t-120.5 -213.5t-188.5 -148.5t-246 -54.5zM511 159q93 0 163 43t117.5 114.5t71.5 157t24 170.5q0 81 -26.5 140.5t-78.5 91.5
t-128 32q-90 0 -160 -42.5t-118 -113.5t-73 -157t-25 -174q0 -120 60 -191t173 -71zM555 1206h-165l173 302h219zM870 1206h-169l225 302h225z" />
    <glyph glyph-name="OE" unicode="&#x152;" horiz-adv-x="2034" 
d="M705 0q-220 0 -363.5 90.5t-200 258t-18.5 397.5q38 231 150 397.5t282 256.5t384 90h294l-32 -192h-282q-158 0 -277.5 -66t-195.5 -189.5t-105 -296.5t6.5 -297t135.5 -190.5t264 -66.5h266l-33 -192h-275zM877 0l247 1490h988l-32 -195h-765l-72 -441h708l-32 -192
h-708l-78 -467h766l-32 -195h-990z" />
    <glyph glyph-name="oe" unicode="&#x153;" horiz-adv-x="1948" 
d="M503 -24q-136 0 -234 56t-151 157t-53 235q0 130 42 250t121 214t189 149t246 55t234 -56.5t150.5 -158t52.5 -236.5q0 -129 -42 -248.5t-120.5 -213.5t-188.5 -148.5t-246 -54.5zM511 159q93 0 163 43t117.5 114.5t71.5 157t24 170.5q0 81 -26.5 140.5t-78.5 91.5
t-128 32q-90 0 -160 -42.5t-118 -113.5t-73 -157t-25 -174q0 -120 60 -191t173 -71zM1330 -24q-134 0 -233.5 51t-153 154.5t-48.5 259.5q3 145 49 264.5t128 206.5t191 134t236 47q111 0 196 -35.5t133 -104t48 -166.5q0 -101 -54 -167.5t-161.5 -105t-268 -55
t-375.5 -16.5l26 158q186 0 307.5 10.5t191 32.5t98.5 57t29 83q0 61 -49.5 96t-142.5 35q-102 0 -173 -42t-115 -112.5t-64.5 -155.5t-21.5 -172q-1 -75 18.5 -139t72.5 -102.5t151 -38.5q107 0 183 46.5t110 122.5l204 -10q-56 -151 -189 -243.5t-323 -92.5z" />
    <glyph glyph-name="Racute" unicode="&#x154;" horiz-adv-x="1312" 
d="M54 0l247 1490h555q163 0 270.5 -57.5t153.5 -162t22 -245.5q-23 -141 -105 -245t-210.5 -160.5t-291.5 -56.5h-419l31 191h419q99 0 173.5 34t121 96.5t60.5 145.5q21 127 -49 197t-217 70h-323l-214 -1297h-224zM924 0l-244 672h232l251 -672h-239zM735 1661l196 283
h225l-256 -283h-165z" />
    <glyph glyph-name="racute" unicode="&#x155;" horiz-adv-x="717" 
d="M37 0l177 1070h205l-29 -173h6q44 88 118 137t174 49q23 0 44.5 -1.5t35.5 -3.5l-33 -199q-13 2 -44 6t-67 4q-63 0 -119 -28.5t-95.5 -84.5t-53.5 -140l-106 -636h-213zM417 1241l196 283h225l-256 -283h-165z" />
    <glyph glyph-name="uni0156" unicode="&#x156;" horiz-adv-x="1312" 
d="M54 0l247 1490h555q163 0 270.5 -57.5t153.5 -162t22 -245.5q-23 -141 -105 -245t-210.5 -160.5t-291.5 -56.5h-419l31 191h419q99 0 173.5 34t121 96.5t60.5 145.5q21 127 -49 197t-217 70h-323l-214 -1297h-224zM924 0l-244 672h232l251 -672h-239zM304 -489l146 371
h211l-197 -371h-160z" />
    <glyph glyph-name="uni0157" unicode="&#x157;" horiz-adv-x="717" 
d="M37 0l177 1070h205l-29 -173h6q44 88 118 137t174 49q23 0 44.5 -1.5t35.5 -3.5l-33 -199q-13 2 -44 6t-67 4q-63 0 -119 -28.5t-95.5 -84.5t-53.5 -140l-106 -636h-213zM-127 -489l146 371h211l-197 -371h-160z" />
    <glyph glyph-name="Rcaron" unicode="&#x158;" horiz-adv-x="1312" 
d="M54 0l247 1490h555q163 0 270.5 -57.5t153.5 -162t22 -245.5q-23 -141 -105 -245t-210.5 -160.5t-291.5 -56.5h-419l31 191h419q99 0 173.5 34t121 96.5t60.5 145.5q21 127 -49 197t-217 70h-323l-214 -1297h-224zM924 0l-244 672h232l251 -672h-239zM734 1928l112 -173
l168 173h196l-1 -2l-288 -281h-189l-192 281l1 2h193z" />
    <glyph glyph-name="rcaron" unicode="&#x159;" horiz-adv-x="717" 
d="M37 0l177 1070h205l-29 -173h6q44 88 118 137t174 49q23 0 44.5 -1.5t35.5 -3.5l-33 -199q-13 2 -44 6t-67 4q-63 0 -119 -28.5t-95.5 -84.5t-53.5 -140l-106 -636h-213zM417 1508l112 -173l168 173h196l-1 -2l-288 -281h-189l-192 281l1 2h193z" />
    <glyph glyph-name="Sacute" unicode="&#x15a;" horiz-adv-x="1293" 
d="M575 -24q-177 0 -298.5 59.5t-175 170t-30.5 262.5h222q-13 -94 18 -161t102 -101.5t175 -34.5q101 0 182.5 30.5t134 86t63.5 128.5q10 58 -12.5 99t-79 71.5t-151.5 54.5l-160 42q-205 52 -295 149.5t-64 257.5q21 128 101.5 223t205.5 147.5t280 52.5q161 0 272 -56
t163 -158.5t33 -242.5h-215q11 123 -61 192.5t-208 69.5q-92 0 -167 -30t-123 -83t-60 -121q-9 -56 15.5 -95.5t81 -67.5t145.5 -51l150 -39q99 -25 174.5 -62t124 -88t67 -119t4.5 -154q-21 -130 -103 -227.5t-212 -151t-299 -53.5zM733 1661l196 283h225l-256 -283h-165z
" />
    <glyph glyph-name="sacute" unicode="&#x15b;" horiz-adv-x="1026" 
d="M438 -24q-117 0 -206.5 34.5t-140.5 102.5t-53 167v17.5t1 16.5l208 7q-2 -87 47 -131t147 -44q68 0 126 21.5t94 60.5t37 89q2 44 -30.5 70.5t-94.5 41.5l-172 39q-133 31 -199.5 100t-63.5 173q3 106 65 185t164.5 122t224.5 43q168 0 268.5 -76.5t105.5 -207.5v-23.5
t-2 -24.5l-201 -7q7 79 -39.5 124.5t-135.5 45.5q-66 0 -119 -23t-84.5 -62t-32.5 -86q-2 -43 30.5 -70t98.5 -43l173 -40q136 -31 200.5 -96t61.5 -166q-3 -83 -41 -149.5t-104 -114t-151.5 -72t-181.5 -24.5zM534 1241l196 283h225l-256 -283h-165z" />
    <glyph glyph-name="Scircumflex" unicode="&#x15c;" horiz-adv-x="1293" 
d="M575 -24q-177 0 -298.5 59.5t-175 170t-30.5 262.5h222q-13 -94 18 -161t102 -101.5t175 -34.5q101 0 182.5 30.5t134 86t63.5 128.5q10 58 -12.5 99t-79 71.5t-151.5 54.5l-160 42q-205 52 -295 149.5t-64 257.5q21 128 101.5 223t205.5 147.5t280 52.5q161 0 272 -56
t163 -158.5t33 -242.5h-215q11 123 -61 192.5t-208 69.5q-92 0 -167 -30t-123 -83t-60 -121q-9 -56 15.5 -95.5t81 -67.5t145.5 -51l150 -39q99 -25 174.5 -62t124 -88t67 -119t4.5 -154q-21 -130 -103 -227.5t-212 -151t-299 -53.5zM686 1645h-194v2l286 281h189l194 -281
v-2h-195l-111 173z" />
    <glyph glyph-name="scircumflex" unicode="&#x15d;" horiz-adv-x="1026" 
d="M438 -24q-117 0 -206.5 34.5t-140.5 102.5t-53 167v17.5t1 16.5l208 7q-2 -87 47 -131t147 -44q68 0 126 21.5t94 60.5t37 89q2 44 -30.5 70.5t-94.5 41.5l-172 39q-133 31 -199.5 100t-63.5 173q3 106 65 185t164.5 122t224.5 43q168 0 268.5 -76.5t105.5 -207.5v-23.5
t-2 -24.5l-201 -7q7 79 -39.5 124.5t-135.5 45.5q-66 0 -119 -23t-84.5 -62t-32.5 -86q-2 -43 30.5 -70t98.5 -43l173 -40q136 -31 200.5 -96t61.5 -166q-3 -83 -41 -149.5t-104 -114t-151.5 -72t-181.5 -24.5zM487 1225h-194v2l286 281h189l194 -281v-2h-195l-111 173z" />
    <glyph glyph-name="Scedilla" unicode="&#x15e;" horiz-adv-x="1293" 
d="M575 -24q-177 0 -298.5 59.5t-175 170t-30.5 262.5h222q-13 -94 18 -161t102 -101.5t175 -34.5q101 0 182.5 30.5t134 86t63.5 128.5q10 58 -12.5 99t-79 71.5t-151.5 54.5l-160 42q-205 52 -295 149.5t-64 257.5q21 128 101.5 223t205.5 147.5t280 52.5q161 0 272 -56
t163 -158.5t33 -242.5h-215q11 123 -61 192.5t-208 69.5q-92 0 -167 -30t-123 -83t-60 -121q-9 -56 15.5 -95.5t81 -67.5t145.5 -51l150 -39q99 -25 174.5 -62t124 -88t67 -119t4.5 -154q-21 -130 -103 -227.5t-212 -151t-299 -53.5zM375 -418l18 110h118q50 0 75.5 15.5
t30.5 48.5q6 32 -14.5 48t-69.5 16h-83l70 227h101l-8 -47l-14 -84q89 -3 131.5 -46t30.5 -116q-15 -88 -83 -130t-178 -42h-125z" />
    <glyph glyph-name="scedilla" unicode="&#x15f;" horiz-adv-x="1026" 
d="M438 -24q-117 0 -206.5 34.5t-140.5 102.5t-53 167v17.5t1 16.5l208 7q-2 -87 47 -131t147 -44q68 0 126 21.5t94 60.5t37 89q2 44 -30.5 70.5t-94.5 41.5l-172 39q-133 31 -199.5 100t-63.5 173q3 106 65 185t164.5 122t224.5 43q168 0 268.5 -76.5t105.5 -207.5v-23.5
t-2 -24.5l-201 -7q7 79 -39.5 124.5t-135.5 45.5q-66 0 -119 -23t-84.5 -62t-32.5 -86q-2 -43 30.5 -70t98.5 -43l173 -40q136 -31 200.5 -96t61.5 -166q-3 -83 -41 -149.5t-104 -114t-151.5 -72t-181.5 -24.5zM244 -418l18 110h118q50 0 75.5 15.5t30.5 48.5q6 32 -14.5 48
t-69.5 16h-83l70 227h101l-8 -47l-14 -84q89 -3 131.5 -46t30.5 -116q-15 -88 -83 -130t-178 -42h-125z" />
    <glyph glyph-name="Scaron" unicode="&#x160;" horiz-adv-x="1293" 
d="M575 -24q-177 0 -298.5 59.5t-175 170t-30.5 262.5h222q-13 -94 18 -161t102 -101.5t175 -34.5q101 0 182.5 30.5t134 86t63.5 128.5q10 58 -12.5 99t-79 71.5t-151.5 54.5l-160 42q-205 52 -295 149.5t-64 257.5q21 128 101.5 223t205.5 147.5t280 52.5q161 0 272 -56
t163 -158.5t33 -242.5h-215q11 123 -61 192.5t-208 69.5q-92 0 -167 -30t-123 -83t-60 -121q-9 -56 15.5 -95.5t81 -67.5t145.5 -51l150 -39q99 -25 174.5 -62t124 -88t67 -119t4.5 -154q-21 -130 -103 -227.5t-212 -151t-299 -53.5zM733 1928l112 -173l168 173h196l-1 -2
l-288 -281h-189l-192 281l1 2h193z" />
    <glyph glyph-name="scaron" unicode="&#x161;" horiz-adv-x="1026" 
d="M438 -24q-117 0 -206.5 34.5t-140.5 102.5t-53 167v17.5t1 16.5l208 7q-2 -87 47 -131t147 -44q68 0 126 21.5t94 60.5t37 89q2 44 -30.5 70.5t-94.5 41.5l-172 39q-133 31 -199.5 100t-63.5 173q3 106 65 185t164.5 122t224.5 43q168 0 268.5 -76.5t105.5 -207.5v-23.5
t-2 -24.5l-201 -7q7 79 -39.5 124.5t-135.5 45.5q-66 0 -119 -23t-84.5 -62t-32.5 -86q-2 -43 30.5 -70t98.5 -43l173 -40q136 -31 200.5 -96t61.5 -166q-3 -83 -41 -149.5t-104 -114t-151.5 -72t-181.5 -24.5zM534 1508l112 -173l168 173h196l-1 -2l-288 -281h-189
l-192 281l1 2h193z" />
    <glyph glyph-name="uni021A" unicode="&#x162;" horiz-adv-x="1284" 
d="M184 1295l33 195h1167l-33 -195h-471l-214 -1295h-224l214 1295h-472zM367 -418l18 110h118q50 0 75.5 15.5t30.5 48.5q6 32 -14.5 48t-69.5 16h-83l70 227h101l-8 -47l-14 -84q89 -3 131.5 -46t30.5 -116q-15 -88 -83 -130t-178 -42h-125z" />
    <glyph glyph-name="uni0163" unicode="&#x163;" horiz-adv-x="681" 
d="M716 1070l-29 -176h-611l29 176h611zM334 1353h213l-177 -1068q-10 -61 11.5 -86t84.5 -25q22 0 51 1t50 2l-20 -175q-28 -3 -65.5 -4t-72.5 -1q-150 0 -213.5 66t-42.5 196zM156 -418l18 110h118q50 0 75.5 15.5t30.5 48.5q6 32 -14.5 48t-69.5 16h-83l70 227h101
l-8 -47l-14 -84q89 -3 131.5 -46t30.5 -116q-15 -88 -83 -130t-178 -42h-125z" />
    <glyph glyph-name="Tcaron" unicode="&#x164;" horiz-adv-x="1284" 
d="M184 1295l33 195h1167l-33 -195h-471l-214 -1295h-224l214 1295h-472zM733 1928l112 -173l168 173h196l-1 -2l-288 -281h-189l-192 281l1 2h193z" />
    <glyph glyph-name="tcaron" unicode="&#x165;" horiz-adv-x="696" 
d="M716 1070l-29 -176h-611l29 176h611zM334 1353h213l-177 -1068q-10 -61 11.5 -86t84.5 -25q22 0 51 1t50 2l-20 -175q-28 -3 -65.5 -4t-72.5 -1q-150 0 -213.5 66t-42.5 196zM647 1198l63 380h193l-114 -380h-142z" />
    <glyph glyph-name="Tbar" unicode="&#x166;" horiz-adv-x="1284" 
d="M184 1295l33 195h1167l-33 -195h-471l-214 -1295h-224l214 1295h-472zM247 661l29 176h835l-30 -176h-834z" />
    <glyph glyph-name="tbar" unicode="&#x167;" horiz-adv-x="682" 
d="M661 734l-26 -160h-611l26 160h611zM717 1070l-29 -176h-611l29 176h611zM335 1353h213l-177 -1068q-10 -61 11.5 -86t84.5 -25q22 0 51 1t50 2l-20 -175q-28 -3 -65.5 -4t-72.5 -1q-150 0 -213.5 66t-42.5 196z" />
    <glyph glyph-name="Utilde" unicode="&#x168;" horiz-adv-x="1457" 
d="M649 -24q-182 0 -306.5 71t-179.5 193t-29 278l161 972h222l-160 -969q-16 -102 14 -179t103 -120.5t183 -43.5q117 0 210.5 47t154 128t76.5 183l158 954h222l-163 -987q-26 -155 -117 -274.5t-232 -186t-317 -66.5zM1052 1678q-41 0 -74.5 13.5t-61.5 31t-52 31
t-44 13.5q-28 0 -46 -26t-25 -59h-137q20 102 74.5 163t137.5 61q42 0 74 -13.5t58 -31t50 -31t49 -13.5q29 0 45.5 20.5t27.5 64.5h134q-20 -104 -76.5 -164t-133.5 -60z" />
    <glyph glyph-name="utilde" unicode="&#x169;" 
d="M416 -19q-109 0 -188 47t-113 140.5t-12 231.5l111 670h214l-107 -643q-20 -125 30.5 -191t159.5 -66q72 0 135 30t107.5 92t59.5 158l103 620h213l-177 -1070h-208l43 265h43q-74 -144 -178.5 -214t-235.5 -70zM837 1258q-41 0 -74.5 13.5t-61.5 31t-52 31t-44 13.5
q-28 0 -46 -26t-25 -59h-137q20 102 74.5 163t137.5 61q42 0 74 -13.5t58 -31t50 -31t49 -13.5q29 0 45.5 20.5t27.5 64.5h134q-20 -104 -76.5 -164t-133.5 -60z" />
    <glyph glyph-name="Umacron" unicode="&#x16a;" horiz-adv-x="1457" 
d="M649 -24q-182 0 -306.5 71t-179.5 193t-29 278l161 972h222l-160 -969q-16 -102 14 -179t103 -120.5t183 -43.5q117 0 210.5 47t154 128t76.5 183l158 954h222l-163 -987q-26 -155 -117 -274.5t-232 -186t-317 -66.5zM1228 1857l-26 -157h-561l26 157h561z" />
    <glyph glyph-name="umacron" unicode="&#x16b;" 
d="M416 -19q-109 0 -188 47t-113 140.5t-12 231.5l111 670h214l-107 -643q-20 -125 30.5 -191t159.5 -66q72 0 135 30t107.5 92t59.5 158l103 620h213l-177 -1070h-208l43 265h43q-74 -144 -178.5 -214t-235.5 -70zM1013 1437l-26 -157h-561l26 157h561z" />
    <glyph glyph-name="Ubreve" unicode="&#x16c;" horiz-adv-x="1457" 
d="M649 -24q-182 0 -306.5 71t-179.5 193t-29 278l161 972h222l-160 -969q-16 -102 14 -179t103 -120.5t183 -43.5q117 0 210.5 47t154 128t76.5 183l158 954h222l-163 -987q-26 -155 -117 -274.5t-232 -186t-317 -66.5zM910 1637q-85 0 -147.5 38.5t-92 104.5t-16.5 147
h145q-12 -68 26 -110.5t109 -42.5q46 0 85.5 19.5t65.5 54t34 79.5h145q-13 -81 -64.5 -147t-127 -104.5t-162.5 -38.5z" />
    <glyph glyph-name="ubreve" unicode="&#x16d;" 
d="M416 -19q-109 0 -188 47t-113 140.5t-12 231.5l111 670h214l-107 -643q-20 -125 30.5 -191t159.5 -66q72 0 135 30t107.5 92t59.5 158l103 620h213l-177 -1070h-208l43 265h43q-74 -144 -178.5 -214t-235.5 -70zM695 1217q-85 0 -147.5 38.5t-92 104.5t-16.5 147h145
q-12 -68 26 -110.5t109 -42.5q46 0 85.5 19.5t65.5 54t34 79.5h145q-13 -81 -64.5 -147t-127 -104.5t-162.5 -38.5z" />
    <glyph glyph-name="Uring" unicode="&#x16e;" horiz-adv-x="1457" 
d="M649 -24q-182 0 -306.5 71t-179.5 193t-29 278l161 972h222l-160 -969q-16 -102 14 -179t103 -120.5t183 -43.5q117 0 210.5 47t154 128t76.5 183l158 954h222l-163 -987q-26 -155 -117 -274.5t-232 -186t-317 -66.5zM913 1570q-74 0 -128 34t-79.5 91t-14.5 126
q11 63 50.5 113.5t98.5 80t126 29.5q74 0 128 -33.5t79.5 -90.5t14.5 -126q-10 -63 -50.5 -114t-99 -80.5t-125.5 -29.5zM921 1696q47 0 85 32t46 79t-19 79.5t-75 32.5q-47 0 -84.5 -32t-45.5 -79t19 -79.5t74 -32.5z" />
    <glyph glyph-name="uring" unicode="&#x16f;" 
d="M416 -19q-109 0 -188 47t-113 140.5t-12 231.5l111 670h214l-107 -643q-20 -125 30.5 -191t159.5 -66q72 0 135 30t107.5 92t59.5 158l103 620h213l-177 -1070h-208l43 265h43q-74 -144 -178.5 -214t-235.5 -70zM686 1155q-70 0 -121.5 31.5t-76 85.5t-13.5 121
t53.5 120.5t104.5 85.5t132 32q71 0 122 -32t75.5 -85.5t13.5 -120.5t-53.5 -121t-104 -85.5t-132.5 -31.5zM702 1281q51 0 89.5 31.5t45.5 80.5q8 49 -17 80.5t-71 31.5q-51 0 -89.5 -31.5t-46.5 -80.5q-8 -48 17 -80t72 -32z" />
    <glyph glyph-name="Uhungarumlaut" unicode="&#x170;" horiz-adv-x="1457" 
d="M649 -24q-182 0 -306.5 71t-179.5 193t-29 278l161 972h222l-160 -969q-16 -102 14 -179t103 -120.5t183 -43.5q117 0 210.5 47t154 128t76.5 183l158 954h222l-163 -987q-26 -155 -117 -274.5t-232 -186t-317 -66.5zM770 1626h-165l173 302h219zM1085 1626h-169l225 302
h225z" />
    <glyph glyph-name="uhungarumlaut" unicode="&#x171;" 
d="M416 -19q-109 0 -188 47t-113 140.5t-12 231.5l111 670h214l-107 -643q-20 -125 30.5 -191t159.5 -66q72 0 135 30t107.5 92t59.5 158l103 620h213l-177 -1070h-208l43 265h43q-74 -144 -178.5 -214t-235.5 -70zM555 1206h-165l173 302h219zM870 1206h-169l225 302h225z
" />
    <glyph glyph-name="Uogonek" unicode="&#x172;" horiz-adv-x="1457" 
d="M649 -24q-182 0 -306.5 71t-179.5 193t-29 278l161 972h222l-160 -969q-16 -102 14 -179t103 -120.5t183 -43.5q117 0 210.5 47t154 128t76.5 183l158 954h222l-163 -987q-26 -155 -117 -274.5t-232 -186t-317 -66.5zM636 -422q-104 0 -161 50t-41 145q12 70 56.5 118
t111.5 84t145 68t157 70t148 89.5t118.5 126.5t66.5 182l77 -8q-21 -126 -75.5 -215t-127 -150t-149 -103.5t-144.5 -76t-113 -68.5t-52 -81q-6 -33 11.5 -51.5t60.5 -18.5q17 0 35.5 2t32.5 4l-12 -155q-31 -5 -69 -8.5t-76 -3.5z" />
    <glyph glyph-name="uogonek" unicode="&#x173;" 
d="M416 -19q-109 0 -188 47t-113 140.5t-12 231.5l111 670h214l-107 -643q-20 -125 30.5 -191t159.5 -66q72 0 135 30t107.5 92t59.5 158l103 620h213l-177 -1070h-208l43 265h43q-74 -144 -178.5 -214t-235.5 -70zM753 -422q-104 0 -158.5 50t-38.5 145q13 78 70 143
t169 128l157 -44q-91 -65 -133 -106.5t-49 -84.5q-6 -34 11.5 -52t60.5 -18q17 0 35.5 2t32.5 4l-12 -155q-31 -5 -69 -8.5t-76 -3.5z" />
    <glyph glyph-name="Wcircumflex" unicode="&#x174;" horiz-adv-x="1994" 
d="M339 0l-157 1490h228l75 -864q6 -79 10.5 -159t7.5 -160.5t4 -161.5h-34q29 81 59.5 161.5t62 160.5t64.5 159l368 864h245l80 -864q7 -79 12.5 -159t9.5 -160.5t6 -161.5h-37q29 81 59 161.5t61.5 160.5t63.5 159l361 864h239l-652 -1490h-257l-92 905
q-10 98 -14.5 204.5t-9.5 227.5h52q-43 -119 -82.5 -225.5t-82.5 -206.5l-392 -905h-258zM1040 1645h-194v2l286 281h189l194 -281v-2h-195l-111 173z" />
    <glyph glyph-name="wcircumflex" unicode="&#x175;" horiz-adv-x="1610" 
d="M272 0l-152 1070h218l49 -439q11 -108 20.5 -226t17.5 -240h-30q49 120 98 238t97 228l196 439h205l49 -439q12 -108 21.5 -226t18.5 -240h-32q49 121 97 238.5t96 227.5l196 439h230l-506 -1070h-221l-57 465q-8 68 -15 140.5t-13 147t-13 146.5h47q-31 -72 -62 -146.5
t-62 -147t-63 -141.5l-213 -464h-217zM778 1225h-194v2l286 281h189l194 -281v-2h-195l-111 173z" />
    <glyph glyph-name="Ycircumflex" unicode="&#x176;" horiz-adv-x="1366" 
d="M484 0l99 595l-401 895h245l204 -472q31 -70 57.5 -139t52.5 -146h-73q50 77 100 146.5t102 138.5l359 472h270l-694 -895l-99 -595h-222zM726 1645h-194v2l286 281h189l194 -281v-2h-195l-111 173z" />
    <glyph glyph-name="ycircumflex" unicode="&#x177;" horiz-adv-x="1099" 
d="M-24 -414l41 178l94 -2q39 -3 70 8.5t58 40.5t52 77l61 117l-235 1065h219l115 -592q17 -87 29.5 -174t24.5 -173h-60q40 86 82 173t87 174l310 592h235l-688 -1248q-42 -78 -97 -132t-121 -82t-140 -28q-37 0 -72 2t-65 4zM513 1225h-194v2l286 281h189l194 -281v-2
h-195l-111 173z" />
    <glyph glyph-name="Ydieresis" unicode="&#x178;" horiz-adv-x="1366" 
d="M484 0l99 595l-401 895h245l204 -472q31 -70 57.5 -139t52.5 -146h-73q50 77 100 146.5t102 138.5l359 472h270l-694 -895l-99 -595h-222zM1084 1670q-55 0 -86.5 37.5t-22.5 91.5t53 91.5t99 37.5t86.5 -37.5t22.5 -91.5q-8 -54 -52.5 -91.5t-99.5 -37.5zM657 1670
q-55 0 -86.5 37.5t-22.5 91.5q8 54 52.5 91.5t98.5 37.5q55 0 87 -37.5t23 -91.5t-53 -91.5t-99 -37.5z" />
    <glyph glyph-name="Zacute" unicode="&#x179;" horiz-adv-x="1262" 
d="M14 0l25 148l970 1151h-786l32 191h1063l-24 -149l-971 -1150h786l-32 -191h-1063zM723 1661l196 283h225l-256 -283h-165z" />
    <glyph glyph-name="zacute" unicode="&#x17a;" horiz-adv-x="1040" 
d="M13 0l25 152l682 731l1 5h-557l30 182h826l-27 -161l-670 -722l-1 -5h559l-30 -182h-838zM537 1241l196 283h225l-256 -283h-165z" />
    <glyph glyph-name="Zdotaccent" unicode="&#x17b;" horiz-adv-x="1262" 
d="M14 0l25 148l970 1151h-786l32 191h1063l-24 -149l-971 -1150h786l-32 -191h-1063zM820 1669q-57 0 -89 37.5t-24 92.5q9 55 54 92.5t102 37.5q56 0 89 -38t24 -92q-8 -55 -54 -92.5t-102 -37.5z" />
    <glyph glyph-name="zdotaccent" unicode="&#x17c;" horiz-adv-x="1040" 
d="M13 0l25 152l682 731l1 5h-557l30 182h826l-27 -161l-670 -722l-1 -5h559l-30 -182h-838zM635 1249q-57 0 -89 37.5t-24 92.5q9 55 54 92.5t102 37.5q56 0 89 -38t24 -92q-8 -55 -54 -92.5t-102 -37.5z" />
    <glyph glyph-name="Zcaron" unicode="&#x17d;" horiz-adv-x="1262" 
d="M14 0l25 148l970 1151h-786l32 191h1063l-24 -149l-971 -1150h786l-32 -191h-1063zM722 1928l112 -173l168 173h196l-1 -2l-288 -281h-189l-192 281l1 2h193z" />
    <glyph glyph-name="zcaron" unicode="&#x17e;" horiz-adv-x="1040" 
d="M13 0l25 152l682 731l1 5h-557l30 182h826l-27 -161l-670 -722l-1 -5h559l-30 -182h-838zM537 1508l112 -173l168 173h196l-1 -2l-288 -281h-189l-192 281l1 2h193z" />
    <glyph glyph-name="longs" unicode="&#x17f;" horiz-adv-x="573" 
d="M-125 -425q-23 0 -38.5 0.5t-32.5 1t-43 2.5l36 185q23 -1 36.5 -1.5t37.5 -0.5q71 0 103.5 30.5t44.5 104.5l220 1319q15 92 62.5 157t123 98.5t174.5 33.5q36 0 70 -1t63 -3l-36 -175q-20 1 -46.5 1h-52.5q-68 0 -102.5 -31.5t-46.5 -103.5l-217 -1303
q-16 -103 -58.5 -172.5t-115.5 -105.5t-182 -36z" />
    <glyph glyph-name="bbar" unicode="&#x180;" horiz-adv-x="1199" 
d="M587 -21q-79 0 -139 24t-101.5 67.5t-67.5 102.5h-4l-29 -173h-209l246 1490h213l-94 -576h4q36 54 87.5 93t115 60.5t136.5 21.5q120 0 207.5 -54t134.5 -151.5t47 -231.5q0 -123 -36.5 -243t-107 -217t-172 -155t-231.5 -58zM547 162q91 0 160.5 43t117 114t71.5 157.5
t24 173.5q0 124 -59 190.5t-166 66.5q-91 0 -161 -42.5t-119 -112.5t-74 -155.5t-25 -170.5q0 -123 60 -193.5t171 -70.5zM88 1192l26 158h678l-26 -158h-678z" />
    <glyph glyph-name="uni0181" unicode="&#x181;" horiz-adv-x="1635" 
d="M129 1056l25 151q23 138 110 210.5t239 72.5h113l-32 -193h-93q-60 0 -91 -24.5t-40 -78.5l-22 -138h-209zM370 0l246 1490h550q154 0 255 -51t144 -142t23 -212q-13 -83 -54.5 -144.5t-105.5 -102.5t-144 -64v-3q82 -11 145 -56t93 -123.5t12 -189.5
q-20 -121 -91 -211.5t-194.5 -140.5t-298.5 -50h-580zM623 189h331q155 0 247 64t110 176q13 72 -13.5 125.5t-88.5 82.5t-158 29h-349zM732 847h322q82 0 148.5 29.5t109.5 83.5t55 126q16 98 -41.5 156.5t-185.5 58.5h-333z" />
    <glyph glyph-name="uni0182" unicode="&#x182;" horiz-adv-x="1294" 
d="M54 0l246 1490h928l-31 -191h-706l-68 -411h335q166 0 273.5 -54t152.5 -152t22 -231q-22 -133 -99.5 -234.5t-203 -159t-291.5 -57.5h-558zM307 188h336q96 0 169 37.5t118 98.5t56 129q18 102 -47.5 174.5t-211.5 71.5h-335z" />
    <glyph glyph-name="uni0183" unicode="&#x183;" horiz-adv-x="1199" 
d="M364 1311l-81 179h836l-29 -179h-726zM587 -21q-79 0 -139 24t-101.5 67.5t-67.5 102.5h-4l-29 -173h-209l246 1490h213l-94 -576h4q36 54 87.5 93t115 60.5t136.5 21.5q120 0 207.5 -54t134.5 -151.5t47 -231.5q0 -123 -36.5 -243t-107 -217t-172 -155t-231.5 -58z
M547 162q91 0 160.5 43t117 114t71.5 157.5t24 173.5q0 124 -59 190.5t-166 66.5q-91 0 -161 -42.5t-119 -112.5t-74 -155.5t-25 -170.5q0 -123 60 -193.5t171 -70.5z" />
    <glyph glyph-name="uni0184" unicode="&#x184;" horiz-adv-x="1565" 
d="M267 944l-159 100l328 446h234zM634 919h405q161 0 267.5 -55t152 -157t21.5 -241q-23 -143 -99.5 -247.5t-198 -161.5t-279.5 -57h-577l247 1490h224l-215 -1298h329q93 0 166 33.5t120.5 95t61.5 146.5q14 81 -11 139.5t-86 90t-154 31.5h-405z" />
    <glyph glyph-name="uni0185" unicode="&#x185;" horiz-adv-x="1346" 
d="M202 599l-147 92l279 379h219zM565 710h322q126 0 211.5 -44.5t124 -123.5t21.5 -184q-18 -106 -81 -186.5t-161.5 -126t-223.5 -45.5h-494l177 1070h213l-146 -884h264q96 0 162.5 46.5t78.5 124.5q13 77 -30.5 122.5t-138.5 45.5h-330z" />
    <glyph glyph-name="uni0186" unicode="&#x186;" horiz-adv-x="1488" 
d="M860 1513q180 0 312 -75.5t203.5 -213t71.5 -323.5q0 -179 -58 -345t-165.5 -297t-258 -206.5t-335.5 -75.5q-122 0 -223.5 35.5t-174.5 103t-113 162.5t-40 215h225q4 -75 29 -133t68.5 -98t103.5 -60.5t133 -20.5q138 0 247 61t184.5 164.5t115.5 231.5t40 261
q0 127 -44 219t-128 141.5t-204 49.5q-76 0 -147 -20.5t-131 -60t-106.5 -97.5t-76.5 -133h-226q38 117 106.5 212t161 163t201.5 104t229 36z" />
    <glyph glyph-name="uni0187" unicode="&#x187;" horiz-adv-x="1488" 
d="M1271 997l67 409q23 135 112.5 204t240.5 69q39 0 68.5 -1t51.5 -2l-29 -176q-16 0 -47.5 0.5t-50.5 0.5q-65 0 -97 -23.5t-40 -74.5l-67 -406h-209zM698 -23q-180 0 -312 75.5t-203.5 213t-71.5 323.5q0 179 58 345t165.5 297t258 206.5t335.5 75.5q122 0 223.5 -35.5
t174.5 -103t113.5 -162.5t39.5 -215h-225q-4 75 -29 133t-68.5 98t-103 60.5t-133.5 20.5q-138 0 -247 -61t-184.5 -164.5t-115.5 -231.5t-40 -261q0 -127 44 -219t128.5 -141.5t203.5 -49.5q77 0 147.5 20.5t130.5 60t106.5 97.5t76.5 133h226q-38 -117 -106.5 -212
t-161 -163t-201.5 -104t-229 -36z" />
    <glyph glyph-name="uni0188" unicode="&#x188;" horiz-adv-x="1112" 
d="M891 713l20 275q6 143 90 213.5t238 70.5q39 0 67 -0.5t49 -1.5l-29 -177q-18 1 -50 1.5t-52 0.5q-59 0 -87 -24.5t-32 -79.5l-31 -273zM501 -24q-134 0 -232.5 55.5t-151 156t-52.5 233.5q0 127 41 246.5t119 215.5t188 152.5t248 56.5q93 0 169.5 -27.5t131.5 -77
t84.5 -118t27.5 -151.5l-210 -9q-1 43 -14 79.5t-38 63.5t-63.5 42t-91.5 15q-91 0 -161.5 -42.5t-118.5 -113t-73 -157t-25 -174.5q0 -80 25 -139t76.5 -91.5t127.5 -32.5q55 0 101 15t84 42t66 64.5t47 82.5l209 -12q-25 -82 -73.5 -150.5t-116 -119t-150 -78
t-174.5 -27.5z" />
    <glyph glyph-name="Dbar1" unicode="&#x189;" horiz-adv-x="1504" 
d="M642 0h-402l32 195h354q173 0 297 65.5t200 189t105 297.5q29 173 0 296t-121.5 187.5t-258.5 64.5h-401l32 195h377q220 0 366 -89.5t207 -256t22 -397.5q-38 -232 -142.5 -399.5t-272 -257.5t-394.5 -90zM596 1490l-247 -1490h-224l247 1490h224zM43 657l29 176h779
l-29 -176h-779z" />
    <glyph glyph-name="uni018A" unicode="&#x18a;" horiz-adv-x="1749" 
d="M130 1056l25 151q23 138 110 210.5t239 72.5h113l-33 -193h-92q-60 0 -91 -24.5t-40 -78.5l-23 -138h-208zM887 0h-402l32 195h354q173 0 297 65.5t200 189t105 297.5q29 173 0 296t-121.5 187.5t-258.5 64.5h-401l32 195h377q220 0 366 -89.5t207 -256t22 -397.5
q-38 -232 -142.5 -399.5t-272 -257.5t-394.5 -90zM841 1490l-247 -1490h-224l247 1490h224z" />
    <glyph glyph-name="uni018B" unicode="&#x18b;" horiz-adv-x="1272" 
d="M1082 0h-556q-165 0 -272 57.5t-152 159t-23 234.5q23 132 101 231.5t204.5 155t291.5 55.5h314l63 375h-684l31 198h924zM874 194l83 504h-315q-147 -1 -224.5 -72t-95.5 -173q-10 -68 9.5 -127.5t75 -95.5t152.5 -36h315z" />
    <glyph glyph-name="uni018C" unicode="&#x18c;" horiz-adv-x="1199" 
d="M1092 1311h-726l29 179h836zM453 -21q-181 0 -285 118t-104 316q0 126 37.5 246t108.5 217.5t172.5 155t229.5 57.5q79 0 139.5 -24t102.5 -66t64 -96h3l97 587h213l-246 -1490h-209l26 161h-5q-41 -59 -92.5 -99.5t-115 -61.5t-136.5 -21zM503 162q90 0 160 42t119 112
t75 155.5t26 172.5q0 122 -60 192.5t-172 70.5q-90 0 -159.5 -42.5t-117 -113t-72 -156.5t-24.5 -175q0 -124 59.5 -191t165.5 -67z" />
    <glyph glyph-name="deltaturn" unicode="&#x18d;" horiz-adv-x="1133" 
d="M774 -376h-743l32 182h435q-11 15 -39 44.5t-61.5 64t-63.5 62.5q-91 89 -156.5 178t-95 186t-12.5 209l2 20q26 167 104 293.5t201 197.5t280 71q158 0 258 -70t139.5 -194t15.5 -287l-4 -20q-17 -124 -87.5 -227.5t-181 -170.5t-247.5 -85q-14 -2 -20.5 -2.5
t-17.5 -1.5q34 -36 73 -76.5t77.5 -82t73 -81.5t61.5 -78zM832 550l2 20q17 106 3.5 191t-64 135t-147.5 50q-93 0 -159 -49t-106.5 -134t-56.5 -193l-3 -20q-17 -117 20.5 -201.5t97.5 -127.5q18 -6 35 -8.5t40 -2.5q98 0 167.5 47.5t112 124.5t58.5 168z" />
    <glyph glyph-name="Eturn" unicode="&#x18e;" horiz-adv-x="1210" 
d="M1226 1490l-247 -1490h-988l33 195h764l73 441h-708l32 192h708l78 467h-766l32 195h989z" />
    <glyph glyph-name="uni018F" unicode="&#x18f;" horiz-adv-x="1505" 
d="M648 -23q-182 0 -315 78.5t-195.5 217t-32.5 318.5l28 170h1175l-31 -185h-1017l63 5q-19 -120 22.5 -210t129.5 -140t206 -50q139 0 252.5 69.5t190 196t104.5 298.5q29 172 -7.5 298.5t-128.5 196t-230 69.5q-77 0 -146 -21.5t-128 -61.5t-104 -96t-73 -124h-227
q36 113 106 205.5t165 160t208 104.5t234 37q198 0 336 -95.5t198 -268.5t21 -404q-28 -172 -100 -313t-178.5 -243t-240 -157t-285.5 -55z" />
    <glyph glyph-name="Epsilon1" unicode="&#x190;" horiz-adv-x="1249" 
d="M535 -23q-154 0 -267 56.5t-167 156t-33 228.5q16 89 66 162.5t129.5 123t180.5 64.5v5q-117 33 -176.5 119.5t-39.5 205.5q21 120 97.5 213.5t194 147.5t260.5 54q146 0 250.5 -57.5t153.5 -159t28 -233.5h-214q13 83 -11.5 142t-81.5 91t-142 32q-82 0 -150.5 -30
t-113.5 -85t-58 -131q-11 -69 17.5 -120.5t90.5 -79.5t151 -28h125l-30 -183h-125q-102 0 -183.5 -31t-132.5 -86.5t-63 -129.5q-13 -78 15.5 -137t92.5 -90.5t156 -31.5q95 0 172 34.5t127 100t66 157.5h222q-24 -139 -106.5 -247.5t-211 -170.5t-289.5 -62z" />
    <glyph glyph-name="uni0191" unicode="&#x191;" 
d="M-228 -418l30 185q17 -1 48 -1h50q65 0 94 23t37 74l44 263h223l-45 -274q-22 -134 -112 -203.5t-243 -69.5q-39 0 -71.5 1t-54.5 2zM54 0l247 1490h960l-32 -195h-737l-75 -454h678l-32 -193h-678l-107 -648h-224z" />
    <glyph glyph-name="florin" unicode="&#x192;" horiz-adv-x="799" 
d="M781 1082l-29 -171h-208l-160 -968q-20 -118 -73 -198.5t-135 -121.5t-189 -41q-32 -1 -61.5 2t-59.5 12l44 182q16 -5 48.5 -8t47.5 -2q61 -1 103.5 46t56.5 129l160 968h-177l28 171h178l17 104q20 120 76.5 202.5t140.5 125t185 42.5q43 0 90.5 -7t77.5 -18l-69 -180
q-16 5 -36 8t-49 2q-82 1 -132.5 -43t-65.5 -132l-17 -104h208z" />
    <glyph glyph-name="uni0193" unicode="&#x193;" horiz-adv-x="1507" 
d="M1301 1021l45 388q8 91 51.5 151t117.5 89t174 29q39 0 68.5 -1t51.5 -2l-29 -176q-16 0 -47 0.5t-51 0.5q-64 0 -96.5 -23.5t-40.5 -74.5l-65 -396zM696 -23q-179 0 -310.5 76.5t-203 214t-71.5 322.5q0 178 58.5 343.5t166 296.5t256.5 207t330 76q122 0 224.5 -36.5
t177.5 -104t115.5 -160.5t39.5 -206h-227q-4 68 -28.5 124t-67.5 96t-103.5 61.5t-136.5 21.5q-136 0 -243.5 -61.5t-183.5 -165t-116 -230.5t-40 -258q0 -192 99.5 -302.5t274.5 -110.5q121 0 226 51.5t176.5 144t91.5 212.5l59 -13h-430l31 185h588l-30 -178
q-22 -134 -87 -245.5t-162.5 -192.5t-218.5 -124.5t-255 -43.5z" />
    <glyph glyph-name="Gamma1" unicode="&#x194;" horiz-adv-x="1319" 
d="M169 1490h247l297 -1132q41 -147 72.5 -251t46.5 -175.5t7 -121.5q-13 -79 -59 -135.5t-118 -86.5t-165 -30q-138 0 -208.5 66t-50.5 189q4 29 17.5 61.5t37 74.5t58.5 99t82.5 133t108.5 177l676 1132h247l-840 -1366q-47 -78 -82 -135.5t-55.5 -99t-25.5 -72.5
q-5 -34 12.5 -56.5t53.5 -22.5t61 23.5t31 56.5q4 31 -2 72t-21 98t-37 136z" />
    <glyph glyph-name="uni0195" unicode="&#x195;" horiz-adv-x="1917" 
d="M37 0l246 1490h211l-91 -555h15q53 91 142.5 144t219.5 53q115 0 193.5 -47t111 -141t9.5 -234l-25 -152h-216l21 127q20 124 -32.5 192t-165.5 69q-77 0 -143.5 -33.5t-111.5 -96t-61 -152.5l-109 -664h-214zM1154 -20q-116 0 -197.5 50t-115 152t-7.5 258l19 118h216
l-20 -118q-19 -114 2 -173.5t62.5 -81t83.5 -22.5q89 1 174.5 82t158 259t120.5 471l24 143h215l-24 -143q-57 -347 -161.5 -567t-244.5 -324t-305 -104z" />
    <glyph glyph-name="Iota" unicode="&#x196;" horiz-adv-x="519" 
d="M327 -2q-154 0 -212 61t-36 197l205 1234h213l-200 -1208q-10 -63 6.5 -85.5t74.5 -22.5q13 0 26 0.5t22 1.5l-20 -173q-17 -2 -37.5 -3.5t-41.5 -1.5z" />
    <glyph glyph-name="uni0197" unicode="&#x197;" horiz-adv-x="670" 
d="M605 1490l-247 -1490h-224l247 1490h224zM43 701l24 142h637l-24 -142h-637z" />
    <glyph glyph-name="uni0198" unicode="&#x198;" horiz-adv-x="1368" 
d="M54 0l246 1490h222l-117 -709h19l659 610q75 68 153 96t152 18t137 -56l-108 -162q-46 31 -96 21t-114 -67l-472 -428l487 -813h-268l-384 657l-219 -206l-75 -451h-222z" />
    <glyph glyph-name="uni0199" unicode="&#x199;" horiz-adv-x="1086" 
d="M180 862l34 208l26 151q22 134 112.5 203t243.5 69q40 0 69 -0.5t52 -1.5l-30 -177q-17 1 -47.5 1h-50.5q-64 0 -96 -23t-41 -75l-24 -147l-35 -208h-213zM294 360l42 254h23l524 456h262l-589 -517h-34zM37 0l178 1070h213l-177 -1070h-214zM736 0l-314 505l171 149
l405 -654h-262z" />
    <glyph glyph-name="uni019A" unicode="&#x19a;" horiz-adv-x="465" 
d="M497 1490l-247 -1490h-213l247 1490h213zM-83 689l26 158h678l-26 -158h-678z" />
    <glyph glyph-name="lambdabar" unicode="&#x19b;" horiz-adv-x="1271" 
d="M852 1411l-31 -180l-566 -192l29 177zM642 757l-393 -757h-256l600 1105l161 -6zM498 1519q111 0 162.5 -44t68.5 -125l249 -1082q8 -31 18 -51t26 -30t39 -10h19.5h16.5l-28 -185q-14 -4 -38.5 -7t-51.5 -3q-67 0 -113.5 17t-76.5 62.5t-48 130.5l-171 780l-65 268
q-13 52 -39 72t-67 20q-10 0 -25 -0.5t-27 -3.5l28 176q19 7 58.5 11t64.5 4z" />
    <glyph glyph-name="mcapturn" unicode="&#x19c;" horiz-adv-x="1837" 
d="M1408 226l210 1264h232l-246 -1490h-217zM1477 504l95 2q-25 -151 -88.5 -270t-167 -187.5t-248.5 -68.5q-109 0 -182.5 43t-102 143.5t-1.5 270.5l175 1053h231l-175 -1053q-17 -104 -1.5 -162t52.5 -81t84 -23q102 0 168.5 44t105.5 119.5t55 169.5zM817 504l96 2
q-24 -152 -88.5 -271t-168.5 -187t-251 -68q-112 0 -185.5 43.5t-100 143.5t1.5 270l175 1053h232l-174 -1053q-18 -104 -2.5 -162t52 -81t81.5 -23q102 0 170 44t107 119.5t55 169.5z" />
    <glyph glyph-name="Nhook" unicode="&#x19d;" horiz-adv-x="1484" 
d="M-228 -418l30 185q17 -1 48 -1h50q65 0 94 23t37 74l44 263h223l-45 -274q-22 -134 -112 -203.5t-243 -69.5q-39 0 -71.5 1t-54.5 2zM54 0l247 1490h241l422 -898q16 -33 39.5 -88t49.5 -121t50 -133l-27 -39q6 64 16 142t20.5 148.5t16.5 110.5l146 878h225l-247 -1490
h-240l-378 802q-20 43 -48 107t-64 149.5t-79 190.5l33 34q-14 -115 -26.5 -208.5t-22 -162t-17.5 -108.5l-133 -804h-224z" />
    <glyph glyph-name="uni019E" unicode="&#x19e;" 
d="M353 620l-103 -620h-213l177 1070h208l-44 -265l-43 2q51 96 111 158.5t132.5 93t158.5 30.5q111 0 192.5 -48t119 -141.5t14.5 -231.5l-180 -1086h-213l175 1061q22 126 -23 191.5t-155 65.5q-72 0 -138 -30t-113 -92t-63 -158z" />
    <glyph glyph-name="Obar" unicode="&#x19f;" horiz-adv-x="1542" 
d="M1312 831l-24 -173h-1004l24 173h1004zM691 -23q-176 0 -306 75.5t-202 213.5t-72 324q0 178 58 343.5t165 296t256 207t331 76.5q175 0 305 -75.5t202 -213.5t72 -325q0 -179 -58.5 -344.5t-166 -296t-256 -206t-328.5 -75.5zM700 181q134 0 241 61t182.5 164.5t115 231
t39.5 260.5q0 134 -47 225.5t-129.5 138.5t-189.5 47q-135 0 -242 -61.5t-182 -165t-115 -231t-40 -260.5t46.5 -224.5t129.5 -138.5t191 -47z" />
    <glyph glyph-name="Ohorn" unicode="&#x1a0;" horiz-adv-x="1542" 
d="M906 1354l26 159q47 0 80.5 -2.5t65.5 -5.5t71.5 -6.5t96.5 -6t142 -2.5q20 0 24 21l35 212h202l-35 -212q-15 -90 -70.5 -134t-145.5 -44q-45 0 -83 3t-87.5 7.5t-125.5 7.5t-196 3zM691 -23q-176 0 -306 75.5t-202 213.5t-72 324q0 178 58 343.5t165 296t256 207
t331 76.5q175 0 305 -75.5t202 -213.5t72 -325q0 -179 -58.5 -344.5t-166 -296t-256 -206t-328.5 -75.5zM700 181q134 0 241 61t182.5 164.5t115 231t39.5 260.5q0 134 -47 225.5t-129.5 138.5t-189.5 47q-135 0 -242 -61.5t-182 -165t-115 -231t-40 -260.5t46.5 -224.5
t129.5 -138.5t191 -47z" />
    <glyph glyph-name="ohorn" unicode="&#x1a1;" horiz-adv-x="1165" 
d="M648 938l26 154q47 -1 78 -3.5t60.5 -5.5t70 -5.5t106.5 -2.5q21 0 25 20l34 208h193l-33 -195q-9 -60 -38.5 -98t-75 -56.5t-105.5 -18.5q-85 0 -170 1.5t-171 1.5zM503 -24q-136 0 -234 56t-151 157t-53 235q0 130 42 250t121 214t189 149t246 55t234 -56.5t150.5 -158
t52.5 -236.5q0 -129 -42 -248.5t-120.5 -213.5t-188.5 -148.5t-246 -54.5zM511 159q93 0 163 43t117.5 114.5t71.5 157t24 170.5q0 81 -26.5 140.5t-78.5 91.5t-128 32q-90 0 -160 -42.5t-118 -113.5t-73 -157t-25 -174q0 -120 60 -191t173 -71z" />
    <glyph glyph-name="OI" unicode="&#x1a2;" horiz-adv-x="1772" 
d="M1288 799l-100 -605q-55 -64 -140 -112t-191 -75t-224 -27q-199 0 -327.5 85t-177.5 242.5t-14 372.5l19 117l244 3l-19 -120q-26 -159 -1.5 -272.5t104.5 -174t217 -60.5q86 0 161.5 24t128.5 70l88 532h232zM1371 1296l-99 -593l-232 -1l86 518q-34 45 -102.5 70
t-153.5 25q-105 0 -187 -32.5t-142.5 -96.5t-101.5 -158.5t-61 -217.5l-18 -114h-242l17 114q36 220 140 376.5t263.5 240t363.5 83.5q113 0 207.5 -28t162 -76.5t99.5 -109.5zM1781 1490l-316 -1908h-232l275 1658l-279 -103l37 218l338 135h177z" />
    <glyph glyph-name="uni01A3" unicode="&#x1a3;" horiz-adv-x="1319" 
d="M479 167q46 0 81.5 11.5t67.5 32.5l60 360h232l-67 -414q-47 -50 -107.5 -90.5t-136 -63.5t-167.5 -23q-160 0 -255 74t-129 197.5t-12 270.5l5 38q24 162 100 291.5t199.5 205t290.5 75.5q86 0 153 -25t115 -66.5t76 -91.5l-70 -422l-234 7l61 362q-23 23 -57 36.5
t-82 13.5q-101 0 -166 -54t-101.5 -142t-52.5 -190l-5 -38q-16 -108 0 -188t66 -123.5t135 -43.5zM1360 1118l-252 -1536h-232l206 1250l-245 -118l44 266l305 138h174z" />
    <glyph glyph-name="uni01A4" unicode="&#x1a4;" horiz-adv-x="1593" 
d="M131 1056l24 151q24 138 110.5 210.5t238.5 72.5h113l-32 -193h-93q-60 0 -91 -24.5t-39 -78.5l-23 -138h-208zM370 0l247 1490h543q162 0 269.5 -59.5t153.5 -166t23 -247.5q-24 -142 -104.5 -246t-207.5 -161.5t-290 -57.5h-415l32 193h406q100 0 175 34.5t121.5 96.5
t60.5 146t-12 145.5t-90 95.5t-164 34h-310l-214 -1297h-224z" />
    <glyph glyph-name="uni01A5" unicode="&#x1a5;" horiz-adv-x="1199" 
d="M179 862l34 208l26 151q22 134 112.5 203t243.5 69q40 0 69 -0.5t52 -1.5l-30 -177q-17 1 -47.5 1h-50.5q-64 0 -96 -23t-40 -75l-25 -147l-35 -208h-213zM-33 -418l247 1488h209l-26 -157h3q38 56 90.5 95t117 60t137.5 21q120 0 207.5 -53.5t134.5 -151t47 -230.5
q0 -124 -37 -244t-107.5 -217.5t-172 -155.5t-231.5 -58q-79 0 -138.5 24.5t-101 68t-64.5 99.5h-4l-98 -589h-213zM547 162q91 0 160.5 43t117 114t71.5 157.5t24 173.5q0 124 -59 190.5t-166 66.5q-91 0 -161 -42.5t-119 -112.5t-74 -155.5t-25 -170.5q0 -123 60 -193.5
t171 -70.5z" />
    <glyph glyph-name="YR" unicode="&#x1a6;" horiz-adv-x="1459" 
d="M222 1390l34 202h244l-34 -202h-244zM240 1490h511q168 1 277 -50t154.5 -149t21.5 -240q-19 -107 -73 -190t-138 -139.5t-192 -87.5l-75 -32h-455l31 192h332q96 1 165 33.5t110 88.5t51 126q19 115 -36.5 183.5t-207.5 68.5h-266l-214 -1294h-244zM964 -357l-370 1016
h255l377 -1005l-3 -11h-259z" />
    <glyph glyph-name="uni01A7" unicode="&#x1a7;" horiz-adv-x="1293" 
d="M555 -24q-171 0 -289 55.5t-171.5 155t-31.5 231.5q14 85 54 151t104.5 116t151 86.5t194.5 60.5l163 39q97 23 164 52t106 70t48 98q11 67 -17 118.5t-89.5 80t-150.5 28.5q-93 0 -169.5 -31.5t-129 -90t-71.5 -140.5h-217q28 140 108.5 242.5t205 158.5t283.5 56
q158 0 271 -54t166 -151.5t31 -228.5q-26 -155 -145.5 -251.5t-343.5 -148.5l-173 -40q-102 -24 -170 -55t-105.5 -73.5t-47.5 -101.5q-18 -109 59 -173.5t225 -64.5q107 0 192.5 34.5t142 101.5t73.5 161h223q-26 -153 -111.5 -263t-221 -169.5t-311.5 -59.5z" />
    <glyph glyph-name="uni01A8" unicode="&#x1a8;" horiz-adv-x="1024" 
d="M133 758q24 102 89.5 176t163 114.5t217.5 40.5q123 0 209 -40t126 -111.5t24 -166.5q-19 -117 -108 -194.5t-247 -111.5l-184 -40q-73 -15 -119.5 -47t-55.5 -86q-10 -63 43 -101.5t154 -38.5t167 41.5t92 127.5l208 -7q-28 -111 -99.5 -186t-174.5 -112.5t-225 -37.5
q-126 0 -216.5 40t-134 113.5t-27.5 173.5q19 112 103.5 185.5t245.5 108.5l186 39q79 18 126 51.5t56 87.5q11 62 -39 100.5t-141 38.5q-96 0 -159 -46.5t-80 -119.5z" />
    <glyph glyph-name="uni01A9" unicode="&#x1a9;" horiz-adv-x="1269" 
d="M-20 0l28 172l538 477q26 24 53 47t54.5 45t53 43.5t48.5 40.5l-18 -111q-21 25 -47 53t-53 59t-51 60l-353 436l28 168h1115l-33 -195h-571q-76 0 -149 0.5t-144 1.5l3 35q27 -30 56 -62t59 -66t59 -70l269 -338l-12 -79l-381 -341q-47 -42 -94.5 -81t-93.5 -76t-87 -72
l11 46q78 1 158 1.5t164 0.5h582l-32 -195h-1160z" />
    <glyph glyph-name="eshlooprev" unicode="&#x1aa;" horiz-adv-x="1132" 
d="M682 1089l251 107l-208 -1251q-16 -97 11.5 -137.5t94.5 -40.5q15 0 35 2.5t39 6.5l-30 -183q-28 -8 -64 -12t-67 -4q-154 0 -218.5 94t-35.5 274zM204 1195q16 101 78 183t153.5 131t192.5 49q100 0 174.5 -49t110.5 -131t20 -183q-16 -97 -79.5 -179.5t-155 -132
t-191.5 -49.5t-174.5 49t-110 131.5t-18.5 180.5zM543 1042q42 0 79 17t62.5 52t34.5 88q13 78 -24.5 117.5t-100.5 39.5q-43 0 -80.5 -17.5t-63 -52.5t-34.5 -87q-13 -80 25 -118.5t102 -38.5z" />
    <glyph glyph-name="uni01AB" unicode="&#x1ab;" horiz-adv-x="681" 
d="M49 -418l29 176q17 0 50 -0.5t53 -0.5q71 0 104 27.5t39 85.5l20 151h206l-21 -153q-10 -91 -54 -155.5t-121 -99t-184 -34.5q-40 0 -69.5 1t-51.5 2zM716 1070l-29 -176h-611l29 176h611zM334 1353h213l-177 -1068q-10 -61 11.5 -86t84.5 -25q22 0 51 1t50 2l-20 -175
q-28 -3 -65.5 -4t-72.5 -1q-150 0 -213.5 66t-42.5 196z" />
    <glyph glyph-name="uni01AC" unicode="&#x1ac;" horiz-adv-x="1308" 
d="M146 1056l25 151q23 138 110 210.5t239 72.5h113l-32 -193h-93q-60 0 -91 -24.5t-40 -78.5l-22 -138h-209zM600 1295l33 195h775l-32 -195h-464l-215 -1295h-223l214 1295h-88z" />
    <glyph glyph-name="uni01AD" unicode="&#x1ad;" horiz-adv-x="688" 
d="M408 -3q-142 0 -211 71.5t-48 198.5l120 721h211l-113 -684q-11 -69 12.5 -99t90.5 -30q22 0 45.5 0.5t44.5 1.5l-20 -175q-28 -3 -62.5 -4t-69.5 -1zM96 896l29 174h587l-28 -174h-588zM248 862l34 208l26 151q22 134 112.5 203t243.5 69q40 0 69 -0.5t52 -1.5l-30 -177
q-17 1 -47.5 1h-50.5q-64 0 -96 -23t-41 -75l-24 -147l-35 -208h-213z" />
    <glyph glyph-name="Trthook" unicode="&#x1ae;" horiz-adv-x="1284" 
d="M665 0l-18 -105q-14 -80 33.5 -104.5t114.5 -23.5h58l-31 -185h-113q-64 0 -121 17.5t-98 55t-59 97t-4 142.5l18 106h220zM184 1295l33 195h1167l-33 -195h-471l-214 -1295h-224l214 1295h-472z" />
    <glyph glyph-name="Uhorn" unicode="&#x1af;" horiz-adv-x="1456" 
d="M1230 1332l27 158h176q21 0 24 21l35 212h202l-35 -212q-15 -90 -70.5 -134.5t-145.5 -44.5h-213zM649 -24q-182 0 -306.5 71t-179.5 193t-29 278l161 972h222l-160 -969q-16 -102 14 -179t103 -120.5t183 -43.5q117 0 210.5 47t154 128t76.5 183l158 954h222l-163 -987
q-26 -155 -117 -274.5t-232 -186t-317 -66.5z" />
    <glyph glyph-name="uhorn" unicode="&#x1b0;" horiz-adv-x="1264" 
d="M997 929l24 141h66q33 0 39 33l35 209h185l-34 -204q-15 -90 -70.5 -134.5t-145.5 -44.5h-99zM416 -19q-109 0 -188 47t-113 140.5t-12 231.5l111 670h214l-107 -643q-20 -125 30.5 -191t159.5 -66q72 0 135 30t107.5 92t59.5 158l103 620h213l-177 -1070h-208l43 265h43
q-74 -144 -178.5 -214t-235.5 -70z" />
    <glyph glyph-name="Upsilon2" unicode="&#x1b1;" horiz-adv-x="1526" 
d="M117 697q34 203 139 351t260 239l3 12h-302l31 191h550l-41 -242q-96 -39 -184.5 -117.5t-151 -187.5t-84.5 -239q-23 -147 15.5 -265t129.5 -187t223 -69t246 69t191.5 187.5t100.5 265.5q22 130 -4.5 239t-88 187.5t-146.5 116.5l41 242h549l-32 -191h-301l-2 -12
q125 -88 180.5 -237t22.5 -354q-26 -157 -97 -288.5t-177 -227t-238 -148t-279 -52.5t-261.5 52.5t-188.5 148t-102 227.5t-2 289z" />
    <glyph glyph-name="Vcursive" unicode="&#x1b2;" horiz-adv-x="1271" 
d="M540 -20q-156 0 -270 56t-166.5 167.5t-25.5 277.5l167 1009h242l-168 -1009q-26 -158 42.5 -233t209.5 -75t234.5 75t119.5 233l109 660q15 95 -16.5 132t-109.5 37q-17 0 -37 -1.5t-40 -4.5l33 188q28 8 62 13t69 5q150 0 231.5 -95.5t52.5 -273.5l-109 -660
q-27 -166 -120 -277.5t-227 -167.5t-283 -56z" />
    <glyph glyph-name="uni01B3" unicode="&#x1b3;" horiz-adv-x="1454" 
d="M716 777l6 34h35l-5 -34h-36zM191 1490h248l299 -693l406 533q67 89 144.5 132t156.5 46t151 -31l-83 -175q-55 22 -104.5 8t-100.5 -80l-492 -628l-100 -602h-221l99 602z" />
    <glyph glyph-name="uni01B4" unicode="&#x1b4;" horiz-adv-x="1380" 
d="M932 1070l83 158q33 63 65 112.5t69.5 83.5t89.5 51.5t125 17.5q45 0 77.5 -0.5t56.5 -2.5l-27 -175q-16 1 -41.5 1h-40.5q-43 0 -70 -14t-46.5 -40.5t-40.5 -64.5l-73 -127h-227zM-24 -414l41 178l94 -2q39 -3 70 8.5t58 40.5t52 77l61 117l-235 1065h219l115 -592
q17 -87 29.5 -174t24.5 -173h-60q40 86 82 173t87 174l310 592h235l-688 -1248q-42 -78 -97 -132t-121 -82t-140 -28q-37 0 -72 2t-65 4z" />
    <glyph glyph-name="Zbar" unicode="&#x1b5;" horiz-adv-x="1262" 
d="M14 0l25 148l970 1151h-786l32 191h1063l-24 -149l-971 -1150h786l-32 -191h-1063zM235 657l29 176h835l-30 -176h-834z" />
    <glyph glyph-name="zbar" unicode="&#x1b6;" horiz-adv-x="1040" 
d="M13 0l25 152l682 731l1 5h-557l30 182h826l-27 -161l-670 -722l-1 -5h559l-30 -182h-838zM205 483l24 142h637l-24 -142h-637z" />
    <glyph glyph-name="uni01B7" unicode="&#x1b7;" horiz-adv-x="1342" 
d="M-18 78h225q-10 -96 29.5 -169t116.5 -114t176 -41q117 0 212 57t157.5 154t82.5 219q23 138 -19 239t-135 155.5t-227 54.5h-125l29 175l551 474v12h-789l33 196h1083l-27 -162l-600 -520l-2 -14q162 -9 273.5 -88.5t159.5 -213t19 -305.5q-22 -136 -85 -251
t-158 -199.5t-213.5 -130.5t-254.5 -46q-164 0 -286 65.5t-183 182.5t-43 270z" />
    <glyph glyph-name="uni01B8" unicode="&#x1b8;" horiz-adv-x="1342" 
d="M1209 78q-33 -153 -133.5 -270t-244 -182.5t-308.5 -65.5q-135 0 -238.5 46t-170 130.5t-91 199.5t-2.5 252q29 172 121 305t229.5 212.5t301.5 88.5l2 14l-428 520l27 162h1085l-34 -196h-790v-12l393 -474l-29 -175h-125q-133 0 -244.5 -54.5t-186.5 -155.5t-98 -239
q-20 -122 10 -219t106 -154t193 -57q100 0 189.5 41t153.5 114t85 169h227z" />
    <glyph glyph-name="uni01B9" unicode="&#x1b9;" horiz-adv-x="1251" 
d="M459 -443q-155 0 -266 58t-162.5 159t-30.5 231q20 117 92 211.5t186 153.5t257 69l1 4l-331 465l27 162h923l-32 -193h-641v-4l293 -421l-28 -169h-131q-113 0 -196 -33t-133 -94t-64 -145q-13 -81 16 -141t94.5 -93t158.5 -33q95 0 170 35t124.5 100.5t65.5 157.5h223
q-25 -140 -110 -248.5t-215 -170t-291 -61.5z" />
    <glyph glyph-name="uni01BA" unicode="&#x1ba;" horiz-adv-x="1084" 
d="M217 1070h880l-23 -141l-639 -456h-126l24 142l390 268h-537zM193 -130q-11 -65 37.5 -101t139.5 -36q58 0 114 16.5t98.5 57t58.5 110.5h226q-15 -90 -81.5 -172.5t-177.5 -135.5t-262 -53q-129 0 -220 41.5t-133 115.5t-25 172q13 82 58.5 139t112 94t142.5 60.5
t150 38.5q70 15 122 29.5t83.5 40.5t38.5 72q10 54 -30 84t-140 30h-95l39 176h85q129 0 217.5 -35.5t129 -100.5t24.5 -156q-11 -73 -51.5 -125.5t-102.5 -89.5t-139.5 -62.5t-164.5 -44.5q-91 -18 -144.5 -43.5t-79 -56.5t-30.5 -65z" />
    <glyph glyph-name="uni01BB" unicode="&#x1bb;" horiz-adv-x="1192" 
d="M5 0l29 173l609 489q97 78 163.5 140t105 121.5t49.5 130.5q15 85 -7 145.5t-77 92.5t-142 32t-161 -38.5t-124.5 -108.5t-66.5 -166h-209q25 149 104 262t198.5 176.5t266.5 63.5t251.5 -57t152.5 -158t25 -236q-12 -70 -40.5 -134t-77 -127t-120 -131t-169.5 -146
l-410 -329l-1 -5h685l-31 -190h-1003zM263 532l29 176h835l-30 -176h-834z" />
    <glyph glyph-name="uni01BC" unicode="&#x1bc;" horiz-adv-x="1274" 
d="M504 1490l-32 -191h-287l32 191h287zM593 -21q-147 0 -255.5 58.5t-163.5 160t-39 231.5h218q-10 -113 58 -187.5t191 -74.5q89 0 165.5 41t129 113.5t67.5 166.5q16 94 -8 166.5t-81 113.5t-144 41q-104 0 -194 -41.5t-136 -118.5l-208 7l195 834h876l-32 -191h-679
l-108 -434h3q72 64 152.5 97t177.5 33q137 0 236.5 -64t144.5 -177.5t20 -262.5q-25 -150 -105.5 -265.5t-204 -181t-276.5 -65.5z" />
    <glyph glyph-name="uni01BD" unicode="&#x1bd;" horiz-adv-x="1133" 
d="M393 469l-201 13l172 600h707l-31 -193h-514l-63 -219q36 22 98.5 39.5t123.5 18.5q183 4 269.5 -94t58.5 -277q-17 -106 -77 -191t-166.5 -134t-264.5 -50q-77 0 -151 20t-132 60.5t-86.5 102.5t-13.5 146l228 16q-11 -72 41 -114t144 -41q111 -1 172.5 53t75.5 139
q14 86 -31 138.5t-148 52.5q-79 0 -129 -26t-82 -60zM481 1082l-32 -193h-307l32 193h307z" />
    <glyph glyph-name="glottalstopbarinv" unicode="&#x1be;" horiz-adv-x="1084" 
d="M717 293q7 47 -14 78.5t-59 57.5t-80 54.5t-77.5 67.5t-52.5 97.5t-3 145.5l93 551h233l-90 -548q-11 -64 8.5 -104.5t56.5 -68t80 -52.5t79 -57t54.5 -80.5t4.5 -125.5q-15 -96 -82 -170.5t-172.5 -116.5t-236.5 -42q-150 0 -243.5 53t-132.5 136t-24 173h230
q-9 -69 19.5 -110t77.5 -58t103 -17q65 0 114 17.5t78.5 48t35.5 70.5zM909 1082l-30 -171h-613l31 171h612z" />
    <glyph glyph-name="uni01BF" unicode="&#x1bf;" horiz-adv-x="1274" 
d="M448 910l-196 -1326h-234l226 1534h216zM364 663l-115 -67q41 163 110.5 283t171.5 186.5t240 66.5q139 0 223.5 -69t115.5 -193.5t7 -289.5l-8 -50q-29 -209 -145 -343.5t-307 -220.5t-448 -152l21 185q169 34 306.5 98.5t227 170t112.5 262.5l6 50q15 98 0.5 180
t-64.5 131.5t-142 49.5q-85 0 -146.5 -37t-101.5 -100t-64 -141z" />
    <glyph glyph-name="pipe" unicode="&#x1c0;" horiz-adv-x="520" 
d="M496 1482l-247 -1482h-166l246 1482h167z" />
    <glyph glyph-name="pipedbl" unicode="&#x1c1;" horiz-adv-x="711" 
d="M460 1482l-247 -1482h-166l246 1482h167zM730 1482l-247 -1482h-166l246 1482h167z" />
    <glyph glyph-name="pipedblbar" unicode="&#x1c2;" horiz-adv-x="465" 
d="M468 1482l-247 -1482h-166l246 1482h167zM-37 961l26 158h678l-26 -158h-678zM-118 473l26 158h678l-26 -158h-678z" />
    <glyph glyph-name="exclam1" unicode="&#x1c3;" horiz-adv-x="503" 
d="M133 427l160 1063h232l-194 -1063h-198zM171 -17q-63 0 -100.5 45.5t-27.5 110.5q9 54 52.5 90.5t98.5 36.5q63 0 100.5 -45.5t27.5 -109.5q-9 -54 -52.5 -91t-98.5 -37z" />
    <glyph glyph-name="Dzcaron_" unicode="&#x1c5;" horiz-adv-x="2473" 
d="M571 0h-402l32 195h354q173 0 297 65.5t200 189t105 297.5q29 173 0 296t-121.5 187.5t-258.5 64.5h-401l32 195h377q220 0 366 -89.5t207 -256t22 -397.5q-38 -232 -142.5 -399.5t-272 -257.5t-394.5 -90zM525 1490l-247 -1490h-224l247 1490h224zM1446 0l25 152
l682 731l1 5h-557l30 182h826l-27 -161l-670 -722l-1 -5h559l-30 -182h-838zM1970 1508l112 -173l168 173h196l-1 -2l-288 -281h-189l-192 281l1 2h193z" />
    <glyph glyph-name="uni01C6" unicode="&#x1c6;" horiz-adv-x="2115" 
d="M453 -21q-181 0 -285 118t-104 316q0 126 37.5 246t108.5 217.5t172.5 155t229.5 57.5q79 0 139.5 -24t102.5 -66t64 -96h3l97 587h213l-246 -1490h-209l26 161h-5q-41 -59 -92.5 -99.5t-115 -61.5t-136.5 -21zM503 162q90 0 160 42t119 112t75 155.5t26 172.5
q0 122 -60 192.5t-172 70.5q-90 0 -159.5 -42.5t-117 -113t-72 -156.5t-24.5 -175q0 -124 59.5 -191t165.5 -67zM1088 0l25 152l682 731l1 5h-557l30 182h826l-27 -161l-670 -722l-1 -5h559l-30 -182h-838zM1612 1508l112 -173l168 173h196l-1 -2l-288 -281h-189l-192 281
l1 2h193z" />
    <glyph glyph-name="uni01C7" unicode="&#x1c7;" horiz-adv-x="2250" 
d="M54 0l247 1490h224l-215 -1295h697l-32 -195h-921zM1576 -21q-183 0 -294.5 93.5t-111.5 267.5q0 15 1.5 33.5t6.5 52.5t14 93h220q-9 -55 -13.5 -84t-5.5 -43.5t-1 -24.5q0 -95 52 -144.5t145 -49.5q106 0 183.5 66t99.5 193l175 1058h224l-176 -1059
q-36 -217 -174 -334.5t-345 -117.5z" />
    <glyph glyph-name="uni01C8" unicode="&#x1c8;" horiz-adv-x="1586" 
d="M54 0l247 1490h224l-215 -1295h697l-32 -195h-921zM1335 1070h213l-197 -1186q-14 -91 -61.5 -159t-124 -105.5t-178.5 -37.5h-79l30 180h55q66 0 101.5 35t47.5 109zM1471 1249q-57 0 -89 37.5t-24 92.5q9 55 54 92.5t102 37.5q56 0 89 -38t24 -92q-8 -55 -54 -92.5
t-102 -37.5z" />
    <glyph glyph-name="uni01C9" unicode="&#x1c9;" horiz-adv-x="929" 
d="M497 1490l-247 -1490h-213l247 1490h213zM679 1070h213l-197 -1186q-14 -91 -61.5 -159t-124 -105.5t-178.5 -37.5h-79l30 180h55q66 0 101.5 35t47.5 109zM815 1249q-57 0 -89 37.5t-24 92.5q9 55 54 92.5t102 37.5q56 0 89 -38t24 -92q-8 -55 -54 -92.5t-102 -37.5z
" />
    <glyph glyph-name="uni01CA" unicode="&#x1ca;" horiz-adv-x="2613" 
d="M54 0l247 1490h241l422 -898q16 -33 39.5 -88t49.5 -121t50 -133l-27 -39q6 64 16 142t20.5 148.5t16.5 110.5l146 878h225l-247 -1490h-240l-378 802q-20 43 -48 107t-64 149.5t-79 190.5l33 34q-14 -115 -26.5 -208.5t-22 -162t-17.5 -108.5l-133 -804h-224zM1939 -21
q-183 0 -294.5 93.5t-111.5 267.5q0 15 1.5 33.5t6.5 52.5t14 93h220q-9 -55 -13.5 -84t-5.5 -43.5t-1 -24.5q0 -95 52 -144.5t145 -49.5q106 0 183.5 66t99.5 193l175 1058h224l-176 -1059q-36 -217 -174 -334.5t-345 -117.5z" />
    <glyph glyph-name="uni01CB" unicode="&#x1cb;" horiz-adv-x="1948" 
d="M54 0l247 1490h241l422 -898q16 -33 39.5 -88t49.5 -121t50 -133l-27 -39q6 64 16 142t20.5 148.5t16.5 110.5l146 878h225l-247 -1490h-240l-378 802q-20 43 -48 107t-64 149.5t-79 190.5l33 34q-14 -115 -26.5 -208.5t-22 -162t-17.5 -108.5l-133 -804h-224zM1698 1070
h213l-197 -1186q-14 -91 -61.5 -159t-124 -105.5t-178.5 -37.5h-79l30 180h55q66 0 101.5 35t47.5 109zM1834 1249q-57 0 -89 37.5t-24 92.5q9 55 54 92.5t102 37.5q56 0 89 -38t24 -92q-8 -55 -54 -92.5t-102 -37.5z" />
    <glyph glyph-name="uni01CC" unicode="&#x1cc;" horiz-adv-x="1630" 
d="M352 612l-102 -612h-213l177 1070h207l-42 -265l-45 6q75 144 175.5 211t227.5 67q113 0 194 -49t117.5 -144t12.5 -234l-109 -662h-213l107 650q21 126 -28 188t-154 62q-75 0 -140.5 -32t-110.5 -95.5t-61 -160.5zM1379 1070h213l-197 -1186q-14 -91 -61.5 -159
t-124 -105.5t-178.5 -37.5h-79l30 180h55q66 0 101.5 35t47.5 109zM1516 1249q-57 0 -89 37.5t-24 92.5q9 55 54 92.5t102 37.5q56 0 89 -38t24 -92q-8 -55 -54 -92.5t-102 -37.5z" />
    <glyph glyph-name="uni01CD" unicode="&#x1cd;" horiz-adv-x="1395" 
d="M-64 0l785 1490h271l291 -1490h-234l-148 838q-17 103 -36.5 233.5t-45.5 319.5h59q-86 -188 -148 -318t-116 -235l-431 -838h-247zM297 388l32 189h752l-31 -189h-753zM789 1928l112 -173l168 173h196l-1 -2l-288 -281h-189l-192 281l1 2h193z" />
    <glyph glyph-name="uni01CE" unicode="&#x1ce;" horiz-adv-x="1199" 
d="M441 -21q-137 0 -229 69.5t-129 194.5t-10 292q28 167 106.5 291.5t194 193.5t251.5 69q76 0 135 -22.5t99 -62.5t62 -93h5l26 159h210l-178 -1070h-208l27 163h-6q-41 -56 -95 -97t-119.5 -64t-141.5 -23zM516 162q91 0 164.5 46.5t123.5 130.5t68 196q19 113 -3 196.5
t-80.5 129.5t-149.5 46q-87 0 -159.5 -44.5t-121.5 -127t-69 -200.5q-19 -117 3 -200.5t79.5 -128t144.5 -44.5zM612 1508l112 -173l168 173h196l-1 -2l-288 -281h-189l-192 281l1 2h193z" />
    <glyph glyph-name="uni01CF" unicode="&#x1cf;" horiz-adv-x="509" 
d="M525 1490l-247 -1490h-224l247 1490h224zM344 1928l112 -173l168 173h196l-1 -2l-288 -281h-189l-192 281l1 2h193z" />
    <glyph glyph-name="uni01D0" unicode="&#x1d0;" horiz-adv-x="465" 
d="M37 0l177 1070h214l-177 -1070h-214zM253 1508l112 -173l168 173h196l-1 -2l-288 -281h-189l-192 281l1 2h193z" />
    <glyph glyph-name="uni01D1" unicode="&#x1d1;" horiz-adv-x="1542" 
d="M691 -23q-176 0 -306 75.5t-202 213.5t-72 324q0 178 58 343.5t165 296t256 207t331 76.5q175 0 305 -75.5t202 -213.5t72 -325q0 -179 -58.5 -344.5t-166 -296t-256 -206t-328.5 -75.5zM700 181q134 0 241 61t182.5 164.5t115 231t39.5 260.5q0 134 -47 225.5
t-129.5 138.5t-189.5 47q-135 0 -242 -61.5t-182 -165t-115 -231t-40 -260.5t46.5 -224.5t129.5 -138.5t191 -47zM860 1928l112 -173l168 173h196l-1 -2l-288 -281h-189l-192 281l1 2h193z" />
    <glyph glyph-name="uni01D2" unicode="&#x1d2;" 
d="M503 -24q-136 0 -234 56t-151 157t-53 235q0 130 42 250t121 214t189 149t246 55t234 -56.5t150.5 -158t52.5 -236.5q0 -129 -42 -248.5t-120.5 -213.5t-188.5 -148.5t-246 -54.5zM511 159q93 0 163 43t117.5 114.5t71.5 157t24 170.5q0 81 -26.5 140.5t-78.5 91.5
t-128 32q-90 0 -160 -42.5t-118 -113.5t-73 -157t-25 -174q0 -120 60 -191t173 -71zM603 1508l112 -173l168 173h196l-1 -2l-288 -281h-189l-192 281l1 2h193z" />
    <glyph glyph-name="uni01D3" unicode="&#x1d3;" horiz-adv-x="1457" 
d="M649 -24q-182 0 -306.5 71t-179.5 193t-29 278l161 972h222l-160 -969q-16 -102 14 -179t103 -120.5t183 -43.5q117 0 210.5 47t154 128t76.5 183l158 954h222l-163 -987q-26 -155 -117 -274.5t-232 -186t-317 -66.5zM818 1928l112 -173l168 173h196l-1 -2l-288 -281
h-189l-192 281l1 2h193z" />
    <glyph glyph-name="uni01D4" unicode="&#x1d4;" 
d="M416 -19q-109 0 -188 47t-113 140.5t-12 231.5l111 670h214l-107 -643q-20 -125 30.5 -191t159.5 -66q72 0 135 30t107.5 92t59.5 158l103 620h213l-177 -1070h-208l43 265h43q-74 -144 -178.5 -214t-235.5 -70zM603 1508l112 -173l168 173h196l-1 -2l-288 -281h-189
l-192 281l1 2h193z" />
    <glyph glyph-name="uni01D5" unicode="&#x1d5;" horiz-adv-x="1457" 
d="M649 -24q-182 0 -306.5 71t-179.5 193t-29 278l161 972h222l-160 -969q-16 -102 14 -179t103 -120.5t183 -43.5q117 0 210.5 47t154 128t76.5 183l158 954h222l-163 -987q-26 -155 -117 -274.5t-232 -186t-317 -66.5zM1117 1632q-55 0 -86.5 37.5t-22.5 91.5t53 91.5
t99 37.5t86.5 -37.5t22.5 -91.5q-8 -54 -52.5 -91.5t-99.5 -37.5zM690 1632q-55 0 -86.5 37.5t-22.5 91.5q8 54 52.5 91.5t98.5 37.5q56 0 87.5 -37.5t22.5 -91.5q-8 -54 -52.5 -91.5t-99.5 -37.5zM1301 2148l-26 -140h-561l26 140h561z" />
    <glyph glyph-name="uni01D6" unicode="&#x1d6;" 
d="M416 -19q-109 0 -188 47t-113 140.5t-12 231.5l111 670h214l-107 -643q-20 -125 30.5 -191t159.5 -66q72 0 135 30t107.5 92t59.5 158l103 620h213l-177 -1070h-208l43 265h43q-74 -144 -178.5 -214t-235.5 -70zM902 1212q-55 0 -86.5 37.5t-22.5 91.5t53 91.5t99 37.5
t86.5 -37.5t22.5 -91.5q-8 -54 -52.5 -91.5t-99.5 -37.5zM475 1212q-55 0 -86.5 37.5t-22.5 91.5q8 54 52.5 91.5t98.5 37.5q56 0 87.5 -37.5t22.5 -91.5q-8 -54 -52.5 -91.5t-99.5 -37.5zM1086 1728l-26 -140h-561l26 140h561z" />
    <glyph glyph-name="uni01D7" unicode="&#x1d7;" horiz-adv-x="1457" 
d="M649 -24q-182 0 -306.5 71t-179.5 193t-29 278l161 972h222l-160 -969q-16 -102 14 -179t103 -120.5t183 -43.5q117 0 210.5 47t154 128t76.5 183l158 954h222l-163 -987q-26 -155 -117 -274.5t-232 -186t-317 -66.5zM1117 1632q-55 0 -86.5 37.5t-22.5 91.5t53 91.5
t99 37.5t86.5 -37.5t22.5 -91.5q-8 -54 -52.5 -91.5t-99.5 -37.5zM690 1632q-55 0 -86.5 37.5t-22.5 91.5q8 54 52.5 91.5t98.5 37.5q56 0 87.5 -37.5t22.5 -91.5q-8 -54 -52.5 -91.5t-99.5 -37.5zM884 1966l191 277h218l-250 -277h-159z" />
    <glyph glyph-name="uni01D8" unicode="&#x1d8;" 
d="M416 -19q-109 0 -188 47t-113 140.5t-12 231.5l111 670h214l-107 -643q-20 -125 30.5 -191t159.5 -66q72 0 135 30t107.5 92t59.5 158l103 620h213l-177 -1070h-208l43 265h43q-74 -144 -178.5 -214t-235.5 -70zM902 1212q-55 0 -86.5 37.5t-22.5 91.5t53 91.5t99 37.5
t86.5 -37.5t22.5 -91.5q-8 -54 -52.5 -91.5t-99.5 -37.5zM475 1212q-55 0 -86.5 37.5t-22.5 91.5q8 54 52.5 91.5t98.5 37.5q56 0 87.5 -37.5t22.5 -91.5q-8 -54 -52.5 -91.5t-99.5 -37.5zM669 1546l191 277h218l-250 -277h-159z" />
    <glyph glyph-name="uni01D9" unicode="&#x1d9;" horiz-adv-x="1457" 
d="M649 -24q-182 0 -306.5 71t-179.5 193t-29 278l161 972h222l-160 -969q-16 -102 14 -179t103 -120.5t183 -43.5q117 0 210.5 47t154 128t76.5 183l158 954h222l-163 -987q-26 -155 -117 -274.5t-232 -186t-317 -66.5zM1117 1632q-55 0 -86.5 37.5t-22.5 91.5t53 91.5
t99 37.5t86.5 -37.5t22.5 -91.5q-8 -54 -52.5 -91.5t-99.5 -37.5zM690 1632q-55 0 -86.5 37.5t-22.5 91.5q8 54 52.5 91.5t98.5 37.5q56 0 87.5 -37.5t22.5 -91.5q-8 -54 -52.5 -91.5t-99.5 -37.5zM873 2227l109 -170l165 170h189l-1 -3l-280 -274h-183l-187 274l1 3h187z
" />
    <glyph glyph-name="uni01DA" unicode="&#x1da;" 
d="M416 -19q-109 0 -188 47t-113 140.5t-12 231.5l111 670h214l-107 -643q-20 -125 30.5 -191t159.5 -66q72 0 135 30t107.5 92t59.5 158l103 620h213l-177 -1070h-208l43 265h43q-74 -144 -178.5 -214t-235.5 -70zM902 1212q-55 0 -86.5 37.5t-22.5 91.5t53 91.5t99 37.5
t86.5 -37.5t22.5 -91.5q-8 -54 -52.5 -91.5t-99.5 -37.5zM475 1212q-55 0 -86.5 37.5t-22.5 91.5q8 54 52.5 91.5t98.5 37.5q56 0 87.5 -37.5t22.5 -91.5q-8 -54 -52.5 -91.5t-99.5 -37.5zM658 1807l109 -170l165 170h189l-1 -3l-280 -274h-183l-187 274l1 3h187z" />
    <glyph glyph-name="uni01DB" unicode="&#x1db;" horiz-adv-x="1457" 
d="M649 -24q-182 0 -306.5 71t-179.5 193t-29 278l161 972h222l-160 -969q-16 -102 14 -179t103 -120.5t183 -43.5q117 0 210.5 47t154 128t76.5 183l158 954h222l-163 -987q-26 -155 -117 -274.5t-232 -186t-317 -66.5zM1117 1632q-55 0 -86.5 37.5t-22.5 91.5t53 91.5
t99 37.5t86.5 -37.5t22.5 -91.5q-8 -54 -52.5 -91.5t-99.5 -37.5zM690 1632q-55 0 -86.5 37.5t-22.5 91.5q8 54 52.5 91.5t98.5 37.5q56 0 87.5 -37.5t22.5 -91.5q-8 -54 -52.5 -91.5t-99.5 -37.5zM880 1966l-157 277h218l98 -277h-159z" />
    <glyph glyph-name="uni01DC" unicode="&#x1dc;" 
d="M416 -19q-109 0 -188 47t-113 140.5t-12 231.5l111 670h214l-107 -643q-20 -125 30.5 -191t159.5 -66q72 0 135 30t107.5 92t59.5 158l103 620h213l-177 -1070h-208l43 265h43q-74 -144 -178.5 -214t-235.5 -70zM902 1212q-55 0 -86.5 37.5t-22.5 91.5t53 91.5t99 37.5
t86.5 -37.5t22.5 -91.5q-8 -54 -52.5 -91.5t-99.5 -37.5zM475 1212q-55 0 -86.5 37.5t-22.5 91.5q8 54 52.5 91.5t98.5 37.5q56 0 87.5 -37.5t22.5 -91.5q-8 -54 -52.5 -91.5t-99.5 -37.5zM665 1546l-157 277h218l98 -277h-159z" />
    <glyph glyph-name="eturn" unicode="&#x1dd;" horiz-adv-x="1121" 
d="M618 1094q134 0 233.5 -51t153 -154t48.5 -261q-3 -144 -49.5 -263.5t-128 -206.5t-190.5 -134.5t-236 -47.5q-111 0 -196 36t-133 104.5t-48 166.5q0 100 54 167t161.5 105.5t268 55t375.5 16.5l-27 -158q-185 0 -306.5 -10.5t-191.5 -32.5t-98.5 -57t-28.5 -84
q0 -60 49.5 -95t142.5 -35q102 0 173 42t115 112t64.5 156t21.5 172q2 75 -18 139t-72.5 102.5t-151.5 38.5q-107 0 -182.5 -46.5t-110.5 -122.5l-204 10q56 151 189.5 243.5t322.5 92.5z" />
    <glyph glyph-name="uni01DE" unicode="&#x1de;" horiz-adv-x="1395" 
d="M-64 0l785 1490h271l291 -1490h-234l-148 838q-17 103 -36.5 233.5t-45.5 319.5h59q-86 -188 -148 -318t-116 -235l-431 -838h-247zM297 388l32 189h752l-31 -189h-753zM1089 1632q-55 0 -86.5 37.5t-22.5 91.5t53 91.5t99 37.5t86.5 -37.5t22.5 -91.5
q-8 -54 -52.5 -91.5t-99.5 -37.5zM662 1632q-55 0 -86.5 37.5t-22.5 91.5q8 54 52.5 91.5t98.5 37.5q56 0 87.5 -37.5t22.5 -91.5q-8 -54 -52.5 -91.5t-99.5 -37.5zM1273 2148l-26 -140h-561l26 140h561z" />
    <glyph glyph-name="uni01DF" unicode="&#x1df;" horiz-adv-x="1199" 
d="M441 -21q-137 0 -229 69.5t-129 194.5t-10 292q28 167 106.5 291.5t194 193.5t251.5 69q76 0 135 -22.5t99 -62.5t62 -93h5l26 159h210l-178 -1070h-208l27 163h-6q-41 -56 -95 -97t-119.5 -64t-141.5 -23zM516 162q91 0 164.5 46.5t123.5 130.5t68 196q19 113 -3 196.5
t-80.5 129.5t-149.5 46q-87 0 -159.5 -44.5t-121.5 -127t-69 -200.5q-19 -117 3 -200.5t79.5 -128t144.5 -44.5zM912 1212q-55 0 -86.5 37.5t-22.5 91.5t53 91.5t99 37.5t86.5 -37.5t22.5 -91.5q-8 -54 -52.5 -91.5t-99.5 -37.5zM485 1212q-55 0 -86.5 37.5t-22.5 91.5
q8 54 52.5 91.5t98.5 37.5q56 0 87.5 -37.5t22.5 -91.5q-8 -54 -52.5 -91.5t-99.5 -37.5zM1096 1728l-26 -140h-561l26 140h561z" />
    <glyph glyph-name="uni01E0" unicode="&#x1e0;" horiz-adv-x="1395" 
d="M-64 0l785 1490h271l291 -1490h-234l-148 838q-17 103 -36.5 233.5t-45.5 319.5h59q-86 -188 -148 -318t-116 -235l-431 -838h-247zM297 388l32 189h752l-31 -189h-753zM882 1631q-56 0 -88.5 37.5t-24.5 92.5q9 55 54.5 92.5t101.5 37.5q57 0 89.5 -37.5t23.5 -92.5
q-8 -55 -53.5 -92.5t-102.5 -37.5zM1273 2148l-26 -140h-561l26 140h561z" />
    <glyph glyph-name="uni01E1" unicode="&#x1e1;" horiz-adv-x="1199" 
d="M441 -21q-137 0 -229 69.5t-129 194.5t-10 292q28 167 106.5 291.5t194 193.5t251.5 69q76 0 135 -22.5t99 -62.5t62 -93h5l26 159h210l-178 -1070h-208l27 163h-6q-41 -56 -95 -97t-119.5 -64t-141.5 -23zM516 162q91 0 164.5 46.5t123.5 130.5t68 196q19 113 -3 196.5
t-80.5 129.5t-149.5 46q-87 0 -159.5 -44.5t-121.5 -127t-69 -200.5q-19 -117 3 -200.5t79.5 -128t144.5 -44.5zM705 1211q-56 0 -88.5 37.5t-24.5 92.5q9 55 54.5 92.5t101.5 37.5q57 0 89.5 -37.5t23.5 -92.5q-8 -55 -53.5 -92.5t-102.5 -37.5zM1096 1728l-26 -140h-561
l26 140h561z" />
    <glyph glyph-name="uni01E2" unicode="&#x1e2;" horiz-adv-x="1974" 
d="M-64 0l912 1490h1199l-33 -194h-711l-74 -451h655l-31 -190h-656l-77 -461h719l-32 -194h-940l214 1292h-130l-779 -1292h-236zM343 415l31 187h695l-32 -187h-694zM1801 1857l-26 -157h-561l26 157h561z" />
    <glyph glyph-name="uni01E3" unicode="&#x1e3;" horiz-adv-x="1801" 
d="M369 -16q-178 0 -268 89t-65 240q16 94 70 160.5t148.5 101.5t228.5 36q55 0 103.5 -2t104 -4t128.5 -2l-15 -150q-74 0 -152 2.5t-149 2.5q-102 0 -174 -32.5t-85 -112.5q-12 -79 30.5 -119t137.5 -40t162.5 34.5t107.5 91t51 121.5l57 336q16 87 -32.5 133.5
t-158.5 46.5q-66 0 -119.5 -21t-89 -59t-49.5 -91l-209 2q22 101 89.5 178.5t171 121t232.5 43.5q131 0 216 -45.5t121 -125.5t18 -184l-77 -464l-17 -1q-37 -86 -106 -150.5t-171 -100.5t-240 -36zM1187 -24q-137 0 -234 52.5t-146.5 158.5t-44.5 266q4 144 48 261.5
t121.5 202t181.5 130.5t229 46q113 0 199.5 -36.5t135.5 -107t49 -170.5q0 -93 -54 -156.5t-161.5 -101t-267.5 -53.5t-373 -16l20 147q186 0 308 11t192 34.5t99.5 61t29.5 90.5q0 61 -48.5 90t-131.5 29q-100 0 -175.5 -40.5t-123.5 -114.5t-65 -176q-5 -29 -10 -60.5
t-8.5 -61t-3.5 -50.5q0 -129 57 -194t178 -65q108 0 186.5 48.5t112.5 123.5l209 -8q-59 -162 -191.5 -251.5t-317.5 -89.5zM1304 1437l-26 -157h-561l26 157h561z" />
    <glyph glyph-name="Gbar" unicode="&#x1e4;" horiz-adv-x="1507" 
d="M696 -23q-179 0 -310.5 76.5t-203 214t-71.5 322.5q0 178 58.5 343.5t166 296.5t256.5 207t330 76q122 0 224.5 -36.5t177.5 -104t115.5 -160.5t39.5 -206h-227q-4 68 -28.5 124t-67.5 96t-103.5 61.5t-136.5 21.5q-136 0 -243.5 -61.5t-183.5 -165t-116 -230.5t-40 -258
q0 -192 99.5 -302.5t274.5 -110.5q121 0 226 51.5t176.5 144t91.5 212.5l59 -13h-430l31 185h588l-30 -178q-22 -134 -87 -245.5t-162.5 -192.5t-218.5 -124.5t-255 -43.5zM790 332l22 134h667l-22 -134h-667z" />
    <glyph glyph-name="gbar" unicode="&#x1e5;" horiz-adv-x="1199" 
d="M439 -434q-131 0 -225 37.5t-145 107.5t-53 165l203 16q7 -46 33.5 -80.5t73.5 -53.5t116 -19q133 0 223 70.5t110 198.5l26 166h-5q-42 -56 -93 -96.5t-112 -62.5t-136 -22q-120 0 -207.5 52.5t-135 149t-47.5 226.5q0 125 37.5 243.5t109 214.5t172.5 153t228 57
q59 0 108 -13.5t88 -38t67 -59t45 -77.5l5 1l27 168h210l-177 -1070q-25 -157 -104.5 -252.5t-194.5 -138.5t-247 -43zM505 174q90 0 160 41t118.5 109t74 152t25.5 171q0 121 -60 191t-172 70q-89 0 -158.5 -41.5t-117 -111t-72 -155t-24.5 -173.5q0 -123 59.5 -188
t166.5 -65zM644 494l24 142h637l-24 -142h-637z" />
    <glyph glyph-name="Gcaron" unicode="&#x1e6;" horiz-adv-x="1507" 
d="M696 -23q-179 0 -310.5 76.5t-203 214t-71.5 322.5q0 178 58.5 343.5t166 296.5t256.5 207t330 76q122 0 224.5 -36.5t177.5 -104t115.5 -160.5t39.5 -206h-227q-4 68 -28.5 124t-67.5 96t-103.5 61.5t-136.5 21.5q-136 0 -243.5 -61.5t-183.5 -165t-116 -230.5t-40 -258
q0 -192 99.5 -302.5t274.5 -110.5q121 0 226 51.5t176.5 144t91.5 212.5l59 -13h-430l31 185h588l-30 -178q-22 -134 -87 -245.5t-162.5 -192.5t-218.5 -124.5t-255 -43.5zM853 1928l112 -173l168 173h196l-1 -2l-288 -281h-189l-192 281l1 2h193z" />
    <glyph glyph-name="gcaron" unicode="&#x1e7;" horiz-adv-x="1199" 
d="M439 -434q-131 0 -225 37.5t-145 107.5t-53 165l203 16q7 -46 33.5 -80.5t73.5 -53.5t116 -19q133 0 223 70.5t110 198.5l26 166h-5q-42 -56 -93 -96.5t-112 -62.5t-136 -22q-120 0 -207.5 52.5t-135 149t-47.5 226.5q0 125 37.5 243.5t109 214.5t172.5 153t228 57
q59 0 108 -13.5t88 -38t67 -59t45 -77.5l5 1l27 168h210l-177 -1070q-25 -157 -104.5 -252.5t-194.5 -138.5t-247 -43zM505 174q90 0 160 41t118.5 109t74 152t25.5 171q0 121 -60 191t-172 70q-89 0 -158.5 -41.5t-117 -111t-72 -155t-24.5 -173.5q0 -123 59.5 -188
t166.5 -65zM595 1508l112 -173l168 173h196l-1 -2l-288 -281h-189l-192 281l1 2h193z" />
    <glyph glyph-name="uni01E8" unicode="&#x1e8;" horiz-adv-x="1351" 
d="M275 390l38 271q62 63 122.5 123t122.5 119.5t126 119.5l501 467h291l-749 -695l-15 1zM54 0l247 1490h224l-79 -482l-58 -337l-17 -108l-93 -563h-224zM987 0l-390 734l150 173l487 -907h-247zM775 1928l112 -173l168 173h196l-1 -2l-288 -281h-189l-192 281l1 2h193z
" />
    <glyph glyph-name="uni01E9" unicode="&#x1e9;" horiz-adv-x="1086" 
d="M293 360l42 254h23l524 456h263l-589 -517h-34zM37 0l247 1490h213l-247 -1490h-213zM736 0l-314 505l171 149l405 -654h-262zM322 1928l112 -173l168 173h196l-1 -2l-288 -281h-189l-192 281l1 2h193z" />
    <glyph glyph-name="uni01EA" unicode="&#x1ea;" horiz-adv-x="1542" 
d="M691 -23q-176 0 -306 75.5t-202 213.5t-72 324q0 178 58 343.5t165 296t256 207t331 76.5q175 0 305 -75.5t202 -213.5t72 -325q0 -179 -58.5 -344.5t-166 -296t-256 -206t-328.5 -75.5zM700 181q134 0 241 61t182.5 164.5t115 231t39.5 260.5q0 134 -47 225.5
t-129.5 138.5t-189.5 47q-135 0 -242 -61.5t-182 -165t-115 -231t-40 -260.5t46.5 -224.5t129.5 -138.5t191 -47zM669 -422q-104 0 -161 50t-40 146q13 80 65.5 136t130.5 101.5t169 93t182.5 110t171.5 152t136.5 219.5t74.5 313h102q-9 -191 -56 -331.5t-118.5 -240.5
t-154 -169.5t-165 -118t-152.5 -85t-115 -70t-53 -75.5q-5 -34 12 -52t61 -18q17 0 35 2t33 4l-12 -155q-32 -5 -70 -8.5t-76 -3.5z" />
    <glyph glyph-name="uni01EB" unicode="&#x1eb;" 
d="M503 -24q-136 0 -234 56t-151 157t-53 235q0 130 42 250t121 214t189 149t246 55t234 -56.5t150.5 -158t52.5 -236.5q0 -129 -42 -248.5t-120.5 -213.5t-188.5 -148.5t-246 -54.5zM511 159q93 0 163 43t117.5 114.5t71.5 157t24 170.5q0 81 -26.5 140.5t-78.5 91.5
t-128 32q-90 0 -160 -42.5t-118 -113.5t-73 -157t-25 -174q0 -120 60 -191t173 -71zM489 -423q-115 0 -169 49t-39 143q14 81 65 136t125 98t155.5 87t157.5 100.5t132 138.5t76 203h99q-22 -135 -72 -228.5t-114.5 -156.5t-132.5 -105.5t-128.5 -77t-100.5 -70.5t-49 -86
q-5 -34 12.5 -52t70.5 -18q14 0 27 2t25 4l-12 -155q-28 -5 -61.5 -8.5t-66.5 -3.5z" />
    <glyph glyph-name="uni01EC" unicode="&#x1ec;" horiz-adv-x="1542" 
d="M691 -23q-176 0 -306 75.5t-202 213.5t-72 324q0 178 58 343.5t165 296t256 207t331 76.5q175 0 305 -75.5t202 -213.5t72 -325q0 -179 -58.5 -344.5t-166 -296t-256 -206t-328.5 -75.5zM700 181q134 0 241 61t182.5 164.5t115 231t39.5 260.5q0 134 -47 225.5
t-129.5 138.5t-189.5 47q-135 0 -242 -61.5t-182 -165t-115 -231t-40 -260.5t46.5 -224.5t129.5 -138.5t191 -47zM669 -422q-104 0 -161 50t-40 146q13 80 65.5 136t130.5 101.5t169 93t182.5 110t171.5 152t136.5 219.5t74.5 313h102q-9 -191 -56 -331.5t-118.5 -240.5
t-154 -169.5t-165 -118t-152.5 -85t-115 -70t-53 -75.5q-5 -34 12 -52t61 -18q17 0 35 2t33 4l-12 -155q-32 -5 -70 -8.5t-76 -3.5zM1270 1857l-26 -157h-561l26 157h561z" />
    <glyph glyph-name="uni01ED" unicode="&#x1ed;" 
d="M503 -24q-136 0 -234 56t-151 157t-53 235q0 130 42 250t121 214t189 149t246 55t234 -56.5t150.5 -158t52.5 -236.5q0 -129 -42 -248.5t-120.5 -213.5t-188.5 -148.5t-246 -54.5zM511 159q93 0 163 43t117.5 114.5t71.5 157t24 170.5q0 81 -26.5 140.5t-78.5 91.5
t-128 32q-90 0 -160 -42.5t-118 -113.5t-73 -157t-25 -174q0 -120 60 -191t173 -71zM489 -423q-115 0 -169 49t-39 143q14 81 65 136t125 98t155.5 87t157.5 100.5t132 138.5t76 203h99q-22 -135 -72 -228.5t-114.5 -156.5t-132.5 -105.5t-128.5 -77t-100.5 -70.5t-49 -86
q-5 -34 12.5 -52t70.5 -18q14 0 27 2t25 4l-12 -155q-28 -5 -61.5 -8.5t-66.5 -3.5zM1012 1437l-26 -157h-561l26 157h561z" />
    <glyph glyph-name="uni01EE" unicode="&#x1ee;" horiz-adv-x="1342" 
d="M-18 78h225q-10 -96 29.5 -169t116.5 -114t176 -41q117 0 212 57t157.5 154t82.5 219q23 138 -19 239t-135 155.5t-227 54.5h-125l29 175l551 474v12h-789l33 196h1083l-27 -162l-600 -520l-2 -14q162 -9 273.5 -88.5t159.5 -213t19 -305.5q-22 -136 -85 -251
t-158 -199.5t-213.5 -130.5t-254.5 -46q-164 0 -286 65.5t-183 182.5t-43 270zM788 2114l112 -173l168 173h196l-1 -2l-288 -281h-189l-192 281l1 2h193z" />
    <glyph glyph-name="uni01EF" unicode="&#x1ef;" horiz-adv-x="1241" 
d="M490 -443q-158 0 -273.5 62t-171 170.5t-34.5 247.5h221q-13 -90 15 -155.5t91 -101t156 -35.5q90 0 165.5 35t125.5 100t64 152q15 85 -10 149.5t-92.5 100t-182.5 35.5h-202l27 161l465 397l1 4h-636l32 191h919l-31 -182l-562 -478l1 47q170 14 287.5 -38.5
t171.5 -154t32 -235.5q-23 -139 -101.5 -245.5t-200.5 -166.5t-277 -60zM632 1508l112 -173l168 173h196l-1 -2l-288 -281h-189l-192 281l1 2h193z" />
    <glyph glyph-name="uni01F0" unicode="&#x1f0;" horiz-adv-x="464" 
d="M214 1070h213l-197 -1186q-14 -91 -61.5 -159t-124 -105.5t-178.5 -37.5h-79l30 180h55q66 0 101.5 35t47.5 109zM252 1508l112 -173l168 173h196l-1 -2l-288 -281h-189l-192 281l1 2h193z" />
    <glyph glyph-name="uni01F1" unicode="&#x1f1;" horiz-adv-x="2696" 
d="M571 0h-402l32 195h354q173 0 297 65.5t200 189t105 297.5q29 173 0 296t-121.5 187.5t-258.5 64.5h-401l32 195h377q220 0 366 -89.5t207 -256t22 -397.5q-38 -232 -142.5 -399.5t-272 -257.5t-394.5 -90zM525 1490l-247 -1490h-224l247 1490h224zM1447 0l25 148
l970 1151h-786l32 191h1063l-24 -149l-971 -1150h786l-32 -191h-1063z" />
    <glyph glyph-name="uni01F2" unicode="&#x1f2;" horiz-adv-x="2473" 
d="M571 0h-402l32 195h354q173 0 297 65.5t200 189t105 297.5q29 173 0 296t-121.5 187.5t-258.5 64.5h-401l32 195h377q220 0 366 -89.5t207 -256t22 -397.5q-38 -232 -142.5 -399.5t-272 -257.5t-394.5 -90zM525 1490l-247 -1490h-224l247 1490h224zM1446 0l25 152
l682 731l1 5h-557l30 182h826l-27 -161l-670 -722l-1 -5h559l-30 -182h-838z" />
    <glyph glyph-name="uni01F3" unicode="&#x1f3;" horiz-adv-x="2115" 
d="M453 -21q-181 0 -285 118t-104 316q0 126 37.5 246t108.5 217.5t172.5 155t229.5 57.5q79 0 139.5 -24t102.5 -66t64 -96h3l97 587h213l-246 -1490h-209l26 161h-5q-41 -59 -92.5 -99.5t-115 -61.5t-136.5 -21zM503 162q90 0 160 42t119 112t75 155.5t26 172.5
q0 122 -60 192.5t-172 70.5q-90 0 -159.5 -42.5t-117 -113t-72 -156.5t-24.5 -175q0 -124 59.5 -191t165.5 -67zM1088 0l25 152l682 731l1 5h-557l30 182h826l-27 -161l-670 -722l-1 -5h559l-30 -182h-838z" />
    <glyph glyph-name="uni01F4" unicode="&#x1f4;" horiz-adv-x="1507" 
d="M696 -23q-179 0 -310.5 76.5t-203 214t-71.5 322.5q0 178 58.5 343.5t166 296.5t256.5 207t330 76q122 0 224.5 -36.5t177.5 -104t115.5 -160.5t39.5 -206h-227q-4 68 -28.5 124t-67.5 96t-103.5 61.5t-136.5 21.5q-136 0 -243.5 -61.5t-183.5 -165t-116 -230.5t-40 -258
q0 -192 99.5 -302.5t274.5 -110.5q121 0 226 51.5t176.5 144t91.5 212.5l59 -13h-430l31 185h588l-30 -178q-22 -134 -87 -245.5t-162.5 -192.5t-218.5 -124.5t-255 -43.5zM853 1661l196 283h225l-256 -283h-165z" />
    <glyph glyph-name="uni01F5" unicode="&#x1f5;" horiz-adv-x="1199" 
d="M439 -434q-131 0 -225 37.5t-145 107.5t-53 165l203 16q7 -46 33.5 -80.5t73.5 -53.5t116 -19q133 0 223 70.5t110 198.5l26 166h-5q-42 -56 -93 -96.5t-112 -62.5t-136 -22q-120 0 -207.5 52.5t-135 149t-47.5 226.5q0 125 37.5 243.5t109 214.5t172.5 153t228 57
q59 0 108 -13.5t88 -38t67 -59t45 -77.5l5 1l27 168h210l-177 -1070q-25 -157 -104.5 -252.5t-194.5 -138.5t-247 -43zM505 174q90 0 160 41t118.5 109t74 152t25.5 171q0 121 -60 191t-172 70q-89 0 -158.5 -41.5t-117 -111t-72 -155t-24.5 -173.5q0 -123 59.5 -188
t166.5 -65zM596 1241l196 283h225l-256 -283h-165z" />
    <glyph glyph-name="uni01F6" unicode="&#x1f6;" horiz-adv-x="2174" 
d="M1499 -21q-145 0 -245.5 56t-144 157.5t-20.5 239.5l38 229h-740l-109 -661h-224l246 1490h224l-105 -634h740l105 634h224l-176 -1064q-22 -128 28 -192.5t166 -64.5q84 0 149 32t107 93t56 147l103 626h215l-107 -650q-22 -138 -95 -235.5t-184.5 -150t-250.5 -52.5z
" />
    <glyph glyph-name="uni01F7" unicode="&#x1f7;" horiz-adv-x="1320" 
d="M501 1489l-311 -1907h-242l310 1907h243zM107 -182l31 194q171 32 319 105t263 179t190.5 239t101.5 286l12 67q17 103 9.5 182t-41 133.5t-94.5 82.5t-152 28q-101 0 -178 -34.5t-132 -102.5t-92 -171l67 396q71 52 159.5 79.5t204.5 27.5q182 0 303.5 -72.5t172 -211.5
t16.5 -341l-11 -63q-30 -187 -129 -353.5t-252 -300t-348 -224t-420 -125.5z" />
    <glyph glyph-name="uni01F8" unicode="&#x1f8;" horiz-adv-x="1484" 
d="M54 0l247 1490h241l422 -898q16 -33 39.5 -88t49.5 -121t50 -133l-27 -39q6 64 16 142t20.5 148.5t16.5 110.5l146 878h225l-247 -1490h-240l-378 802q-20 43 -48 107t-64 149.5t-79 190.5l33 34q-14 -115 -26.5 -208.5t-22 -162t-17.5 -108.5l-133 -804h-224zM846 1626
l-158 302h225l98 -302h-165z" />
    <glyph glyph-name="uni01F9" unicode="&#x1f9;" horiz-adv-x="1165" 
d="M352 612l-102 -612h-213l177 1070h207l-42 -265l-45 6q75 144 175.5 211t227.5 67q113 0 194 -49t117.5 -144t12.5 -234l-109 -662h-213l107 650q21 126 -28 188t-154 62q-75 0 -140.5 -32t-110.5 -95.5t-61 -160.5zM616 1206l-158 302h225l98 -302h-165z" />
    <glyph glyph-name="Aringacute" unicode="&#x1fa;" horiz-adv-x="1395" 
d="M-64 0l785 1490h271l291 -1490h-234l-148 838q-17 103 -36.5 233.5t-45.5 319.5h59q-86 -188 -148 -318t-116 -235l-431 -838h-247zM297 388l32 189h752l-31 -189h-753zM878 2096l178 189h205l-225 -189h-158zM884 1570q-74 0 -128 33.5t-79.5 90t-14.5 125.5
q11 62 50.5 112t98.5 79.5t126 29.5q74 0 128 -33.5t79.5 -90t14.5 -124.5q-10 -62 -50 -113t-99 -80t-126 -29zM892 1694q47 0 85 32t46 78q8 47 -19 79.5t-75 32.5q-46 0 -84 -32t-46 -79q-8 -46 19 -78.5t74 -32.5z" />
    <glyph glyph-name="aringacute" unicode="&#x1fb;" horiz-adv-x="1199" 
d="M441 -21q-137 0 -229 69.5t-129 194.5t-10 292q28 167 106.5 291.5t194 193.5t251.5 69q76 0 135 -22.5t99 -62.5t62 -93h5l26 159h210l-178 -1070h-208l27 163h-6q-41 -56 -95 -97t-119.5 -64t-141.5 -23zM516 162q91 0 164.5 46.5t123.5 130.5t68 196q19 113 -3 196.5
t-80.5 129.5t-149.5 46q-87 0 -159.5 -44.5t-121.5 -127t-69 -200.5q-19 -117 3 -200.5t79.5 -128t144.5 -44.5zM701 1675l178 189h205l-225 -189h-158zM707 1149q-74 0 -128 33.5t-79.5 90t-14.5 125.5q11 62 50.5 112t98.5 79.5t126 29.5q74 0 128 -33.5t79.5 -90
t14.5 -124.5q-10 -62 -50 -113t-99 -80t-126 -29zM715 1273q47 0 85 32t46 78q8 47 -19 79.5t-75 32.5q-46 0 -84 -32t-46 -79q-8 -46 19 -78.5t74 -32.5z" />
    <glyph glyph-name="AEacute" unicode="&#x1fc;" horiz-adv-x="1974" 
d="M-64 0l912 1490h1199l-33 -194h-711l-74 -451h655l-31 -190h-656l-77 -461h719l-32 -194h-940l214 1292h-130l-779 -1292h-236zM343 415l31 187h695l-32 -187h-694zM1392 1661l196 283h225l-256 -283h-165z" />
    <glyph glyph-name="aeacute" unicode="&#x1fd;" horiz-adv-x="1801" 
d="M369 -16q-178 0 -268 89t-65 240q16 94 70 160.5t148.5 101.5t228.5 36q55 0 103.5 -2t104 -4t128.5 -2l-15 -150q-74 0 -152 2.5t-149 2.5q-102 0 -174 -32.5t-85 -112.5q-12 -79 30.5 -119t137.5 -40t162.5 34.5t107.5 91t51 121.5l57 336q16 87 -32.5 133.5
t-158.5 46.5q-66 0 -119.5 -21t-89 -59t-49.5 -91l-209 2q22 101 89.5 178.5t171 121t232.5 43.5q131 0 216 -45.5t121 -125.5t18 -184l-77 -464l-17 -1q-37 -86 -106 -150.5t-171 -100.5t-240 -36zM1187 -24q-137 0 -234 52.5t-146.5 158.5t-44.5 266q4 144 48 261.5
t121.5 202t181.5 130.5t229 46q113 0 199.5 -36.5t135.5 -107t49 -170.5q0 -93 -54 -156.5t-161.5 -101t-267.5 -53.5t-373 -16l20 147q186 0 308 11t192 34.5t99.5 61t29.5 90.5q0 61 -48.5 90t-131.5 29q-100 0 -175.5 -40.5t-123.5 -114.5t-65 -176q-5 -29 -10 -60.5
t-8.5 -61t-3.5 -50.5q0 -129 57 -194t178 -65q108 0 186.5 48.5t112.5 123.5l209 -8q-59 -162 -191.5 -251.5t-317.5 -89.5zM895 1241l196 283h225l-256 -283h-165z" />
    <glyph glyph-name="Oslashacute" unicode="&#x1fe;" horiz-adv-x="1542" 
d="M691 -23q-176 0 -306 75.5t-202 213.5t-72 324q0 178 58 343.5t165 296t256 207t331 76.5q175 0 305 -75.5t202 -213.5t72 -325q0 -179 -58.5 -344.5t-166 -296t-256 -206t-328.5 -75.5zM700 181q134 0 241 61t182.5 164.5t115 231t39.5 260.5q0 134 -47 225.5
t-129.5 138.5t-189.5 47q-135 0 -242 -61.5t-182 -165t-115 -231t-40 -260.5t46.5 -224.5t129.5 -138.5t191 -47zM137 -59l-122 116l1460 1492l122 -116zM861 1661l196 283h225l-256 -283h-165z" />
    <glyph glyph-name="oslashacute" unicode="&#x1ff;" 
d="M503 -24q-136 0 -234 56t-151 157t-53 235q0 130 42 250t121 214t189 149t246 55t234 -56.5t150.5 -158t52.5 -236.5q0 -129 -42 -248.5t-120.5 -213.5t-188.5 -148.5t-246 -54.5zM511 159q93 0 163 43t117.5 114.5t71.5 157t24 170.5q0 81 -26.5 140.5t-78.5 91.5
t-128 32q-90 0 -160 -42.5t-118 -113.5t-73 -157t-25 -174q0 -120 60 -191t173 -71zM66 -47l-91 94l1124 1069l91 -93zM603 1241l196 283h225l-256 -283h-165z" />
    <glyph glyph-name="uni0200" unicode="&#x200;" horiz-adv-x="1395" 
d="M-64 0l785 1490h271l291 -1490h-234l-148 838q-17 103 -36.5 233.5t-45.5 319.5h59q-86 -188 -148 -318t-116 -235l-431 -838h-247zM297 388l32 189h752l-31 -189h-753zM961 1626l-126 302h219l72 -302h-165zM646 1626l-180 302h225l124 -302h-169z" />
    <glyph glyph-name="uni0201" unicode="&#x201;" horiz-adv-x="1199" 
d="M441 -21q-137 0 -229 69.5t-129 194.5t-10 292q28 167 106.5 291.5t194 193.5t251.5 69q76 0 135 -22.5t99 -62.5t62 -93h5l26 159h210l-178 -1070h-208l27 163h-6q-41 -56 -95 -97t-119.5 -64t-141.5 -23zM516 162q91 0 164.5 46.5t123.5 130.5t68 196q19 113 -3 196.5
t-80.5 129.5t-149.5 46q-87 0 -159.5 -44.5t-121.5 -127t-69 -200.5q-19 -117 3 -200.5t79.5 -128t144.5 -44.5zM784 1206l-126 302h219l72 -302h-165zM469 1206l-180 302h225l124 -302h-169z" />
    <glyph glyph-name="uni0202" unicode="&#x202;" horiz-adv-x="1395" 
d="M-64 0l785 1490h271l291 -1490h-234l-148 838q-17 103 -36.5 233.5t-45.5 319.5h59q-86 -188 -148 -318t-116 -235l-431 -838h-247zM297 388l32 189h752l-31 -189h-753zM931 1933q90 0 153 -38.5t91.5 -104t15.5 -145.5h-146q12 66 -27.5 108t-109.5 42t-123.5 -42
t-64.5 -108h-145q14 80 64 145.5t126 104t166 38.5z" />
    <glyph glyph-name="uni0203" unicode="&#x203;" horiz-adv-x="1199" 
d="M441 -21q-137 0 -229 69.5t-129 194.5t-10 292q28 167 106.5 291.5t194 193.5t251.5 69q76 0 135 -22.5t99 -62.5t62 -93h5l26 159h210l-178 -1070h-208l27 163h-6q-41 -56 -95 -97t-119.5 -64t-141.5 -23zM516 162q91 0 164.5 46.5t123.5 130.5t68 196q19 113 -3 196.5
t-80.5 129.5t-149.5 46q-87 0 -159.5 -44.5t-121.5 -127t-69 -200.5q-19 -117 3 -200.5t79.5 -128t144.5 -44.5zM754 1513q90 0 153 -38.5t91.5 -104t15.5 -145.5h-146q12 66 -27.5 108t-109.5 42t-123.5 -42t-64.5 -108h-145q14 80 64 145.5t126 104t166 38.5z" />
    <glyph glyph-name="uni0204" unicode="&#x204;" horiz-adv-x="1210" 
d="M54 0l247 1490h988l-33 -195h-764l-72 -441h708l-33 -192h-708l-77 -467h765l-32 -195h-989zM898 1626l-126 302h219l72 -302h-165zM583 1626l-180 302h225l124 -302h-169z" />
    <glyph glyph-name="uni0205" unicode="&#x205;" horiz-adv-x="1121" 
d="M503 -24q-134 0 -233.5 51t-153 154.5t-48.5 259.5q3 145 49 264.5t128 206.5t191 134t236 47q111 0 196 -35.5t133 -104t48 -166.5q0 -101 -54 -167.5t-161.5 -105t-268 -55t-375.5 -16.5l26 158q186 0 307.5 10.5t191 32.5t98.5 57t29 83q0 61 -49.5 96t-142.5 35
q-102 0 -173 -42t-115 -112.5t-64.5 -155.5t-21.5 -172q-1 -75 18.5 -139t72.5 -102.5t151 -38.5q107 0 183 46.5t110 122.5l204 -10q-56 -151 -189 -243.5t-323 -92.5zM772 1206l-126 302h219l72 -302h-165zM457 1206l-180 302h225l124 -302h-169z" />
    <glyph glyph-name="uni0206" unicode="&#x206;" horiz-adv-x="1210" 
d="M54 0l247 1490h988l-33 -195h-764l-72 -441h708l-33 -192h-708l-77 -467h765l-32 -195h-989zM869 1933q90 0 153 -38.5t91.5 -104t15.5 -145.5h-146q12 66 -27.5 108t-109.5 42t-123.5 -42t-64.5 -108h-145q14 80 64 145.5t126 104t166 38.5z" />
    <glyph glyph-name="uni0207" unicode="&#x207;" horiz-adv-x="1121" 
d="M503 -24q-134 0 -233.5 51t-153 154.5t-48.5 259.5q3 145 49 264.5t128 206.5t191 134t236 47q111 0 196 -35.5t133 -104t48 -166.5q0 -101 -54 -167.5t-161.5 -105t-268 -55t-375.5 -16.5l26 158q186 0 307.5 10.5t191 32.5t98.5 57t29 83q0 61 -49.5 96t-142.5 35
q-102 0 -173 -42t-115 -112.5t-64.5 -155.5t-21.5 -172q-1 -75 18.5 -139t72.5 -102.5t151 -38.5q107 0 183 46.5t110 122.5l204 -10q-56 -151 -189 -243.5t-323 -92.5zM743 1513q90 0 153 -38.5t91.5 -104t15.5 -145.5h-146q12 66 -27.5 108t-109.5 42t-123.5 -42
t-64.5 -108h-145q14 80 64 145.5t126 104t166 38.5z" />
    <glyph glyph-name="uni0208" unicode="&#x208;" horiz-adv-x="509" 
d="M525 1490l-247 -1490h-224l247 1490h224zM516 1626l-126 302h219l72 -302h-165zM201 1626l-180 302h225l124 -302h-169z" />
    <glyph glyph-name="uni0209" unicode="&#x209;" horiz-adv-x="465" 
d="M37 0l177 1070h214l-177 -1070h-214zM424 1206l-126 302h219l72 -302h-165zM109 1206l-180 302h225l124 -302h-169z" />
    <glyph glyph-name="uni020A" unicode="&#x20a;" horiz-adv-x="509" 
d="M525 1490l-247 -1490h-224l247 1490h224zM486 1933q90 0 153 -38.5t91.5 -104t15.5 -145.5h-146q12 66 -27.5 108t-109.5 42t-123.5 -42t-64.5 -108h-145q14 80 64 145.5t126 104t166 38.5z" />
    <glyph glyph-name="uni020B" unicode="&#x20b;" horiz-adv-x="465" 
d="M37 0l177 1070h214l-177 -1070h-214zM395 1513q90 0 153 -38.5t91.5 -104t15.5 -145.5h-146q12 66 -27.5 108t-109.5 42t-123.5 -42t-64.5 -108h-145q14 80 64 145.5t126 104t166 38.5z" />
    <glyph glyph-name="uni020C" unicode="&#x20c;" horiz-adv-x="1542" 
d="M691 -23q-176 0 -306 75.5t-202 213.5t-72 324q0 178 58 343.5t165 296t256 207t331 76.5q175 0 305 -75.5t202 -213.5t72 -325q0 -179 -58.5 -344.5t-166 -296t-256 -206t-328.5 -75.5zM700 181q134 0 241 61t182.5 164.5t115 231t39.5 260.5q0 134 -47 225.5
t-129.5 138.5t-189.5 47q-135 0 -242 -61.5t-182 -165t-115 -231t-40 -260.5t46.5 -224.5t129.5 -138.5t191 -47zM1032 1626l-126 302h219l72 -302h-165zM717 1626l-180 302h225l124 -302h-169z" />
    <glyph glyph-name="uni020D" unicode="&#x20d;" 
d="M503 -24q-136 0 -234 56t-151 157t-53 235q0 130 42 250t121 214t189 149t246 55t234 -56.5t150.5 -158t52.5 -236.5q0 -129 -42 -248.5t-120.5 -213.5t-188.5 -148.5t-246 -54.5zM511 159q93 0 163 43t117.5 114.5t71.5 157t24 170.5q0 81 -26.5 140.5t-78.5 91.5
t-128 32q-90 0 -160 -42.5t-118 -113.5t-73 -157t-25 -174q0 -120 60 -191t173 -71zM774 1206l-126 302h219l72 -302h-165zM459 1206l-180 302h225l124 -302h-169z" />
    <glyph glyph-name="uni020E" unicode="&#x20e;" horiz-adv-x="1542" 
d="M691 -23q-176 0 -306 75.5t-202 213.5t-72 324q0 178 58 343.5t165 296t256 207t331 76.5q175 0 305 -75.5t202 -213.5t72 -325q0 -179 -58.5 -344.5t-166 -296t-256 -206t-328.5 -75.5zM700 181q134 0 241 61t182.5 164.5t115 231t39.5 260.5q0 134 -47 225.5
t-129.5 138.5t-189.5 47q-135 0 -242 -61.5t-182 -165t-115 -231t-40 -260.5t46.5 -224.5t129.5 -138.5t191 -47zM1002 1933q90 0 153 -38.5t91.5 -104t15.5 -145.5h-146q12 66 -27.5 108t-109.5 42t-123.5 -42t-64.5 -108h-145q14 80 64 145.5t126 104t166 38.5z" />
    <glyph glyph-name="uni020F" unicode="&#x20f;" 
d="M503 -24q-136 0 -234 56t-151 157t-53 235q0 130 42 250t121 214t189 149t246 55t234 -56.5t150.5 -158t52.5 -236.5q0 -129 -42 -248.5t-120.5 -213.5t-188.5 -148.5t-246 -54.5zM511 159q93 0 163 43t117.5 114.5t71.5 157t24 170.5q0 81 -26.5 140.5t-78.5 91.5
t-128 32q-90 0 -160 -42.5t-118 -113.5t-73 -157t-25 -174q0 -120 60 -191t173 -71zM745 1513q90 0 153 -38.5t91.5 -104t15.5 -145.5h-146q12 66 -27.5 108t-109.5 42t-123.5 -42t-64.5 -108h-145q14 80 64 145.5t126 104t166 38.5z" />
    <glyph glyph-name="uni0210" unicode="&#x210;" horiz-adv-x="1312" 
d="M54 0l247 1490h555q163 0 270.5 -57.5t153.5 -162t22 -245.5q-23 -141 -105 -245t-210.5 -160.5t-291.5 -56.5h-419l31 191h419q99 0 173.5 34t121 96.5t60.5 145.5q21 127 -49 197t-217 70h-323l-214 -1297h-224zM924 0l-244 672h232l251 -672h-239zM906 1626l-126 302
h219l72 -302h-165zM591 1626l-180 302h225l124 -302h-169z" />
    <glyph glyph-name="uni0211" unicode="&#x211;" horiz-adv-x="717" 
d="M37 0l177 1070h205l-29 -173h6q44 88 118 137t174 49q23 0 44.5 -1.5t35.5 -3.5l-33 -199q-13 2 -44 6t-67 4q-63 0 -119 -28.5t-95.5 -84.5t-53.5 -140l-106 -636h-213zM588 1206l-126 302h219l72 -302h-165zM273 1206l-180 302h225l124 -302h-169z" />
    <glyph glyph-name="uni0212" unicode="&#x212;" horiz-adv-x="1312" 
d="M54 0l247 1490h555q163 0 270.5 -57.5t153.5 -162t22 -245.5q-23 -141 -105 -245t-210.5 -160.5t-291.5 -56.5h-419l31 191h419q99 0 173.5 34t121 96.5t60.5 145.5q21 127 -49 197t-217 70h-323l-214 -1297h-224zM924 0l-244 672h232l251 -672h-239zM876 1933
q90 0 153 -38.5t91.5 -104t15.5 -145.5h-146q12 66 -27.5 108t-109.5 42t-123.5 -42t-64.5 -108h-145q14 80 64 145.5t126 104t166 38.5z" />
    <glyph glyph-name="uni0213" unicode="&#x213;" horiz-adv-x="717" 
d="M37 0l177 1070h205l-29 -173h6q44 88 118 137t174 49q23 0 44.5 -1.5t35.5 -3.5l-33 -199q-13 2 -44 6t-67 4q-63 0 -119 -28.5t-95.5 -84.5t-53.5 -140l-106 -636h-213zM559 1513q90 0 153 -38.5t91.5 -104t15.5 -145.5h-146q12 66 -27.5 108t-109.5 42t-123.5 -42
t-64.5 -108h-145q14 80 64 145.5t126 104t166 38.5z" />
    <glyph glyph-name="uni0214" unicode="&#x214;" horiz-adv-x="1457" 
d="M649 -24q-182 0 -306.5 71t-179.5 193t-29 278l161 972h222l-160 -969q-16 -102 14 -179t103 -120.5t183 -43.5q117 0 210.5 47t154 128t76.5 183l158 954h222l-163 -987q-26 -155 -117 -274.5t-232 -186t-317 -66.5zM989 1626l-126 302h219l72 -302h-165zM674 1626
l-180 302h225l124 -302h-169z" />
    <glyph glyph-name="uni0215" unicode="&#x215;" 
d="M416 -19q-109 0 -188 47t-113 140.5t-12 231.5l111 670h214l-107 -643q-20 -125 30.5 -191t159.5 -66q72 0 135 30t107.5 92t59.5 158l103 620h213l-177 -1070h-208l43 265h43q-74 -144 -178.5 -214t-235.5 -70zM775 1206l-126 302h219l72 -302h-165zM460 1206l-180 302
h225l124 -302h-169z" />
    <glyph glyph-name="uni0216" unicode="&#x216;" horiz-adv-x="1457" 
d="M649 -24q-182 0 -306.5 71t-179.5 193t-29 278l161 972h222l-160 -969q-16 -102 14 -179t103 -120.5t183 -43.5q117 0 210.5 47t154 128t76.5 183l158 954h222l-163 -987q-26 -155 -117 -274.5t-232 -186t-317 -66.5zM960 1933q90 0 153 -38.5t91.5 -104t15.5 -145.5
h-146q12 66 -27.5 108t-109.5 42t-123.5 -42t-64.5 -108h-145q14 80 64 145.5t126 104t166 38.5z" />
    <glyph glyph-name="uni0217" unicode="&#x217;" 
d="M416 -19q-109 0 -188 47t-113 140.5t-12 231.5l111 670h214l-107 -643q-20 -125 30.5 -191t159.5 -66q72 0 135 30t107.5 92t59.5 158l103 620h213l-177 -1070h-208l43 265h43q-74 -144 -178.5 -214t-235.5 -70zM745 1513q90 0 153 -38.5t91.5 -104t15.5 -145.5h-146
q12 66 -27.5 108t-109.5 42t-123.5 -42t-64.5 -108h-145q14 80 64 145.5t126 104t166 38.5z" />
    <glyph glyph-name="uni0218" unicode="&#x218;" horiz-adv-x="1293" 
d="M575 -24q-177 0 -298.5 59.5t-175 170t-30.5 262.5h222q-13 -94 18 -161t102 -101.5t175 -34.5q101 0 182.5 30.5t134 86t63.5 128.5q10 58 -12.5 99t-79 71.5t-151.5 54.5l-160 42q-205 52 -295 149.5t-64 257.5q21 128 101.5 223t205.5 147.5t280 52.5q161 0 272 -56
t163 -158.5t33 -242.5h-215q11 123 -61 192.5t-208 69.5q-92 0 -167 -30t-123 -83t-60 -121q-9 -56 15.5 -95.5t81 -67.5t145.5 -51l150 -39q99 -25 174.5 -62t124 -88t67 -119t4.5 -154q-21 -130 -103 -227.5t-212 -151t-299 -53.5zM291 -489l146 371h211l-197 -371h-160z
" />
    <glyph glyph-name="uni0219" unicode="&#x219;" horiz-adv-x="1026" 
d="M438 -24q-117 0 -206.5 34.5t-140.5 102.5t-53 167v17.5t1 16.5l208 7q-2 -87 47 -131t147 -44q68 0 126 21.5t94 60.5t37 89q2 44 -30.5 70.5t-94.5 41.5l-172 39q-133 31 -199.5 100t-63.5 173q3 106 65 185t164.5 122t224.5 43q168 0 268.5 -76.5t105.5 -207.5v-23.5
t-2 -24.5l-201 -7q7 79 -39.5 124.5t-135.5 45.5q-66 0 -119 -23t-84.5 -62t-32.5 -86q-2 -43 30.5 -70t98.5 -43l173 -40q136 -31 200.5 -96t61.5 -166q-3 -83 -41 -149.5t-104 -114t-151.5 -72t-181.5 -24.5zM156 -489l146 371h211l-197 -371h-160z" />
    <glyph glyph-name="uni021A.1" unicode="&#x21a;" horiz-adv-x="1284" 
d="M184 1295l33 195h1167l-33 -195h-471l-214 -1295h-224l214 1295h-472zM284 -489l146 371h211l-197 -371h-160z" />
    <glyph glyph-name="uni021B" unicode="&#x21b;" horiz-adv-x="681" 
d="M716 1070l-29 -176h-611l29 176h611zM334 1353h213l-177 -1068q-10 -61 11.5 -86t84.5 -25q22 0 51 1t50 2l-20 -175q-28 -3 -65.5 -4t-72.5 -1q-150 0 -213.5 66t-42.5 196zM44 -489l146 371h211l-197 -371h-160z" />
    <glyph glyph-name="uni021C" unicode="&#x21c;" horiz-adv-x="1272" 
d="M169 332l30 177q185 53 325.5 108t238 119t153.5 141.5t73 175.5q20 127 -42 194.5t-195 67.5q-86 0 -152 -27t-107 -74.5t-51 -110.5h-241q20 124 101 215t205.5 141.5t277.5 50.5q151 0 260 -49.5t160 -145.5t27 -237q-22 -135 -107.5 -250.5t-224.5 -210t-324.5 -166
t-406.5 -119.5zM775 621l114 136q94 -22 155.5 -76t85 -141t1.5 -210q-28 -173 -120.5 -300.5t-236 -217.5t-330 -150t-403.5 -98l33 193q176 34 317.5 81.5t245.5 116t168.5 164t85.5 226.5q21 122 -5.5 187.5t-110.5 88.5z" />
    <glyph glyph-name="uni021D" unicode="&#x21d;" horiz-adv-x="1084" 
d="M141 193l30 170q179 45 305 106t197 138t86 169q13 84 -28.5 129.5t-131.5 45.5q-61 0 -109 -21.5t-77.5 -60t-39.5 -92.5h-231q18 108 81 188t166 123.5t238 43.5q192 0 293 -91t75 -251q-23 -137 -132.5 -254t-293 -205t-428.5 -138zM589 436l115 110q127 -34 181 -127
t29 -239q-42 -250 -261 -403.5t-615 -212.5l30 177q203 50 332 112t196 145.5t87 196.5q15 94 -10 157.5t-84 83.5z" />
    <glyph glyph-name="uni021E" unicode="&#x21e;" horiz-adv-x="1473" 
d="M54 0l247 1490h224l-105 -631h740l104 631h224l-247 -1490h-224l111 664h-740l-110 -664h-224zM826 1928l112 -173l168 173h196l-1 -2l-288 -281h-189l-192 281l1 2h193z" />
    <glyph glyph-name="uni021F" unicode="&#x21f;" 
d="M353 620l-103 -620h-213l247 1490h213l-114 -685h-48q51 96 111.5 159t133.5 94t161 31q110 0 191 -47.5t117.5 -140.5t13.5 -232l-111 -669h-214l107 643q21 126 -29.5 191.5t-160.5 65.5q-72 0 -135 -30t-107 -92t-60 -158zM322 1928l112 -173l168 173h196l-1 -2
l-288 -281h-189l-192 281l1 2h193z" />
    <glyph glyph-name="uni0220" unicode="&#x220;" horiz-adv-x="1273" 
d="M1013 -416h-236l239 1447q24 147 -42.5 217.5t-221.5 71.5q-110 -1 -214.5 -40t-196.5 -111l33 197q53 38 121 71t147.5 53t165.5 20q138 0 248 -54t165 -160.5t29 -264.5zM489 1490l-248 -1490h-232l248 1490h232z" />
    <glyph glyph-name="uni0221" unicode="&#x221;" horiz-adv-x="1519" 
d="M1042 -418q-122 0 -189 47t-88.5 122.5t-7.5 161.5l53 321h213l-58 -354q-11 -67 21.5 -102t83.5 -35q49 0 84 29.5t43 75.5q7 42 -14 70.5t-67 34.5q-33 5 -65.5 -3t-66 -27t-71.5 -47l-326 -267l-99 134l287 234q81 67 177.5 105t184.5 38q137 0 211 -76.5t54 -198.5
q-19 -120 -115.5 -191.5t-244.5 -71.5zM453 -21q-181 0 -285 118t-104 316q0 126 37.5 246t108.5 217.5t172.5 155t229.5 57.5q79 0 139.5 -24t102.5 -66t64 -96h3l97 587h213l-246 -1490h-209l26 161h-5q-41 -59 -92.5 -99.5t-115 -61.5t-136.5 -21zM503 162q90 0 160 42
t119 112t75 155.5t26 172.5q0 122 -60 192.5t-172 70.5q-90 0 -159.5 -42.5t-117 -113t-72 -156.5t-24.5 -175q0 -124 59.5 -191t165.5 -67z" />
    <glyph glyph-name="uni0222" unicode="&#x222;" horiz-adv-x="1272" 
d="M680 896h24q160 0 277.5 -51.5t173.5 -151t32 -246.5q-25 -154 -115.5 -258t-225 -156.5t-294.5 -52.5h-24q-158 0 -276 52t-174 155t-30 256q24 149 113 249.5t223.5 152t295.5 51.5zM674 716h-23q-144 0 -241 -68t-120 -205q-23 -136 52 -201.5t219 -64.5h23
q143 -1 240 64t120 205q21 135 -53.5 202.5t-216.5 67.5zM675 915h38q88 0 160.5 14.5t121 60t62.5 136.5q14 85 -20 132t-114 67l30 185q118 -4 203 -47.5t124.5 -127t19.5 -209.5q-24 -146 -112.5 -231t-220 -121.5t-284.5 -36.5h-38q-114 0 -210 20t-164.5 64.5
t-98.5 119.5t-12 185q21 126 88.5 209.5t167.5 127t217 47.5l-31 -185q-87 -20 -136 -66.5t-64 -133.5q-15 -91 18.5 -136t101 -59.5t153.5 -14.5z" />
    <glyph glyph-name="uni0223" unicode="&#x223;" horiz-adv-x="1271" 
d="M678 887h23q158 1 275 -47.5t173.5 -147.5t31.5 -249q-26 -155 -115.5 -257.5t-222.5 -154t-292 -51.5h-23q-157 0 -274 51t-173 153.5t-30 257.5q25 151 114 250t222.5 147.5t290.5 47.5zM673 716h-21q-146 0 -245.5 -70t-122.5 -205q-21 -135 54 -204.5t221 -69.5h23
q145 0 244 69.5t121 206.5q22 134 -53 203t-221 70zM711 903q89 0 163 21t124.5 73t64.5 145q18 100 -18 154t-114 85l30 175q114 -3 197.5 -51t122.5 -139t16 -223q-25 -151 -114.5 -241.5t-220.5 -129.5t-280 -40h-37q-149 1 -266.5 40.5t-177.5 129.5t-35 242
q22 131 90.5 221.5t168.5 139t215 51.5l-30 -175q-84 -31 -138 -85t-71 -154q-15 -94 18.5 -146t101 -72.5t153.5 -20.5h37z" />
    <glyph glyph-name="uni0224" unicode="&#x224;" horiz-adv-x="1262" 
d="M571 -418l31 185q17 -1 48 -1h50q64 0 93 23t38 74l23 137h223l-24 -148q-22 -134 -112.5 -203.5t-242.5 -69.5q-39 0 -71.5 1t-55.5 2zM14 0l25 148l970 1151h-786l32 191h1063l-24 -149l-971 -1150h786l-32 -191h-1063z" />
    <glyph glyph-name="uni0225" unicode="&#x225;" horiz-adv-x="1040" 
d="M729 -216l7 47q12 71 -7 120t-101 49h-615l25 152l690 731l1 5h-565l30 182h826l-27 -161l-678 -722l-1 -5h354q150 0 217.5 -87.5t44.5 -229.5l-13 -81h-188z" />
    <glyph glyph-name="uni0226" unicode="&#x226;" horiz-adv-x="1395" 
d="M-64 0l785 1490h271l291 -1490h-234l-148 838q-17 103 -36.5 233.5t-45.5 319.5h59q-86 -188 -148 -318t-116 -235l-431 -838h-247zM297 388l32 189h752l-31 -189h-753zM887 1669q-57 0 -89 37.5t-24 92.5q9 55 54 92.5t102 37.5q56 0 89 -38t24 -92q-8 -55 -54 -92.5
t-102 -37.5z" />
    <glyph glyph-name="uni0227" unicode="&#x227;" horiz-adv-x="1199" 
d="M441 -21q-137 0 -229 69.5t-129 194.5t-10 292q28 167 106.5 291.5t194 193.5t251.5 69q76 0 135 -22.5t99 -62.5t62 -93h5l26 159h210l-178 -1070h-208l27 163h-6q-41 -56 -95 -97t-119.5 -64t-141.5 -23zM516 162q91 0 164.5 46.5t123.5 130.5t68 196q19 113 -3 196.5
t-80.5 129.5t-149.5 46q-87 0 -159.5 -44.5t-121.5 -127t-69 -200.5q-19 -117 3 -200.5t79.5 -128t144.5 -44.5zM711 1249q-57 0 -89 37.5t-24 92.5q9 55 54 92.5t102 37.5q56 0 89 -38t24 -92q-8 -55 -54 -92.5t-102 -37.5z" />
    <glyph glyph-name="uni0228" unicode="&#x228;" horiz-adv-x="1210" 
d="M54 0l247 1490h988l-33 -195h-764l-72 -441h708l-33 -192h-708l-77 -467h765l-32 -195h-989zM369 -418l18 110h118q50 0 75.5 15.5t30.5 48.5q6 32 -14.5 48t-69.5 16h-83l70 227h101l-8 -47l-14 -84q89 -3 131.5 -46t30.5 -116q-15 -88 -83 -130t-178 -42h-125z" />
    <glyph glyph-name="uni0229" unicode="&#x229;" horiz-adv-x="1121" 
d="M503 -24q-134 0 -233.5 51t-153 154.5t-48.5 259.5q3 145 49 264.5t128 206.5t191 134t236 47q111 0 196 -35.5t133 -104t48 -166.5q0 -101 -54 -167.5t-161.5 -105t-268 -55t-375.5 -16.5l26 158q186 0 307.5 10.5t191 32.5t98.5 57t29 83q0 61 -49.5 96t-142.5 35
q-102 0 -173 -42t-115 -112.5t-64.5 -155.5t-21.5 -172q-1 -75 18.5 -139t72.5 -102.5t151 -38.5q107 0 183 46.5t110 122.5l204 -10q-56 -151 -189 -243.5t-323 -92.5zM318 -418l18 110h118q50 0 75.5 15.5t30.5 48.5q6 32 -14.5 48t-69.5 16h-83l70 227h101l-8 -47
l-14 -84q89 -3 131.5 -46t30.5 -116q-15 -88 -83 -130t-178 -42h-125z" />
    <glyph glyph-name="uni022A" unicode="&#x22a;" horiz-adv-x="1542" 
d="M691 -23q-176 0 -306 75.5t-202 213.5t-72 324q0 178 58 343.5t165 296t256 207t331 76.5q175 0 305 -75.5t202 -213.5t72 -325q0 -179 -58.5 -344.5t-166 -296t-256 -206t-328.5 -75.5zM700 181q134 0 241 61t182.5 164.5t115 231t39.5 260.5q0 134 -47 225.5
t-129.5 138.5t-189.5 47q-135 0 -242 -61.5t-182 -165t-115 -231t-40 -260.5t46.5 -224.5t129.5 -138.5t191 -47zM1160 1632q-55 0 -86.5 37.5t-22.5 91.5t53 91.5t99 37.5t86.5 -37.5t22.5 -91.5q-8 -54 -52.5 -91.5t-99.5 -37.5zM733 1632q-55 0 -86.5 37.5t-22.5 91.5
q8 54 52.5 91.5t98.5 37.5q56 0 87.5 -37.5t22.5 -91.5q-8 -54 -52.5 -91.5t-99.5 -37.5zM1344 2148l-26 -140h-561l26 140h561z" />
    <glyph glyph-name="uni022B" unicode="&#x22b;" 
d="M503 -24q-136 0 -234 56t-151 157t-53 235q0 130 42 250t121 214t189 149t246 55t234 -56.5t150.5 -158t52.5 -236.5q0 -129 -42 -248.5t-120.5 -213.5t-188.5 -148.5t-246 -54.5zM511 159q93 0 163 43t117.5 114.5t71.5 157t24 170.5q0 81 -26.5 140.5t-78.5 91.5
t-128 32q-90 0 -160 -42.5t-118 -113.5t-73 -157t-25 -174q0 -120 60 -191t173 -71zM902 1212q-55 0 -86.5 37.5t-22.5 91.5t53 91.5t99 37.5t86.5 -37.5t22.5 -91.5q-8 -54 -52.5 -91.5t-99.5 -37.5zM475 1212q-55 0 -86.5 37.5t-22.5 91.5q8 54 52.5 91.5t98.5 37.5
q56 0 87.5 -37.5t22.5 -91.5q-8 -54 -52.5 -91.5t-99.5 -37.5zM1086 1728l-26 -140h-561l26 140h561z" />
    <glyph glyph-name="uni022C" unicode="&#x22c;" horiz-adv-x="1542" 
d="M691 -23q-176 0 -306 75.5t-202 213.5t-72 324q0 178 58 343.5t165 296t256 207t331 76.5q175 0 305 -75.5t202 -213.5t72 -325q0 -179 -58.5 -344.5t-166 -296t-256 -206t-328.5 -75.5zM700 181q134 0 241 61t182.5 164.5t115 231t39.5 260.5q0 134 -47 225.5
t-129.5 138.5t-189.5 47q-135 0 -242 -61.5t-182 -165t-115 -231t-40 -260.5t46.5 -224.5t129.5 -138.5t191 -47zM1088 1641q-40 0 -73.5 13t-62 31t-52.5 31t-44 13q-28 0 -46 -25.5t-24 -58.5h-138q20 102 74.5 163t138.5 61q41 0 73 -13.5t58.5 -31.5t50 -31.5
t48.5 -13.5q29 0 45.5 21t28.5 65h133q-20 -104 -76.5 -164t-133.5 -60zM1343 2148l-26 -140h-561l26 140h561z" />
    <glyph glyph-name="uni022D" unicode="&#x22d;" 
d="M503 -24q-136 0 -234 56t-151 157t-53 235q0 130 42 250t121 214t189 149t246 55t234 -56.5t150.5 -158t52.5 -236.5q0 -129 -42 -248.5t-120.5 -213.5t-188.5 -148.5t-246 -54.5zM511 159q93 0 163 43t117.5 114.5t71.5 157t24 170.5q0 81 -26.5 140.5t-78.5 91.5
t-128 32q-90 0 -160 -42.5t-118 -113.5t-73 -157t-25 -174q0 -120 60 -191t173 -71zM831 1221q-40 0 -73.5 13t-62 31t-52.5 31t-44 13q-28 0 -46 -25.5t-24 -58.5h-138q20 102 74.5 163t138.5 61q41 0 73 -13.5t58.5 -31.5t50 -31.5t48.5 -13.5q29 0 45.5 21t28.5 65h133
q-20 -104 -76.5 -164t-133.5 -60zM1086 1728l-26 -140h-561l26 140h561z" />
    <glyph glyph-name="uni022E" unicode="&#x22e;" horiz-adv-x="1542" 
d="M691 -23q-176 0 -306 75.5t-202 213.5t-72 324q0 178 58 343.5t165 296t256 207t331 76.5q175 0 305 -75.5t202 -213.5t72 -325q0 -179 -58.5 -344.5t-166 -296t-256 -206t-328.5 -75.5zM700 181q134 0 241 61t182.5 164.5t115 231t39.5 260.5q0 134 -47 225.5
t-129.5 138.5t-189.5 47q-135 0 -242 -61.5t-182 -165t-115 -231t-40 -260.5t46.5 -224.5t129.5 -138.5t191 -47zM958 1669q-57 0 -89 37.5t-24 92.5q9 55 54 92.5t102 37.5q56 0 89 -38t24 -92q-8 -55 -54 -92.5t-102 -37.5z" />
    <glyph glyph-name="uni022F" unicode="&#x22f;" 
d="M503 -24q-136 0 -234 56t-151 157t-53 235q0 130 42 250t121 214t189 149t246 55t234 -56.5t150.5 -158t52.5 -236.5q0 -129 -42 -248.5t-120.5 -213.5t-188.5 -148.5t-246 -54.5zM511 159q93 0 163 43t117.5 114.5t71.5 157t24 170.5q0 81 -26.5 140.5t-78.5 91.5
t-128 32q-90 0 -160 -42.5t-118 -113.5t-73 -157t-25 -174q0 -120 60 -191t173 -71zM701 1249q-57 0 -89 37.5t-24 92.5q9 55 54 92.5t102 37.5q56 0 89 -38t24 -92q-8 -55 -54 -92.5t-102 -37.5z" />
    <glyph glyph-name="uni0230" unicode="&#x230;" horiz-adv-x="1542" 
d="M691 -23q-176 0 -306 75.5t-202 213.5t-72 324q0 178 58 343.5t165 296t256 207t331 76.5q175 0 305 -75.5t202 -213.5t72 -325q0 -179 -58.5 -344.5t-166 -296t-256 -206t-328.5 -75.5zM700 181q134 0 241 61t182.5 164.5t115 231t39.5 260.5q0 134 -47 225.5
t-129.5 138.5t-189.5 47q-135 0 -242 -61.5t-182 -165t-115 -231t-40 -260.5t46.5 -224.5t129.5 -138.5t191 -47zM953 1631q-56 0 -88.5 37.5t-24.5 92.5q9 55 54.5 92.5t101.5 37.5q57 0 89.5 -37.5t23.5 -92.5q-8 -55 -53.5 -92.5t-102.5 -37.5zM1344 2148l-26 -140h-561
l26 140h561z" />
    <glyph glyph-name="uni0231" unicode="&#x231;" 
d="M503 -24q-136 0 -234 56t-151 157t-53 235q0 130 42 250t121 214t189 149t246 55t234 -56.5t150.5 -158t52.5 -236.5q0 -129 -42 -248.5t-120.5 -213.5t-188.5 -148.5t-246 -54.5zM511 159q93 0 163 43t117.5 114.5t71.5 157t24 170.5q0 81 -26.5 140.5t-78.5 91.5
t-128 32q-90 0 -160 -42.5t-118 -113.5t-73 -157t-25 -174q0 -120 60 -191t173 -71zM695 1211q-56 0 -88.5 37.5t-24.5 92.5q9 55 54.5 92.5t101.5 37.5q57 0 89.5 -37.5t23.5 -92.5q-8 -55 -53.5 -92.5t-102.5 -37.5zM1086 1728l-26 -140h-561l26 140h561z" />
    <glyph glyph-name="uni0232" unicode="&#x232;" horiz-adv-x="1366" 
d="M484 0l99 595l-401 895h245l204 -472q31 -70 57.5 -139t52.5 -146h-73q50 77 100 146.5t102 138.5l359 472h270l-694 -895l-99 -595h-222zM1182 1857l-26 -157h-561l26 157h561z" />
    <glyph glyph-name="uni0233" unicode="&#x233;" horiz-adv-x="1099" 
d="M-24 -414l41 178l94 -2q39 -3 70 8.5t58 40.5t52 77l61 117l-235 1065h219l115 -592q17 -87 29.5 -174t24.5 -173h-60q40 86 82 173t87 174l310 592h235l-688 -1248q-42 -78 -97 -132t-121 -82t-140 -28q-37 0 -72 2t-65 4zM970 1437l-26 -157h-561l26 157h561z" />
    <glyph glyph-name="uni0234" unicode="&#x234;" horiz-adv-x="785" 
d="M307 -418q-122 0 -189 47t-88 122.5t-7 161.5l52 321h214l-59 -354q-11 -67 21.5 -102t84.5 -35q48 0 83 29.5t43 75.5q8 42 -13.5 70.5t-66.5 34.5q-33 5 -65.5 -3t-66.5 -27t-72 -47l-326 -267l-99 134l287 234q82 67 178 105t184 38q138 0 211.5 -76.5t54.5 -198.5
q-20 -120 -116 -191.5t-245 -71.5zM497 1490l-247 -1490h-213l247 1490h213z" />
    <glyph glyph-name="uni0235" unicode="&#x235;" horiz-adv-x="1485" 
d="M1009 -418q-122 0 -189 47t-88.5 122.5t-7.5 161.5l53 321h213l-58 -354q-11 -67 21.5 -102t83.5 -35q48 0 83.5 29.5t43.5 75.5q7 42 -14 70.5t-67 34.5q-33 5 -65.5 -3t-66 -27t-71.5 -47l-327 -267l-98 134l287 234q81 67 177.5 105t184.5 38q137 0 211 -76.5
t54 -198.5q-19 -120 -115.5 -191.5t-244.5 -71.5zM352 612l-102 -612h-213l177 1070h207l-42 -265l-45 6q75 144 175.5 211t227.5 67q113 0 194 -49t117.5 -144t12.5 -234l-109 -662h-213l107 650q21 126 -28 188t-154 62q-75 0 -140.5 -32t-110.5 -95.5t-61 -160.5z" />
    <glyph glyph-name="uni0236" unicode="&#x236;" horiz-adv-x="861" 
d="M421 -19q-122 0 -189 47t-88 122.5t-7 162.5l52 321h214l-59 -355q-11 -67 21.5 -102t84.5 -35q48 0 83.5 29.5t42.5 75.5q8 42 -13.5 70.5t-66.5 34.5q-33 5 -65.5 -3t-66.5 -26.5t-72 -47.5l-326 -267l-98 135l286 233q82 67 178 105t185 38q137 0 211 -76t54 -199
q-20 -119 -116 -191t-245 -72zM151 399l158 954h213l-158 -954h-213zM76 895l29 175h589l-29 -175h-589z" />
    <glyph glyph-name="uni0237" unicode="&#x237;" horiz-adv-x="464" 
d="M214 1070h213l-197 -1186q-14 -91 -61.5 -159t-124 -105.5t-178.5 -37.5h-79l30 180h55q66 0 101.5 35t47.5 109z" />
    <glyph glyph-name="uni0238" unicode="&#x238;" horiz-adv-x="1834" 
d="M1750 564l-2 -20q-27 -164 -101.5 -291.5t-184.5 -200t-246 -72.5q-99 0 -167 38t-108.5 110t-56 173t-7.5 226l10 53q44 170 116 294t174 191t235 67q135 0 218.5 -70.5t114 -198t5.5 -299.5zM1514 544l3 20q18 107 6.5 192.5t-59.5 135t-141 49.5q-123 0 -202.5 -84
t-117.5 -208l-31 -189q4 -83 25.5 -148.5t70 -103t130.5 -37.5q95 0 159.5 49.5t103 134t53.5 189.5zM744 220l211 1270h235l-248 -1490h-212zM83 544l3 20q25 172 98.5 299.5t184 198t245.5 70.5q133 0 212 -67t110 -191t19 -294l-10 -53q-43 -167 -115 -290t-172.5 -190
t-232.5 -67q-134 0 -220 72.5t-117.5 200t-4.5 291.5zM320 564l-2 -20q-15 -105 -6 -189.5t55.5 -134t141.5 -49.5q122 -1 199 81.5t122 207.5l32 189q1 82 -20.5 148.5t-70.5 105t-131 38.5q-94 0 -159 -49.5t-104 -135t-57 -192.5z" />
    <glyph glyph-name="uni0239" unicode="&#x239;" horiz-adv-x="1834" 
d="M640 -416l218 1321l58 213h192l-16 -208l-218 -1326h-234zM83 544l4 20q27 172 100 299.5t182.5 198t244.5 70.5q132 0 211 -67t110.5 -190.5t19.5 -294.5l-10 -53q-43 -167 -115 -290t-172.5 -190t-232.5 -67q-134 0 -220 72.5t-117.5 200t-4.5 291.5zM320 564l-2 -20
q-16 -104 -6.5 -189t56 -134.5t141.5 -49.5q122 -1 198 81.5t123 207.5l32 189q3 83 -19.5 149.5t-72 104.5t-130.5 38q-94 0 -159 -50t-104 -135t-57 -192zM1750 564l-2 -20q-27 -165 -101 -292.5t-184.5 -199.5t-246.5 -72q-98 0 -166.5 38t-109 110t-56 173t-7.5 226
l10 53q45 170 116.5 293.5t173.5 191t235 67.5q135 0 219 -70.5t115 -198t4 -299.5zM1514 544l3 20q18 107 6.5 192.5t-59.5 135t-141 49.5q-123 0 -201.5 -84t-117.5 -208l-32 -189q3 -83 25 -148.5t71 -103t130 -37.5q95 0 159 49.5t102.5 134.5t54.5 189z" />
    <glyph glyph-name="uni023A" unicode="&#x23a;" horiz-adv-x="1395" 
d="M1311 1678l-955 -1868h-150l955 1868h150zM-64 0l785 1490h271l291 -1490h-234l-148 838q-17 103 -36.5 233.5t-45.5 319.5h59q-86 -188 -148 -318t-116 -235l-431 -838h-247zM297 388l32 189h752l-31 -189h-753z" />
    <glyph glyph-name="uni023B" unicode="&#x23b;" horiz-adv-x="1488" 
d="M207 -190l953 1868h174l-954 -1868h-173zM698 -23q-180 0 -312 75.5t-203.5 213t-71.5 323.5q0 179 58 345t165.5 297t258 206.5t335.5 75.5q122 0 223.5 -35.5t174.5 -103t113.5 -162.5t39.5 -215h-225q-4 75 -29 133t-68.5 98t-103 60.5t-133.5 20.5q-138 0 -247 -61
t-184.5 -164.5t-115.5 -231.5t-40 -261q0 -127 44 -219t128.5 -141.5t203.5 -49.5q77 0 147.5 20.5t130.5 60t106.5 97.5t76.5 133h226q-38 -117 -106.5 -212t-161 -163t-201.5 -104t-229 -36z" />
    <glyph glyph-name="uni023C" unicode="&#x23c;" horiz-adv-x="1112" 
d="M-18 -418l1022 1908h148l-1022 -1908h-148zM501 -24q-134 0 -232.5 55.5t-151 156t-52.5 233.5q0 127 41 246.5t119 215.5t188 152.5t248 56.5q93 0 169.5 -27.5t131.5 -77t84.5 -118t27.5 -151.5l-210 -9q-1 43 -14 79.5t-38 63.5t-63.5 42t-91.5 15q-91 0 -161.5 -42.5
t-118.5 -113t-73 -157t-25 -174.5q0 -80 25 -139t76.5 -91.5t127.5 -32.5q55 0 101 15t84 42t66 64.5t47 82.5l209 -12q-25 -82 -73.5 -150.5t-116 -119t-150 -78t-174.5 -27.5z" />
    <glyph glyph-name="uni023D" unicode="&#x23d;" horiz-adv-x="1192" 
d="M125 0l247 1490h224l-215 -1295h697l-32 -195h-921zM43 657l29 176h779l-29 -176h-779z" />
    <glyph glyph-name="uni023E" unicode="&#x23e;" horiz-adv-x="1284" 
d="M134 -190l956 1868h172l-955 -1868h-173zM184 1295l33 195h1167l-33 -195h-471l-214 -1295h-224l214 1295h-472z" />
    </font>
</defs>
</svg>
